G04 #@! TF.GenerationSoftware,KiCad,Pcbnew,8.0.7*
G04 #@! TF.CreationDate,2025-01-11T17:49:48-05:00*
G04 #@! TF.ProjectId,STM32H750VBT6_Minimalistic_Design,53544d33-3248-4373-9530-564254365f4d,rev?*
G04 #@! TF.SameCoordinates,Original*
G04 #@! TF.FileFunction,Legend,Bot*
G04 #@! TF.FilePolarity,Positive*
%FSLAX46Y46*%
G04 Gerber Fmt 4.6, Leading zero omitted, Abs format (unit mm)*
G04 Created by KiCad (PCBNEW 8.0.7) date 2025-01-11 17:49:48*
%MOMM*%
%LPD*%
G01*
G04 APERTURE LIST*
%ADD10R,1.700000X1.700000*%
%ADD11O,1.700000X1.700000*%
%ADD12C,0.650000*%
%ADD13O,1.000000X2.100000*%
%ADD14O,1.000000X1.800000*%
%ADD15C,0.900000*%
%ADD16C,3.200000*%
%ADD17R,1.500000X1.500000*%
%ADD18C,1.500000*%
G04 APERTURE END LIST*
%LPC*%
D10*
X164800000Y-85970000D03*
D11*
X164800000Y-88510000D03*
X164800000Y-91050000D03*
X164800000Y-93590000D03*
X164800000Y-96130000D03*
D12*
X145290000Y-85800000D03*
X139510000Y-85800000D03*
D13*
X146720000Y-86300000D03*
D14*
X146720000Y-82120000D03*
D13*
X138080000Y-86300000D03*
D14*
X138080000Y-82120000D03*
D15*
X122975000Y-82315000D03*
X118725000Y-82315000D03*
D10*
X153400000Y-103775000D03*
D11*
X153400000Y-106315000D03*
X153400000Y-108855000D03*
X153400000Y-111395000D03*
X153400000Y-113935000D03*
X153400000Y-116475000D03*
X153400000Y-119015000D03*
X153400000Y-121555000D03*
X153400000Y-124095000D03*
X153400000Y-126635000D03*
D10*
X157200000Y-98660000D03*
D11*
X157200000Y-101200000D03*
X157200000Y-103740000D03*
X157200000Y-106280000D03*
X157200000Y-108820000D03*
X157200000Y-111360000D03*
X157200000Y-113900000D03*
X157200000Y-116440000D03*
X157200000Y-118980000D03*
X157200000Y-121520000D03*
X157200000Y-124060000D03*
X157200000Y-126600000D03*
D10*
X164800000Y-98720000D03*
D11*
X164800000Y-101260000D03*
X164800000Y-103800000D03*
X164800000Y-106340000D03*
X164800000Y-108880000D03*
X164800000Y-111420000D03*
X164800000Y-113960000D03*
X164800000Y-116500000D03*
X164800000Y-119040000D03*
X164800000Y-121580000D03*
X164800000Y-124120000D03*
X164800000Y-126660000D03*
D10*
X126200000Y-81660000D03*
D11*
X126200000Y-84200000D03*
X126200000Y-86740000D03*
D16*
X114850000Y-115910000D03*
X114850000Y-127340000D03*
D17*
X121200000Y-117180000D03*
D18*
X123740000Y-118450000D03*
X121200000Y-119720000D03*
X123740000Y-120990000D03*
X121200000Y-122260000D03*
X123740000Y-123530000D03*
X121200000Y-124800000D03*
X123740000Y-126070000D03*
D10*
X138720000Y-127400000D03*
D11*
X141260000Y-127400000D03*
X143800000Y-127400000D03*
X146340000Y-127400000D03*
D10*
X133800000Y-81600000D03*
D11*
X133800000Y-84140000D03*
X133800000Y-86680000D03*
D10*
X161000000Y-98660000D03*
D11*
X161000000Y-101200000D03*
X161000000Y-103740000D03*
X161000000Y-106280000D03*
X161000000Y-108820000D03*
X161000000Y-111360000D03*
X161000000Y-113900000D03*
X161000000Y-116440000D03*
X161000000Y-118980000D03*
X161000000Y-121520000D03*
X161000000Y-124060000D03*
X161000000Y-126600000D03*
D10*
X130000000Y-81660000D03*
D11*
X130000000Y-84200000D03*
X130000000Y-86740000D03*
D10*
X161000000Y-96120000D03*
D11*
X161000000Y-93580000D03*
X161000000Y-91040000D03*
X161000000Y-88500000D03*
X161000000Y-85960000D03*
%LPD*%
M02*
