G04 #@! TF.GenerationSoftware,KiCad,Pcbnew,8.0.7*
G04 #@! TF.CreationDate,2025-01-11T17:49:48-05:00*
G04 #@! TF.ProjectId,STM32H750VBT6_Minimalistic_Design,53544d33-3248-4373-9530-564254365f4d,rev?*
G04 #@! TF.SameCoordinates,Original*
G04 #@! TF.FileFunction,Legend,Top*
G04 #@! TF.FilePolarity,Positive*
%FSLAX46Y46*%
G04 Gerber Fmt 4.6, Leading zero omitted, Abs format (unit mm)*
G04 Created by KiCad (PCBNEW 8.0.7) date 2025-01-11 17:49:48*
%MOMM*%
%LPD*%
G01*
G04 APERTURE LIST*
G04 Aperture macros list*
%AMRoundRect*
0 Rectangle with rounded corners*
0 $1 Rounding radius*
0 $2 $3 $4 $5 $6 $7 $8 $9 X,Y pos of 4 corners*
0 Add a 4 corners polygon primitive as box body*
4,1,4,$2,$3,$4,$5,$6,$7,$8,$9,$2,$3,0*
0 Add four circle primitives for the rounded corners*
1,1,$1+$1,$2,$3*
1,1,$1+$1,$4,$5*
1,1,$1+$1,$6,$7*
1,1,$1+$1,$8,$9*
0 Add four rect primitives between the rounded corners*
20,1,$1+$1,$2,$3,$4,$5,0*
20,1,$1+$1,$4,$5,$6,$7,0*
20,1,$1+$1,$6,$7,$8,$9,0*
20,1,$1+$1,$8,$9,$2,$3,0*%
G04 Aperture macros list end*
%ADD10C,0.100000*%
%ADD11C,0.150000*%
%ADD12C,0.125000*%
%ADD13C,0.120000*%
%ADD14RoundRect,0.100000X0.130000X0.100000X-0.130000X0.100000X-0.130000X-0.100000X0.130000X-0.100000X0*%
%ADD15RoundRect,0.100000X-0.130000X-0.100000X0.130000X-0.100000X0.130000X0.100000X-0.130000X0.100000X0*%
%ADD16RoundRect,0.062500X0.375000X0.062500X-0.375000X0.062500X-0.375000X-0.062500X0.375000X-0.062500X0*%
%ADD17RoundRect,0.062500X0.062500X0.375000X-0.062500X0.375000X-0.062500X-0.375000X0.062500X-0.375000X0*%
%ADD18R,2.500000X2.500000*%
%ADD19R,1.700000X1.700000*%
%ADD20O,1.700000X1.700000*%
%ADD21RoundRect,0.100000X-0.100000X0.130000X-0.100000X-0.130000X0.100000X-0.130000X0.100000X0.130000X0*%
%ADD22C,0.650000*%
%ADD23RoundRect,0.150000X0.150000X0.425000X-0.150000X0.425000X-0.150000X-0.425000X0.150000X-0.425000X0*%
%ADD24RoundRect,0.075000X0.075000X0.500000X-0.075000X0.500000X-0.075000X-0.500000X0.075000X-0.500000X0*%
%ADD25O,1.000000X2.100000*%
%ADD26O,1.000000X1.800000*%
%ADD27RoundRect,0.150000X0.150000X-0.650000X0.150000X0.650000X-0.150000X0.650000X-0.150000X-0.650000X0*%
%ADD28RoundRect,0.140000X-0.140000X-0.170000X0.140000X-0.170000X0.140000X0.170000X-0.140000X0.170000X0*%
%ADD29C,0.900000*%
%ADD30RoundRect,0.187500X0.187500X0.712500X-0.187500X0.712500X-0.187500X-0.712500X0.187500X-0.712500X0*%
%ADD31RoundRect,0.150000X0.150000X0.750000X-0.150000X0.750000X-0.150000X-0.750000X0.150000X-0.750000X0*%
%ADD32RoundRect,0.225000X0.425000X0.225000X-0.425000X0.225000X-0.425000X-0.225000X0.425000X-0.225000X0*%
%ADD33RoundRect,0.075000X-0.075000X-0.725000X0.075000X-0.725000X0.075000X0.725000X-0.075000X0.725000X0*%
%ADD34RoundRect,0.075000X-0.725000X-0.075000X0.725000X-0.075000X0.725000X0.075000X-0.725000X0.075000X0*%
%ADD35RoundRect,0.100000X0.100000X-0.130000X0.100000X0.130000X-0.100000X0.130000X-0.100000X-0.130000X0*%
%ADD36RoundRect,0.150000X-0.150000X0.512500X-0.150000X-0.512500X0.150000X-0.512500X0.150000X0.512500X0*%
%ADD37RoundRect,0.225000X-0.225000X-0.250000X0.225000X-0.250000X0.225000X0.250000X-0.225000X0.250000X0*%
%ADD38R,1.500000X1.500000*%
%ADD39R,1.200000X1.400000*%
%ADD40C,3.200000*%
%ADD41C,1.500000*%
%ADD42RoundRect,0.225000X0.250000X-0.225000X0.250000X0.225000X-0.250000X0.225000X-0.250000X-0.225000X0*%
%ADD43RoundRect,0.225000X0.225000X0.250000X-0.225000X0.250000X-0.225000X-0.250000X0.225000X-0.250000X0*%
%ADD44R,1.000000X1.000000*%
%ADD45RoundRect,0.150000X-0.537500X-0.150000X0.537500X-0.150000X0.537500X0.150000X-0.537500X0.150000X0*%
%ADD46RoundRect,0.140000X0.140000X0.170000X-0.140000X0.170000X-0.140000X-0.170000X0.140000X-0.170000X0*%
%ADD47RoundRect,0.375000X0.375000X-0.625000X0.375000X0.625000X-0.375000X0.625000X-0.375000X-0.625000X0*%
%ADD48RoundRect,0.500000X1.400000X-0.500000X1.400000X0.500000X-1.400000X0.500000X-1.400000X-0.500000X0*%
%ADD49R,1.800000X1.000000*%
G04 APERTURE END LIST*
D10*
X134400000Y-81800000D02*
X136800000Y-83400000D01*
X124400000Y-82400000D02*
X124400000Y-81800000D01*
X134600000Y-82400000D02*
X124400000Y-82400000D01*
X136800000Y-83400000D02*
X136200000Y-83400000D01*
X136200000Y-83400000D02*
X134600000Y-82400000D01*
X124400000Y-81800000D02*
X134400000Y-81800000D01*
D11*
X147833333Y-109759580D02*
X147785714Y-109807200D01*
X147785714Y-109807200D02*
X147642857Y-109854819D01*
X147642857Y-109854819D02*
X147547619Y-109854819D01*
X147547619Y-109854819D02*
X147404762Y-109807200D01*
X147404762Y-109807200D02*
X147309524Y-109711961D01*
X147309524Y-109711961D02*
X147261905Y-109616723D01*
X147261905Y-109616723D02*
X147214286Y-109426247D01*
X147214286Y-109426247D02*
X147214286Y-109283390D01*
X147214286Y-109283390D02*
X147261905Y-109092914D01*
X147261905Y-109092914D02*
X147309524Y-108997676D01*
X147309524Y-108997676D02*
X147404762Y-108902438D01*
X147404762Y-108902438D02*
X147547619Y-108854819D01*
X147547619Y-108854819D02*
X147642857Y-108854819D01*
X147642857Y-108854819D02*
X147785714Y-108902438D01*
X147785714Y-108902438D02*
X147833333Y-108950057D01*
X148738095Y-108854819D02*
X148261905Y-108854819D01*
X148261905Y-108854819D02*
X148214286Y-109331009D01*
X148214286Y-109331009D02*
X148261905Y-109283390D01*
X148261905Y-109283390D02*
X148357143Y-109235771D01*
X148357143Y-109235771D02*
X148595238Y-109235771D01*
X148595238Y-109235771D02*
X148690476Y-109283390D01*
X148690476Y-109283390D02*
X148738095Y-109331009D01*
X148738095Y-109331009D02*
X148785714Y-109426247D01*
X148785714Y-109426247D02*
X148785714Y-109664342D01*
X148785714Y-109664342D02*
X148738095Y-109759580D01*
X148738095Y-109759580D02*
X148690476Y-109807200D01*
X148690476Y-109807200D02*
X148595238Y-109854819D01*
X148595238Y-109854819D02*
X148357143Y-109854819D01*
X148357143Y-109854819D02*
X148261905Y-109807200D01*
X148261905Y-109807200D02*
X148214286Y-109759580D01*
D10*
X136646985Y-83572931D02*
X136646985Y-84037217D01*
X136646985Y-84037217D02*
X136361271Y-83787217D01*
X136361271Y-83787217D02*
X136361271Y-83894360D01*
X136361271Y-83894360D02*
X136325557Y-83965789D01*
X136325557Y-83965789D02*
X136289842Y-84001503D01*
X136289842Y-84001503D02*
X136218414Y-84037217D01*
X136218414Y-84037217D02*
X136039842Y-84037217D01*
X136039842Y-84037217D02*
X135968414Y-84001503D01*
X135968414Y-84001503D02*
X135932700Y-83965789D01*
X135932700Y-83965789D02*
X135896985Y-83894360D01*
X135896985Y-83894360D02*
X135896985Y-83680074D01*
X135896985Y-83680074D02*
X135932700Y-83608646D01*
X135932700Y-83608646D02*
X135968414Y-83572931D01*
X135968414Y-84358646D02*
X135932700Y-84394360D01*
X135932700Y-84394360D02*
X135896985Y-84358646D01*
X135896985Y-84358646D02*
X135932700Y-84322932D01*
X135932700Y-84322932D02*
X135968414Y-84358646D01*
X135968414Y-84358646D02*
X135896985Y-84358646D01*
X136646985Y-84644360D02*
X136646985Y-85108646D01*
X136646985Y-85108646D02*
X136361271Y-84858646D01*
X136361271Y-84858646D02*
X136361271Y-84965789D01*
X136361271Y-84965789D02*
X136325557Y-85037218D01*
X136325557Y-85037218D02*
X136289842Y-85072932D01*
X136289842Y-85072932D02*
X136218414Y-85108646D01*
X136218414Y-85108646D02*
X136039842Y-85108646D01*
X136039842Y-85108646D02*
X135968414Y-85072932D01*
X135968414Y-85072932D02*
X135932700Y-85037218D01*
X135932700Y-85037218D02*
X135896985Y-84965789D01*
X135896985Y-84965789D02*
X135896985Y-84751503D01*
X135896985Y-84751503D02*
X135932700Y-84680075D01*
X135932700Y-84680075D02*
X135968414Y-84644360D01*
X136646985Y-85322932D02*
X135896985Y-85572932D01*
X135896985Y-85572932D02*
X136646985Y-85822932D01*
D12*
X118128571Y-85092190D02*
X118104762Y-85116000D01*
X118104762Y-85116000D02*
X118033333Y-85139809D01*
X118033333Y-85139809D02*
X117985714Y-85139809D01*
X117985714Y-85139809D02*
X117914286Y-85116000D01*
X117914286Y-85116000D02*
X117866667Y-85068380D01*
X117866667Y-85068380D02*
X117842857Y-85020761D01*
X117842857Y-85020761D02*
X117819048Y-84925523D01*
X117819048Y-84925523D02*
X117819048Y-84854095D01*
X117819048Y-84854095D02*
X117842857Y-84758857D01*
X117842857Y-84758857D02*
X117866667Y-84711238D01*
X117866667Y-84711238D02*
X117914286Y-84663619D01*
X117914286Y-84663619D02*
X117985714Y-84639809D01*
X117985714Y-84639809D02*
X118033333Y-84639809D01*
X118033333Y-84639809D02*
X118104762Y-84663619D01*
X118104762Y-84663619D02*
X118128571Y-84687428D01*
X118604762Y-85139809D02*
X118319048Y-85139809D01*
X118461905Y-85139809D02*
X118461905Y-84639809D01*
X118461905Y-84639809D02*
X118414286Y-84711238D01*
X118414286Y-84711238D02*
X118366667Y-84758857D01*
X118366667Y-84758857D02*
X118319048Y-84782666D01*
X118771428Y-84639809D02*
X119080952Y-84639809D01*
X119080952Y-84639809D02*
X118914285Y-84830285D01*
X118914285Y-84830285D02*
X118985714Y-84830285D01*
X118985714Y-84830285D02*
X119033333Y-84854095D01*
X119033333Y-84854095D02*
X119057142Y-84877904D01*
X119057142Y-84877904D02*
X119080952Y-84925523D01*
X119080952Y-84925523D02*
X119080952Y-85044571D01*
X119080952Y-85044571D02*
X119057142Y-85092190D01*
X119057142Y-85092190D02*
X119033333Y-85116000D01*
X119033333Y-85116000D02*
X118985714Y-85139809D01*
X118985714Y-85139809D02*
X118842857Y-85139809D01*
X118842857Y-85139809D02*
X118795238Y-85116000D01*
X118795238Y-85116000D02*
X118771428Y-85092190D01*
X136716666Y-98377190D02*
X136692857Y-98401000D01*
X136692857Y-98401000D02*
X136621428Y-98424809D01*
X136621428Y-98424809D02*
X136573809Y-98424809D01*
X136573809Y-98424809D02*
X136502381Y-98401000D01*
X136502381Y-98401000D02*
X136454762Y-98353380D01*
X136454762Y-98353380D02*
X136430952Y-98305761D01*
X136430952Y-98305761D02*
X136407143Y-98210523D01*
X136407143Y-98210523D02*
X136407143Y-98139095D01*
X136407143Y-98139095D02*
X136430952Y-98043857D01*
X136430952Y-98043857D02*
X136454762Y-97996238D01*
X136454762Y-97996238D02*
X136502381Y-97948619D01*
X136502381Y-97948619D02*
X136573809Y-97924809D01*
X136573809Y-97924809D02*
X136621428Y-97924809D01*
X136621428Y-97924809D02*
X136692857Y-97948619D01*
X136692857Y-97948619D02*
X136716666Y-97972428D01*
X137145238Y-97924809D02*
X137050000Y-97924809D01*
X137050000Y-97924809D02*
X137002381Y-97948619D01*
X137002381Y-97948619D02*
X136978571Y-97972428D01*
X136978571Y-97972428D02*
X136930952Y-98043857D01*
X136930952Y-98043857D02*
X136907143Y-98139095D01*
X136907143Y-98139095D02*
X136907143Y-98329571D01*
X136907143Y-98329571D02*
X136930952Y-98377190D01*
X136930952Y-98377190D02*
X136954762Y-98401000D01*
X136954762Y-98401000D02*
X137002381Y-98424809D01*
X137002381Y-98424809D02*
X137097619Y-98424809D01*
X137097619Y-98424809D02*
X137145238Y-98401000D01*
X137145238Y-98401000D02*
X137169047Y-98377190D01*
X137169047Y-98377190D02*
X137192857Y-98329571D01*
X137192857Y-98329571D02*
X137192857Y-98210523D01*
X137192857Y-98210523D02*
X137169047Y-98162904D01*
X137169047Y-98162904D02*
X137145238Y-98139095D01*
X137145238Y-98139095D02*
X137097619Y-98115285D01*
X137097619Y-98115285D02*
X137002381Y-98115285D01*
X137002381Y-98115285D02*
X136954762Y-98139095D01*
X136954762Y-98139095D02*
X136930952Y-98162904D01*
X136930952Y-98162904D02*
X136907143Y-98210523D01*
D11*
X141138095Y-121929819D02*
X141138095Y-122739342D01*
X141138095Y-122739342D02*
X141185714Y-122834580D01*
X141185714Y-122834580D02*
X141233333Y-122882200D01*
X141233333Y-122882200D02*
X141328571Y-122929819D01*
X141328571Y-122929819D02*
X141519047Y-122929819D01*
X141519047Y-122929819D02*
X141614285Y-122882200D01*
X141614285Y-122882200D02*
X141661904Y-122834580D01*
X141661904Y-122834580D02*
X141709523Y-122739342D01*
X141709523Y-122739342D02*
X141709523Y-121929819D01*
X142138095Y-122025057D02*
X142185714Y-121977438D01*
X142185714Y-121977438D02*
X142280952Y-121929819D01*
X142280952Y-121929819D02*
X142519047Y-121929819D01*
X142519047Y-121929819D02*
X142614285Y-121977438D01*
X142614285Y-121977438D02*
X142661904Y-122025057D01*
X142661904Y-122025057D02*
X142709523Y-122120295D01*
X142709523Y-122120295D02*
X142709523Y-122215533D01*
X142709523Y-122215533D02*
X142661904Y-122358390D01*
X142661904Y-122358390D02*
X142090476Y-122929819D01*
X142090476Y-122929819D02*
X142709523Y-122929819D01*
X163990476Y-83094819D02*
X163990476Y-83809104D01*
X163990476Y-83809104D02*
X163942857Y-83951961D01*
X163942857Y-83951961D02*
X163847619Y-84047200D01*
X163847619Y-84047200D02*
X163704762Y-84094819D01*
X163704762Y-84094819D02*
X163609524Y-84094819D01*
X164990476Y-84094819D02*
X164419048Y-84094819D01*
X164704762Y-84094819D02*
X164704762Y-83094819D01*
X164704762Y-83094819D02*
X164609524Y-83237676D01*
X164609524Y-83237676D02*
X164514286Y-83332914D01*
X164514286Y-83332914D02*
X164419048Y-83380533D01*
X165371429Y-83190057D02*
X165419048Y-83142438D01*
X165419048Y-83142438D02*
X165514286Y-83094819D01*
X165514286Y-83094819D02*
X165752381Y-83094819D01*
X165752381Y-83094819D02*
X165847619Y-83142438D01*
X165847619Y-83142438D02*
X165895238Y-83190057D01*
X165895238Y-83190057D02*
X165942857Y-83285295D01*
X165942857Y-83285295D02*
X165942857Y-83380533D01*
X165942857Y-83380533D02*
X165895238Y-83523390D01*
X165895238Y-83523390D02*
X165323810Y-84094819D01*
X165323810Y-84094819D02*
X165942857Y-84094819D01*
X138159580Y-101042857D02*
X138207200Y-101090476D01*
X138207200Y-101090476D02*
X138254819Y-101233333D01*
X138254819Y-101233333D02*
X138254819Y-101328571D01*
X138254819Y-101328571D02*
X138207200Y-101471428D01*
X138207200Y-101471428D02*
X138111961Y-101566666D01*
X138111961Y-101566666D02*
X138016723Y-101614285D01*
X138016723Y-101614285D02*
X137826247Y-101661904D01*
X137826247Y-101661904D02*
X137683390Y-101661904D01*
X137683390Y-101661904D02*
X137492914Y-101614285D01*
X137492914Y-101614285D02*
X137397676Y-101566666D01*
X137397676Y-101566666D02*
X137302438Y-101471428D01*
X137302438Y-101471428D02*
X137254819Y-101328571D01*
X137254819Y-101328571D02*
X137254819Y-101233333D01*
X137254819Y-101233333D02*
X137302438Y-101090476D01*
X137302438Y-101090476D02*
X137350057Y-101042857D01*
X138254819Y-100090476D02*
X138254819Y-100661904D01*
X138254819Y-100376190D02*
X137254819Y-100376190D01*
X137254819Y-100376190D02*
X137397676Y-100471428D01*
X137397676Y-100471428D02*
X137492914Y-100566666D01*
X137492914Y-100566666D02*
X137540533Y-100661904D01*
X138254819Y-99138095D02*
X138254819Y-99709523D01*
X138254819Y-99423809D02*
X137254819Y-99423809D01*
X137254819Y-99423809D02*
X137397676Y-99519047D01*
X137397676Y-99519047D02*
X137492914Y-99614285D01*
X137492914Y-99614285D02*
X137540533Y-99709523D01*
X142066666Y-82649819D02*
X142066666Y-83364104D01*
X142066666Y-83364104D02*
X142019047Y-83506961D01*
X142019047Y-83506961D02*
X141923809Y-83602200D01*
X141923809Y-83602200D02*
X141780952Y-83649819D01*
X141780952Y-83649819D02*
X141685714Y-83649819D01*
X142971428Y-82649819D02*
X142780952Y-82649819D01*
X142780952Y-82649819D02*
X142685714Y-82697438D01*
X142685714Y-82697438D02*
X142638095Y-82745057D01*
X142638095Y-82745057D02*
X142542857Y-82887914D01*
X142542857Y-82887914D02*
X142495238Y-83078390D01*
X142495238Y-83078390D02*
X142495238Y-83459342D01*
X142495238Y-83459342D02*
X142542857Y-83554580D01*
X142542857Y-83554580D02*
X142590476Y-83602200D01*
X142590476Y-83602200D02*
X142685714Y-83649819D01*
X142685714Y-83649819D02*
X142876190Y-83649819D01*
X142876190Y-83649819D02*
X142971428Y-83602200D01*
X142971428Y-83602200D02*
X143019047Y-83554580D01*
X143019047Y-83554580D02*
X143066666Y-83459342D01*
X143066666Y-83459342D02*
X143066666Y-83221247D01*
X143066666Y-83221247D02*
X143019047Y-83126009D01*
X143019047Y-83126009D02*
X142971428Y-83078390D01*
X142971428Y-83078390D02*
X142876190Y-83030771D01*
X142876190Y-83030771D02*
X142685714Y-83030771D01*
X142685714Y-83030771D02*
X142590476Y-83078390D01*
X142590476Y-83078390D02*
X142542857Y-83126009D01*
X142542857Y-83126009D02*
X142495238Y-83221247D01*
X118389819Y-103961904D02*
X119199342Y-103961904D01*
X119199342Y-103961904D02*
X119294580Y-103914285D01*
X119294580Y-103914285D02*
X119342200Y-103866666D01*
X119342200Y-103866666D02*
X119389819Y-103771428D01*
X119389819Y-103771428D02*
X119389819Y-103580952D01*
X119389819Y-103580952D02*
X119342200Y-103485714D01*
X119342200Y-103485714D02*
X119294580Y-103438095D01*
X119294580Y-103438095D02*
X119199342Y-103390476D01*
X119199342Y-103390476D02*
X118389819Y-103390476D01*
X118389819Y-102438095D02*
X118389819Y-102914285D01*
X118389819Y-102914285D02*
X118866009Y-102961904D01*
X118866009Y-102961904D02*
X118818390Y-102914285D01*
X118818390Y-102914285D02*
X118770771Y-102819047D01*
X118770771Y-102819047D02*
X118770771Y-102580952D01*
X118770771Y-102580952D02*
X118818390Y-102485714D01*
X118818390Y-102485714D02*
X118866009Y-102438095D01*
X118866009Y-102438095D02*
X118961247Y-102390476D01*
X118961247Y-102390476D02*
X119199342Y-102390476D01*
X119199342Y-102390476D02*
X119294580Y-102438095D01*
X119294580Y-102438095D02*
X119342200Y-102485714D01*
X119342200Y-102485714D02*
X119389819Y-102580952D01*
X119389819Y-102580952D02*
X119389819Y-102819047D01*
X119389819Y-102819047D02*
X119342200Y-102914285D01*
X119342200Y-102914285D02*
X119294580Y-102961904D01*
X139833333Y-85454819D02*
X139500000Y-84978628D01*
X139261905Y-85454819D02*
X139261905Y-84454819D01*
X139261905Y-84454819D02*
X139642857Y-84454819D01*
X139642857Y-84454819D02*
X139738095Y-84502438D01*
X139738095Y-84502438D02*
X139785714Y-84550057D01*
X139785714Y-84550057D02*
X139833333Y-84645295D01*
X139833333Y-84645295D02*
X139833333Y-84788152D01*
X139833333Y-84788152D02*
X139785714Y-84883390D01*
X139785714Y-84883390D02*
X139738095Y-84931009D01*
X139738095Y-84931009D02*
X139642857Y-84978628D01*
X139642857Y-84978628D02*
X139261905Y-84978628D01*
X140214286Y-84550057D02*
X140261905Y-84502438D01*
X140261905Y-84502438D02*
X140357143Y-84454819D01*
X140357143Y-84454819D02*
X140595238Y-84454819D01*
X140595238Y-84454819D02*
X140690476Y-84502438D01*
X140690476Y-84502438D02*
X140738095Y-84550057D01*
X140738095Y-84550057D02*
X140785714Y-84645295D01*
X140785714Y-84645295D02*
X140785714Y-84740533D01*
X140785714Y-84740533D02*
X140738095Y-84883390D01*
X140738095Y-84883390D02*
X140166667Y-85454819D01*
X140166667Y-85454819D02*
X140785714Y-85454819D01*
X119516667Y-82122200D02*
X119659524Y-82169819D01*
X119659524Y-82169819D02*
X119897619Y-82169819D01*
X119897619Y-82169819D02*
X119992857Y-82122200D01*
X119992857Y-82122200D02*
X120040476Y-82074580D01*
X120040476Y-82074580D02*
X120088095Y-81979342D01*
X120088095Y-81979342D02*
X120088095Y-81884104D01*
X120088095Y-81884104D02*
X120040476Y-81788866D01*
X120040476Y-81788866D02*
X119992857Y-81741247D01*
X119992857Y-81741247D02*
X119897619Y-81693628D01*
X119897619Y-81693628D02*
X119707143Y-81646009D01*
X119707143Y-81646009D02*
X119611905Y-81598390D01*
X119611905Y-81598390D02*
X119564286Y-81550771D01*
X119564286Y-81550771D02*
X119516667Y-81455533D01*
X119516667Y-81455533D02*
X119516667Y-81360295D01*
X119516667Y-81360295D02*
X119564286Y-81265057D01*
X119564286Y-81265057D02*
X119611905Y-81217438D01*
X119611905Y-81217438D02*
X119707143Y-81169819D01*
X119707143Y-81169819D02*
X119945238Y-81169819D01*
X119945238Y-81169819D02*
X120088095Y-81217438D01*
X120421429Y-81169819D02*
X120659524Y-82169819D01*
X120659524Y-82169819D02*
X120850000Y-81455533D01*
X120850000Y-81455533D02*
X121040476Y-82169819D01*
X121040476Y-82169819D02*
X121278572Y-81169819D01*
X122183333Y-82169819D02*
X121611905Y-82169819D01*
X121897619Y-82169819D02*
X121897619Y-81169819D01*
X121897619Y-81169819D02*
X121802381Y-81312676D01*
X121802381Y-81312676D02*
X121707143Y-81407914D01*
X121707143Y-81407914D02*
X121611905Y-81455533D01*
X142038095Y-103454819D02*
X142038095Y-104264342D01*
X142038095Y-104264342D02*
X142085714Y-104359580D01*
X142085714Y-104359580D02*
X142133333Y-104407200D01*
X142133333Y-104407200D02*
X142228571Y-104454819D01*
X142228571Y-104454819D02*
X142419047Y-104454819D01*
X142419047Y-104454819D02*
X142514285Y-104407200D01*
X142514285Y-104407200D02*
X142561904Y-104359580D01*
X142561904Y-104359580D02*
X142609523Y-104264342D01*
X142609523Y-104264342D02*
X142609523Y-103454819D01*
X143609523Y-104454819D02*
X143038095Y-104454819D01*
X143323809Y-104454819D02*
X143323809Y-103454819D01*
X143323809Y-103454819D02*
X143228571Y-103597676D01*
X143228571Y-103597676D02*
X143133333Y-103692914D01*
X143133333Y-103692914D02*
X143038095Y-103740533D01*
X136759580Y-108166666D02*
X136807200Y-108214285D01*
X136807200Y-108214285D02*
X136854819Y-108357142D01*
X136854819Y-108357142D02*
X136854819Y-108452380D01*
X136854819Y-108452380D02*
X136807200Y-108595237D01*
X136807200Y-108595237D02*
X136711961Y-108690475D01*
X136711961Y-108690475D02*
X136616723Y-108738094D01*
X136616723Y-108738094D02*
X136426247Y-108785713D01*
X136426247Y-108785713D02*
X136283390Y-108785713D01*
X136283390Y-108785713D02*
X136092914Y-108738094D01*
X136092914Y-108738094D02*
X135997676Y-108690475D01*
X135997676Y-108690475D02*
X135902438Y-108595237D01*
X135902438Y-108595237D02*
X135854819Y-108452380D01*
X135854819Y-108452380D02*
X135854819Y-108357142D01*
X135854819Y-108357142D02*
X135902438Y-108214285D01*
X135902438Y-108214285D02*
X135950057Y-108166666D01*
X135854819Y-107833332D02*
X135854819Y-107166666D01*
X135854819Y-107166666D02*
X136854819Y-107595237D01*
D12*
X142019047Y-90124809D02*
X142019047Y-90529571D01*
X142019047Y-90529571D02*
X142042857Y-90577190D01*
X142042857Y-90577190D02*
X142066666Y-90601000D01*
X142066666Y-90601000D02*
X142114285Y-90624809D01*
X142114285Y-90624809D02*
X142209523Y-90624809D01*
X142209523Y-90624809D02*
X142257142Y-90601000D01*
X142257142Y-90601000D02*
X142280952Y-90577190D01*
X142280952Y-90577190D02*
X142304761Y-90529571D01*
X142304761Y-90529571D02*
X142304761Y-90124809D01*
X142495238Y-90124809D02*
X142804762Y-90124809D01*
X142804762Y-90124809D02*
X142638095Y-90315285D01*
X142638095Y-90315285D02*
X142709524Y-90315285D01*
X142709524Y-90315285D02*
X142757143Y-90339095D01*
X142757143Y-90339095D02*
X142780952Y-90362904D01*
X142780952Y-90362904D02*
X142804762Y-90410523D01*
X142804762Y-90410523D02*
X142804762Y-90529571D01*
X142804762Y-90529571D02*
X142780952Y-90577190D01*
X142780952Y-90577190D02*
X142757143Y-90601000D01*
X142757143Y-90601000D02*
X142709524Y-90624809D01*
X142709524Y-90624809D02*
X142566667Y-90624809D01*
X142566667Y-90624809D02*
X142519048Y-90601000D01*
X142519048Y-90601000D02*
X142495238Y-90577190D01*
D11*
X136433333Y-103359580D02*
X136385714Y-103407200D01*
X136385714Y-103407200D02*
X136242857Y-103454819D01*
X136242857Y-103454819D02*
X136147619Y-103454819D01*
X136147619Y-103454819D02*
X136004762Y-103407200D01*
X136004762Y-103407200D02*
X135909524Y-103311961D01*
X135909524Y-103311961D02*
X135861905Y-103216723D01*
X135861905Y-103216723D02*
X135814286Y-103026247D01*
X135814286Y-103026247D02*
X135814286Y-102883390D01*
X135814286Y-102883390D02*
X135861905Y-102692914D01*
X135861905Y-102692914D02*
X135909524Y-102597676D01*
X135909524Y-102597676D02*
X136004762Y-102502438D01*
X136004762Y-102502438D02*
X136147619Y-102454819D01*
X136147619Y-102454819D02*
X136242857Y-102454819D01*
X136242857Y-102454819D02*
X136385714Y-102502438D01*
X136385714Y-102502438D02*
X136433333Y-102550057D01*
X137338095Y-102454819D02*
X136861905Y-102454819D01*
X136861905Y-102454819D02*
X136814286Y-102931009D01*
X136814286Y-102931009D02*
X136861905Y-102883390D01*
X136861905Y-102883390D02*
X136957143Y-102835771D01*
X136957143Y-102835771D02*
X137195238Y-102835771D01*
X137195238Y-102835771D02*
X137290476Y-102883390D01*
X137290476Y-102883390D02*
X137338095Y-102931009D01*
X137338095Y-102931009D02*
X137385714Y-103026247D01*
X137385714Y-103026247D02*
X137385714Y-103264342D01*
X137385714Y-103264342D02*
X137338095Y-103359580D01*
X137338095Y-103359580D02*
X137290476Y-103407200D01*
X137290476Y-103407200D02*
X137195238Y-103454819D01*
X137195238Y-103454819D02*
X136957143Y-103454819D01*
X136957143Y-103454819D02*
X136861905Y-103407200D01*
X136861905Y-103407200D02*
X136814286Y-103359580D01*
X136633333Y-110759580D02*
X136585714Y-110807200D01*
X136585714Y-110807200D02*
X136442857Y-110854819D01*
X136442857Y-110854819D02*
X136347619Y-110854819D01*
X136347619Y-110854819D02*
X136204762Y-110807200D01*
X136204762Y-110807200D02*
X136109524Y-110711961D01*
X136109524Y-110711961D02*
X136061905Y-110616723D01*
X136061905Y-110616723D02*
X136014286Y-110426247D01*
X136014286Y-110426247D02*
X136014286Y-110283390D01*
X136014286Y-110283390D02*
X136061905Y-110092914D01*
X136061905Y-110092914D02*
X136109524Y-109997676D01*
X136109524Y-109997676D02*
X136204762Y-109902438D01*
X136204762Y-109902438D02*
X136347619Y-109854819D01*
X136347619Y-109854819D02*
X136442857Y-109854819D01*
X136442857Y-109854819D02*
X136585714Y-109902438D01*
X136585714Y-109902438D02*
X136633333Y-109950057D01*
X136966667Y-109854819D02*
X137585714Y-109854819D01*
X137585714Y-109854819D02*
X137252381Y-110235771D01*
X137252381Y-110235771D02*
X137395238Y-110235771D01*
X137395238Y-110235771D02*
X137490476Y-110283390D01*
X137490476Y-110283390D02*
X137538095Y-110331009D01*
X137538095Y-110331009D02*
X137585714Y-110426247D01*
X137585714Y-110426247D02*
X137585714Y-110664342D01*
X137585714Y-110664342D02*
X137538095Y-110759580D01*
X137538095Y-110759580D02*
X137490476Y-110807200D01*
X137490476Y-110807200D02*
X137395238Y-110854819D01*
X137395238Y-110854819D02*
X137109524Y-110854819D01*
X137109524Y-110854819D02*
X137014286Y-110807200D01*
X137014286Y-110807200D02*
X136966667Y-110759580D01*
D12*
X136716666Y-98977190D02*
X136692857Y-99001000D01*
X136692857Y-99001000D02*
X136621428Y-99024809D01*
X136621428Y-99024809D02*
X136573809Y-99024809D01*
X136573809Y-99024809D02*
X136502381Y-99001000D01*
X136502381Y-99001000D02*
X136454762Y-98953380D01*
X136454762Y-98953380D02*
X136430952Y-98905761D01*
X136430952Y-98905761D02*
X136407143Y-98810523D01*
X136407143Y-98810523D02*
X136407143Y-98739095D01*
X136407143Y-98739095D02*
X136430952Y-98643857D01*
X136430952Y-98643857D02*
X136454762Y-98596238D01*
X136454762Y-98596238D02*
X136502381Y-98548619D01*
X136502381Y-98548619D02*
X136573809Y-98524809D01*
X136573809Y-98524809D02*
X136621428Y-98524809D01*
X136621428Y-98524809D02*
X136692857Y-98548619D01*
X136692857Y-98548619D02*
X136716666Y-98572428D01*
X137002381Y-98739095D02*
X136954762Y-98715285D01*
X136954762Y-98715285D02*
X136930952Y-98691476D01*
X136930952Y-98691476D02*
X136907143Y-98643857D01*
X136907143Y-98643857D02*
X136907143Y-98620047D01*
X136907143Y-98620047D02*
X136930952Y-98572428D01*
X136930952Y-98572428D02*
X136954762Y-98548619D01*
X136954762Y-98548619D02*
X137002381Y-98524809D01*
X137002381Y-98524809D02*
X137097619Y-98524809D01*
X137097619Y-98524809D02*
X137145238Y-98548619D01*
X137145238Y-98548619D02*
X137169047Y-98572428D01*
X137169047Y-98572428D02*
X137192857Y-98620047D01*
X137192857Y-98620047D02*
X137192857Y-98643857D01*
X137192857Y-98643857D02*
X137169047Y-98691476D01*
X137169047Y-98691476D02*
X137145238Y-98715285D01*
X137145238Y-98715285D02*
X137097619Y-98739095D01*
X137097619Y-98739095D02*
X137002381Y-98739095D01*
X137002381Y-98739095D02*
X136954762Y-98762904D01*
X136954762Y-98762904D02*
X136930952Y-98786714D01*
X136930952Y-98786714D02*
X136907143Y-98834333D01*
X136907143Y-98834333D02*
X136907143Y-98929571D01*
X136907143Y-98929571D02*
X136930952Y-98977190D01*
X136930952Y-98977190D02*
X136954762Y-99001000D01*
X136954762Y-99001000D02*
X137002381Y-99024809D01*
X137002381Y-99024809D02*
X137097619Y-99024809D01*
X137097619Y-99024809D02*
X137145238Y-99001000D01*
X137145238Y-99001000D02*
X137169047Y-98977190D01*
X137169047Y-98977190D02*
X137192857Y-98929571D01*
X137192857Y-98929571D02*
X137192857Y-98834333D01*
X137192857Y-98834333D02*
X137169047Y-98786714D01*
X137169047Y-98786714D02*
X137145238Y-98762904D01*
X137145238Y-98762904D02*
X137097619Y-98739095D01*
D11*
X156866666Y-95784819D02*
X156866666Y-96499104D01*
X156866666Y-96499104D02*
X156819047Y-96641961D01*
X156819047Y-96641961D02*
X156723809Y-96737200D01*
X156723809Y-96737200D02*
X156580952Y-96784819D01*
X156580952Y-96784819D02*
X156485714Y-96784819D01*
X157247619Y-95784819D02*
X157914285Y-95784819D01*
X157914285Y-95784819D02*
X157485714Y-96784819D01*
X164466666Y-95844819D02*
X164466666Y-96559104D01*
X164466666Y-96559104D02*
X164419047Y-96701961D01*
X164419047Y-96701961D02*
X164323809Y-96797200D01*
X164323809Y-96797200D02*
X164180952Y-96844819D01*
X164180952Y-96844819D02*
X164085714Y-96844819D01*
X165085714Y-96273390D02*
X164990476Y-96225771D01*
X164990476Y-96225771D02*
X164942857Y-96178152D01*
X164942857Y-96178152D02*
X164895238Y-96082914D01*
X164895238Y-96082914D02*
X164895238Y-96035295D01*
X164895238Y-96035295D02*
X164942857Y-95940057D01*
X164942857Y-95940057D02*
X164990476Y-95892438D01*
X164990476Y-95892438D02*
X165085714Y-95844819D01*
X165085714Y-95844819D02*
X165276190Y-95844819D01*
X165276190Y-95844819D02*
X165371428Y-95892438D01*
X165371428Y-95892438D02*
X165419047Y-95940057D01*
X165419047Y-95940057D02*
X165466666Y-96035295D01*
X165466666Y-96035295D02*
X165466666Y-96082914D01*
X165466666Y-96082914D02*
X165419047Y-96178152D01*
X165419047Y-96178152D02*
X165371428Y-96225771D01*
X165371428Y-96225771D02*
X165276190Y-96273390D01*
X165276190Y-96273390D02*
X165085714Y-96273390D01*
X165085714Y-96273390D02*
X164990476Y-96321009D01*
X164990476Y-96321009D02*
X164942857Y-96368628D01*
X164942857Y-96368628D02*
X164895238Y-96463866D01*
X164895238Y-96463866D02*
X164895238Y-96654342D01*
X164895238Y-96654342D02*
X164942857Y-96749580D01*
X164942857Y-96749580D02*
X164990476Y-96797200D01*
X164990476Y-96797200D02*
X165085714Y-96844819D01*
X165085714Y-96844819D02*
X165276190Y-96844819D01*
X165276190Y-96844819D02*
X165371428Y-96797200D01*
X165371428Y-96797200D02*
X165419047Y-96749580D01*
X165419047Y-96749580D02*
X165466666Y-96654342D01*
X165466666Y-96654342D02*
X165466666Y-96463866D01*
X165466666Y-96463866D02*
X165419047Y-96368628D01*
X165419047Y-96368628D02*
X165371428Y-96321009D01*
X165371428Y-96321009D02*
X165276190Y-96273390D01*
X154357142Y-85159580D02*
X154309523Y-85207200D01*
X154309523Y-85207200D02*
X154166666Y-85254819D01*
X154166666Y-85254819D02*
X154071428Y-85254819D01*
X154071428Y-85254819D02*
X153928571Y-85207200D01*
X153928571Y-85207200D02*
X153833333Y-85111961D01*
X153833333Y-85111961D02*
X153785714Y-85016723D01*
X153785714Y-85016723D02*
X153738095Y-84826247D01*
X153738095Y-84826247D02*
X153738095Y-84683390D01*
X153738095Y-84683390D02*
X153785714Y-84492914D01*
X153785714Y-84492914D02*
X153833333Y-84397676D01*
X153833333Y-84397676D02*
X153928571Y-84302438D01*
X153928571Y-84302438D02*
X154071428Y-84254819D01*
X154071428Y-84254819D02*
X154166666Y-84254819D01*
X154166666Y-84254819D02*
X154309523Y-84302438D01*
X154309523Y-84302438D02*
X154357142Y-84350057D01*
X155309523Y-85254819D02*
X154738095Y-85254819D01*
X155023809Y-85254819D02*
X155023809Y-84254819D01*
X155023809Y-84254819D02*
X154928571Y-84397676D01*
X154928571Y-84397676D02*
X154833333Y-84492914D01*
X154833333Y-84492914D02*
X154738095Y-84540533D01*
X156166666Y-84588152D02*
X156166666Y-85254819D01*
X155928571Y-84207200D02*
X155690476Y-84921485D01*
X155690476Y-84921485D02*
X156309523Y-84921485D01*
X125080952Y-89131009D02*
X125223809Y-89178628D01*
X125223809Y-89178628D02*
X125271428Y-89226247D01*
X125271428Y-89226247D02*
X125319047Y-89321485D01*
X125319047Y-89321485D02*
X125319047Y-89464342D01*
X125319047Y-89464342D02*
X125271428Y-89559580D01*
X125271428Y-89559580D02*
X125223809Y-89607200D01*
X125223809Y-89607200D02*
X125128571Y-89654819D01*
X125128571Y-89654819D02*
X124747619Y-89654819D01*
X124747619Y-89654819D02*
X124747619Y-88654819D01*
X124747619Y-88654819D02*
X125080952Y-88654819D01*
X125080952Y-88654819D02*
X125176190Y-88702438D01*
X125176190Y-88702438D02*
X125223809Y-88750057D01*
X125223809Y-88750057D02*
X125271428Y-88845295D01*
X125271428Y-88845295D02*
X125271428Y-88940533D01*
X125271428Y-88940533D02*
X125223809Y-89035771D01*
X125223809Y-89035771D02*
X125176190Y-89083390D01*
X125176190Y-89083390D02*
X125080952Y-89131009D01*
X125080952Y-89131009D02*
X124747619Y-89131009D01*
X125890476Y-89654819D02*
X125795238Y-89607200D01*
X125795238Y-89607200D02*
X125747619Y-89559580D01*
X125747619Y-89559580D02*
X125700000Y-89464342D01*
X125700000Y-89464342D02*
X125700000Y-89178628D01*
X125700000Y-89178628D02*
X125747619Y-89083390D01*
X125747619Y-89083390D02*
X125795238Y-89035771D01*
X125795238Y-89035771D02*
X125890476Y-88988152D01*
X125890476Y-88988152D02*
X126033333Y-88988152D01*
X126033333Y-88988152D02*
X126128571Y-89035771D01*
X126128571Y-89035771D02*
X126176190Y-89083390D01*
X126176190Y-89083390D02*
X126223809Y-89178628D01*
X126223809Y-89178628D02*
X126223809Y-89464342D01*
X126223809Y-89464342D02*
X126176190Y-89559580D01*
X126176190Y-89559580D02*
X126128571Y-89607200D01*
X126128571Y-89607200D02*
X126033333Y-89654819D01*
X126033333Y-89654819D02*
X125890476Y-89654819D01*
X126795238Y-89654819D02*
X126700000Y-89607200D01*
X126700000Y-89607200D02*
X126652381Y-89559580D01*
X126652381Y-89559580D02*
X126604762Y-89464342D01*
X126604762Y-89464342D02*
X126604762Y-89178628D01*
X126604762Y-89178628D02*
X126652381Y-89083390D01*
X126652381Y-89083390D02*
X126700000Y-89035771D01*
X126700000Y-89035771D02*
X126795238Y-88988152D01*
X126795238Y-88988152D02*
X126938095Y-88988152D01*
X126938095Y-88988152D02*
X127033333Y-89035771D01*
X127033333Y-89035771D02*
X127080952Y-89083390D01*
X127080952Y-89083390D02*
X127128571Y-89178628D01*
X127128571Y-89178628D02*
X127128571Y-89464342D01*
X127128571Y-89464342D02*
X127080952Y-89559580D01*
X127080952Y-89559580D02*
X127033333Y-89607200D01*
X127033333Y-89607200D02*
X126938095Y-89654819D01*
X126938095Y-89654819D02*
X126795238Y-89654819D01*
X127414286Y-88988152D02*
X127795238Y-88988152D01*
X127557143Y-88654819D02*
X127557143Y-89511961D01*
X127557143Y-89511961D02*
X127604762Y-89607200D01*
X127604762Y-89607200D02*
X127700000Y-89654819D01*
X127700000Y-89654819D02*
X127795238Y-89654819D01*
X156938095Y-83254819D02*
X157509523Y-83254819D01*
X157223809Y-84254819D02*
X157223809Y-83254819D01*
X157842857Y-84254819D02*
X157842857Y-83254819D01*
X157842857Y-83254819D02*
X158223809Y-83254819D01*
X158223809Y-83254819D02*
X158319047Y-83302438D01*
X158319047Y-83302438D02*
X158366666Y-83350057D01*
X158366666Y-83350057D02*
X158414285Y-83445295D01*
X158414285Y-83445295D02*
X158414285Y-83588152D01*
X158414285Y-83588152D02*
X158366666Y-83683390D01*
X158366666Y-83683390D02*
X158319047Y-83731009D01*
X158319047Y-83731009D02*
X158223809Y-83778628D01*
X158223809Y-83778628D02*
X157842857Y-83778628D01*
X158795238Y-83350057D02*
X158842857Y-83302438D01*
X158842857Y-83302438D02*
X158938095Y-83254819D01*
X158938095Y-83254819D02*
X159176190Y-83254819D01*
X159176190Y-83254819D02*
X159271428Y-83302438D01*
X159271428Y-83302438D02*
X159319047Y-83350057D01*
X159319047Y-83350057D02*
X159366666Y-83445295D01*
X159366666Y-83445295D02*
X159366666Y-83540533D01*
X159366666Y-83540533D02*
X159319047Y-83683390D01*
X159319047Y-83683390D02*
X158747619Y-84254819D01*
X158747619Y-84254819D02*
X159366666Y-84254819D01*
X136378628Y-106276190D02*
X136854819Y-106276190D01*
X135854819Y-106609523D02*
X136378628Y-106276190D01*
X136378628Y-106276190D02*
X135854819Y-105942857D01*
X136854819Y-105085714D02*
X136854819Y-105657142D01*
X136854819Y-105371428D02*
X135854819Y-105371428D01*
X135854819Y-105371428D02*
X135997676Y-105466666D01*
X135997676Y-105466666D02*
X136092914Y-105561904D01*
X136092914Y-105561904D02*
X136140533Y-105657142D01*
X125654819Y-121958333D02*
X126369104Y-121958333D01*
X126369104Y-121958333D02*
X126511961Y-122005952D01*
X126511961Y-122005952D02*
X126607200Y-122101190D01*
X126607200Y-122101190D02*
X126654819Y-122244047D01*
X126654819Y-122244047D02*
X126654819Y-122339285D01*
X125654819Y-121005952D02*
X125654819Y-121482142D01*
X125654819Y-121482142D02*
X126131009Y-121529761D01*
X126131009Y-121529761D02*
X126083390Y-121482142D01*
X126083390Y-121482142D02*
X126035771Y-121386904D01*
X126035771Y-121386904D02*
X126035771Y-121148809D01*
X126035771Y-121148809D02*
X126083390Y-121053571D01*
X126083390Y-121053571D02*
X126131009Y-121005952D01*
X126131009Y-121005952D02*
X126226247Y-120958333D01*
X126226247Y-120958333D02*
X126464342Y-120958333D01*
X126464342Y-120958333D02*
X126559580Y-121005952D01*
X126559580Y-121005952D02*
X126607200Y-121053571D01*
X126607200Y-121053571D02*
X126654819Y-121148809D01*
X126654819Y-121148809D02*
X126654819Y-121386904D01*
X126654819Y-121386904D02*
X126607200Y-121482142D01*
X126607200Y-121482142D02*
X126559580Y-121529761D01*
X138159580Y-107366666D02*
X138207200Y-107414285D01*
X138207200Y-107414285D02*
X138254819Y-107557142D01*
X138254819Y-107557142D02*
X138254819Y-107652380D01*
X138254819Y-107652380D02*
X138207200Y-107795237D01*
X138207200Y-107795237D02*
X138111961Y-107890475D01*
X138111961Y-107890475D02*
X138016723Y-107938094D01*
X138016723Y-107938094D02*
X137826247Y-107985713D01*
X137826247Y-107985713D02*
X137683390Y-107985713D01*
X137683390Y-107985713D02*
X137492914Y-107938094D01*
X137492914Y-107938094D02*
X137397676Y-107890475D01*
X137397676Y-107890475D02*
X137302438Y-107795237D01*
X137302438Y-107795237D02*
X137254819Y-107652380D01*
X137254819Y-107652380D02*
X137254819Y-107557142D01*
X137254819Y-107557142D02*
X137302438Y-107414285D01*
X137302438Y-107414285D02*
X137350057Y-107366666D01*
X138254819Y-106890475D02*
X138254819Y-106699999D01*
X138254819Y-106699999D02*
X138207200Y-106604761D01*
X138207200Y-106604761D02*
X138159580Y-106557142D01*
X138159580Y-106557142D02*
X138016723Y-106461904D01*
X138016723Y-106461904D02*
X137826247Y-106414285D01*
X137826247Y-106414285D02*
X137445295Y-106414285D01*
X137445295Y-106414285D02*
X137350057Y-106461904D01*
X137350057Y-106461904D02*
X137302438Y-106509523D01*
X137302438Y-106509523D02*
X137254819Y-106604761D01*
X137254819Y-106604761D02*
X137254819Y-106795237D01*
X137254819Y-106795237D02*
X137302438Y-106890475D01*
X137302438Y-106890475D02*
X137350057Y-106938094D01*
X137350057Y-106938094D02*
X137445295Y-106985713D01*
X137445295Y-106985713D02*
X137683390Y-106985713D01*
X137683390Y-106985713D02*
X137778628Y-106938094D01*
X137778628Y-106938094D02*
X137826247Y-106890475D01*
X137826247Y-106890475D02*
X137873866Y-106795237D01*
X137873866Y-106795237D02*
X137873866Y-106604761D01*
X137873866Y-106604761D02*
X137826247Y-106509523D01*
X137826247Y-106509523D02*
X137778628Y-106461904D01*
X137778628Y-106461904D02*
X137683390Y-106414285D01*
X163861905Y-81494819D02*
X163861905Y-80494819D01*
X163861905Y-80494819D02*
X164100000Y-80494819D01*
X164100000Y-80494819D02*
X164242857Y-80542438D01*
X164242857Y-80542438D02*
X164338095Y-80637676D01*
X164338095Y-80637676D02*
X164385714Y-80732914D01*
X164385714Y-80732914D02*
X164433333Y-80923390D01*
X164433333Y-80923390D02*
X164433333Y-81066247D01*
X164433333Y-81066247D02*
X164385714Y-81256723D01*
X164385714Y-81256723D02*
X164338095Y-81351961D01*
X164338095Y-81351961D02*
X164242857Y-81447200D01*
X164242857Y-81447200D02*
X164100000Y-81494819D01*
X164100000Y-81494819D02*
X163861905Y-81494819D01*
X165385714Y-81494819D02*
X164814286Y-81494819D01*
X165100000Y-81494819D02*
X165100000Y-80494819D01*
X165100000Y-80494819D02*
X165004762Y-80637676D01*
X165004762Y-80637676D02*
X164909524Y-80732914D01*
X164909524Y-80732914D02*
X164814286Y-80780533D01*
X142266666Y-126854819D02*
X142266666Y-127569104D01*
X142266666Y-127569104D02*
X142219047Y-127711961D01*
X142219047Y-127711961D02*
X142123809Y-127807200D01*
X142123809Y-127807200D02*
X141980952Y-127854819D01*
X141980952Y-127854819D02*
X141885714Y-127854819D01*
X143266666Y-127854819D02*
X142695238Y-127854819D01*
X142980952Y-127854819D02*
X142980952Y-126854819D01*
X142980952Y-126854819D02*
X142885714Y-126997676D01*
X142885714Y-126997676D02*
X142790476Y-127092914D01*
X142790476Y-127092914D02*
X142695238Y-127140533D01*
X132085714Y-88654819D02*
X132419047Y-89654819D01*
X132419047Y-89654819D02*
X132752380Y-88654819D01*
X133657142Y-89654819D02*
X133323809Y-89178628D01*
X133085714Y-89654819D02*
X133085714Y-88654819D01*
X133085714Y-88654819D02*
X133466666Y-88654819D01*
X133466666Y-88654819D02*
X133561904Y-88702438D01*
X133561904Y-88702438D02*
X133609523Y-88750057D01*
X133609523Y-88750057D02*
X133657142Y-88845295D01*
X133657142Y-88845295D02*
X133657142Y-88988152D01*
X133657142Y-88988152D02*
X133609523Y-89083390D01*
X133609523Y-89083390D02*
X133561904Y-89131009D01*
X133561904Y-89131009D02*
X133466666Y-89178628D01*
X133466666Y-89178628D02*
X133085714Y-89178628D01*
X134085714Y-89131009D02*
X134419047Y-89131009D01*
X134561904Y-89654819D02*
X134085714Y-89654819D01*
X134085714Y-89654819D02*
X134085714Y-88654819D01*
X134085714Y-88654819D02*
X134561904Y-88654819D01*
X135323809Y-89131009D02*
X134990476Y-89131009D01*
X134990476Y-89654819D02*
X134990476Y-88654819D01*
X134990476Y-88654819D02*
X135466666Y-88654819D01*
X148759580Y-98566666D02*
X148807200Y-98614285D01*
X148807200Y-98614285D02*
X148854819Y-98757142D01*
X148854819Y-98757142D02*
X148854819Y-98852380D01*
X148854819Y-98852380D02*
X148807200Y-98995237D01*
X148807200Y-98995237D02*
X148711961Y-99090475D01*
X148711961Y-99090475D02*
X148616723Y-99138094D01*
X148616723Y-99138094D02*
X148426247Y-99185713D01*
X148426247Y-99185713D02*
X148283390Y-99185713D01*
X148283390Y-99185713D02*
X148092914Y-99138094D01*
X148092914Y-99138094D02*
X147997676Y-99090475D01*
X147997676Y-99090475D02*
X147902438Y-98995237D01*
X147902438Y-98995237D02*
X147854819Y-98852380D01*
X147854819Y-98852380D02*
X147854819Y-98757142D01*
X147854819Y-98757142D02*
X147902438Y-98614285D01*
X147902438Y-98614285D02*
X147950057Y-98566666D01*
X147950057Y-98185713D02*
X147902438Y-98138094D01*
X147902438Y-98138094D02*
X147854819Y-98042856D01*
X147854819Y-98042856D02*
X147854819Y-97804761D01*
X147854819Y-97804761D02*
X147902438Y-97709523D01*
X147902438Y-97709523D02*
X147950057Y-97661904D01*
X147950057Y-97661904D02*
X148045295Y-97614285D01*
X148045295Y-97614285D02*
X148140533Y-97614285D01*
X148140533Y-97614285D02*
X148283390Y-97661904D01*
X148283390Y-97661904D02*
X148854819Y-98233332D01*
X148854819Y-98233332D02*
X148854819Y-97614285D01*
X150357142Y-85159580D02*
X150309523Y-85207200D01*
X150309523Y-85207200D02*
X150166666Y-85254819D01*
X150166666Y-85254819D02*
X150071428Y-85254819D01*
X150071428Y-85254819D02*
X149928571Y-85207200D01*
X149928571Y-85207200D02*
X149833333Y-85111961D01*
X149833333Y-85111961D02*
X149785714Y-85016723D01*
X149785714Y-85016723D02*
X149738095Y-84826247D01*
X149738095Y-84826247D02*
X149738095Y-84683390D01*
X149738095Y-84683390D02*
X149785714Y-84492914D01*
X149785714Y-84492914D02*
X149833333Y-84397676D01*
X149833333Y-84397676D02*
X149928571Y-84302438D01*
X149928571Y-84302438D02*
X150071428Y-84254819D01*
X150071428Y-84254819D02*
X150166666Y-84254819D01*
X150166666Y-84254819D02*
X150309523Y-84302438D01*
X150309523Y-84302438D02*
X150357142Y-84350057D01*
X151309523Y-85254819D02*
X150738095Y-85254819D01*
X151023809Y-85254819D02*
X151023809Y-84254819D01*
X151023809Y-84254819D02*
X150928571Y-84397676D01*
X150928571Y-84397676D02*
X150833333Y-84492914D01*
X150833333Y-84492914D02*
X150738095Y-84540533D01*
X152214285Y-84254819D02*
X151738095Y-84254819D01*
X151738095Y-84254819D02*
X151690476Y-84731009D01*
X151690476Y-84731009D02*
X151738095Y-84683390D01*
X151738095Y-84683390D02*
X151833333Y-84635771D01*
X151833333Y-84635771D02*
X152071428Y-84635771D01*
X152071428Y-84635771D02*
X152166666Y-84683390D01*
X152166666Y-84683390D02*
X152214285Y-84731009D01*
X152214285Y-84731009D02*
X152261904Y-84826247D01*
X152261904Y-84826247D02*
X152261904Y-85064342D01*
X152261904Y-85064342D02*
X152214285Y-85159580D01*
X152214285Y-85159580D02*
X152166666Y-85207200D01*
X152166666Y-85207200D02*
X152071428Y-85254819D01*
X152071428Y-85254819D02*
X151833333Y-85254819D01*
X151833333Y-85254819D02*
X151738095Y-85207200D01*
X151738095Y-85207200D02*
X151690476Y-85159580D01*
X139559580Y-99642857D02*
X139607200Y-99690476D01*
X139607200Y-99690476D02*
X139654819Y-99833333D01*
X139654819Y-99833333D02*
X139654819Y-99928571D01*
X139654819Y-99928571D02*
X139607200Y-100071428D01*
X139607200Y-100071428D02*
X139511961Y-100166666D01*
X139511961Y-100166666D02*
X139416723Y-100214285D01*
X139416723Y-100214285D02*
X139226247Y-100261904D01*
X139226247Y-100261904D02*
X139083390Y-100261904D01*
X139083390Y-100261904D02*
X138892914Y-100214285D01*
X138892914Y-100214285D02*
X138797676Y-100166666D01*
X138797676Y-100166666D02*
X138702438Y-100071428D01*
X138702438Y-100071428D02*
X138654819Y-99928571D01*
X138654819Y-99928571D02*
X138654819Y-99833333D01*
X138654819Y-99833333D02*
X138702438Y-99690476D01*
X138702438Y-99690476D02*
X138750057Y-99642857D01*
X139654819Y-98690476D02*
X139654819Y-99261904D01*
X139654819Y-98976190D02*
X138654819Y-98976190D01*
X138654819Y-98976190D02*
X138797676Y-99071428D01*
X138797676Y-99071428D02*
X138892914Y-99166666D01*
X138892914Y-99166666D02*
X138940533Y-99261904D01*
X138750057Y-98309523D02*
X138702438Y-98261904D01*
X138702438Y-98261904D02*
X138654819Y-98166666D01*
X138654819Y-98166666D02*
X138654819Y-97928571D01*
X138654819Y-97928571D02*
X138702438Y-97833333D01*
X138702438Y-97833333D02*
X138750057Y-97785714D01*
X138750057Y-97785714D02*
X138845295Y-97738095D01*
X138845295Y-97738095D02*
X138940533Y-97738095D01*
X138940533Y-97738095D02*
X139083390Y-97785714D01*
X139083390Y-97785714D02*
X139654819Y-98357142D01*
X139654819Y-98357142D02*
X139654819Y-97738095D01*
X160666666Y-95784819D02*
X160666666Y-96499104D01*
X160666666Y-96499104D02*
X160619047Y-96641961D01*
X160619047Y-96641961D02*
X160523809Y-96737200D01*
X160523809Y-96737200D02*
X160380952Y-96784819D01*
X160380952Y-96784819D02*
X160285714Y-96784819D01*
X161190476Y-96784819D02*
X161380952Y-96784819D01*
X161380952Y-96784819D02*
X161476190Y-96737200D01*
X161476190Y-96737200D02*
X161523809Y-96689580D01*
X161523809Y-96689580D02*
X161619047Y-96546723D01*
X161619047Y-96546723D02*
X161666666Y-96356247D01*
X161666666Y-96356247D02*
X161666666Y-95975295D01*
X161666666Y-95975295D02*
X161619047Y-95880057D01*
X161619047Y-95880057D02*
X161571428Y-95832438D01*
X161571428Y-95832438D02*
X161476190Y-95784819D01*
X161476190Y-95784819D02*
X161285714Y-95784819D01*
X161285714Y-95784819D02*
X161190476Y-95832438D01*
X161190476Y-95832438D02*
X161142857Y-95880057D01*
X161142857Y-95880057D02*
X161095238Y-95975295D01*
X161095238Y-95975295D02*
X161095238Y-96213390D01*
X161095238Y-96213390D02*
X161142857Y-96308628D01*
X161142857Y-96308628D02*
X161190476Y-96356247D01*
X161190476Y-96356247D02*
X161285714Y-96403866D01*
X161285714Y-96403866D02*
X161476190Y-96403866D01*
X161476190Y-96403866D02*
X161571428Y-96356247D01*
X161571428Y-96356247D02*
X161619047Y-96308628D01*
X161619047Y-96308628D02*
X161666666Y-96213390D01*
X129738095Y-121654819D02*
X130309523Y-121654819D01*
X130023809Y-122654819D02*
X130023809Y-121654819D01*
X131214285Y-122654819D02*
X130880952Y-122178628D01*
X130642857Y-122654819D02*
X130642857Y-121654819D01*
X130642857Y-121654819D02*
X131023809Y-121654819D01*
X131023809Y-121654819D02*
X131119047Y-121702438D01*
X131119047Y-121702438D02*
X131166666Y-121750057D01*
X131166666Y-121750057D02*
X131214285Y-121845295D01*
X131214285Y-121845295D02*
X131214285Y-121988152D01*
X131214285Y-121988152D02*
X131166666Y-122083390D01*
X131166666Y-122083390D02*
X131119047Y-122131009D01*
X131119047Y-122131009D02*
X131023809Y-122178628D01*
X131023809Y-122178628D02*
X130642857Y-122178628D01*
X132166666Y-122654819D02*
X131595238Y-122654819D01*
X131880952Y-122654819D02*
X131880952Y-121654819D01*
X131880952Y-121654819D02*
X131785714Y-121797676D01*
X131785714Y-121797676D02*
X131690476Y-121892914D01*
X131690476Y-121892914D02*
X131595238Y-121940533D01*
X128357143Y-88654819D02*
X128690476Y-89654819D01*
X128690476Y-89654819D02*
X129023809Y-88654819D01*
X129690476Y-89131009D02*
X129833333Y-89178628D01*
X129833333Y-89178628D02*
X129880952Y-89226247D01*
X129880952Y-89226247D02*
X129928571Y-89321485D01*
X129928571Y-89321485D02*
X129928571Y-89464342D01*
X129928571Y-89464342D02*
X129880952Y-89559580D01*
X129880952Y-89559580D02*
X129833333Y-89607200D01*
X129833333Y-89607200D02*
X129738095Y-89654819D01*
X129738095Y-89654819D02*
X129357143Y-89654819D01*
X129357143Y-89654819D02*
X129357143Y-88654819D01*
X129357143Y-88654819D02*
X129690476Y-88654819D01*
X129690476Y-88654819D02*
X129785714Y-88702438D01*
X129785714Y-88702438D02*
X129833333Y-88750057D01*
X129833333Y-88750057D02*
X129880952Y-88845295D01*
X129880952Y-88845295D02*
X129880952Y-88940533D01*
X129880952Y-88940533D02*
X129833333Y-89035771D01*
X129833333Y-89035771D02*
X129785714Y-89083390D01*
X129785714Y-89083390D02*
X129690476Y-89131009D01*
X129690476Y-89131009D02*
X129357143Y-89131009D01*
X130309524Y-89369104D02*
X130785714Y-89369104D01*
X130214286Y-89654819D02*
X130547619Y-88654819D01*
X130547619Y-88654819D02*
X130880952Y-89654819D01*
X131071429Y-88654819D02*
X131642857Y-88654819D01*
X131357143Y-89654819D02*
X131357143Y-88654819D01*
X138159580Y-105442857D02*
X138207200Y-105490476D01*
X138207200Y-105490476D02*
X138254819Y-105633333D01*
X138254819Y-105633333D02*
X138254819Y-105728571D01*
X138254819Y-105728571D02*
X138207200Y-105871428D01*
X138207200Y-105871428D02*
X138111961Y-105966666D01*
X138111961Y-105966666D02*
X138016723Y-106014285D01*
X138016723Y-106014285D02*
X137826247Y-106061904D01*
X137826247Y-106061904D02*
X137683390Y-106061904D01*
X137683390Y-106061904D02*
X137492914Y-106014285D01*
X137492914Y-106014285D02*
X137397676Y-105966666D01*
X137397676Y-105966666D02*
X137302438Y-105871428D01*
X137302438Y-105871428D02*
X137254819Y-105728571D01*
X137254819Y-105728571D02*
X137254819Y-105633333D01*
X137254819Y-105633333D02*
X137302438Y-105490476D01*
X137302438Y-105490476D02*
X137350057Y-105442857D01*
X138254819Y-104490476D02*
X138254819Y-105061904D01*
X138254819Y-104776190D02*
X137254819Y-104776190D01*
X137254819Y-104776190D02*
X137397676Y-104871428D01*
X137397676Y-104871428D02*
X137492914Y-104966666D01*
X137492914Y-104966666D02*
X137540533Y-105061904D01*
X137254819Y-103871428D02*
X137254819Y-103776190D01*
X137254819Y-103776190D02*
X137302438Y-103680952D01*
X137302438Y-103680952D02*
X137350057Y-103633333D01*
X137350057Y-103633333D02*
X137445295Y-103585714D01*
X137445295Y-103585714D02*
X137635771Y-103538095D01*
X137635771Y-103538095D02*
X137873866Y-103538095D01*
X137873866Y-103538095D02*
X138064342Y-103585714D01*
X138064342Y-103585714D02*
X138159580Y-103633333D01*
X138159580Y-103633333D02*
X138207200Y-103680952D01*
X138207200Y-103680952D02*
X138254819Y-103776190D01*
X138254819Y-103776190D02*
X138254819Y-103871428D01*
X138254819Y-103871428D02*
X138207200Y-103966666D01*
X138207200Y-103966666D02*
X138159580Y-104014285D01*
X138159580Y-104014285D02*
X138064342Y-104061904D01*
X138064342Y-104061904D02*
X137873866Y-104109523D01*
X137873866Y-104109523D02*
X137635771Y-104109523D01*
X137635771Y-104109523D02*
X137445295Y-104061904D01*
X137445295Y-104061904D02*
X137350057Y-104014285D01*
X137350057Y-104014285D02*
X137302438Y-103966666D01*
X137302438Y-103966666D02*
X137254819Y-103871428D01*
X144633333Y-85454819D02*
X144300000Y-84978628D01*
X144061905Y-85454819D02*
X144061905Y-84454819D01*
X144061905Y-84454819D02*
X144442857Y-84454819D01*
X144442857Y-84454819D02*
X144538095Y-84502438D01*
X144538095Y-84502438D02*
X144585714Y-84550057D01*
X144585714Y-84550057D02*
X144633333Y-84645295D01*
X144633333Y-84645295D02*
X144633333Y-84788152D01*
X144633333Y-84788152D02*
X144585714Y-84883390D01*
X144585714Y-84883390D02*
X144538095Y-84931009D01*
X144538095Y-84931009D02*
X144442857Y-84978628D01*
X144442857Y-84978628D02*
X144061905Y-84978628D01*
X144966667Y-84454819D02*
X145585714Y-84454819D01*
X145585714Y-84454819D02*
X145252381Y-84835771D01*
X145252381Y-84835771D02*
X145395238Y-84835771D01*
X145395238Y-84835771D02*
X145490476Y-84883390D01*
X145490476Y-84883390D02*
X145538095Y-84931009D01*
X145538095Y-84931009D02*
X145585714Y-85026247D01*
X145585714Y-85026247D02*
X145585714Y-85264342D01*
X145585714Y-85264342D02*
X145538095Y-85359580D01*
X145538095Y-85359580D02*
X145490476Y-85407200D01*
X145490476Y-85407200D02*
X145395238Y-85454819D01*
X145395238Y-85454819D02*
X145109524Y-85454819D01*
X145109524Y-85454819D02*
X145014286Y-85407200D01*
X145014286Y-85407200D02*
X144966667Y-85359580D01*
X143633333Y-111854819D02*
X143300000Y-111378628D01*
X143061905Y-111854819D02*
X143061905Y-110854819D01*
X143061905Y-110854819D02*
X143442857Y-110854819D01*
X143442857Y-110854819D02*
X143538095Y-110902438D01*
X143538095Y-110902438D02*
X143585714Y-110950057D01*
X143585714Y-110950057D02*
X143633333Y-111045295D01*
X143633333Y-111045295D02*
X143633333Y-111188152D01*
X143633333Y-111188152D02*
X143585714Y-111283390D01*
X143585714Y-111283390D02*
X143538095Y-111331009D01*
X143538095Y-111331009D02*
X143442857Y-111378628D01*
X143442857Y-111378628D02*
X143061905Y-111378628D01*
X144585714Y-111854819D02*
X144014286Y-111854819D01*
X144300000Y-111854819D02*
X144300000Y-110854819D01*
X144300000Y-110854819D02*
X144204762Y-110997676D01*
X144204762Y-110997676D02*
X144109524Y-111092914D01*
X144109524Y-111092914D02*
X144014286Y-111140533D01*
X152238095Y-83054819D02*
X152238095Y-83864342D01*
X152238095Y-83864342D02*
X152285714Y-83959580D01*
X152285714Y-83959580D02*
X152333333Y-84007200D01*
X152333333Y-84007200D02*
X152428571Y-84054819D01*
X152428571Y-84054819D02*
X152619047Y-84054819D01*
X152619047Y-84054819D02*
X152714285Y-84007200D01*
X152714285Y-84007200D02*
X152761904Y-83959580D01*
X152761904Y-83959580D02*
X152809523Y-83864342D01*
X152809523Y-83864342D02*
X152809523Y-83054819D01*
X153714285Y-83388152D02*
X153714285Y-84054819D01*
X153476190Y-83007200D02*
X153238095Y-83721485D01*
X153238095Y-83721485D02*
X153857142Y-83721485D01*
X162433333Y-81454819D02*
X162100000Y-80978628D01*
X161861905Y-81454819D02*
X161861905Y-80454819D01*
X161861905Y-80454819D02*
X162242857Y-80454819D01*
X162242857Y-80454819D02*
X162338095Y-80502438D01*
X162338095Y-80502438D02*
X162385714Y-80550057D01*
X162385714Y-80550057D02*
X162433333Y-80645295D01*
X162433333Y-80645295D02*
X162433333Y-80788152D01*
X162433333Y-80788152D02*
X162385714Y-80883390D01*
X162385714Y-80883390D02*
X162338095Y-80931009D01*
X162338095Y-80931009D02*
X162242857Y-80978628D01*
X162242857Y-80978628D02*
X161861905Y-80978628D01*
X163290476Y-80788152D02*
X163290476Y-81454819D01*
X163052381Y-80407200D02*
X162814286Y-81121485D01*
X162814286Y-81121485D02*
X163433333Y-81121485D01*
X147359580Y-98566666D02*
X147407200Y-98614285D01*
X147407200Y-98614285D02*
X147454819Y-98757142D01*
X147454819Y-98757142D02*
X147454819Y-98852380D01*
X147454819Y-98852380D02*
X147407200Y-98995237D01*
X147407200Y-98995237D02*
X147311961Y-99090475D01*
X147311961Y-99090475D02*
X147216723Y-99138094D01*
X147216723Y-99138094D02*
X147026247Y-99185713D01*
X147026247Y-99185713D02*
X146883390Y-99185713D01*
X146883390Y-99185713D02*
X146692914Y-99138094D01*
X146692914Y-99138094D02*
X146597676Y-99090475D01*
X146597676Y-99090475D02*
X146502438Y-98995237D01*
X146502438Y-98995237D02*
X146454819Y-98852380D01*
X146454819Y-98852380D02*
X146454819Y-98757142D01*
X146454819Y-98757142D02*
X146502438Y-98614285D01*
X146502438Y-98614285D02*
X146550057Y-98566666D01*
X147454819Y-97614285D02*
X147454819Y-98185713D01*
X147454819Y-97899999D02*
X146454819Y-97899999D01*
X146454819Y-97899999D02*
X146597676Y-97995237D01*
X146597676Y-97995237D02*
X146692914Y-98090475D01*
X146692914Y-98090475D02*
X146740533Y-98185713D01*
X147833333Y-110959580D02*
X147785714Y-111007200D01*
X147785714Y-111007200D02*
X147642857Y-111054819D01*
X147642857Y-111054819D02*
X147547619Y-111054819D01*
X147547619Y-111054819D02*
X147404762Y-111007200D01*
X147404762Y-111007200D02*
X147309524Y-110911961D01*
X147309524Y-110911961D02*
X147261905Y-110816723D01*
X147261905Y-110816723D02*
X147214286Y-110626247D01*
X147214286Y-110626247D02*
X147214286Y-110483390D01*
X147214286Y-110483390D02*
X147261905Y-110292914D01*
X147261905Y-110292914D02*
X147309524Y-110197676D01*
X147309524Y-110197676D02*
X147404762Y-110102438D01*
X147404762Y-110102438D02*
X147547619Y-110054819D01*
X147547619Y-110054819D02*
X147642857Y-110054819D01*
X147642857Y-110054819D02*
X147785714Y-110102438D01*
X147785714Y-110102438D02*
X147833333Y-110150057D01*
X148690476Y-110388152D02*
X148690476Y-111054819D01*
X148452381Y-110007200D02*
X148214286Y-110721485D01*
X148214286Y-110721485D02*
X148833333Y-110721485D01*
X159990476Y-94234819D02*
X159990476Y-94949104D01*
X159990476Y-94949104D02*
X159942857Y-95091961D01*
X159942857Y-95091961D02*
X159847619Y-95187200D01*
X159847619Y-95187200D02*
X159704762Y-95234819D01*
X159704762Y-95234819D02*
X159609524Y-95234819D01*
X160990476Y-95234819D02*
X160419048Y-95234819D01*
X160704762Y-95234819D02*
X160704762Y-94234819D01*
X160704762Y-94234819D02*
X160609524Y-94377676D01*
X160609524Y-94377676D02*
X160514286Y-94472914D01*
X160514286Y-94472914D02*
X160419048Y-94520533D01*
X161942857Y-95234819D02*
X161371429Y-95234819D01*
X161657143Y-95234819D02*
X161657143Y-94234819D01*
X161657143Y-94234819D02*
X161561905Y-94377676D01*
X161561905Y-94377676D02*
X161466667Y-94472914D01*
X161466667Y-94472914D02*
X161371429Y-94520533D01*
X136378628Y-100476190D02*
X136854819Y-100476190D01*
X135854819Y-100809523D02*
X136378628Y-100476190D01*
X136378628Y-100476190D02*
X135854819Y-100142857D01*
X135950057Y-99857142D02*
X135902438Y-99809523D01*
X135902438Y-99809523D02*
X135854819Y-99714285D01*
X135854819Y-99714285D02*
X135854819Y-99476190D01*
X135854819Y-99476190D02*
X135902438Y-99380952D01*
X135902438Y-99380952D02*
X135950057Y-99333333D01*
X135950057Y-99333333D02*
X136045295Y-99285714D01*
X136045295Y-99285714D02*
X136140533Y-99285714D01*
X136140533Y-99285714D02*
X136283390Y-99333333D01*
X136283390Y-99333333D02*
X136854819Y-99904761D01*
X136854819Y-99904761D02*
X136854819Y-99285714D01*
D13*
X140140000Y-117027500D02*
X140140000Y-117502500D01*
X140140000Y-121247500D02*
X140140000Y-120772500D01*
X140615000Y-117027500D02*
X140140000Y-117027500D01*
X140615000Y-121247500D02*
X140140000Y-121247500D01*
X143885000Y-117027500D02*
X144360000Y-117027500D01*
X143885000Y-121247500D02*
X144060000Y-121247500D01*
X144360000Y-117027500D02*
X144360000Y-117502500D01*
X144360000Y-120772500D02*
X144360000Y-121007500D01*
X144600000Y-121577500D02*
X144120000Y-121577500D01*
X144360000Y-121247500D01*
X144600000Y-121577500D01*
G36*
X144600000Y-121577500D02*
G01*
X144120000Y-121577500D01*
X144360000Y-121247500D01*
X144600000Y-121577500D01*
G37*
X163470000Y-84640000D02*
X164800000Y-84640000D01*
X163470000Y-85970000D02*
X163470000Y-84640000D01*
X163470000Y-87240000D02*
X163470000Y-97460000D01*
X163470000Y-87240000D02*
X166130000Y-87240000D01*
X163470000Y-97460000D02*
X166130000Y-97460000D01*
X166130000Y-87240000D02*
X166130000Y-97460000D01*
X137730000Y-83295000D02*
X137730000Y-84995000D01*
X147070000Y-83295000D02*
X147070000Y-84995000D01*
X119770000Y-100475000D02*
X120030000Y-100475000D01*
X119770000Y-103200000D02*
X119770000Y-100475000D01*
X119770000Y-103200000D02*
X119770000Y-105925000D01*
X119770000Y-105925000D02*
X120030000Y-105925000D01*
X125220000Y-100475000D02*
X124960000Y-100475000D01*
X125220000Y-103200000D02*
X125220000Y-100475000D01*
X125220000Y-103200000D02*
X125220000Y-105925000D01*
X125220000Y-105925000D02*
X124960000Y-105925000D01*
X120030000Y-106707500D02*
X119700000Y-106947500D01*
X119700000Y-106467500D01*
X120030000Y-106707500D01*
G36*
X120030000Y-106707500D02*
G01*
X119700000Y-106947500D01*
X119700000Y-106467500D01*
X120030000Y-106707500D01*
G37*
X139492164Y-88440000D02*
X139707836Y-88440000D01*
X139492164Y-89160000D02*
X139707836Y-89160000D01*
X118450000Y-83815000D02*
X118450000Y-82815000D01*
X119050000Y-83815000D02*
X118450000Y-83815000D01*
X121850000Y-81015000D02*
X119850000Y-81015000D01*
X122650000Y-83815000D02*
X123250000Y-83815000D01*
X123250000Y-83815000D02*
X123250000Y-82815000D01*
X134662500Y-97990000D02*
X134322500Y-97520000D01*
X135002500Y-97520000D01*
X134662500Y-97990000D01*
G36*
X134662500Y-97990000D02*
G01*
X134322500Y-97520000D01*
X135002500Y-97520000D01*
X134662500Y-97990000D01*
G37*
X149510000Y-111510000D02*
X149510000Y-110810000D01*
X149510000Y-97290000D02*
X149510000Y-97990000D01*
X148810000Y-111510000D02*
X149510000Y-111510000D01*
X148810000Y-97290000D02*
X149510000Y-97290000D01*
X135990000Y-111510000D02*
X135290000Y-111510000D01*
X135990000Y-97290000D02*
X135290000Y-97290000D01*
X135290000Y-111510000D02*
X135290000Y-110810000D01*
X135290000Y-97290000D02*
X135290000Y-97990000D01*
X152070000Y-102445000D02*
X153400000Y-102445000D01*
X152070000Y-103775000D02*
X152070000Y-102445000D01*
X152070000Y-105045000D02*
X152070000Y-127965000D01*
X152070000Y-105045000D02*
X154730000Y-105045000D01*
X152070000Y-127965000D02*
X154730000Y-127965000D01*
X154730000Y-105045000D02*
X154730000Y-127965000D01*
X140840000Y-90400000D02*
X140840000Y-89600000D01*
X140840000Y-90400000D02*
X140840000Y-91200000D01*
X143960000Y-90400000D02*
X143960000Y-89600000D01*
X143960000Y-90400000D02*
X143960000Y-91200000D01*
X144240000Y-89340000D02*
X143910000Y-89100000D01*
X144240000Y-88860000D01*
X144240000Y-89340000D01*
G36*
X144240000Y-89340000D02*
G01*
X143910000Y-89100000D01*
X144240000Y-88860000D01*
X144240000Y-89340000D01*
G37*
X136092164Y-94640000D02*
X136307836Y-94640000D01*
X136092164Y-95360000D02*
X136307836Y-95360000D01*
X155870000Y-97330000D02*
X157200000Y-97330000D01*
X155870000Y-98660000D02*
X155870000Y-97330000D01*
X155870000Y-99930000D02*
X155870000Y-127930000D01*
X155870000Y-99930000D02*
X158530000Y-99930000D01*
X155870000Y-127930000D02*
X158530000Y-127930000D01*
X158530000Y-99930000D02*
X158530000Y-127930000D01*
X163470000Y-97390000D02*
X164800000Y-97390000D01*
X163470000Y-98720000D02*
X163470000Y-97390000D01*
X163470000Y-99990000D02*
X163470000Y-127990000D01*
X163470000Y-99990000D02*
X166130000Y-99990000D01*
X163470000Y-127990000D02*
X166130000Y-127990000D01*
X166130000Y-99990000D02*
X166130000Y-127990000D01*
X154859420Y-89290000D02*
X155140580Y-89290000D01*
X154859420Y-90310000D02*
X155140580Y-90310000D01*
X124870000Y-80330000D02*
X126200000Y-80330000D01*
X124870000Y-81660000D02*
X124870000Y-80330000D01*
X124870000Y-82930000D02*
X124870000Y-88070000D01*
X124870000Y-82930000D02*
X127530000Y-82930000D01*
X124870000Y-88070000D02*
X127530000Y-88070000D01*
X127530000Y-82930000D02*
X127530000Y-88070000D01*
X157250000Y-80650000D02*
X159150000Y-80650000D01*
X157250000Y-82550000D02*
X157250000Y-80650000D01*
X159150000Y-80650000D02*
X159150000Y-82550000D01*
X159150000Y-82550000D02*
X157250000Y-82550000D01*
X128350000Y-107400000D02*
X131650000Y-107400000D01*
X131650000Y-107400000D02*
X131650000Y-103400000D01*
X107120000Y-113865000D02*
X107120000Y-129385000D01*
X120700000Y-113180000D02*
X121200000Y-113680000D01*
X121200000Y-113680000D02*
X121700000Y-113180000D01*
X121700000Y-113180000D02*
X120700000Y-113180000D01*
X125080000Y-113865000D02*
X107120000Y-113865000D01*
X125080000Y-129385000D02*
X107120000Y-129385000D01*
X125080000Y-129385000D02*
X125080000Y-113865000D01*
X164492164Y-81840000D02*
X164707836Y-81840000D01*
X164492164Y-82560000D02*
X164707836Y-82560000D01*
X137390000Y-128730000D02*
X137390000Y-127400000D01*
X138720000Y-128730000D02*
X137390000Y-128730000D01*
X139990000Y-126070000D02*
X147670000Y-126070000D01*
X139990000Y-128730000D02*
X139990000Y-126070000D01*
X139990000Y-128730000D02*
X147670000Y-128730000D01*
X147670000Y-128730000D02*
X147670000Y-126070000D01*
X132470000Y-80270000D02*
X133800000Y-80270000D01*
X132470000Y-81600000D02*
X132470000Y-80270000D01*
X132470000Y-82870000D02*
X132470000Y-88010000D01*
X132470000Y-82870000D02*
X135130000Y-82870000D01*
X132470000Y-88010000D02*
X135130000Y-88010000D01*
X135130000Y-82870000D02*
X135130000Y-88010000D01*
X152490000Y-98340580D02*
X152490000Y-98059420D01*
X153510000Y-98340580D02*
X153510000Y-98059420D01*
X151140580Y-89290000D02*
X150859420Y-89290000D01*
X151140580Y-90310000D02*
X150859420Y-90310000D01*
X151500000Y-100100000D02*
X152900000Y-100100000D01*
X151500000Y-101500000D02*
X151500000Y-100100000D01*
X152900000Y-100100000D02*
X152900000Y-101500000D01*
X152900000Y-101500000D02*
X151500000Y-101500000D01*
X159670000Y-97330000D02*
X161000000Y-97330000D01*
X159670000Y-98660000D02*
X159670000Y-97330000D01*
X159670000Y-99930000D02*
X159670000Y-127930000D01*
X159670000Y-99930000D02*
X162330000Y-99930000D01*
X159670000Y-127930000D02*
X162330000Y-127930000D01*
X162330000Y-99930000D02*
X162330000Y-127930000D01*
X127335000Y-115740000D02*
X127335000Y-117195000D01*
X127335000Y-128660000D02*
X127335000Y-127205000D01*
X131000000Y-115740000D02*
X127335000Y-115740000D01*
X131000000Y-115740000D02*
X134665000Y-115740000D01*
X131000000Y-128660000D02*
X127335000Y-128660000D01*
X131000000Y-128660000D02*
X134665000Y-128660000D01*
X134665000Y-115740000D02*
X134665000Y-117195000D01*
X134665000Y-128660000D02*
X134665000Y-127205000D01*
X126635000Y-117195000D02*
X126295000Y-116725000D01*
X126975000Y-116725000D01*
X126635000Y-117195000D01*
G36*
X126635000Y-117195000D02*
G01*
X126295000Y-116725000D01*
X126975000Y-116725000D01*
X126635000Y-117195000D01*
G37*
X128670000Y-80330000D02*
X130000000Y-80330000D01*
X128670000Y-81660000D02*
X128670000Y-80330000D01*
X128670000Y-82930000D02*
X128670000Y-88070000D01*
X128670000Y-82930000D02*
X131330000Y-82930000D01*
X128670000Y-88070000D02*
X131330000Y-88070000D01*
X131330000Y-82930000D02*
X131330000Y-88070000D01*
X145307836Y-88440000D02*
X145092164Y-88440000D01*
X145307836Y-89160000D02*
X145092164Y-89160000D01*
X143892164Y-122040000D02*
X144107836Y-122040000D01*
X143892164Y-122760000D02*
X144107836Y-122760000D01*
X149590000Y-82490000D02*
X150850000Y-82490000D01*
X149590000Y-86250000D02*
X149590000Y-82490000D01*
X156410000Y-82490000D02*
X155150000Y-82490000D01*
X156410000Y-86250000D02*
X156410000Y-82490000D01*
X149690000Y-87530000D02*
X149360000Y-87770000D01*
X149360000Y-87290000D01*
X149690000Y-87530000D01*
G36*
X149690000Y-87530000D02*
G01*
X149360000Y-87770000D01*
X149360000Y-87290000D01*
X149690000Y-87530000D01*
G37*
X162707836Y-81840000D02*
X162492164Y-81840000D01*
X162707836Y-82560000D02*
X162492164Y-82560000D01*
X148059420Y-114490000D02*
X148340580Y-114490000D01*
X148059420Y-115510000D02*
X148340580Y-115510000D01*
X159670000Y-94850000D02*
X159670000Y-84630000D01*
X162330000Y-84630000D02*
X159670000Y-84630000D01*
X162330000Y-94850000D02*
X159670000Y-94850000D01*
X162330000Y-94850000D02*
X162330000Y-84630000D01*
X162330000Y-96120000D02*
X162330000Y-97450000D01*
X162330000Y-97450000D02*
X161000000Y-97450000D01*
X129725000Y-99325000D02*
X129725000Y-100675000D01*
X131475000Y-99325000D02*
X131475000Y-100675000D01*
%LPC*%
D14*
X120370000Y-84915000D03*
X119730000Y-84915000D03*
D15*
X135880000Y-94000000D03*
X136520000Y-94000000D03*
D16*
X144187500Y-120387500D03*
X144187500Y-119887500D03*
X144187500Y-119387500D03*
X144187500Y-118887500D03*
X144187500Y-118387500D03*
X144187500Y-117887500D03*
D17*
X143500000Y-117200000D03*
X143000000Y-117200000D03*
X142500000Y-117200000D03*
X142000000Y-117200000D03*
X141500000Y-117200000D03*
X141000000Y-117200000D03*
D16*
X140312500Y-117887500D03*
X140312500Y-118387500D03*
X140312500Y-118887500D03*
X140312500Y-119387500D03*
X140312500Y-119887500D03*
X140312500Y-120387500D03*
D17*
X141000000Y-121075000D03*
X141500000Y-121075000D03*
X142000000Y-121075000D03*
X142500000Y-121075000D03*
X143000000Y-121075000D03*
X143500000Y-121075000D03*
D18*
X142250000Y-119137500D03*
D15*
X148680000Y-113830000D03*
X149320000Y-113830000D03*
D19*
X164800000Y-85970000D03*
D20*
X164800000Y-88510000D03*
X164800000Y-91050000D03*
X164800000Y-93590000D03*
X164800000Y-96130000D03*
D21*
X132400000Y-100680000D03*
X132400000Y-101320000D03*
D22*
X145290000Y-85800000D03*
X139510000Y-85800000D03*
D23*
X145600000Y-86875000D03*
X144800000Y-86875000D03*
D24*
X143650000Y-86875000D03*
X142650000Y-86875000D03*
X142150000Y-86875000D03*
X141150000Y-86875000D03*
D23*
X140000000Y-86875000D03*
X139200000Y-86875000D03*
X139200000Y-86875000D03*
X140000000Y-86875000D03*
D24*
X140650000Y-86875000D03*
X141650000Y-86875000D03*
X143150000Y-86875000D03*
X144150000Y-86875000D03*
D23*
X144800000Y-86875000D03*
X145600000Y-86875000D03*
D25*
X146720000Y-86300000D03*
D26*
X146720000Y-82120000D03*
D25*
X138080000Y-86300000D03*
D26*
X138080000Y-82120000D03*
D27*
X120590000Y-106800000D03*
X121860000Y-106800000D03*
X123130000Y-106800000D03*
X124400000Y-106800000D03*
X124400000Y-99600000D03*
X123130000Y-99600000D03*
X121860000Y-99600000D03*
X120590000Y-99600000D03*
D28*
X139120000Y-88800000D03*
X140080000Y-88800000D03*
D29*
X122975000Y-82315000D03*
X118725000Y-82315000D03*
D30*
X122075000Y-83215000D03*
X119625000Y-83215000D03*
D31*
X120850000Y-83215000D03*
D32*
X122700000Y-81265000D03*
X119000000Y-81265000D03*
D33*
X136400000Y-96725000D03*
X136900000Y-96725000D03*
X137400000Y-96725000D03*
X137900000Y-96725000D03*
X138400000Y-96725000D03*
X138900000Y-96725000D03*
X139400000Y-96725000D03*
X139900000Y-96725000D03*
X140400000Y-96725000D03*
X140900000Y-96725000D03*
X141400000Y-96725000D03*
X141900000Y-96725000D03*
X142400000Y-96725000D03*
X142900000Y-96725000D03*
X143400000Y-96725000D03*
X143900000Y-96725000D03*
X144400000Y-96725000D03*
X144900000Y-96725000D03*
X145400000Y-96725000D03*
X145900000Y-96725000D03*
X146400000Y-96725000D03*
X146900000Y-96725000D03*
X147400000Y-96725000D03*
X147900000Y-96725000D03*
X148400000Y-96725000D03*
D34*
X150075000Y-98400000D03*
X150075000Y-98900000D03*
X150075000Y-99400000D03*
X150075000Y-99900000D03*
X150075000Y-100400000D03*
X150075000Y-100900000D03*
X150075000Y-101400000D03*
X150075000Y-101900000D03*
X150075000Y-102400000D03*
X150075000Y-102900000D03*
X150075000Y-103400000D03*
X150075000Y-103900000D03*
X150075000Y-104400000D03*
X150075000Y-104900000D03*
X150075000Y-105400000D03*
X150075000Y-105900000D03*
X150075000Y-106400000D03*
X150075000Y-106900000D03*
X150075000Y-107400000D03*
X150075000Y-107900000D03*
X150075000Y-108400000D03*
X150075000Y-108900000D03*
X150075000Y-109400000D03*
X150075000Y-109900000D03*
X150075000Y-110400000D03*
D33*
X148400000Y-112075000D03*
X147900000Y-112075000D03*
X147400000Y-112075000D03*
X146900000Y-112075000D03*
X146400000Y-112075000D03*
X145900000Y-112075000D03*
X145400000Y-112075000D03*
X144900000Y-112075000D03*
X144400000Y-112075000D03*
X143900000Y-112075000D03*
X143400000Y-112075000D03*
X142900000Y-112075000D03*
X142400000Y-112075000D03*
X141900000Y-112075000D03*
X141400000Y-112075000D03*
X140900000Y-112075000D03*
X140400000Y-112075000D03*
X139900000Y-112075000D03*
X139400000Y-112075000D03*
X138900000Y-112075000D03*
X138400000Y-112075000D03*
X137900000Y-112075000D03*
X137400000Y-112075000D03*
X136900000Y-112075000D03*
X136400000Y-112075000D03*
D34*
X134725000Y-110400000D03*
X134725000Y-109900000D03*
X134725000Y-109400000D03*
X134725000Y-108900000D03*
X134725000Y-108400000D03*
X134725000Y-107900000D03*
X134725000Y-107400000D03*
X134725000Y-106900000D03*
X134725000Y-106400000D03*
X134725000Y-105900000D03*
X134725000Y-105400000D03*
X134725000Y-104900000D03*
X134725000Y-104400000D03*
X134725000Y-103900000D03*
X134725000Y-103400000D03*
X134725000Y-102900000D03*
X134725000Y-102400000D03*
X134725000Y-101900000D03*
X134725000Y-101400000D03*
X134725000Y-100900000D03*
X134725000Y-100400000D03*
X134725000Y-99900000D03*
X134725000Y-99400000D03*
X134725000Y-98900000D03*
X134725000Y-98400000D03*
D19*
X153400000Y-103775000D03*
D20*
X153400000Y-106315000D03*
X153400000Y-108855000D03*
X153400000Y-111395000D03*
X153400000Y-113935000D03*
X153400000Y-116475000D03*
X153400000Y-119015000D03*
X153400000Y-121555000D03*
X153400000Y-124095000D03*
X153400000Y-126635000D03*
D35*
X133000000Y-108320000D03*
X133000000Y-107680000D03*
D36*
X143350000Y-89262500D03*
X142400000Y-89262500D03*
X141450000Y-89262500D03*
X141450000Y-91537500D03*
X142400000Y-91537500D03*
X143350000Y-91537500D03*
D14*
X132920000Y-103000000D03*
X132280000Y-103000000D03*
X136920000Y-113800000D03*
X136280000Y-113800000D03*
D28*
X135720000Y-95000000D03*
X136680000Y-95000000D03*
D19*
X157200000Y-98660000D03*
D20*
X157200000Y-101200000D03*
X157200000Y-103740000D03*
X157200000Y-106280000D03*
X157200000Y-108820000D03*
X157200000Y-111360000D03*
X157200000Y-113900000D03*
X157200000Y-116440000D03*
X157200000Y-118980000D03*
X157200000Y-121520000D03*
X157200000Y-124060000D03*
X157200000Y-126600000D03*
D19*
X164800000Y-98720000D03*
D20*
X164800000Y-101260000D03*
X164800000Y-103800000D03*
X164800000Y-106340000D03*
X164800000Y-108880000D03*
X164800000Y-111420000D03*
X164800000Y-113960000D03*
X164800000Y-116500000D03*
X164800000Y-119040000D03*
X164800000Y-121580000D03*
X164800000Y-124120000D03*
X164800000Y-126660000D03*
D37*
X154225000Y-89800000D03*
X155775000Y-89800000D03*
D19*
X126200000Y-81660000D03*
D20*
X126200000Y-84200000D03*
X126200000Y-86740000D03*
D38*
X158200000Y-81600000D03*
D39*
X130850000Y-106500000D03*
X130850000Y-104300000D03*
X129150000Y-104300000D03*
X129150000Y-106500000D03*
D40*
X114850000Y-115910000D03*
X114850000Y-127340000D03*
D38*
X121200000Y-117180000D03*
D41*
X123740000Y-118450000D03*
X121200000Y-119720000D03*
X123740000Y-120990000D03*
X121200000Y-122260000D03*
X123740000Y-123530000D03*
X121200000Y-124800000D03*
X123740000Y-126070000D03*
D21*
X132200000Y-106280000D03*
X132200000Y-106920000D03*
D28*
X164120000Y-82200000D03*
X165080000Y-82200000D03*
D19*
X138720000Y-127400000D03*
D20*
X141260000Y-127400000D03*
X143800000Y-127400000D03*
X146340000Y-127400000D03*
D19*
X133800000Y-81600000D03*
D20*
X133800000Y-84140000D03*
X133800000Y-86680000D03*
D42*
X153000000Y-98975000D03*
X153000000Y-97425000D03*
D43*
X151775000Y-89800000D03*
X150225000Y-89800000D03*
D44*
X152200000Y-100800000D03*
D35*
X132400000Y-99120000D03*
X132400000Y-98480000D03*
D19*
X161000000Y-98660000D03*
D20*
X161000000Y-101200000D03*
X161000000Y-103740000D03*
X161000000Y-106280000D03*
X161000000Y-108820000D03*
X161000000Y-111360000D03*
X161000000Y-113900000D03*
X161000000Y-116440000D03*
X161000000Y-118980000D03*
X161000000Y-121520000D03*
X161000000Y-124060000D03*
X161000000Y-126600000D03*
D45*
X126512500Y-117755000D03*
X126512500Y-119025000D03*
X126512500Y-120295000D03*
X126512500Y-121565000D03*
X126512500Y-122835000D03*
X126512500Y-124105000D03*
X126512500Y-125375000D03*
X126512500Y-126645000D03*
X135487500Y-126645000D03*
X135487500Y-125375000D03*
X135487500Y-124105000D03*
X135487500Y-122835000D03*
X135487500Y-121565000D03*
X135487500Y-120295000D03*
X135487500Y-119025000D03*
X135487500Y-117755000D03*
D19*
X130000000Y-81660000D03*
D20*
X130000000Y-84200000D03*
X130000000Y-86740000D03*
D35*
X132200000Y-104720000D03*
X132200000Y-104080000D03*
D46*
X145680000Y-88800000D03*
X144720000Y-88800000D03*
D28*
X143520000Y-122400000D03*
X144480000Y-122400000D03*
D47*
X150700000Y-87550000D03*
X153000000Y-87550000D03*
D48*
X153000000Y-81250000D03*
D47*
X155300000Y-87550000D03*
D46*
X163080000Y-82200000D03*
X162120000Y-82200000D03*
D35*
X151800000Y-97920000D03*
X151800000Y-97280000D03*
D37*
X147425000Y-115000000D03*
X148975000Y-115000000D03*
D19*
X161000000Y-96120000D03*
D20*
X161000000Y-93580000D03*
X161000000Y-91040000D03*
X161000000Y-88500000D03*
X161000000Y-85960000D03*
D49*
X130600000Y-101250000D03*
X130600000Y-98750000D03*
%LPD*%
M02*
