%TF.GenerationSoftware,KiCad,Pcbnew,8.0.7*%
%TF.CreationDate,2025-01-11T17:49:51-05:00*%
%TF.ProjectId,STM32H750VBT6_Minimalistic_Design,53544d33-3248-4373-9530-564254365f4d,rev?*%
%TF.SameCoordinates,Original*%
%TF.FileFunction,Drillmap*%
%TF.FilePolarity,Positive*%
%FSLAX45Y45*%
G04 Gerber Fmt 4.5, Leading zero omitted, Abs format (unit mm)*
G04 Created by KiCad (PCBNEW 8.0.7) date 2025-01-11 17:49:51*
%MOMM*%
%LPD*%
G01*
G04 APERTURE LIST*
%ADD10C,0.200000*%
%ADD11C,0.100000*%
%ADD12C,0.320000*%
G04 APERTURE END LIST*
D10*
X12060000Y-12940000D02*
G75*
G02*
X11760000Y-12640000I0J300000D01*
G01*
X16740000Y-12640000D02*
G75*
G02*
X16440000Y-12940000I-300000J0D01*
G01*
X11760000Y-8260000D02*
G75*
G02*
X12060000Y-7960000I300000J0D01*
G01*
X16440000Y-7960000D02*
G75*
G02*
X16740000Y-8260000I0J-300000D01*
G01*
X11760000Y-12640000D02*
X11760000Y-8260000D01*
X16440000Y-12940000D02*
X12060000Y-12940000D01*
X16740000Y-8260000D02*
X16740000Y-12640000D01*
X12060000Y-7960000D02*
X16440000Y-7960000D01*
D11*
X13918500Y-8547500D02*
X13983500Y-8612500D01*
X13983500Y-8547500D02*
X13918500Y-8612500D01*
X14496500Y-8547500D02*
X14561500Y-8612500D01*
X14561500Y-8547500D02*
X14496500Y-8612500D01*
X11917500Y-8231500D02*
G75*
G02*
X11827500Y-8231500I-45000J0D01*
G01*
X11827500Y-8231500D02*
G75*
G02*
X11917500Y-8231500I45000J0D01*
G01*
X12342500Y-8231500D02*
G75*
G02*
X12252500Y-8231500I-45000J0D01*
G01*
X12252500Y-8231500D02*
G75*
G02*
X12342500Y-8231500I45000J0D01*
G01*
D12*
X11485000Y-11431000D02*
X11485000Y-11751000D01*
X11325000Y-11591000D02*
X11645000Y-11591000D01*
X11485000Y-12574000D02*
X11485000Y-12894000D01*
X11325000Y-12734000D02*
X11645000Y-12734000D01*
D10*
X12010777Y-13261484D02*
X12010777Y-13061484D01*
X12010777Y-13061484D02*
X12058396Y-13061484D01*
X12058396Y-13061484D02*
X12086967Y-13071008D01*
X12086967Y-13071008D02*
X12106015Y-13090055D01*
X12106015Y-13090055D02*
X12115539Y-13109103D01*
X12115539Y-13109103D02*
X12125062Y-13147198D01*
X12125062Y-13147198D02*
X12125062Y-13175769D01*
X12125062Y-13175769D02*
X12115539Y-13213865D01*
X12115539Y-13213865D02*
X12106015Y-13232912D01*
X12106015Y-13232912D02*
X12086967Y-13251960D01*
X12086967Y-13251960D02*
X12058396Y-13261484D01*
X12058396Y-13261484D02*
X12010777Y-13261484D01*
X12210777Y-13261484D02*
X12210777Y-13128150D01*
X12210777Y-13166246D02*
X12220301Y-13147198D01*
X12220301Y-13147198D02*
X12229824Y-13137674D01*
X12229824Y-13137674D02*
X12248872Y-13128150D01*
X12248872Y-13128150D02*
X12267920Y-13128150D01*
X12334586Y-13261484D02*
X12334586Y-13128150D01*
X12334586Y-13061484D02*
X12325062Y-13071008D01*
X12325062Y-13071008D02*
X12334586Y-13080531D01*
X12334586Y-13080531D02*
X12344110Y-13071008D01*
X12344110Y-13071008D02*
X12334586Y-13061484D01*
X12334586Y-13061484D02*
X12334586Y-13080531D01*
X12458396Y-13261484D02*
X12439348Y-13251960D01*
X12439348Y-13251960D02*
X12429824Y-13232912D01*
X12429824Y-13232912D02*
X12429824Y-13061484D01*
X12563158Y-13261484D02*
X12544110Y-13251960D01*
X12544110Y-13251960D02*
X12534586Y-13232912D01*
X12534586Y-13232912D02*
X12534586Y-13061484D01*
X12791729Y-13261484D02*
X12791729Y-13061484D01*
X12791729Y-13061484D02*
X12858396Y-13204341D01*
X12858396Y-13204341D02*
X12925062Y-13061484D01*
X12925062Y-13061484D02*
X12925062Y-13261484D01*
X13106015Y-13261484D02*
X13106015Y-13156722D01*
X13106015Y-13156722D02*
X13096491Y-13137674D01*
X13096491Y-13137674D02*
X13077443Y-13128150D01*
X13077443Y-13128150D02*
X13039348Y-13128150D01*
X13039348Y-13128150D02*
X13020301Y-13137674D01*
X13106015Y-13251960D02*
X13086967Y-13261484D01*
X13086967Y-13261484D02*
X13039348Y-13261484D01*
X13039348Y-13261484D02*
X13020301Y-13251960D01*
X13020301Y-13251960D02*
X13010777Y-13232912D01*
X13010777Y-13232912D02*
X13010777Y-13213865D01*
X13010777Y-13213865D02*
X13020301Y-13194817D01*
X13020301Y-13194817D02*
X13039348Y-13185293D01*
X13039348Y-13185293D02*
X13086967Y-13185293D01*
X13086967Y-13185293D02*
X13106015Y-13175769D01*
X13201253Y-13128150D02*
X13201253Y-13328150D01*
X13201253Y-13137674D02*
X13220301Y-13128150D01*
X13220301Y-13128150D02*
X13258396Y-13128150D01*
X13258396Y-13128150D02*
X13277443Y-13137674D01*
X13277443Y-13137674D02*
X13286967Y-13147198D01*
X13286967Y-13147198D02*
X13296491Y-13166246D01*
X13296491Y-13166246D02*
X13296491Y-13223388D01*
X13296491Y-13223388D02*
X13286967Y-13242436D01*
X13286967Y-13242436D02*
X13277443Y-13251960D01*
X13277443Y-13251960D02*
X13258396Y-13261484D01*
X13258396Y-13261484D02*
X13220301Y-13261484D01*
X13220301Y-13261484D02*
X13201253Y-13251960D01*
X13382205Y-13242436D02*
X13391729Y-13251960D01*
X13391729Y-13251960D02*
X13382205Y-13261484D01*
X13382205Y-13261484D02*
X13372682Y-13251960D01*
X13372682Y-13251960D02*
X13382205Y-13242436D01*
X13382205Y-13242436D02*
X13382205Y-13261484D01*
X13382205Y-13137674D02*
X13391729Y-13147198D01*
X13391729Y-13147198D02*
X13382205Y-13156722D01*
X13382205Y-13156722D02*
X13372682Y-13147198D01*
X13372682Y-13147198D02*
X13382205Y-13137674D01*
X13382205Y-13137674D02*
X13382205Y-13156722D01*
D11*
X11685000Y-13557500D02*
X11750000Y-13622500D01*
X11750000Y-13557500D02*
X11685000Y-13622500D01*
D10*
X12048872Y-13481484D02*
X12067920Y-13481484D01*
X12067920Y-13481484D02*
X12086967Y-13491008D01*
X12086967Y-13491008D02*
X12096491Y-13500531D01*
X12096491Y-13500531D02*
X12106015Y-13519579D01*
X12106015Y-13519579D02*
X12115539Y-13557674D01*
X12115539Y-13557674D02*
X12115539Y-13605293D01*
X12115539Y-13605293D02*
X12106015Y-13643388D01*
X12106015Y-13643388D02*
X12096491Y-13662436D01*
X12096491Y-13662436D02*
X12086967Y-13671960D01*
X12086967Y-13671960D02*
X12067920Y-13681484D01*
X12067920Y-13681484D02*
X12048872Y-13681484D01*
X12048872Y-13681484D02*
X12029824Y-13671960D01*
X12029824Y-13671960D02*
X12020301Y-13662436D01*
X12020301Y-13662436D02*
X12010777Y-13643388D01*
X12010777Y-13643388D02*
X12001253Y-13605293D01*
X12001253Y-13605293D02*
X12001253Y-13557674D01*
X12001253Y-13557674D02*
X12010777Y-13519579D01*
X12010777Y-13519579D02*
X12020301Y-13500531D01*
X12020301Y-13500531D02*
X12029824Y-13491008D01*
X12029824Y-13491008D02*
X12048872Y-13481484D01*
X12201253Y-13662436D02*
X12210777Y-13671960D01*
X12210777Y-13671960D02*
X12201253Y-13681484D01*
X12201253Y-13681484D02*
X12191729Y-13671960D01*
X12191729Y-13671960D02*
X12201253Y-13662436D01*
X12201253Y-13662436D02*
X12201253Y-13681484D01*
X12382205Y-13481484D02*
X12344110Y-13481484D01*
X12344110Y-13481484D02*
X12325062Y-13491008D01*
X12325062Y-13491008D02*
X12315539Y-13500531D01*
X12315539Y-13500531D02*
X12296491Y-13529103D01*
X12296491Y-13529103D02*
X12286967Y-13567198D01*
X12286967Y-13567198D02*
X12286967Y-13643388D01*
X12286967Y-13643388D02*
X12296491Y-13662436D01*
X12296491Y-13662436D02*
X12306015Y-13671960D01*
X12306015Y-13671960D02*
X12325062Y-13681484D01*
X12325062Y-13681484D02*
X12363158Y-13681484D01*
X12363158Y-13681484D02*
X12382205Y-13671960D01*
X12382205Y-13671960D02*
X12391729Y-13662436D01*
X12391729Y-13662436D02*
X12401253Y-13643388D01*
X12401253Y-13643388D02*
X12401253Y-13595769D01*
X12401253Y-13595769D02*
X12391729Y-13576722D01*
X12391729Y-13576722D02*
X12382205Y-13567198D01*
X12382205Y-13567198D02*
X12363158Y-13557674D01*
X12363158Y-13557674D02*
X12325062Y-13557674D01*
X12325062Y-13557674D02*
X12306015Y-13567198D01*
X12306015Y-13567198D02*
X12296491Y-13576722D01*
X12296491Y-13576722D02*
X12286967Y-13595769D01*
X12582205Y-13481484D02*
X12486967Y-13481484D01*
X12486967Y-13481484D02*
X12477443Y-13576722D01*
X12477443Y-13576722D02*
X12486967Y-13567198D01*
X12486967Y-13567198D02*
X12506015Y-13557674D01*
X12506015Y-13557674D02*
X12553634Y-13557674D01*
X12553634Y-13557674D02*
X12572682Y-13567198D01*
X12572682Y-13567198D02*
X12582205Y-13576722D01*
X12582205Y-13576722D02*
X12591729Y-13595769D01*
X12591729Y-13595769D02*
X12591729Y-13643388D01*
X12591729Y-13643388D02*
X12582205Y-13662436D01*
X12582205Y-13662436D02*
X12572682Y-13671960D01*
X12572682Y-13671960D02*
X12553634Y-13681484D01*
X12553634Y-13681484D02*
X12506015Y-13681484D01*
X12506015Y-13681484D02*
X12486967Y-13671960D01*
X12486967Y-13671960D02*
X12477443Y-13662436D01*
X12715539Y-13481484D02*
X12734586Y-13481484D01*
X12734586Y-13481484D02*
X12753634Y-13491008D01*
X12753634Y-13491008D02*
X12763158Y-13500531D01*
X12763158Y-13500531D02*
X12772682Y-13519579D01*
X12772682Y-13519579D02*
X12782205Y-13557674D01*
X12782205Y-13557674D02*
X12782205Y-13605293D01*
X12782205Y-13605293D02*
X12772682Y-13643388D01*
X12772682Y-13643388D02*
X12763158Y-13662436D01*
X12763158Y-13662436D02*
X12753634Y-13671960D01*
X12753634Y-13671960D02*
X12734586Y-13681484D01*
X12734586Y-13681484D02*
X12715539Y-13681484D01*
X12715539Y-13681484D02*
X12696491Y-13671960D01*
X12696491Y-13671960D02*
X12686967Y-13662436D01*
X12686967Y-13662436D02*
X12677443Y-13643388D01*
X12677443Y-13643388D02*
X12667920Y-13605293D01*
X12667920Y-13605293D02*
X12667920Y-13557674D01*
X12667920Y-13557674D02*
X12677443Y-13519579D01*
X12677443Y-13519579D02*
X12686967Y-13500531D01*
X12686967Y-13500531D02*
X12696491Y-13491008D01*
X12696491Y-13491008D02*
X12715539Y-13481484D01*
X12867920Y-13681484D02*
X12867920Y-13548150D01*
X12867920Y-13567198D02*
X12877443Y-13557674D01*
X12877443Y-13557674D02*
X12896491Y-13548150D01*
X12896491Y-13548150D02*
X12925063Y-13548150D01*
X12925063Y-13548150D02*
X12944110Y-13557674D01*
X12944110Y-13557674D02*
X12953634Y-13576722D01*
X12953634Y-13576722D02*
X12953634Y-13681484D01*
X12953634Y-13576722D02*
X12963158Y-13557674D01*
X12963158Y-13557674D02*
X12982205Y-13548150D01*
X12982205Y-13548150D02*
X13010777Y-13548150D01*
X13010777Y-13548150D02*
X13029824Y-13557674D01*
X13029824Y-13557674D02*
X13039348Y-13576722D01*
X13039348Y-13576722D02*
X13039348Y-13681484D01*
X13134586Y-13681484D02*
X13134586Y-13548150D01*
X13134586Y-13567198D02*
X13144110Y-13557674D01*
X13144110Y-13557674D02*
X13163158Y-13548150D01*
X13163158Y-13548150D02*
X13191729Y-13548150D01*
X13191729Y-13548150D02*
X13210777Y-13557674D01*
X13210777Y-13557674D02*
X13220301Y-13576722D01*
X13220301Y-13576722D02*
X13220301Y-13681484D01*
X13220301Y-13576722D02*
X13229824Y-13557674D01*
X13229824Y-13557674D02*
X13248872Y-13548150D01*
X13248872Y-13548150D02*
X13277443Y-13548150D01*
X13277443Y-13548150D02*
X13296491Y-13557674D01*
X13296491Y-13557674D02*
X13306015Y-13576722D01*
X13306015Y-13576722D02*
X13306015Y-13681484D01*
X13696491Y-13471960D02*
X13525063Y-13729103D01*
X13953634Y-13481484D02*
X13972682Y-13481484D01*
X13972682Y-13481484D02*
X13991729Y-13491008D01*
X13991729Y-13491008D02*
X14001253Y-13500531D01*
X14001253Y-13500531D02*
X14010777Y-13519579D01*
X14010777Y-13519579D02*
X14020301Y-13557674D01*
X14020301Y-13557674D02*
X14020301Y-13605293D01*
X14020301Y-13605293D02*
X14010777Y-13643388D01*
X14010777Y-13643388D02*
X14001253Y-13662436D01*
X14001253Y-13662436D02*
X13991729Y-13671960D01*
X13991729Y-13671960D02*
X13972682Y-13681484D01*
X13972682Y-13681484D02*
X13953634Y-13681484D01*
X13953634Y-13681484D02*
X13934586Y-13671960D01*
X13934586Y-13671960D02*
X13925063Y-13662436D01*
X13925063Y-13662436D02*
X13915539Y-13643388D01*
X13915539Y-13643388D02*
X13906015Y-13605293D01*
X13906015Y-13605293D02*
X13906015Y-13557674D01*
X13906015Y-13557674D02*
X13915539Y-13519579D01*
X13915539Y-13519579D02*
X13925063Y-13500531D01*
X13925063Y-13500531D02*
X13934586Y-13491008D01*
X13934586Y-13491008D02*
X13953634Y-13481484D01*
X14106015Y-13662436D02*
X14115539Y-13671960D01*
X14115539Y-13671960D02*
X14106015Y-13681484D01*
X14106015Y-13681484D02*
X14096491Y-13671960D01*
X14096491Y-13671960D02*
X14106015Y-13662436D01*
X14106015Y-13662436D02*
X14106015Y-13681484D01*
X14239348Y-13481484D02*
X14258396Y-13481484D01*
X14258396Y-13481484D02*
X14277444Y-13491008D01*
X14277444Y-13491008D02*
X14286967Y-13500531D01*
X14286967Y-13500531D02*
X14296491Y-13519579D01*
X14296491Y-13519579D02*
X14306015Y-13557674D01*
X14306015Y-13557674D02*
X14306015Y-13605293D01*
X14306015Y-13605293D02*
X14296491Y-13643388D01*
X14296491Y-13643388D02*
X14286967Y-13662436D01*
X14286967Y-13662436D02*
X14277444Y-13671960D01*
X14277444Y-13671960D02*
X14258396Y-13681484D01*
X14258396Y-13681484D02*
X14239348Y-13681484D01*
X14239348Y-13681484D02*
X14220301Y-13671960D01*
X14220301Y-13671960D02*
X14210777Y-13662436D01*
X14210777Y-13662436D02*
X14201253Y-13643388D01*
X14201253Y-13643388D02*
X14191729Y-13605293D01*
X14191729Y-13605293D02*
X14191729Y-13557674D01*
X14191729Y-13557674D02*
X14201253Y-13519579D01*
X14201253Y-13519579D02*
X14210777Y-13500531D01*
X14210777Y-13500531D02*
X14220301Y-13491008D01*
X14220301Y-13491008D02*
X14239348Y-13481484D01*
X14382206Y-13500531D02*
X14391729Y-13491008D01*
X14391729Y-13491008D02*
X14410777Y-13481484D01*
X14410777Y-13481484D02*
X14458396Y-13481484D01*
X14458396Y-13481484D02*
X14477444Y-13491008D01*
X14477444Y-13491008D02*
X14486967Y-13500531D01*
X14486967Y-13500531D02*
X14496491Y-13519579D01*
X14496491Y-13519579D02*
X14496491Y-13538627D01*
X14496491Y-13538627D02*
X14486967Y-13567198D01*
X14486967Y-13567198D02*
X14372682Y-13681484D01*
X14372682Y-13681484D02*
X14496491Y-13681484D01*
X14677444Y-13481484D02*
X14582206Y-13481484D01*
X14582206Y-13481484D02*
X14572682Y-13576722D01*
X14572682Y-13576722D02*
X14582206Y-13567198D01*
X14582206Y-13567198D02*
X14601253Y-13557674D01*
X14601253Y-13557674D02*
X14648872Y-13557674D01*
X14648872Y-13557674D02*
X14667920Y-13567198D01*
X14667920Y-13567198D02*
X14677444Y-13576722D01*
X14677444Y-13576722D02*
X14686967Y-13595769D01*
X14686967Y-13595769D02*
X14686967Y-13643388D01*
X14686967Y-13643388D02*
X14677444Y-13662436D01*
X14677444Y-13662436D02*
X14667920Y-13671960D01*
X14667920Y-13671960D02*
X14648872Y-13681484D01*
X14648872Y-13681484D02*
X14601253Y-13681484D01*
X14601253Y-13681484D02*
X14582206Y-13671960D01*
X14582206Y-13671960D02*
X14572682Y-13662436D01*
X14858396Y-13481484D02*
X14820301Y-13481484D01*
X14820301Y-13481484D02*
X14801253Y-13491008D01*
X14801253Y-13491008D02*
X14791729Y-13500531D01*
X14791729Y-13500531D02*
X14772682Y-13529103D01*
X14772682Y-13529103D02*
X14763158Y-13567198D01*
X14763158Y-13567198D02*
X14763158Y-13643388D01*
X14763158Y-13643388D02*
X14772682Y-13662436D01*
X14772682Y-13662436D02*
X14782206Y-13671960D01*
X14782206Y-13671960D02*
X14801253Y-13681484D01*
X14801253Y-13681484D02*
X14839348Y-13681484D01*
X14839348Y-13681484D02*
X14858396Y-13671960D01*
X14858396Y-13671960D02*
X14867920Y-13662436D01*
X14867920Y-13662436D02*
X14877444Y-13643388D01*
X14877444Y-13643388D02*
X14877444Y-13595769D01*
X14877444Y-13595769D02*
X14867920Y-13576722D01*
X14867920Y-13576722D02*
X14858396Y-13567198D01*
X14858396Y-13567198D02*
X14839348Y-13557674D01*
X14839348Y-13557674D02*
X14801253Y-13557674D01*
X14801253Y-13557674D02*
X14782206Y-13567198D01*
X14782206Y-13567198D02*
X14772682Y-13576722D01*
X14772682Y-13576722D02*
X14763158Y-13595769D01*
X14953634Y-13481484D02*
X14953634Y-13519579D01*
X15029825Y-13481484D02*
X15029825Y-13519579D01*
X15325063Y-13757674D02*
X15315539Y-13748150D01*
X15315539Y-13748150D02*
X15296491Y-13719579D01*
X15296491Y-13719579D02*
X15286968Y-13700531D01*
X15286968Y-13700531D02*
X15277444Y-13671960D01*
X15277444Y-13671960D02*
X15267920Y-13624341D01*
X15267920Y-13624341D02*
X15267920Y-13586246D01*
X15267920Y-13586246D02*
X15277444Y-13538627D01*
X15277444Y-13538627D02*
X15286968Y-13510055D01*
X15286968Y-13510055D02*
X15296491Y-13491008D01*
X15296491Y-13491008D02*
X15315539Y-13462436D01*
X15315539Y-13462436D02*
X15325063Y-13452912D01*
X15391729Y-13500531D02*
X15401253Y-13491008D01*
X15401253Y-13491008D02*
X15420301Y-13481484D01*
X15420301Y-13481484D02*
X15467920Y-13481484D01*
X15467920Y-13481484D02*
X15486968Y-13491008D01*
X15486968Y-13491008D02*
X15496491Y-13500531D01*
X15496491Y-13500531D02*
X15506015Y-13519579D01*
X15506015Y-13519579D02*
X15506015Y-13538627D01*
X15506015Y-13538627D02*
X15496491Y-13567198D01*
X15496491Y-13567198D02*
X15382206Y-13681484D01*
X15382206Y-13681484D02*
X15506015Y-13681484D01*
X15744110Y-13681484D02*
X15744110Y-13481484D01*
X15829825Y-13681484D02*
X15829825Y-13576722D01*
X15829825Y-13576722D02*
X15820301Y-13557674D01*
X15820301Y-13557674D02*
X15801253Y-13548150D01*
X15801253Y-13548150D02*
X15772682Y-13548150D01*
X15772682Y-13548150D02*
X15753634Y-13557674D01*
X15753634Y-13557674D02*
X15744110Y-13567198D01*
X15953634Y-13681484D02*
X15934587Y-13671960D01*
X15934587Y-13671960D02*
X15925063Y-13662436D01*
X15925063Y-13662436D02*
X15915539Y-13643388D01*
X15915539Y-13643388D02*
X15915539Y-13586246D01*
X15915539Y-13586246D02*
X15925063Y-13567198D01*
X15925063Y-13567198D02*
X15934587Y-13557674D01*
X15934587Y-13557674D02*
X15953634Y-13548150D01*
X15953634Y-13548150D02*
X15982206Y-13548150D01*
X15982206Y-13548150D02*
X16001253Y-13557674D01*
X16001253Y-13557674D02*
X16010777Y-13567198D01*
X16010777Y-13567198D02*
X16020301Y-13586246D01*
X16020301Y-13586246D02*
X16020301Y-13643388D01*
X16020301Y-13643388D02*
X16010777Y-13662436D01*
X16010777Y-13662436D02*
X16001253Y-13671960D01*
X16001253Y-13671960D02*
X15982206Y-13681484D01*
X15982206Y-13681484D02*
X15953634Y-13681484D01*
X16134587Y-13681484D02*
X16115539Y-13671960D01*
X16115539Y-13671960D02*
X16106015Y-13652912D01*
X16106015Y-13652912D02*
X16106015Y-13481484D01*
X16286968Y-13671960D02*
X16267920Y-13681484D01*
X16267920Y-13681484D02*
X16229825Y-13681484D01*
X16229825Y-13681484D02*
X16210777Y-13671960D01*
X16210777Y-13671960D02*
X16201253Y-13652912D01*
X16201253Y-13652912D02*
X16201253Y-13576722D01*
X16201253Y-13576722D02*
X16210777Y-13557674D01*
X16210777Y-13557674D02*
X16229825Y-13548150D01*
X16229825Y-13548150D02*
X16267920Y-13548150D01*
X16267920Y-13548150D02*
X16286968Y-13557674D01*
X16286968Y-13557674D02*
X16296491Y-13576722D01*
X16296491Y-13576722D02*
X16296491Y-13595769D01*
X16296491Y-13595769D02*
X16201253Y-13614817D01*
X16372682Y-13671960D02*
X16391730Y-13681484D01*
X16391730Y-13681484D02*
X16429825Y-13681484D01*
X16429825Y-13681484D02*
X16448872Y-13671960D01*
X16448872Y-13671960D02*
X16458396Y-13652912D01*
X16458396Y-13652912D02*
X16458396Y-13643388D01*
X16458396Y-13643388D02*
X16448872Y-13624341D01*
X16448872Y-13624341D02*
X16429825Y-13614817D01*
X16429825Y-13614817D02*
X16401253Y-13614817D01*
X16401253Y-13614817D02*
X16382206Y-13605293D01*
X16382206Y-13605293D02*
X16372682Y-13586246D01*
X16372682Y-13586246D02*
X16372682Y-13576722D01*
X16372682Y-13576722D02*
X16382206Y-13557674D01*
X16382206Y-13557674D02*
X16401253Y-13548150D01*
X16401253Y-13548150D02*
X16429825Y-13548150D01*
X16429825Y-13548150D02*
X16448872Y-13557674D01*
X16525063Y-13757674D02*
X16534587Y-13748150D01*
X16534587Y-13748150D02*
X16553634Y-13719579D01*
X16553634Y-13719579D02*
X16563158Y-13700531D01*
X16563158Y-13700531D02*
X16572682Y-13671960D01*
X16572682Y-13671960D02*
X16582206Y-13624341D01*
X16582206Y-13624341D02*
X16582206Y-13586246D01*
X16582206Y-13586246D02*
X16572682Y-13538627D01*
X16572682Y-13538627D02*
X16563158Y-13510055D01*
X16563158Y-13510055D02*
X16553634Y-13491008D01*
X16553634Y-13491008D02*
X16534587Y-13462436D01*
X16534587Y-13462436D02*
X16525063Y-13452912D01*
X16886968Y-13757674D02*
X16877444Y-13748150D01*
X16877444Y-13748150D02*
X16858396Y-13719579D01*
X16858396Y-13719579D02*
X16848873Y-13700531D01*
X16848873Y-13700531D02*
X16839349Y-13671960D01*
X16839349Y-13671960D02*
X16829825Y-13624341D01*
X16829825Y-13624341D02*
X16829825Y-13586246D01*
X16829825Y-13586246D02*
X16839349Y-13538627D01*
X16839349Y-13538627D02*
X16848873Y-13510055D01*
X16848873Y-13510055D02*
X16858396Y-13491008D01*
X16858396Y-13491008D02*
X16877444Y-13462436D01*
X16877444Y-13462436D02*
X16886968Y-13452912D01*
X16963158Y-13548150D02*
X16963158Y-13681484D01*
X16963158Y-13567198D02*
X16972682Y-13557674D01*
X16972682Y-13557674D02*
X16991730Y-13548150D01*
X16991730Y-13548150D02*
X17020301Y-13548150D01*
X17020301Y-13548150D02*
X17039349Y-13557674D01*
X17039349Y-13557674D02*
X17048873Y-13576722D01*
X17048873Y-13576722D02*
X17048873Y-13681484D01*
X17172682Y-13681484D02*
X17153634Y-13671960D01*
X17153634Y-13671960D02*
X17144111Y-13662436D01*
X17144111Y-13662436D02*
X17134587Y-13643388D01*
X17134587Y-13643388D02*
X17134587Y-13586246D01*
X17134587Y-13586246D02*
X17144111Y-13567198D01*
X17144111Y-13567198D02*
X17153634Y-13557674D01*
X17153634Y-13557674D02*
X17172682Y-13548150D01*
X17172682Y-13548150D02*
X17201254Y-13548150D01*
X17201254Y-13548150D02*
X17220301Y-13557674D01*
X17220301Y-13557674D02*
X17229825Y-13567198D01*
X17229825Y-13567198D02*
X17239349Y-13586246D01*
X17239349Y-13586246D02*
X17239349Y-13643388D01*
X17239349Y-13643388D02*
X17229825Y-13662436D01*
X17229825Y-13662436D02*
X17220301Y-13671960D01*
X17220301Y-13671960D02*
X17201254Y-13681484D01*
X17201254Y-13681484D02*
X17172682Y-13681484D01*
X17296492Y-13548150D02*
X17372682Y-13548150D01*
X17325063Y-13481484D02*
X17325063Y-13652912D01*
X17325063Y-13652912D02*
X17334587Y-13671960D01*
X17334587Y-13671960D02*
X17353634Y-13681484D01*
X17353634Y-13681484D02*
X17372682Y-13681484D01*
X17591730Y-13548150D02*
X17591730Y-13748150D01*
X17591730Y-13557674D02*
X17610777Y-13548150D01*
X17610777Y-13548150D02*
X17648873Y-13548150D01*
X17648873Y-13548150D02*
X17667920Y-13557674D01*
X17667920Y-13557674D02*
X17677444Y-13567198D01*
X17677444Y-13567198D02*
X17686968Y-13586246D01*
X17686968Y-13586246D02*
X17686968Y-13643388D01*
X17686968Y-13643388D02*
X17677444Y-13662436D01*
X17677444Y-13662436D02*
X17667920Y-13671960D01*
X17667920Y-13671960D02*
X17648873Y-13681484D01*
X17648873Y-13681484D02*
X17610777Y-13681484D01*
X17610777Y-13681484D02*
X17591730Y-13671960D01*
X17801254Y-13681484D02*
X17782206Y-13671960D01*
X17782206Y-13671960D02*
X17772682Y-13652912D01*
X17772682Y-13652912D02*
X17772682Y-13481484D01*
X17963158Y-13681484D02*
X17963158Y-13576722D01*
X17963158Y-13576722D02*
X17953635Y-13557674D01*
X17953635Y-13557674D02*
X17934587Y-13548150D01*
X17934587Y-13548150D02*
X17896492Y-13548150D01*
X17896492Y-13548150D02*
X17877444Y-13557674D01*
X17963158Y-13671960D02*
X17944111Y-13681484D01*
X17944111Y-13681484D02*
X17896492Y-13681484D01*
X17896492Y-13681484D02*
X17877444Y-13671960D01*
X17877444Y-13671960D02*
X17867920Y-13652912D01*
X17867920Y-13652912D02*
X17867920Y-13633865D01*
X17867920Y-13633865D02*
X17877444Y-13614817D01*
X17877444Y-13614817D02*
X17896492Y-13605293D01*
X17896492Y-13605293D02*
X17944111Y-13605293D01*
X17944111Y-13605293D02*
X17963158Y-13595769D01*
X18029825Y-13548150D02*
X18106015Y-13548150D01*
X18058396Y-13481484D02*
X18058396Y-13652912D01*
X18058396Y-13652912D02*
X18067920Y-13671960D01*
X18067920Y-13671960D02*
X18086968Y-13681484D01*
X18086968Y-13681484D02*
X18106015Y-13681484D01*
X18248873Y-13671960D02*
X18229825Y-13681484D01*
X18229825Y-13681484D02*
X18191730Y-13681484D01*
X18191730Y-13681484D02*
X18172682Y-13671960D01*
X18172682Y-13671960D02*
X18163158Y-13652912D01*
X18163158Y-13652912D02*
X18163158Y-13576722D01*
X18163158Y-13576722D02*
X18172682Y-13557674D01*
X18172682Y-13557674D02*
X18191730Y-13548150D01*
X18191730Y-13548150D02*
X18229825Y-13548150D01*
X18229825Y-13548150D02*
X18248873Y-13557674D01*
X18248873Y-13557674D02*
X18258396Y-13576722D01*
X18258396Y-13576722D02*
X18258396Y-13595769D01*
X18258396Y-13595769D02*
X18163158Y-13614817D01*
X18429825Y-13681484D02*
X18429825Y-13481484D01*
X18429825Y-13671960D02*
X18410777Y-13681484D01*
X18410777Y-13681484D02*
X18372682Y-13681484D01*
X18372682Y-13681484D02*
X18353635Y-13671960D01*
X18353635Y-13671960D02*
X18344111Y-13662436D01*
X18344111Y-13662436D02*
X18334587Y-13643388D01*
X18334587Y-13643388D02*
X18334587Y-13586246D01*
X18334587Y-13586246D02*
X18344111Y-13567198D01*
X18344111Y-13567198D02*
X18353635Y-13557674D01*
X18353635Y-13557674D02*
X18372682Y-13548150D01*
X18372682Y-13548150D02*
X18410777Y-13548150D01*
X18410777Y-13548150D02*
X18429825Y-13557674D01*
X18506016Y-13757674D02*
X18515539Y-13748150D01*
X18515539Y-13748150D02*
X18534587Y-13719579D01*
X18534587Y-13719579D02*
X18544111Y-13700531D01*
X18544111Y-13700531D02*
X18553635Y-13671960D01*
X18553635Y-13671960D02*
X18563158Y-13624341D01*
X18563158Y-13624341D02*
X18563158Y-13586246D01*
X18563158Y-13586246D02*
X18553635Y-13538627D01*
X18553635Y-13538627D02*
X18544111Y-13510055D01*
X18544111Y-13510055D02*
X18534587Y-13491008D01*
X18534587Y-13491008D02*
X18515539Y-13462436D01*
X18515539Y-13462436D02*
X18506016Y-13452912D01*
D11*
X11750000Y-13854000D02*
G75*
G02*
X11660000Y-13854000I-45000J0D01*
G01*
X11660000Y-13854000D02*
G75*
G02*
X11750000Y-13854000I45000J0D01*
G01*
D10*
X12048872Y-13745484D02*
X12067920Y-13745484D01*
X12067920Y-13745484D02*
X12086967Y-13755008D01*
X12086967Y-13755008D02*
X12096491Y-13764531D01*
X12096491Y-13764531D02*
X12106015Y-13783579D01*
X12106015Y-13783579D02*
X12115539Y-13821674D01*
X12115539Y-13821674D02*
X12115539Y-13869293D01*
X12115539Y-13869293D02*
X12106015Y-13907388D01*
X12106015Y-13907388D02*
X12096491Y-13926436D01*
X12096491Y-13926436D02*
X12086967Y-13935960D01*
X12086967Y-13935960D02*
X12067920Y-13945484D01*
X12067920Y-13945484D02*
X12048872Y-13945484D01*
X12048872Y-13945484D02*
X12029824Y-13935960D01*
X12029824Y-13935960D02*
X12020301Y-13926436D01*
X12020301Y-13926436D02*
X12010777Y-13907388D01*
X12010777Y-13907388D02*
X12001253Y-13869293D01*
X12001253Y-13869293D02*
X12001253Y-13821674D01*
X12001253Y-13821674D02*
X12010777Y-13783579D01*
X12010777Y-13783579D02*
X12020301Y-13764531D01*
X12020301Y-13764531D02*
X12029824Y-13755008D01*
X12029824Y-13755008D02*
X12048872Y-13745484D01*
X12201253Y-13926436D02*
X12210777Y-13935960D01*
X12210777Y-13935960D02*
X12201253Y-13945484D01*
X12201253Y-13945484D02*
X12191729Y-13935960D01*
X12191729Y-13935960D02*
X12201253Y-13926436D01*
X12201253Y-13926436D02*
X12201253Y-13945484D01*
X12306015Y-13945484D02*
X12344110Y-13945484D01*
X12344110Y-13945484D02*
X12363158Y-13935960D01*
X12363158Y-13935960D02*
X12372682Y-13926436D01*
X12372682Y-13926436D02*
X12391729Y-13897865D01*
X12391729Y-13897865D02*
X12401253Y-13859769D01*
X12401253Y-13859769D02*
X12401253Y-13783579D01*
X12401253Y-13783579D02*
X12391729Y-13764531D01*
X12391729Y-13764531D02*
X12382205Y-13755008D01*
X12382205Y-13755008D02*
X12363158Y-13745484D01*
X12363158Y-13745484D02*
X12325062Y-13745484D01*
X12325062Y-13745484D02*
X12306015Y-13755008D01*
X12306015Y-13755008D02*
X12296491Y-13764531D01*
X12296491Y-13764531D02*
X12286967Y-13783579D01*
X12286967Y-13783579D02*
X12286967Y-13831198D01*
X12286967Y-13831198D02*
X12296491Y-13850246D01*
X12296491Y-13850246D02*
X12306015Y-13859769D01*
X12306015Y-13859769D02*
X12325062Y-13869293D01*
X12325062Y-13869293D02*
X12363158Y-13869293D01*
X12363158Y-13869293D02*
X12382205Y-13859769D01*
X12382205Y-13859769D02*
X12391729Y-13850246D01*
X12391729Y-13850246D02*
X12401253Y-13831198D01*
X12525062Y-13745484D02*
X12544110Y-13745484D01*
X12544110Y-13745484D02*
X12563158Y-13755008D01*
X12563158Y-13755008D02*
X12572682Y-13764531D01*
X12572682Y-13764531D02*
X12582205Y-13783579D01*
X12582205Y-13783579D02*
X12591729Y-13821674D01*
X12591729Y-13821674D02*
X12591729Y-13869293D01*
X12591729Y-13869293D02*
X12582205Y-13907388D01*
X12582205Y-13907388D02*
X12572682Y-13926436D01*
X12572682Y-13926436D02*
X12563158Y-13935960D01*
X12563158Y-13935960D02*
X12544110Y-13945484D01*
X12544110Y-13945484D02*
X12525062Y-13945484D01*
X12525062Y-13945484D02*
X12506015Y-13935960D01*
X12506015Y-13935960D02*
X12496491Y-13926436D01*
X12496491Y-13926436D02*
X12486967Y-13907388D01*
X12486967Y-13907388D02*
X12477443Y-13869293D01*
X12477443Y-13869293D02*
X12477443Y-13821674D01*
X12477443Y-13821674D02*
X12486967Y-13783579D01*
X12486967Y-13783579D02*
X12496491Y-13764531D01*
X12496491Y-13764531D02*
X12506015Y-13755008D01*
X12506015Y-13755008D02*
X12525062Y-13745484D01*
X12715539Y-13745484D02*
X12734586Y-13745484D01*
X12734586Y-13745484D02*
X12753634Y-13755008D01*
X12753634Y-13755008D02*
X12763158Y-13764531D01*
X12763158Y-13764531D02*
X12772682Y-13783579D01*
X12772682Y-13783579D02*
X12782205Y-13821674D01*
X12782205Y-13821674D02*
X12782205Y-13869293D01*
X12782205Y-13869293D02*
X12772682Y-13907388D01*
X12772682Y-13907388D02*
X12763158Y-13926436D01*
X12763158Y-13926436D02*
X12753634Y-13935960D01*
X12753634Y-13935960D02*
X12734586Y-13945484D01*
X12734586Y-13945484D02*
X12715539Y-13945484D01*
X12715539Y-13945484D02*
X12696491Y-13935960D01*
X12696491Y-13935960D02*
X12686967Y-13926436D01*
X12686967Y-13926436D02*
X12677443Y-13907388D01*
X12677443Y-13907388D02*
X12667920Y-13869293D01*
X12667920Y-13869293D02*
X12667920Y-13821674D01*
X12667920Y-13821674D02*
X12677443Y-13783579D01*
X12677443Y-13783579D02*
X12686967Y-13764531D01*
X12686967Y-13764531D02*
X12696491Y-13755008D01*
X12696491Y-13755008D02*
X12715539Y-13745484D01*
X12867920Y-13945484D02*
X12867920Y-13812150D01*
X12867920Y-13831198D02*
X12877443Y-13821674D01*
X12877443Y-13821674D02*
X12896491Y-13812150D01*
X12896491Y-13812150D02*
X12925063Y-13812150D01*
X12925063Y-13812150D02*
X12944110Y-13821674D01*
X12944110Y-13821674D02*
X12953634Y-13840722D01*
X12953634Y-13840722D02*
X12953634Y-13945484D01*
X12953634Y-13840722D02*
X12963158Y-13821674D01*
X12963158Y-13821674D02*
X12982205Y-13812150D01*
X12982205Y-13812150D02*
X13010777Y-13812150D01*
X13010777Y-13812150D02*
X13029824Y-13821674D01*
X13029824Y-13821674D02*
X13039348Y-13840722D01*
X13039348Y-13840722D02*
X13039348Y-13945484D01*
X13134586Y-13945484D02*
X13134586Y-13812150D01*
X13134586Y-13831198D02*
X13144110Y-13821674D01*
X13144110Y-13821674D02*
X13163158Y-13812150D01*
X13163158Y-13812150D02*
X13191729Y-13812150D01*
X13191729Y-13812150D02*
X13210777Y-13821674D01*
X13210777Y-13821674D02*
X13220301Y-13840722D01*
X13220301Y-13840722D02*
X13220301Y-13945484D01*
X13220301Y-13840722D02*
X13229824Y-13821674D01*
X13229824Y-13821674D02*
X13248872Y-13812150D01*
X13248872Y-13812150D02*
X13277443Y-13812150D01*
X13277443Y-13812150D02*
X13296491Y-13821674D01*
X13296491Y-13821674D02*
X13306015Y-13840722D01*
X13306015Y-13840722D02*
X13306015Y-13945484D01*
X13696491Y-13735960D02*
X13525063Y-13993103D01*
X13953634Y-13745484D02*
X13972682Y-13745484D01*
X13972682Y-13745484D02*
X13991729Y-13755008D01*
X13991729Y-13755008D02*
X14001253Y-13764531D01*
X14001253Y-13764531D02*
X14010777Y-13783579D01*
X14010777Y-13783579D02*
X14020301Y-13821674D01*
X14020301Y-13821674D02*
X14020301Y-13869293D01*
X14020301Y-13869293D02*
X14010777Y-13907388D01*
X14010777Y-13907388D02*
X14001253Y-13926436D01*
X14001253Y-13926436D02*
X13991729Y-13935960D01*
X13991729Y-13935960D02*
X13972682Y-13945484D01*
X13972682Y-13945484D02*
X13953634Y-13945484D01*
X13953634Y-13945484D02*
X13934586Y-13935960D01*
X13934586Y-13935960D02*
X13925063Y-13926436D01*
X13925063Y-13926436D02*
X13915539Y-13907388D01*
X13915539Y-13907388D02*
X13906015Y-13869293D01*
X13906015Y-13869293D02*
X13906015Y-13821674D01*
X13906015Y-13821674D02*
X13915539Y-13783579D01*
X13915539Y-13783579D02*
X13925063Y-13764531D01*
X13925063Y-13764531D02*
X13934586Y-13755008D01*
X13934586Y-13755008D02*
X13953634Y-13745484D01*
X14106015Y-13926436D02*
X14115539Y-13935960D01*
X14115539Y-13935960D02*
X14106015Y-13945484D01*
X14106015Y-13945484D02*
X14096491Y-13935960D01*
X14096491Y-13935960D02*
X14106015Y-13926436D01*
X14106015Y-13926436D02*
X14106015Y-13945484D01*
X14239348Y-13745484D02*
X14258396Y-13745484D01*
X14258396Y-13745484D02*
X14277444Y-13755008D01*
X14277444Y-13755008D02*
X14286967Y-13764531D01*
X14286967Y-13764531D02*
X14296491Y-13783579D01*
X14296491Y-13783579D02*
X14306015Y-13821674D01*
X14306015Y-13821674D02*
X14306015Y-13869293D01*
X14306015Y-13869293D02*
X14296491Y-13907388D01*
X14296491Y-13907388D02*
X14286967Y-13926436D01*
X14286967Y-13926436D02*
X14277444Y-13935960D01*
X14277444Y-13935960D02*
X14258396Y-13945484D01*
X14258396Y-13945484D02*
X14239348Y-13945484D01*
X14239348Y-13945484D02*
X14220301Y-13935960D01*
X14220301Y-13935960D02*
X14210777Y-13926436D01*
X14210777Y-13926436D02*
X14201253Y-13907388D01*
X14201253Y-13907388D02*
X14191729Y-13869293D01*
X14191729Y-13869293D02*
X14191729Y-13821674D01*
X14191729Y-13821674D02*
X14201253Y-13783579D01*
X14201253Y-13783579D02*
X14210777Y-13764531D01*
X14210777Y-13764531D02*
X14220301Y-13755008D01*
X14220301Y-13755008D02*
X14239348Y-13745484D01*
X14372682Y-13745484D02*
X14496491Y-13745484D01*
X14496491Y-13745484D02*
X14429825Y-13821674D01*
X14429825Y-13821674D02*
X14458396Y-13821674D01*
X14458396Y-13821674D02*
X14477444Y-13831198D01*
X14477444Y-13831198D02*
X14486967Y-13840722D01*
X14486967Y-13840722D02*
X14496491Y-13859769D01*
X14496491Y-13859769D02*
X14496491Y-13907388D01*
X14496491Y-13907388D02*
X14486967Y-13926436D01*
X14486967Y-13926436D02*
X14477444Y-13935960D01*
X14477444Y-13935960D02*
X14458396Y-13945484D01*
X14458396Y-13945484D02*
X14401253Y-13945484D01*
X14401253Y-13945484D02*
X14382206Y-13935960D01*
X14382206Y-13935960D02*
X14372682Y-13926436D01*
X14677444Y-13745484D02*
X14582206Y-13745484D01*
X14582206Y-13745484D02*
X14572682Y-13840722D01*
X14572682Y-13840722D02*
X14582206Y-13831198D01*
X14582206Y-13831198D02*
X14601253Y-13821674D01*
X14601253Y-13821674D02*
X14648872Y-13821674D01*
X14648872Y-13821674D02*
X14667920Y-13831198D01*
X14667920Y-13831198D02*
X14677444Y-13840722D01*
X14677444Y-13840722D02*
X14686967Y-13859769D01*
X14686967Y-13859769D02*
X14686967Y-13907388D01*
X14686967Y-13907388D02*
X14677444Y-13926436D01*
X14677444Y-13926436D02*
X14667920Y-13935960D01*
X14667920Y-13935960D02*
X14648872Y-13945484D01*
X14648872Y-13945484D02*
X14601253Y-13945484D01*
X14601253Y-13945484D02*
X14582206Y-13935960D01*
X14582206Y-13935960D02*
X14572682Y-13926436D01*
X14858396Y-13812150D02*
X14858396Y-13945484D01*
X14810777Y-13735960D02*
X14763158Y-13878817D01*
X14763158Y-13878817D02*
X14886967Y-13878817D01*
X14953634Y-13745484D02*
X14953634Y-13783579D01*
X15029825Y-13745484D02*
X15029825Y-13783579D01*
X15325063Y-14021674D02*
X15315539Y-14012150D01*
X15315539Y-14012150D02*
X15296491Y-13983579D01*
X15296491Y-13983579D02*
X15286968Y-13964531D01*
X15286968Y-13964531D02*
X15277444Y-13935960D01*
X15277444Y-13935960D02*
X15267920Y-13888341D01*
X15267920Y-13888341D02*
X15267920Y-13850246D01*
X15267920Y-13850246D02*
X15277444Y-13802627D01*
X15277444Y-13802627D02*
X15286968Y-13774055D01*
X15286968Y-13774055D02*
X15296491Y-13755008D01*
X15296491Y-13755008D02*
X15315539Y-13726436D01*
X15315539Y-13726436D02*
X15325063Y-13716912D01*
X15391729Y-13764531D02*
X15401253Y-13755008D01*
X15401253Y-13755008D02*
X15420301Y-13745484D01*
X15420301Y-13745484D02*
X15467920Y-13745484D01*
X15467920Y-13745484D02*
X15486968Y-13755008D01*
X15486968Y-13755008D02*
X15496491Y-13764531D01*
X15496491Y-13764531D02*
X15506015Y-13783579D01*
X15506015Y-13783579D02*
X15506015Y-13802627D01*
X15506015Y-13802627D02*
X15496491Y-13831198D01*
X15496491Y-13831198D02*
X15382206Y-13945484D01*
X15382206Y-13945484D02*
X15506015Y-13945484D01*
X15744110Y-13945484D02*
X15744110Y-13745484D01*
X15829825Y-13945484D02*
X15829825Y-13840722D01*
X15829825Y-13840722D02*
X15820301Y-13821674D01*
X15820301Y-13821674D02*
X15801253Y-13812150D01*
X15801253Y-13812150D02*
X15772682Y-13812150D01*
X15772682Y-13812150D02*
X15753634Y-13821674D01*
X15753634Y-13821674D02*
X15744110Y-13831198D01*
X15953634Y-13945484D02*
X15934587Y-13935960D01*
X15934587Y-13935960D02*
X15925063Y-13926436D01*
X15925063Y-13926436D02*
X15915539Y-13907388D01*
X15915539Y-13907388D02*
X15915539Y-13850246D01*
X15915539Y-13850246D02*
X15925063Y-13831198D01*
X15925063Y-13831198D02*
X15934587Y-13821674D01*
X15934587Y-13821674D02*
X15953634Y-13812150D01*
X15953634Y-13812150D02*
X15982206Y-13812150D01*
X15982206Y-13812150D02*
X16001253Y-13821674D01*
X16001253Y-13821674D02*
X16010777Y-13831198D01*
X16010777Y-13831198D02*
X16020301Y-13850246D01*
X16020301Y-13850246D02*
X16020301Y-13907388D01*
X16020301Y-13907388D02*
X16010777Y-13926436D01*
X16010777Y-13926436D02*
X16001253Y-13935960D01*
X16001253Y-13935960D02*
X15982206Y-13945484D01*
X15982206Y-13945484D02*
X15953634Y-13945484D01*
X16134587Y-13945484D02*
X16115539Y-13935960D01*
X16115539Y-13935960D02*
X16106015Y-13916912D01*
X16106015Y-13916912D02*
X16106015Y-13745484D01*
X16286968Y-13935960D02*
X16267920Y-13945484D01*
X16267920Y-13945484D02*
X16229825Y-13945484D01*
X16229825Y-13945484D02*
X16210777Y-13935960D01*
X16210777Y-13935960D02*
X16201253Y-13916912D01*
X16201253Y-13916912D02*
X16201253Y-13840722D01*
X16201253Y-13840722D02*
X16210777Y-13821674D01*
X16210777Y-13821674D02*
X16229825Y-13812150D01*
X16229825Y-13812150D02*
X16267920Y-13812150D01*
X16267920Y-13812150D02*
X16286968Y-13821674D01*
X16286968Y-13821674D02*
X16296491Y-13840722D01*
X16296491Y-13840722D02*
X16296491Y-13859769D01*
X16296491Y-13859769D02*
X16201253Y-13878817D01*
X16372682Y-13935960D02*
X16391730Y-13945484D01*
X16391730Y-13945484D02*
X16429825Y-13945484D01*
X16429825Y-13945484D02*
X16448872Y-13935960D01*
X16448872Y-13935960D02*
X16458396Y-13916912D01*
X16458396Y-13916912D02*
X16458396Y-13907388D01*
X16458396Y-13907388D02*
X16448872Y-13888341D01*
X16448872Y-13888341D02*
X16429825Y-13878817D01*
X16429825Y-13878817D02*
X16401253Y-13878817D01*
X16401253Y-13878817D02*
X16382206Y-13869293D01*
X16382206Y-13869293D02*
X16372682Y-13850246D01*
X16372682Y-13850246D02*
X16372682Y-13840722D01*
X16372682Y-13840722D02*
X16382206Y-13821674D01*
X16382206Y-13821674D02*
X16401253Y-13812150D01*
X16401253Y-13812150D02*
X16429825Y-13812150D01*
X16429825Y-13812150D02*
X16448872Y-13821674D01*
X16525063Y-14021674D02*
X16534587Y-14012150D01*
X16534587Y-14012150D02*
X16553634Y-13983579D01*
X16553634Y-13983579D02*
X16563158Y-13964531D01*
X16563158Y-13964531D02*
X16572682Y-13935960D01*
X16572682Y-13935960D02*
X16582206Y-13888341D01*
X16582206Y-13888341D02*
X16582206Y-13850246D01*
X16582206Y-13850246D02*
X16572682Y-13802627D01*
X16572682Y-13802627D02*
X16563158Y-13774055D01*
X16563158Y-13774055D02*
X16553634Y-13755008D01*
X16553634Y-13755008D02*
X16534587Y-13726436D01*
X16534587Y-13726436D02*
X16525063Y-13716912D01*
X16886968Y-14021674D02*
X16877444Y-14012150D01*
X16877444Y-14012150D02*
X16858396Y-13983579D01*
X16858396Y-13983579D02*
X16848873Y-13964531D01*
X16848873Y-13964531D02*
X16839349Y-13935960D01*
X16839349Y-13935960D02*
X16829825Y-13888341D01*
X16829825Y-13888341D02*
X16829825Y-13850246D01*
X16829825Y-13850246D02*
X16839349Y-13802627D01*
X16839349Y-13802627D02*
X16848873Y-13774055D01*
X16848873Y-13774055D02*
X16858396Y-13755008D01*
X16858396Y-13755008D02*
X16877444Y-13726436D01*
X16877444Y-13726436D02*
X16886968Y-13716912D01*
X16963158Y-13812150D02*
X16963158Y-13945484D01*
X16963158Y-13831198D02*
X16972682Y-13821674D01*
X16972682Y-13821674D02*
X16991730Y-13812150D01*
X16991730Y-13812150D02*
X17020301Y-13812150D01*
X17020301Y-13812150D02*
X17039349Y-13821674D01*
X17039349Y-13821674D02*
X17048873Y-13840722D01*
X17048873Y-13840722D02*
X17048873Y-13945484D01*
X17172682Y-13945484D02*
X17153634Y-13935960D01*
X17153634Y-13935960D02*
X17144111Y-13926436D01*
X17144111Y-13926436D02*
X17134587Y-13907388D01*
X17134587Y-13907388D02*
X17134587Y-13850246D01*
X17134587Y-13850246D02*
X17144111Y-13831198D01*
X17144111Y-13831198D02*
X17153634Y-13821674D01*
X17153634Y-13821674D02*
X17172682Y-13812150D01*
X17172682Y-13812150D02*
X17201254Y-13812150D01*
X17201254Y-13812150D02*
X17220301Y-13821674D01*
X17220301Y-13821674D02*
X17229825Y-13831198D01*
X17229825Y-13831198D02*
X17239349Y-13850246D01*
X17239349Y-13850246D02*
X17239349Y-13907388D01*
X17239349Y-13907388D02*
X17229825Y-13926436D01*
X17229825Y-13926436D02*
X17220301Y-13935960D01*
X17220301Y-13935960D02*
X17201254Y-13945484D01*
X17201254Y-13945484D02*
X17172682Y-13945484D01*
X17296492Y-13812150D02*
X17372682Y-13812150D01*
X17325063Y-13745484D02*
X17325063Y-13916912D01*
X17325063Y-13916912D02*
X17334587Y-13935960D01*
X17334587Y-13935960D02*
X17353634Y-13945484D01*
X17353634Y-13945484D02*
X17372682Y-13945484D01*
X17591730Y-13812150D02*
X17591730Y-14012150D01*
X17591730Y-13821674D02*
X17610777Y-13812150D01*
X17610777Y-13812150D02*
X17648873Y-13812150D01*
X17648873Y-13812150D02*
X17667920Y-13821674D01*
X17667920Y-13821674D02*
X17677444Y-13831198D01*
X17677444Y-13831198D02*
X17686968Y-13850246D01*
X17686968Y-13850246D02*
X17686968Y-13907388D01*
X17686968Y-13907388D02*
X17677444Y-13926436D01*
X17677444Y-13926436D02*
X17667920Y-13935960D01*
X17667920Y-13935960D02*
X17648873Y-13945484D01*
X17648873Y-13945484D02*
X17610777Y-13945484D01*
X17610777Y-13945484D02*
X17591730Y-13935960D01*
X17801254Y-13945484D02*
X17782206Y-13935960D01*
X17782206Y-13935960D02*
X17772682Y-13916912D01*
X17772682Y-13916912D02*
X17772682Y-13745484D01*
X17963158Y-13945484D02*
X17963158Y-13840722D01*
X17963158Y-13840722D02*
X17953635Y-13821674D01*
X17953635Y-13821674D02*
X17934587Y-13812150D01*
X17934587Y-13812150D02*
X17896492Y-13812150D01*
X17896492Y-13812150D02*
X17877444Y-13821674D01*
X17963158Y-13935960D02*
X17944111Y-13945484D01*
X17944111Y-13945484D02*
X17896492Y-13945484D01*
X17896492Y-13945484D02*
X17877444Y-13935960D01*
X17877444Y-13935960D02*
X17867920Y-13916912D01*
X17867920Y-13916912D02*
X17867920Y-13897865D01*
X17867920Y-13897865D02*
X17877444Y-13878817D01*
X17877444Y-13878817D02*
X17896492Y-13869293D01*
X17896492Y-13869293D02*
X17944111Y-13869293D01*
X17944111Y-13869293D02*
X17963158Y-13859769D01*
X18029825Y-13812150D02*
X18106015Y-13812150D01*
X18058396Y-13745484D02*
X18058396Y-13916912D01*
X18058396Y-13916912D02*
X18067920Y-13935960D01*
X18067920Y-13935960D02*
X18086968Y-13945484D01*
X18086968Y-13945484D02*
X18106015Y-13945484D01*
X18248873Y-13935960D02*
X18229825Y-13945484D01*
X18229825Y-13945484D02*
X18191730Y-13945484D01*
X18191730Y-13945484D02*
X18172682Y-13935960D01*
X18172682Y-13935960D02*
X18163158Y-13916912D01*
X18163158Y-13916912D02*
X18163158Y-13840722D01*
X18163158Y-13840722D02*
X18172682Y-13821674D01*
X18172682Y-13821674D02*
X18191730Y-13812150D01*
X18191730Y-13812150D02*
X18229825Y-13812150D01*
X18229825Y-13812150D02*
X18248873Y-13821674D01*
X18248873Y-13821674D02*
X18258396Y-13840722D01*
X18258396Y-13840722D02*
X18258396Y-13859769D01*
X18258396Y-13859769D02*
X18163158Y-13878817D01*
X18429825Y-13945484D02*
X18429825Y-13745484D01*
X18429825Y-13935960D02*
X18410777Y-13945484D01*
X18410777Y-13945484D02*
X18372682Y-13945484D01*
X18372682Y-13945484D02*
X18353635Y-13935960D01*
X18353635Y-13935960D02*
X18344111Y-13926436D01*
X18344111Y-13926436D02*
X18334587Y-13907388D01*
X18334587Y-13907388D02*
X18334587Y-13850246D01*
X18334587Y-13850246D02*
X18344111Y-13831198D01*
X18344111Y-13831198D02*
X18353635Y-13821674D01*
X18353635Y-13821674D02*
X18372682Y-13812150D01*
X18372682Y-13812150D02*
X18410777Y-13812150D01*
X18410777Y-13812150D02*
X18429825Y-13821674D01*
X18506016Y-14021674D02*
X18515539Y-14012150D01*
X18515539Y-14012150D02*
X18534587Y-13983579D01*
X18534587Y-13983579D02*
X18544111Y-13964531D01*
X18544111Y-13964531D02*
X18553635Y-13935960D01*
X18553635Y-13935960D02*
X18563158Y-13888341D01*
X18563158Y-13888341D02*
X18563158Y-13850246D01*
X18563158Y-13850246D02*
X18553635Y-13802627D01*
X18553635Y-13802627D02*
X18544111Y-13774055D01*
X18544111Y-13774055D02*
X18534587Y-13755008D01*
X18534587Y-13755008D02*
X18515539Y-13726436D01*
X18515539Y-13726436D02*
X18506016Y-13716912D01*
X11650000Y-14018000D02*
X11650000Y-14218000D01*
X11550000Y-14118000D02*
X11750000Y-14118000D01*
X11991729Y-14009484D02*
X12115539Y-14009484D01*
X12115539Y-14009484D02*
X12048872Y-14085674D01*
X12048872Y-14085674D02*
X12077443Y-14085674D01*
X12077443Y-14085674D02*
X12096491Y-14095198D01*
X12096491Y-14095198D02*
X12106015Y-14104722D01*
X12106015Y-14104722D02*
X12115539Y-14123769D01*
X12115539Y-14123769D02*
X12115539Y-14171388D01*
X12115539Y-14171388D02*
X12106015Y-14190436D01*
X12106015Y-14190436D02*
X12096491Y-14199960D01*
X12096491Y-14199960D02*
X12077443Y-14209484D01*
X12077443Y-14209484D02*
X12020301Y-14209484D01*
X12020301Y-14209484D02*
X12001253Y-14199960D01*
X12001253Y-14199960D02*
X11991729Y-14190436D01*
X12201253Y-14190436D02*
X12210777Y-14199960D01*
X12210777Y-14199960D02*
X12201253Y-14209484D01*
X12201253Y-14209484D02*
X12191729Y-14199960D01*
X12191729Y-14199960D02*
X12201253Y-14190436D01*
X12201253Y-14190436D02*
X12201253Y-14209484D01*
X12286967Y-14028531D02*
X12296491Y-14019008D01*
X12296491Y-14019008D02*
X12315539Y-14009484D01*
X12315539Y-14009484D02*
X12363158Y-14009484D01*
X12363158Y-14009484D02*
X12382205Y-14019008D01*
X12382205Y-14019008D02*
X12391729Y-14028531D01*
X12391729Y-14028531D02*
X12401253Y-14047579D01*
X12401253Y-14047579D02*
X12401253Y-14066627D01*
X12401253Y-14066627D02*
X12391729Y-14095198D01*
X12391729Y-14095198D02*
X12277443Y-14209484D01*
X12277443Y-14209484D02*
X12401253Y-14209484D01*
X12525062Y-14009484D02*
X12544110Y-14009484D01*
X12544110Y-14009484D02*
X12563158Y-14019008D01*
X12563158Y-14019008D02*
X12572682Y-14028531D01*
X12572682Y-14028531D02*
X12582205Y-14047579D01*
X12582205Y-14047579D02*
X12591729Y-14085674D01*
X12591729Y-14085674D02*
X12591729Y-14133293D01*
X12591729Y-14133293D02*
X12582205Y-14171388D01*
X12582205Y-14171388D02*
X12572682Y-14190436D01*
X12572682Y-14190436D02*
X12563158Y-14199960D01*
X12563158Y-14199960D02*
X12544110Y-14209484D01*
X12544110Y-14209484D02*
X12525062Y-14209484D01*
X12525062Y-14209484D02*
X12506015Y-14199960D01*
X12506015Y-14199960D02*
X12496491Y-14190436D01*
X12496491Y-14190436D02*
X12486967Y-14171388D01*
X12486967Y-14171388D02*
X12477443Y-14133293D01*
X12477443Y-14133293D02*
X12477443Y-14085674D01*
X12477443Y-14085674D02*
X12486967Y-14047579D01*
X12486967Y-14047579D02*
X12496491Y-14028531D01*
X12496491Y-14028531D02*
X12506015Y-14019008D01*
X12506015Y-14019008D02*
X12525062Y-14009484D01*
X12715539Y-14009484D02*
X12734586Y-14009484D01*
X12734586Y-14009484D02*
X12753634Y-14019008D01*
X12753634Y-14019008D02*
X12763158Y-14028531D01*
X12763158Y-14028531D02*
X12772682Y-14047579D01*
X12772682Y-14047579D02*
X12782205Y-14085674D01*
X12782205Y-14085674D02*
X12782205Y-14133293D01*
X12782205Y-14133293D02*
X12772682Y-14171388D01*
X12772682Y-14171388D02*
X12763158Y-14190436D01*
X12763158Y-14190436D02*
X12753634Y-14199960D01*
X12753634Y-14199960D02*
X12734586Y-14209484D01*
X12734586Y-14209484D02*
X12715539Y-14209484D01*
X12715539Y-14209484D02*
X12696491Y-14199960D01*
X12696491Y-14199960D02*
X12686967Y-14190436D01*
X12686967Y-14190436D02*
X12677443Y-14171388D01*
X12677443Y-14171388D02*
X12667920Y-14133293D01*
X12667920Y-14133293D02*
X12667920Y-14085674D01*
X12667920Y-14085674D02*
X12677443Y-14047579D01*
X12677443Y-14047579D02*
X12686967Y-14028531D01*
X12686967Y-14028531D02*
X12696491Y-14019008D01*
X12696491Y-14019008D02*
X12715539Y-14009484D01*
X12867920Y-14209484D02*
X12867920Y-14076150D01*
X12867920Y-14095198D02*
X12877443Y-14085674D01*
X12877443Y-14085674D02*
X12896491Y-14076150D01*
X12896491Y-14076150D02*
X12925063Y-14076150D01*
X12925063Y-14076150D02*
X12944110Y-14085674D01*
X12944110Y-14085674D02*
X12953634Y-14104722D01*
X12953634Y-14104722D02*
X12953634Y-14209484D01*
X12953634Y-14104722D02*
X12963158Y-14085674D01*
X12963158Y-14085674D02*
X12982205Y-14076150D01*
X12982205Y-14076150D02*
X13010777Y-14076150D01*
X13010777Y-14076150D02*
X13029824Y-14085674D01*
X13029824Y-14085674D02*
X13039348Y-14104722D01*
X13039348Y-14104722D02*
X13039348Y-14209484D01*
X13134586Y-14209484D02*
X13134586Y-14076150D01*
X13134586Y-14095198D02*
X13144110Y-14085674D01*
X13144110Y-14085674D02*
X13163158Y-14076150D01*
X13163158Y-14076150D02*
X13191729Y-14076150D01*
X13191729Y-14076150D02*
X13210777Y-14085674D01*
X13210777Y-14085674D02*
X13220301Y-14104722D01*
X13220301Y-14104722D02*
X13220301Y-14209484D01*
X13220301Y-14104722D02*
X13229824Y-14085674D01*
X13229824Y-14085674D02*
X13248872Y-14076150D01*
X13248872Y-14076150D02*
X13277443Y-14076150D01*
X13277443Y-14076150D02*
X13296491Y-14085674D01*
X13296491Y-14085674D02*
X13306015Y-14104722D01*
X13306015Y-14104722D02*
X13306015Y-14209484D01*
X13696491Y-13999960D02*
X13525063Y-14257103D01*
X13953634Y-14009484D02*
X13972682Y-14009484D01*
X13972682Y-14009484D02*
X13991729Y-14019008D01*
X13991729Y-14019008D02*
X14001253Y-14028531D01*
X14001253Y-14028531D02*
X14010777Y-14047579D01*
X14010777Y-14047579D02*
X14020301Y-14085674D01*
X14020301Y-14085674D02*
X14020301Y-14133293D01*
X14020301Y-14133293D02*
X14010777Y-14171388D01*
X14010777Y-14171388D02*
X14001253Y-14190436D01*
X14001253Y-14190436D02*
X13991729Y-14199960D01*
X13991729Y-14199960D02*
X13972682Y-14209484D01*
X13972682Y-14209484D02*
X13953634Y-14209484D01*
X13953634Y-14209484D02*
X13934586Y-14199960D01*
X13934586Y-14199960D02*
X13925063Y-14190436D01*
X13925063Y-14190436D02*
X13915539Y-14171388D01*
X13915539Y-14171388D02*
X13906015Y-14133293D01*
X13906015Y-14133293D02*
X13906015Y-14085674D01*
X13906015Y-14085674D02*
X13915539Y-14047579D01*
X13915539Y-14047579D02*
X13925063Y-14028531D01*
X13925063Y-14028531D02*
X13934586Y-14019008D01*
X13934586Y-14019008D02*
X13953634Y-14009484D01*
X14106015Y-14190436D02*
X14115539Y-14199960D01*
X14115539Y-14199960D02*
X14106015Y-14209484D01*
X14106015Y-14209484D02*
X14096491Y-14199960D01*
X14096491Y-14199960D02*
X14106015Y-14190436D01*
X14106015Y-14190436D02*
X14106015Y-14209484D01*
X14306015Y-14209484D02*
X14191729Y-14209484D01*
X14248872Y-14209484D02*
X14248872Y-14009484D01*
X14248872Y-14009484D02*
X14229825Y-14038055D01*
X14229825Y-14038055D02*
X14210777Y-14057103D01*
X14210777Y-14057103D02*
X14191729Y-14066627D01*
X14382206Y-14028531D02*
X14391729Y-14019008D01*
X14391729Y-14019008D02*
X14410777Y-14009484D01*
X14410777Y-14009484D02*
X14458396Y-14009484D01*
X14458396Y-14009484D02*
X14477444Y-14019008D01*
X14477444Y-14019008D02*
X14486967Y-14028531D01*
X14486967Y-14028531D02*
X14496491Y-14047579D01*
X14496491Y-14047579D02*
X14496491Y-14066627D01*
X14496491Y-14066627D02*
X14486967Y-14095198D01*
X14486967Y-14095198D02*
X14372682Y-14209484D01*
X14372682Y-14209484D02*
X14496491Y-14209484D01*
X14667920Y-14009484D02*
X14629825Y-14009484D01*
X14629825Y-14009484D02*
X14610777Y-14019008D01*
X14610777Y-14019008D02*
X14601253Y-14028531D01*
X14601253Y-14028531D02*
X14582206Y-14057103D01*
X14582206Y-14057103D02*
X14572682Y-14095198D01*
X14572682Y-14095198D02*
X14572682Y-14171388D01*
X14572682Y-14171388D02*
X14582206Y-14190436D01*
X14582206Y-14190436D02*
X14591729Y-14199960D01*
X14591729Y-14199960D02*
X14610777Y-14209484D01*
X14610777Y-14209484D02*
X14648872Y-14209484D01*
X14648872Y-14209484D02*
X14667920Y-14199960D01*
X14667920Y-14199960D02*
X14677444Y-14190436D01*
X14677444Y-14190436D02*
X14686967Y-14171388D01*
X14686967Y-14171388D02*
X14686967Y-14123769D01*
X14686967Y-14123769D02*
X14677444Y-14104722D01*
X14677444Y-14104722D02*
X14667920Y-14095198D01*
X14667920Y-14095198D02*
X14648872Y-14085674D01*
X14648872Y-14085674D02*
X14610777Y-14085674D01*
X14610777Y-14085674D02*
X14591729Y-14095198D01*
X14591729Y-14095198D02*
X14582206Y-14104722D01*
X14582206Y-14104722D02*
X14572682Y-14123769D01*
X14810777Y-14009484D02*
X14829825Y-14009484D01*
X14829825Y-14009484D02*
X14848872Y-14019008D01*
X14848872Y-14019008D02*
X14858396Y-14028531D01*
X14858396Y-14028531D02*
X14867920Y-14047579D01*
X14867920Y-14047579D02*
X14877444Y-14085674D01*
X14877444Y-14085674D02*
X14877444Y-14133293D01*
X14877444Y-14133293D02*
X14867920Y-14171388D01*
X14867920Y-14171388D02*
X14858396Y-14190436D01*
X14858396Y-14190436D02*
X14848872Y-14199960D01*
X14848872Y-14199960D02*
X14829825Y-14209484D01*
X14829825Y-14209484D02*
X14810777Y-14209484D01*
X14810777Y-14209484D02*
X14791729Y-14199960D01*
X14791729Y-14199960D02*
X14782206Y-14190436D01*
X14782206Y-14190436D02*
X14772682Y-14171388D01*
X14772682Y-14171388D02*
X14763158Y-14133293D01*
X14763158Y-14133293D02*
X14763158Y-14085674D01*
X14763158Y-14085674D02*
X14772682Y-14047579D01*
X14772682Y-14047579D02*
X14782206Y-14028531D01*
X14782206Y-14028531D02*
X14791729Y-14019008D01*
X14791729Y-14019008D02*
X14810777Y-14009484D01*
X14953634Y-14009484D02*
X14953634Y-14047579D01*
X15029825Y-14009484D02*
X15029825Y-14047579D01*
X15325063Y-14285674D02*
X15315539Y-14276150D01*
X15315539Y-14276150D02*
X15296491Y-14247579D01*
X15296491Y-14247579D02*
X15286968Y-14228531D01*
X15286968Y-14228531D02*
X15277444Y-14199960D01*
X15277444Y-14199960D02*
X15267920Y-14152341D01*
X15267920Y-14152341D02*
X15267920Y-14114246D01*
X15267920Y-14114246D02*
X15277444Y-14066627D01*
X15277444Y-14066627D02*
X15286968Y-14038055D01*
X15286968Y-14038055D02*
X15296491Y-14019008D01*
X15296491Y-14019008D02*
X15315539Y-13990436D01*
X15315539Y-13990436D02*
X15325063Y-13980912D01*
X15391729Y-14028531D02*
X15401253Y-14019008D01*
X15401253Y-14019008D02*
X15420301Y-14009484D01*
X15420301Y-14009484D02*
X15467920Y-14009484D01*
X15467920Y-14009484D02*
X15486968Y-14019008D01*
X15486968Y-14019008D02*
X15496491Y-14028531D01*
X15496491Y-14028531D02*
X15506015Y-14047579D01*
X15506015Y-14047579D02*
X15506015Y-14066627D01*
X15506015Y-14066627D02*
X15496491Y-14095198D01*
X15496491Y-14095198D02*
X15382206Y-14209484D01*
X15382206Y-14209484D02*
X15506015Y-14209484D01*
X15744110Y-14209484D02*
X15744110Y-14009484D01*
X15829825Y-14209484D02*
X15829825Y-14104722D01*
X15829825Y-14104722D02*
X15820301Y-14085674D01*
X15820301Y-14085674D02*
X15801253Y-14076150D01*
X15801253Y-14076150D02*
X15772682Y-14076150D01*
X15772682Y-14076150D02*
X15753634Y-14085674D01*
X15753634Y-14085674D02*
X15744110Y-14095198D01*
X15953634Y-14209484D02*
X15934587Y-14199960D01*
X15934587Y-14199960D02*
X15925063Y-14190436D01*
X15925063Y-14190436D02*
X15915539Y-14171388D01*
X15915539Y-14171388D02*
X15915539Y-14114246D01*
X15915539Y-14114246D02*
X15925063Y-14095198D01*
X15925063Y-14095198D02*
X15934587Y-14085674D01*
X15934587Y-14085674D02*
X15953634Y-14076150D01*
X15953634Y-14076150D02*
X15982206Y-14076150D01*
X15982206Y-14076150D02*
X16001253Y-14085674D01*
X16001253Y-14085674D02*
X16010777Y-14095198D01*
X16010777Y-14095198D02*
X16020301Y-14114246D01*
X16020301Y-14114246D02*
X16020301Y-14171388D01*
X16020301Y-14171388D02*
X16010777Y-14190436D01*
X16010777Y-14190436D02*
X16001253Y-14199960D01*
X16001253Y-14199960D02*
X15982206Y-14209484D01*
X15982206Y-14209484D02*
X15953634Y-14209484D01*
X16134587Y-14209484D02*
X16115539Y-14199960D01*
X16115539Y-14199960D02*
X16106015Y-14180912D01*
X16106015Y-14180912D02*
X16106015Y-14009484D01*
X16286968Y-14199960D02*
X16267920Y-14209484D01*
X16267920Y-14209484D02*
X16229825Y-14209484D01*
X16229825Y-14209484D02*
X16210777Y-14199960D01*
X16210777Y-14199960D02*
X16201253Y-14180912D01*
X16201253Y-14180912D02*
X16201253Y-14104722D01*
X16201253Y-14104722D02*
X16210777Y-14085674D01*
X16210777Y-14085674D02*
X16229825Y-14076150D01*
X16229825Y-14076150D02*
X16267920Y-14076150D01*
X16267920Y-14076150D02*
X16286968Y-14085674D01*
X16286968Y-14085674D02*
X16296491Y-14104722D01*
X16296491Y-14104722D02*
X16296491Y-14123769D01*
X16296491Y-14123769D02*
X16201253Y-14142817D01*
X16372682Y-14199960D02*
X16391730Y-14209484D01*
X16391730Y-14209484D02*
X16429825Y-14209484D01*
X16429825Y-14209484D02*
X16448872Y-14199960D01*
X16448872Y-14199960D02*
X16458396Y-14180912D01*
X16458396Y-14180912D02*
X16458396Y-14171388D01*
X16458396Y-14171388D02*
X16448872Y-14152341D01*
X16448872Y-14152341D02*
X16429825Y-14142817D01*
X16429825Y-14142817D02*
X16401253Y-14142817D01*
X16401253Y-14142817D02*
X16382206Y-14133293D01*
X16382206Y-14133293D02*
X16372682Y-14114246D01*
X16372682Y-14114246D02*
X16372682Y-14104722D01*
X16372682Y-14104722D02*
X16382206Y-14085674D01*
X16382206Y-14085674D02*
X16401253Y-14076150D01*
X16401253Y-14076150D02*
X16429825Y-14076150D01*
X16429825Y-14076150D02*
X16448872Y-14085674D01*
X16525063Y-14285674D02*
X16534587Y-14276150D01*
X16534587Y-14276150D02*
X16553634Y-14247579D01*
X16553634Y-14247579D02*
X16563158Y-14228531D01*
X16563158Y-14228531D02*
X16572682Y-14199960D01*
X16572682Y-14199960D02*
X16582206Y-14152341D01*
X16582206Y-14152341D02*
X16582206Y-14114246D01*
X16582206Y-14114246D02*
X16572682Y-14066627D01*
X16572682Y-14066627D02*
X16563158Y-14038055D01*
X16563158Y-14038055D02*
X16553634Y-14019008D01*
X16553634Y-14019008D02*
X16534587Y-13990436D01*
X16534587Y-13990436D02*
X16525063Y-13980912D01*
X16886968Y-14285674D02*
X16877444Y-14276150D01*
X16877444Y-14276150D02*
X16858396Y-14247579D01*
X16858396Y-14247579D02*
X16848873Y-14228531D01*
X16848873Y-14228531D02*
X16839349Y-14199960D01*
X16839349Y-14199960D02*
X16829825Y-14152341D01*
X16829825Y-14152341D02*
X16829825Y-14114246D01*
X16829825Y-14114246D02*
X16839349Y-14066627D01*
X16839349Y-14066627D02*
X16848873Y-14038055D01*
X16848873Y-14038055D02*
X16858396Y-14019008D01*
X16858396Y-14019008D02*
X16877444Y-13990436D01*
X16877444Y-13990436D02*
X16886968Y-13980912D01*
X16963158Y-14076150D02*
X16963158Y-14209484D01*
X16963158Y-14095198D02*
X16972682Y-14085674D01*
X16972682Y-14085674D02*
X16991730Y-14076150D01*
X16991730Y-14076150D02*
X17020301Y-14076150D01*
X17020301Y-14076150D02*
X17039349Y-14085674D01*
X17039349Y-14085674D02*
X17048873Y-14104722D01*
X17048873Y-14104722D02*
X17048873Y-14209484D01*
X17172682Y-14209484D02*
X17153634Y-14199960D01*
X17153634Y-14199960D02*
X17144111Y-14190436D01*
X17144111Y-14190436D02*
X17134587Y-14171388D01*
X17134587Y-14171388D02*
X17134587Y-14114246D01*
X17134587Y-14114246D02*
X17144111Y-14095198D01*
X17144111Y-14095198D02*
X17153634Y-14085674D01*
X17153634Y-14085674D02*
X17172682Y-14076150D01*
X17172682Y-14076150D02*
X17201254Y-14076150D01*
X17201254Y-14076150D02*
X17220301Y-14085674D01*
X17220301Y-14085674D02*
X17229825Y-14095198D01*
X17229825Y-14095198D02*
X17239349Y-14114246D01*
X17239349Y-14114246D02*
X17239349Y-14171388D01*
X17239349Y-14171388D02*
X17229825Y-14190436D01*
X17229825Y-14190436D02*
X17220301Y-14199960D01*
X17220301Y-14199960D02*
X17201254Y-14209484D01*
X17201254Y-14209484D02*
X17172682Y-14209484D01*
X17296492Y-14076150D02*
X17372682Y-14076150D01*
X17325063Y-14009484D02*
X17325063Y-14180912D01*
X17325063Y-14180912D02*
X17334587Y-14199960D01*
X17334587Y-14199960D02*
X17353634Y-14209484D01*
X17353634Y-14209484D02*
X17372682Y-14209484D01*
X17591730Y-14076150D02*
X17591730Y-14276150D01*
X17591730Y-14085674D02*
X17610777Y-14076150D01*
X17610777Y-14076150D02*
X17648873Y-14076150D01*
X17648873Y-14076150D02*
X17667920Y-14085674D01*
X17667920Y-14085674D02*
X17677444Y-14095198D01*
X17677444Y-14095198D02*
X17686968Y-14114246D01*
X17686968Y-14114246D02*
X17686968Y-14171388D01*
X17686968Y-14171388D02*
X17677444Y-14190436D01*
X17677444Y-14190436D02*
X17667920Y-14199960D01*
X17667920Y-14199960D02*
X17648873Y-14209484D01*
X17648873Y-14209484D02*
X17610777Y-14209484D01*
X17610777Y-14209484D02*
X17591730Y-14199960D01*
X17801254Y-14209484D02*
X17782206Y-14199960D01*
X17782206Y-14199960D02*
X17772682Y-14180912D01*
X17772682Y-14180912D02*
X17772682Y-14009484D01*
X17963158Y-14209484D02*
X17963158Y-14104722D01*
X17963158Y-14104722D02*
X17953635Y-14085674D01*
X17953635Y-14085674D02*
X17934587Y-14076150D01*
X17934587Y-14076150D02*
X17896492Y-14076150D01*
X17896492Y-14076150D02*
X17877444Y-14085674D01*
X17963158Y-14199960D02*
X17944111Y-14209484D01*
X17944111Y-14209484D02*
X17896492Y-14209484D01*
X17896492Y-14209484D02*
X17877444Y-14199960D01*
X17877444Y-14199960D02*
X17867920Y-14180912D01*
X17867920Y-14180912D02*
X17867920Y-14161865D01*
X17867920Y-14161865D02*
X17877444Y-14142817D01*
X17877444Y-14142817D02*
X17896492Y-14133293D01*
X17896492Y-14133293D02*
X17944111Y-14133293D01*
X17944111Y-14133293D02*
X17963158Y-14123769D01*
X18029825Y-14076150D02*
X18106015Y-14076150D01*
X18058396Y-14009484D02*
X18058396Y-14180912D01*
X18058396Y-14180912D02*
X18067920Y-14199960D01*
X18067920Y-14199960D02*
X18086968Y-14209484D01*
X18086968Y-14209484D02*
X18106015Y-14209484D01*
X18248873Y-14199960D02*
X18229825Y-14209484D01*
X18229825Y-14209484D02*
X18191730Y-14209484D01*
X18191730Y-14209484D02*
X18172682Y-14199960D01*
X18172682Y-14199960D02*
X18163158Y-14180912D01*
X18163158Y-14180912D02*
X18163158Y-14104722D01*
X18163158Y-14104722D02*
X18172682Y-14085674D01*
X18172682Y-14085674D02*
X18191730Y-14076150D01*
X18191730Y-14076150D02*
X18229825Y-14076150D01*
X18229825Y-14076150D02*
X18248873Y-14085674D01*
X18248873Y-14085674D02*
X18258396Y-14104722D01*
X18258396Y-14104722D02*
X18258396Y-14123769D01*
X18258396Y-14123769D02*
X18163158Y-14142817D01*
X18429825Y-14209484D02*
X18429825Y-14009484D01*
X18429825Y-14199960D02*
X18410777Y-14209484D01*
X18410777Y-14209484D02*
X18372682Y-14209484D01*
X18372682Y-14209484D02*
X18353635Y-14199960D01*
X18353635Y-14199960D02*
X18344111Y-14190436D01*
X18344111Y-14190436D02*
X18334587Y-14171388D01*
X18334587Y-14171388D02*
X18334587Y-14114246D01*
X18334587Y-14114246D02*
X18344111Y-14095198D01*
X18344111Y-14095198D02*
X18353635Y-14085674D01*
X18353635Y-14085674D02*
X18372682Y-14076150D01*
X18372682Y-14076150D02*
X18410777Y-14076150D01*
X18410777Y-14076150D02*
X18429825Y-14085674D01*
X18506016Y-14285674D02*
X18515539Y-14276150D01*
X18515539Y-14276150D02*
X18534587Y-14247579D01*
X18534587Y-14247579D02*
X18544111Y-14228531D01*
X18544111Y-14228531D02*
X18553635Y-14199960D01*
X18553635Y-14199960D02*
X18563158Y-14152341D01*
X18563158Y-14152341D02*
X18563158Y-14114246D01*
X18563158Y-14114246D02*
X18553635Y-14066627D01*
X18553635Y-14066627D02*
X18544111Y-14038055D01*
X18544111Y-14038055D02*
X18534587Y-14019008D01*
X18534587Y-14019008D02*
X18515539Y-13990436D01*
X18515539Y-13990436D02*
X18506016Y-13980912D01*
M02*
