M48
; DRILL file {KiCad 8.0.7} date 2025-01-11T17:49:51-0500
; FORMAT={-:-/ absolute / metric / decimal}
; #@! TF.CreationDate,2025-01-11T17:49:51-05:00
; #@! TF.GenerationSoftware,Kicad,Pcbnew,8.0.7
; #@! TF.FileFunction,Plated,1,6,PTH
FMAT,2
METRIC
; #@! TA.AperFunction,Plated,PTH,ComponentDrill
T1C0.200
; #@! TA.AperFunction,Plated,PTH,ViaDrill
T2C0.300
; #@! TA.AperFunction,Plated,PTH,ComponentDrill
T3C0.600
; #@! TA.AperFunction,Plated,PTH,ComponentDrill
T4C0.760
; #@! TA.AperFunction,Plated,PTH,ComponentDrill
T5C1.000
%
G90
G05
T1
X141.25Y-118.137
X141.25Y-119.137
X141.25Y-120.137
X142.25Y-118.137
X142.25Y-119.137
X142.25Y-120.137
X143.25Y-118.137
X143.25Y-119.137
X143.25Y-120.137
T2
X119.25Y-84.915
X119.65Y-84.315
X119.65Y-85.515
X120.2Y-101.0
X120.59Y-99.6
X120.6Y-101.4
X120.824Y-91.376
X120.85Y-85.715
X121.0Y-101.0
X122.075Y-83.215
X122.075Y-84.365
X122.075Y-85.165
X123.6Y-86.2
X123.6Y-87.4
X124.0Y-105.0
X124.4Y-105.575
X124.4Y-106.8
X124.45Y-86.825
X124.599Y-95.151
X124.675Y-86.275
X124.675Y-87.375
X124.8Y-105.0
X125.025Y-86.75
X127.4Y-108.4
X131.15Y-88.4
X131.2Y-102.6
X131.6Y-94.8
X131.8Y-108.45
X131.95Y-109.55
X131.999Y-110.45
X132.0Y-111.4
X132.05Y-97.825
X132.425Y-108.45
X132.65Y-88.4
X132.659Y-97.834
X132.85Y-103.55
X133.025Y-107.125
X133.299Y-94.701
X133.4Y-98.9
X133.45Y-99.55
X133.475Y-100.225
X133.475Y-105.475
X133.725Y-98.2
X134.35Y-111.65
X134.4Y-97.675
X134.6Y-95.0
X134.8Y-93.4
X134.8Y-94.2
X135.2Y-95.0
X135.225Y-111.55
X135.25Y-93.725
X135.325Y-94.425
X135.6Y-89.8
X135.9Y-104.9
X136.0Y-100.3
X136.025Y-108.975
X136.125Y-107.35
X136.2Y-80.4
X136.2Y-81.2
X136.2Y-82.0
X136.2Y-82.8
X136.225Y-106.55
X136.4Y-102.8
X136.4Y-110.6
X136.568Y-101.136
X136.6Y-93.2
X136.6Y-108.6
X136.825Y-114.425
X136.925Y-94.425
X137.4Y-93.6
X137.4Y-116.8
X137.4Y-124.2
X137.5Y-98.9
X137.6Y-94.4
X137.6Y-113.614
X137.6Y-114.4
X137.65Y-110.6
X137.9Y-95.675
X138.124Y-107.875
X138.25Y-94.375
X138.35Y-93.45
X138.4Y-87.75
X138.4Y-89.0
X138.4Y-100.6
X138.4Y-110.975
X138.4Y-125.8
X138.8Y-125.4
X138.85Y-115.95
X138.9Y-116.775
X139.12Y-88.8
X139.2Y-87.75
X139.2Y-125.8
X139.4Y-109.0
X139.425Y-98.025
X139.5Y-114.775
X139.5Y-116.15
X139.575Y-94.575
X139.6Y-120.4
X139.6Y-122.0
X139.6Y-124.4
X139.9Y-110.425
X140.062Y-109.287
X140.3Y-117.5
X140.35Y-116.425
X140.4Y-113.1
X140.625Y-94.45
X141.0Y-121.975
X141.2Y-113.25
X141.4Y-110.0
X141.75Y-102.075
X141.775Y-110.6
X141.8Y-93.15
X141.8Y-108.6
X141.9Y-113.25
X142.15Y-85.65
X142.2Y-98.4
X142.4Y-88.65
X142.8Y-98.8
X143.0Y-93.175
X143.15Y-85.675
X143.15Y-95.5
X143.4Y-113.25
X143.575Y-114.95
X143.95Y-95.525
X144.2Y-110.425
X144.4Y-98.025
X144.4Y-121.625
X144.4Y-123.2
X144.575Y-101.6
X144.725Y-110.85
X144.784Y-113.219
X144.8Y-104.6
X144.925Y-107.0
X145.1Y-98.7
X145.199Y-125.599
X145.2Y-108.8
X145.2Y-116.275
X145.2Y-122.4
X145.2Y-123.2
X145.237Y-113.762
X145.5Y-114.418
X145.6Y-87.7
X145.6Y-88.325
X145.96Y-98.833
X145.975Y-125.725
X146.2Y-95.525
X146.3Y-87.85
X146.3Y-88.925
X146.372Y-125.4
X146.375Y-98.2
X146.45Y-102.75
X146.525Y-115.275
X146.575Y-121.85
X146.575Y-117.65
X146.72Y-95.135
X146.85Y-125.75
X147.4Y-100.057
X147.425Y-95.45
X147.6Y-110.4
X147.745Y-100.825
X148.125Y-113.6
X148.325Y-110.75
X148.4Y-108.8
X148.45Y-98.875
X148.55Y-104.65
X148.6Y-117.0
X148.625Y-86.825
X148.625Y-87.675
X148.625Y-88.575
X148.75Y-89.4
X148.75Y-90.025
X148.818Y-100.024
X148.85Y-105.25
X149.0Y-99.4
X149.0Y-124.2
X149.25Y-89.4
X149.25Y-90.025
X149.425Y-86.825
X149.425Y-87.675
X149.425Y-88.575
X149.7Y-114.1
X149.7Y-114.8
X149.7Y-115.6
X149.8Y-126.2
X150.4Y-114.1
X150.4Y-115.6
X150.425Y-114.825
X151.0Y-122.4
X151.375Y-107.075
X151.375Y-107.9
X151.4Y-95.4
X151.4Y-96.2
X151.4Y-98.6
X151.713Y-109.512
X151.75Y-110.575
X152.0Y-98.35
X152.075Y-81.25
X152.2Y-95.4
X152.2Y-96.2
X152.3Y-115.2
X152.6Y-83.8
X152.6Y-84.7
X152.6Y-85.6
X153.0Y-81.25
X153.0Y-95.4
X153.0Y-96.2
X153.025Y-84.275
X153.4Y-83.8
X153.4Y-84.7
X153.4Y-85.6
X153.8Y-95.4
X153.8Y-96.2
X153.85Y-81.25
X155.775Y-89.8
X156.8Y-96.8
X156.9Y-89.375
X156.9Y-90.125
X157.2Y-95.0
X158.2Y-81.6
X158.8Y-92.175
X160.8Y-81.8
X160.8Y-82.6
X161.4Y-82.175
X162.12Y-82.2
X163.0Y-115.4
X163.0Y-118.0
X165.0Y-82.8
T4
X121.2Y-117.18
X121.2Y-119.72
X121.2Y-122.26
X121.2Y-124.8
X123.74Y-118.45
X123.74Y-120.99
X123.74Y-123.53
X123.74Y-126.07
T5
X126.2Y-81.66
X126.2Y-84.2
X126.2Y-86.74
X130.0Y-81.66
X130.0Y-84.2
X130.0Y-86.74
X133.8Y-81.6
X133.8Y-84.14
X133.8Y-86.68
X138.72Y-127.4
X141.26Y-127.4
X143.8Y-127.4
X146.34Y-127.4
X153.4Y-103.775
X153.4Y-106.315
X153.4Y-108.855
X153.4Y-111.395
X153.4Y-113.935
X153.4Y-116.475
X153.4Y-119.015
X153.4Y-121.555
X153.4Y-124.095
X153.4Y-126.635
X157.2Y-98.66
X157.2Y-101.2
X157.2Y-103.74
X157.2Y-106.28
X157.2Y-108.82
X157.2Y-111.36
X157.2Y-113.9
X157.2Y-116.44
X157.2Y-118.98
X157.2Y-121.52
X157.2Y-124.06
X157.2Y-126.6
X161.0Y-85.96
X161.0Y-88.5
X161.0Y-91.04
X161.0Y-93.58
X161.0Y-96.12
X161.0Y-98.66
X161.0Y-101.2
X161.0Y-103.74
X161.0Y-106.28
X161.0Y-108.82
X161.0Y-111.36
X161.0Y-113.9
X161.0Y-116.44
X161.0Y-118.98
X161.0Y-121.52
X161.0Y-124.06
X161.0Y-126.6
X164.8Y-85.97
X164.8Y-88.51
X164.8Y-91.05
X164.8Y-93.59
X164.8Y-96.13
X164.8Y-98.72
X164.8Y-101.26
X164.8Y-103.8
X164.8Y-106.34
X164.8Y-108.88
X164.8Y-111.42
X164.8Y-113.96
X164.8Y-116.5
X164.8Y-119.04
X164.8Y-121.58
X164.8Y-124.12
X164.8Y-126.66
T3
X138.08Y-82.52G85X138.08Y-81.72
G05
X138.08Y-86.85G85X138.08Y-85.75
G05
X146.72Y-82.52G85X146.72Y-81.72
G05
X146.72Y-86.85G85X146.72Y-85.75
G05
M30
