G04 #@! TF.GenerationSoftware,KiCad,Pcbnew,8.0.7*
G04 #@! TF.CreationDate,2025-01-11T17:49:48-05:00*
G04 #@! TF.ProjectId,STM32H750VBT6_Minimalistic_Design,53544d33-3248-4373-9530-564254365f4d,rev?*
G04 #@! TF.SameCoordinates,Original*
G04 #@! TF.FileFunction,Copper,L3,Inr*
G04 #@! TF.FilePolarity,Positive*
%FSLAX46Y46*%
G04 Gerber Fmt 4.6, Leading zero omitted, Abs format (unit mm)*
G04 Created by KiCad (PCBNEW 8.0.7) date 2025-01-11 17:49:48*
%MOMM*%
%LPD*%
G01*
G04 APERTURE LIST*
G04 #@! TA.AperFunction,HeatsinkPad*
%ADD10C,0.500000*%
G04 #@! TD*
G04 #@! TA.AperFunction,ComponentPad*
%ADD11R,1.700000X1.700000*%
G04 #@! TD*
G04 #@! TA.AperFunction,ComponentPad*
%ADD12O,1.700000X1.700000*%
G04 #@! TD*
G04 #@! TA.AperFunction,ComponentPad*
%ADD13O,1.000000X2.100000*%
G04 #@! TD*
G04 #@! TA.AperFunction,ComponentPad*
%ADD14O,1.000000X1.800000*%
G04 #@! TD*
G04 #@! TA.AperFunction,ComponentPad*
%ADD15R,1.500000X1.500000*%
G04 #@! TD*
G04 #@! TA.AperFunction,ComponentPad*
%ADD16C,1.500000*%
G04 #@! TD*
G04 #@! TA.AperFunction,ViaPad*
%ADD17C,0.450000*%
G04 #@! TD*
G04 #@! TA.AperFunction,Conductor*
%ADD18C,0.150000*%
G04 #@! TD*
G04 APERTURE END LIST*
D10*
X143250000Y-120137500D03*
X143250000Y-119137500D03*
X143250000Y-118137500D03*
X142250000Y-120137500D03*
X142250000Y-119137500D03*
X142250000Y-118137500D03*
X141250000Y-120137500D03*
X141250000Y-119137500D03*
X141250000Y-118137500D03*
D11*
X164800000Y-85970000D03*
D12*
X164800000Y-88510000D03*
X164800000Y-91050000D03*
X164800000Y-93590000D03*
X164800000Y-96130000D03*
D13*
X146720000Y-86300000D03*
D14*
X146720000Y-82120000D03*
D13*
X138080000Y-86300000D03*
D14*
X138080000Y-82120000D03*
D11*
X153400000Y-103775000D03*
D12*
X153400000Y-106315000D03*
X153400000Y-108855000D03*
X153400000Y-111395000D03*
X153400000Y-113935000D03*
X153400000Y-116475000D03*
X153400000Y-119015000D03*
X153400000Y-121555000D03*
X153400000Y-124095000D03*
X153400000Y-126635000D03*
D11*
X157200000Y-98660000D03*
D12*
X157200000Y-101200000D03*
X157200000Y-103740000D03*
X157200000Y-106280000D03*
X157200000Y-108820000D03*
X157200000Y-111360000D03*
X157200000Y-113900000D03*
X157200000Y-116440000D03*
X157200000Y-118980000D03*
X157200000Y-121520000D03*
X157200000Y-124060000D03*
X157200000Y-126600000D03*
D11*
X164800000Y-98720000D03*
D12*
X164800000Y-101260000D03*
X164800000Y-103800000D03*
X164800000Y-106340000D03*
X164800000Y-108880000D03*
X164800000Y-111420000D03*
X164800000Y-113960000D03*
X164800000Y-116500000D03*
X164800000Y-119040000D03*
X164800000Y-121580000D03*
X164800000Y-124120000D03*
X164800000Y-126660000D03*
D11*
X126200000Y-81660000D03*
D12*
X126200000Y-84200000D03*
X126200000Y-86740000D03*
D15*
X121200000Y-117180000D03*
D16*
X123740000Y-118450000D03*
X121200000Y-119720000D03*
X123740000Y-120990000D03*
X121200000Y-122260000D03*
X123740000Y-123530000D03*
X121200000Y-124800000D03*
X123740000Y-126070000D03*
D11*
X138720000Y-127400000D03*
D12*
X141260000Y-127400000D03*
X143800000Y-127400000D03*
X146340000Y-127400000D03*
D11*
X133800000Y-81600000D03*
D12*
X133800000Y-84140000D03*
X133800000Y-86680000D03*
D11*
X161000000Y-98660000D03*
D12*
X161000000Y-101200000D03*
X161000000Y-103740000D03*
X161000000Y-106280000D03*
X161000000Y-108820000D03*
X161000000Y-111360000D03*
X161000000Y-113900000D03*
X161000000Y-116440000D03*
X161000000Y-118980000D03*
X161000000Y-121520000D03*
X161000000Y-124060000D03*
X161000000Y-126600000D03*
D11*
X130000000Y-81660000D03*
D12*
X130000000Y-84200000D03*
X130000000Y-86740000D03*
D11*
X161000000Y-96120000D03*
D12*
X161000000Y-93580000D03*
X161000000Y-91040000D03*
X161000000Y-88500000D03*
X161000000Y-85960000D03*
D17*
X158200000Y-81600000D03*
X152075000Y-81250000D03*
X153850000Y-81250000D03*
X148625000Y-86825000D03*
X142400000Y-88650003D03*
X138400000Y-87750000D03*
X149700000Y-114100000D03*
X145200000Y-122400000D03*
X151400000Y-96200000D03*
X125025000Y-86750000D03*
X148750000Y-89400000D03*
X145600000Y-88325003D03*
X148625000Y-88575000D03*
X136925000Y-94425000D03*
X119650000Y-84315000D03*
X144400000Y-123200000D03*
X145975000Y-125725000D03*
X156900000Y-89375000D03*
X124800000Y-105000000D03*
X119250000Y-84915000D03*
X148450000Y-98875000D03*
X146300000Y-87850000D03*
X124400000Y-105575000D03*
X149700000Y-114800000D03*
X150400000Y-114100000D03*
X153000000Y-95400000D03*
X124450000Y-86825000D03*
X137600000Y-94400000D03*
X151400000Y-95400000D03*
X137400000Y-93600000D03*
X132050000Y-97825000D03*
X133025000Y-107125000D03*
X153800000Y-95400000D03*
X123600000Y-87400000D03*
X152200000Y-96200000D03*
X149250000Y-90025000D03*
X145200000Y-123200000D03*
X160800000Y-81800000D03*
X146372394Y-125400000D03*
X153000000Y-96200000D03*
X161400000Y-82175000D03*
X124675000Y-86275000D03*
X150400000Y-115600000D03*
X149425000Y-88575000D03*
X139200000Y-87750000D03*
X162120000Y-82200000D03*
X124675000Y-87375000D03*
X122075000Y-84365000D03*
X153800000Y-96200000D03*
X136600000Y-93200000D03*
X160800000Y-82600000D03*
X124000000Y-105000000D03*
X150425000Y-114825000D03*
X136400000Y-102800000D03*
X122075000Y-83215000D03*
X152200000Y-95400000D03*
X122075000Y-85165000D03*
X123600000Y-86200000D03*
X149700000Y-115600000D03*
X145600000Y-87700000D03*
X139120000Y-88800000D03*
X136400000Y-110600000D03*
X119650000Y-85515000D03*
X138400000Y-89000000D03*
X148750000Y-90025000D03*
X149425000Y-87675000D03*
X148325000Y-110750000D03*
X132658946Y-97833946D03*
X149250000Y-89400000D03*
X146850000Y-125750000D03*
X146300000Y-88925000D03*
X155775000Y-89800000D03*
X149425000Y-86825000D03*
X148625000Y-87675000D03*
X156900000Y-90125000D03*
X124400000Y-106800000D03*
X131200000Y-102600000D03*
X121000000Y-101000000D03*
X135200000Y-95000000D03*
X131800000Y-108450000D03*
X136200000Y-80400000D03*
X136200000Y-81200000D03*
X138400000Y-125800000D03*
X152000000Y-98350000D03*
X135325000Y-94425000D03*
X132425000Y-108450000D03*
X120590000Y-99600000D03*
X134600000Y-95000000D03*
X138800000Y-125400000D03*
X152600000Y-84700000D03*
X148125000Y-113600000D03*
X136200000Y-82800000D03*
X153400000Y-85600000D03*
X136200000Y-82000000D03*
X134800000Y-94200000D03*
X152600000Y-85600000D03*
X136825000Y-114425000D03*
X132850000Y-103550000D03*
X120200000Y-101000000D03*
X153400000Y-83800000D03*
X137600000Y-113613672D03*
X139200000Y-125800000D03*
X120600000Y-101400000D03*
X137600000Y-114400000D03*
X152600000Y-83800000D03*
X134800000Y-93400000D03*
X151400000Y-98600000D03*
X135250000Y-93725000D03*
X153400000Y-84700000D03*
X133299480Y-94700520D03*
X132650000Y-88400000D03*
X139425000Y-98025000D03*
X151712500Y-109512500D03*
X133475000Y-105475000D03*
X151750000Y-110575000D03*
X145237500Y-113762500D03*
X148400000Y-108800000D03*
X148850000Y-105250000D03*
X145959901Y-98832949D03*
X145199479Y-125599479D03*
X148818001Y-100024001D03*
X141775000Y-110600000D03*
X136025000Y-108975000D03*
X137650000Y-110600000D03*
X135225000Y-111550000D03*
X144725000Y-110850000D03*
X147600000Y-110400000D03*
X144800000Y-104600000D03*
X149000000Y-99400000D03*
X144575000Y-101600000D03*
X146375000Y-98200000D03*
X145100000Y-98700000D03*
X146525000Y-115275000D03*
X141800000Y-108600000D03*
X152300000Y-115200000D03*
X141900000Y-113250000D03*
X163000000Y-115400000D03*
X148600000Y-117000000D03*
X146575001Y-117650000D03*
X163000000Y-118000000D03*
X151000000Y-122400000D03*
X143150000Y-95500000D03*
X143950000Y-95525000D03*
X133400000Y-98900000D03*
X147425000Y-95450000D03*
X144400000Y-121625000D03*
X138400000Y-110975000D03*
X149000000Y-124200000D03*
X151375000Y-107900000D03*
X133475000Y-100225000D03*
X138350000Y-93450000D03*
X157200000Y-95000000D03*
X165000000Y-82800000D03*
X141750000Y-102075000D03*
X158800000Y-92175000D03*
X149800000Y-126200000D03*
X140350000Y-116425000D03*
X140400000Y-113100000D03*
X146450000Y-102750000D03*
X144783969Y-113219325D03*
X144200000Y-110425000D03*
X151375000Y-107075000D03*
X145500000Y-114417894D03*
X136000000Y-100300000D03*
X137900000Y-95675000D03*
X142800000Y-98800000D03*
X138250000Y-94375000D03*
X136125000Y-107350000D03*
X139400000Y-109000000D03*
X139500000Y-114775000D03*
X146720002Y-95134998D03*
X143400000Y-113250000D03*
X139575000Y-94575000D03*
X146200000Y-95525000D03*
X156800000Y-96800000D03*
X144400000Y-98025000D03*
X148550000Y-104650000D03*
X133450000Y-99550000D03*
X142200000Y-98400000D03*
X136225000Y-106550000D03*
X135900000Y-104900000D03*
X120850000Y-85715000D03*
X120824265Y-91375735D03*
X124599264Y-95150736D03*
X134350000Y-111650000D03*
X133725000Y-98200000D03*
X131600000Y-94800000D03*
X131150000Y-88400000D03*
X136568435Y-101135853D03*
X135600000Y-89800000D03*
X140625000Y-94450000D03*
X136600000Y-108600000D03*
X142150000Y-85650000D03*
X143150000Y-85675000D03*
X145200000Y-116275000D03*
X138900000Y-116775000D03*
X141000000Y-121975000D03*
X139600000Y-122000000D03*
X139600000Y-124400000D03*
X137400000Y-124200000D03*
X147745298Y-100825001D03*
X141800000Y-93150000D03*
X143575000Y-114950000D03*
X139500000Y-116150000D03*
X143000000Y-93175000D03*
X147400000Y-100057106D03*
X139600000Y-120400000D03*
X146575000Y-121850000D03*
X138850000Y-115950000D03*
X139900000Y-110425000D03*
X137400000Y-116800000D03*
X140300000Y-117500000D03*
X138123744Y-107875214D03*
X127400000Y-108400000D03*
X141200000Y-113250000D03*
X132000000Y-111400000D03*
X141400000Y-110000000D03*
X137500000Y-98900000D03*
X131950000Y-109550000D03*
X131999479Y-110450000D03*
X140062500Y-109287500D03*
X145200000Y-108800000D03*
X134400000Y-97675000D03*
X144925000Y-107000000D03*
X138400000Y-100600000D03*
X153025000Y-84275000D03*
X153000000Y-81250000D03*
D18*
X159850000Y-112750000D02*
X161000000Y-113900000D01*
X153128654Y-112750000D02*
X159850000Y-112750000D01*
X145100000Y-98700000D02*
X145778654Y-99378654D01*
X145778654Y-105400000D02*
X153128654Y-112750000D01*
X145778654Y-99378654D02*
X145778654Y-105400000D01*
X159645000Y-125245000D02*
X161000000Y-126600000D01*
X152923654Y-125245000D02*
X159645000Y-125245000D01*
X144500000Y-116821346D02*
X152923654Y-125245000D01*
X144500000Y-114975000D02*
X144500000Y-116821346D01*
X143925000Y-114400000D02*
X144500000Y-114975000D01*
X142400000Y-113600000D02*
X143200000Y-114400000D01*
X142225000Y-101576041D02*
X142400000Y-101751041D01*
X142400000Y-101751041D02*
X142400000Y-113600000D01*
X142200000Y-101198959D02*
X142225000Y-101223959D01*
X142200000Y-98400000D02*
X142200000Y-101198959D01*
X142225000Y-101223959D02*
X142225000Y-101576041D01*
X143200000Y-114400000D02*
X143925000Y-114400000D01*
X142800000Y-113505026D02*
X142800000Y-98800000D01*
X144175000Y-114050000D02*
X143344974Y-114050000D01*
X151960000Y-121835000D02*
X144175000Y-114050000D01*
X151960000Y-122910000D02*
X151960000Y-121835000D01*
X161000000Y-124060000D02*
X159850000Y-122910000D01*
X159850000Y-122910000D02*
X151960000Y-122910000D01*
X143344974Y-114050000D02*
X142800000Y-113505026D01*
X153128654Y-117830000D02*
X159850000Y-117830000D01*
X151200000Y-115901346D02*
X153128654Y-117830000D01*
X151200000Y-113400000D02*
X151200000Y-115901346D01*
X150800000Y-113000000D02*
X151200000Y-113400000D01*
X149400000Y-113000000D02*
X150800000Y-113000000D01*
X146000000Y-109600000D02*
X149400000Y-113000000D01*
X159850000Y-117830000D02*
X161000000Y-118980000D01*
X145300000Y-108300000D02*
X145407107Y-108300000D01*
X145407107Y-108300000D02*
X146000000Y-108892893D01*
X146000000Y-108892893D02*
X146000000Y-109600000D01*
X143900000Y-106900000D02*
X145300000Y-108300000D01*
X143900000Y-95575000D02*
X143900000Y-106900000D01*
X143950000Y-95525000D02*
X143900000Y-95575000D01*
X152250000Y-113412500D02*
X152250000Y-114411346D01*
X159645000Y-115085000D02*
X161000000Y-116440000D01*
X145325000Y-99825000D02*
X145325000Y-106487500D01*
X152250000Y-114411346D02*
X152923654Y-115085000D01*
X152923654Y-115085000D02*
X159645000Y-115085000D01*
X144400000Y-98900000D02*
X145325000Y-99825000D01*
X144400000Y-98025000D02*
X144400000Y-98900000D01*
X145325000Y-106487500D02*
X152250000Y-113412500D01*
X159850000Y-120370000D02*
X161000000Y-121520000D01*
X143400000Y-110641346D02*
X153128654Y-120370000D01*
X143150000Y-95500000D02*
X143400000Y-95750000D01*
X153128654Y-120370000D02*
X159850000Y-120370000D01*
X143400000Y-95750000D02*
X143400000Y-110641346D01*
X140626041Y-121000000D02*
X140951041Y-121325000D01*
X140951041Y-121325000D02*
X144100000Y-121325000D01*
X139200000Y-121000000D02*
X140626041Y-121000000D01*
X138300000Y-120100000D02*
X139200000Y-121000000D01*
X144100000Y-121325000D02*
X144400000Y-121625000D01*
X138300000Y-111075000D02*
X138300000Y-120100000D01*
X138400000Y-110975000D02*
X138300000Y-111075000D01*
X140024479Y-115449999D02*
X140024479Y-115248959D01*
X140200000Y-116275000D02*
X140200000Y-115625520D01*
X140024479Y-115248959D02*
X140400000Y-114873438D01*
X140200000Y-115625520D02*
X140024479Y-115449999D01*
X140400000Y-114873438D02*
X140400000Y-113100000D01*
X140350000Y-116425000D02*
X140200000Y-116275000D01*
X138400000Y-112200000D02*
X138400000Y-110975000D01*
X161000000Y-107906346D02*
X161000000Y-108820000D01*
X157983654Y-104890000D02*
X161000000Y-107906346D01*
X150000000Y-98200000D02*
X156690000Y-104890000D01*
X156690000Y-104890000D02*
X157983654Y-104890000D01*
X146375000Y-98200000D02*
X150000000Y-98200000D01*
X161000000Y-110753654D02*
X161000000Y-111360000D01*
X157676346Y-107430000D02*
X161000000Y-110753654D01*
X156230000Y-107430000D02*
X157676346Y-107430000D01*
X148350000Y-100950000D02*
X152325000Y-104925000D01*
X148350000Y-100200000D02*
X148350000Y-100950000D01*
X153725000Y-104925000D02*
X156230000Y-107430000D01*
X152325000Y-104925000D02*
X153725000Y-104925000D01*
X147000000Y-98850000D02*
X148350000Y-100200000D01*
X145976952Y-98850000D02*
X147000000Y-98850000D01*
X145959901Y-98832949D02*
X145976952Y-98850000D01*
X163675000Y-127785000D02*
X164800000Y-126660000D01*
X149338654Y-124200000D02*
X152923654Y-127785000D01*
X152923654Y-127785000D02*
X163675000Y-127785000D01*
X149000000Y-124200000D02*
X149338654Y-124200000D01*
G04 #@! TA.AperFunction,Conductor*
G36*
X149038808Y-113457816D02*
G01*
X149039597Y-113456451D01*
X149046633Y-113460513D01*
X149046635Y-113460515D01*
X149177865Y-113536281D01*
X149324233Y-113575500D01*
X149324234Y-113575500D01*
X150500500Y-113575500D01*
X150567539Y-113595185D01*
X150613294Y-113647989D01*
X150624500Y-113699500D01*
X150624500Y-115825580D01*
X150624500Y-115977112D01*
X150633672Y-116011344D01*
X150663719Y-116123482D01*
X150678935Y-116149836D01*
X150739485Y-116254711D01*
X150739487Y-116254713D01*
X152407257Y-117922483D01*
X152440742Y-117983806D01*
X152435758Y-118053498D01*
X152407258Y-118097844D01*
X152361506Y-118143596D01*
X152225965Y-118337169D01*
X152225961Y-118337177D01*
X152200229Y-118392358D01*
X152154056Y-118444797D01*
X152086862Y-118463948D01*
X152019981Y-118443731D01*
X152000167Y-118427633D01*
X148107215Y-114534681D01*
X148073730Y-114473358D01*
X148078714Y-114403666D01*
X148120586Y-114347733D01*
X148181013Y-114323780D01*
X148287455Y-114311787D01*
X148287456Y-114311786D01*
X148287461Y-114311786D01*
X148441775Y-114257789D01*
X148580204Y-114170808D01*
X148695808Y-114055204D01*
X148782789Y-113916775D01*
X148836786Y-113762461D01*
X148836787Y-113762455D01*
X148855091Y-113600003D01*
X148855091Y-113599998D01*
X148852411Y-113576215D01*
X148864465Y-113507393D01*
X148911814Y-113456013D01*
X148979424Y-113438388D01*
X149038808Y-113457816D01*
G37*
G04 #@! TD.AperFunction*
G04 #@! TA.AperFunction,Conductor*
G36*
X148478243Y-110469733D02*
G01*
X148521405Y-110497785D01*
X150236439Y-112212819D01*
X150269924Y-112274142D01*
X150264940Y-112343834D01*
X150223068Y-112399767D01*
X150157604Y-112424184D01*
X150148758Y-112424500D01*
X149689742Y-112424500D01*
X149622703Y-112404815D01*
X149602061Y-112388181D01*
X148201478Y-110987598D01*
X148167993Y-110926275D01*
X148172977Y-110856583D01*
X148184163Y-110833948D01*
X148257789Y-110716775D01*
X148311786Y-110562461D01*
X148311787Y-110562453D01*
X148312834Y-110557871D01*
X148346944Y-110496893D01*
X148408606Y-110464037D01*
X148478243Y-110469733D01*
G37*
G04 #@! TD.AperFunction*
G04 #@! TA.AperFunction,Conductor*
G36*
X148378246Y-98795185D02*
G01*
X148424001Y-98847989D01*
X148433945Y-98917147D01*
X148416200Y-98965473D01*
X148342210Y-99083224D01*
X148330893Y-99115567D01*
X148290170Y-99172342D01*
X148225217Y-99198088D01*
X148156656Y-99184631D01*
X148126171Y-99162291D01*
X147951061Y-98987181D01*
X147917576Y-98925858D01*
X147922560Y-98856166D01*
X147964432Y-98800233D01*
X148029896Y-98775816D01*
X148038742Y-98775500D01*
X148311207Y-98775500D01*
X148378246Y-98795185D01*
G37*
G04 #@! TD.AperFunction*
G04 #@! TA.AperFunction,Conductor*
G36*
X125199802Y-80120185D02*
G01*
X125245557Y-80172989D01*
X125255501Y-80242147D01*
X125226476Y-80305703D01*
X125176096Y-80340682D01*
X125107671Y-80366202D01*
X125107664Y-80366206D01*
X124992455Y-80452452D01*
X124992452Y-80452455D01*
X124906206Y-80567664D01*
X124906202Y-80567671D01*
X124855908Y-80702517D01*
X124849949Y-80757947D01*
X124849501Y-80762123D01*
X124849500Y-80762135D01*
X124849500Y-82557870D01*
X124849501Y-82557876D01*
X124855908Y-82617483D01*
X124906202Y-82752328D01*
X124906206Y-82752335D01*
X124992452Y-82867544D01*
X124992455Y-82867547D01*
X125107664Y-82953793D01*
X125107671Y-82953797D01*
X125239081Y-83002810D01*
X125295015Y-83044681D01*
X125319432Y-83110145D01*
X125304580Y-83178418D01*
X125283430Y-83206673D01*
X125161503Y-83328600D01*
X125025965Y-83522169D01*
X125025964Y-83522171D01*
X124926098Y-83736335D01*
X124926094Y-83736344D01*
X124864938Y-83964586D01*
X124864936Y-83964596D01*
X124844341Y-84199999D01*
X124844341Y-84200000D01*
X124864936Y-84435403D01*
X124864938Y-84435413D01*
X124926094Y-84663655D01*
X124926096Y-84663659D01*
X124926097Y-84663663D01*
X125018796Y-84862457D01*
X125025965Y-84877830D01*
X125025967Y-84877834D01*
X125161501Y-85071395D01*
X125161506Y-85071402D01*
X125328597Y-85238493D01*
X125328603Y-85238498D01*
X125382274Y-85276079D01*
X125506413Y-85363002D01*
X125514594Y-85368730D01*
X125558219Y-85423307D01*
X125565413Y-85492805D01*
X125533890Y-85555160D01*
X125514595Y-85571880D01*
X125328922Y-85701890D01*
X125328920Y-85701891D01*
X125161891Y-85868920D01*
X125161886Y-85868926D01*
X125026400Y-86062420D01*
X125026399Y-86062422D01*
X124926570Y-86276507D01*
X124926567Y-86276513D01*
X124869364Y-86489999D01*
X124869364Y-86490000D01*
X125766988Y-86490000D01*
X125734075Y-86547007D01*
X125700000Y-86674174D01*
X125700000Y-86805826D01*
X125734075Y-86932993D01*
X125766988Y-86990000D01*
X124869364Y-86990000D01*
X124926567Y-87203486D01*
X124926570Y-87203492D01*
X125026399Y-87417578D01*
X125161894Y-87611082D01*
X125328917Y-87778105D01*
X125522421Y-87913600D01*
X125736507Y-88013429D01*
X125736516Y-88013433D01*
X125950000Y-88070634D01*
X125950000Y-87173012D01*
X126007007Y-87205925D01*
X126134174Y-87240000D01*
X126265826Y-87240000D01*
X126392993Y-87205925D01*
X126450000Y-87173012D01*
X126450000Y-88070633D01*
X126663483Y-88013433D01*
X126663492Y-88013429D01*
X126877578Y-87913600D01*
X127071082Y-87778105D01*
X127238105Y-87611082D01*
X127373600Y-87417578D01*
X127473429Y-87203492D01*
X127473432Y-87203486D01*
X127530636Y-86990000D01*
X126633012Y-86990000D01*
X126665925Y-86932993D01*
X126700000Y-86805826D01*
X126700000Y-86674174D01*
X126665925Y-86547007D01*
X126633012Y-86490000D01*
X127530636Y-86490000D01*
X127530635Y-86489999D01*
X127473432Y-86276513D01*
X127473429Y-86276507D01*
X127373600Y-86062422D01*
X127373599Y-86062420D01*
X127238113Y-85868926D01*
X127238108Y-85868920D01*
X127071078Y-85701890D01*
X126885405Y-85571879D01*
X126841780Y-85517302D01*
X126834588Y-85447804D01*
X126866110Y-85385449D01*
X126885406Y-85368730D01*
X126885842Y-85368425D01*
X127071401Y-85238495D01*
X127238495Y-85071401D01*
X127374035Y-84877830D01*
X127473903Y-84663663D01*
X127535063Y-84435408D01*
X127555659Y-84200000D01*
X127535063Y-83964592D01*
X127473903Y-83736337D01*
X127374035Y-83522171D01*
X127366763Y-83511786D01*
X127238496Y-83328600D01*
X127178495Y-83268599D01*
X127116567Y-83206671D01*
X127083084Y-83145351D01*
X127088068Y-83075659D01*
X127129939Y-83019725D01*
X127160915Y-83002810D01*
X127292331Y-82953796D01*
X127407546Y-82867546D01*
X127493796Y-82752331D01*
X127544091Y-82617483D01*
X127550500Y-82557873D01*
X127550499Y-80762128D01*
X127544091Y-80702517D01*
X127543946Y-80702129D01*
X127493797Y-80567671D01*
X127493793Y-80567664D01*
X127407547Y-80452455D01*
X127407544Y-80452452D01*
X127292335Y-80366206D01*
X127292328Y-80366202D01*
X127223904Y-80340682D01*
X127167970Y-80298811D01*
X127143553Y-80233347D01*
X127158405Y-80165074D01*
X127207810Y-80115668D01*
X127267237Y-80100500D01*
X128932763Y-80100500D01*
X128999802Y-80120185D01*
X129045557Y-80172989D01*
X129055501Y-80242147D01*
X129026476Y-80305703D01*
X128976096Y-80340682D01*
X128907671Y-80366202D01*
X128907664Y-80366206D01*
X128792455Y-80452452D01*
X128792452Y-80452455D01*
X128706206Y-80567664D01*
X128706202Y-80567671D01*
X128655908Y-80702517D01*
X128649949Y-80757947D01*
X128649501Y-80762123D01*
X128649500Y-80762135D01*
X128649500Y-82557870D01*
X128649501Y-82557876D01*
X128655908Y-82617483D01*
X128706202Y-82752328D01*
X128706206Y-82752335D01*
X128792452Y-82867544D01*
X128792455Y-82867547D01*
X128907664Y-82953793D01*
X128907671Y-82953797D01*
X129039081Y-83002810D01*
X129095015Y-83044681D01*
X129119432Y-83110145D01*
X129104580Y-83178418D01*
X129083430Y-83206673D01*
X128961503Y-83328600D01*
X128825965Y-83522169D01*
X128825964Y-83522171D01*
X128726098Y-83736335D01*
X128726094Y-83736344D01*
X128664938Y-83964586D01*
X128664936Y-83964596D01*
X128644341Y-84199999D01*
X128644341Y-84200000D01*
X128664936Y-84435403D01*
X128664938Y-84435413D01*
X128726094Y-84663655D01*
X128726096Y-84663659D01*
X128726097Y-84663663D01*
X128818796Y-84862457D01*
X128825965Y-84877830D01*
X128825967Y-84877834D01*
X128961501Y-85071395D01*
X128961506Y-85071402D01*
X129128597Y-85238493D01*
X129128603Y-85238498D01*
X129314158Y-85368425D01*
X129357783Y-85423002D01*
X129364977Y-85492500D01*
X129333454Y-85554855D01*
X129314158Y-85571575D01*
X129128597Y-85701505D01*
X128961505Y-85868597D01*
X128825965Y-86062169D01*
X128825964Y-86062171D01*
X128726098Y-86276335D01*
X128726094Y-86276344D01*
X128664938Y-86504586D01*
X128664936Y-86504596D01*
X128644341Y-86739999D01*
X128644341Y-86740000D01*
X128664936Y-86975403D01*
X128664938Y-86975413D01*
X128726094Y-87203655D01*
X128726096Y-87203659D01*
X128726097Y-87203663D01*
X128797988Y-87357834D01*
X128825965Y-87417830D01*
X128825967Y-87417834D01*
X128919493Y-87551402D01*
X128961505Y-87611401D01*
X129128599Y-87778495D01*
X129190972Y-87822169D01*
X129322165Y-87914032D01*
X129322167Y-87914033D01*
X129322170Y-87914035D01*
X129536337Y-88013903D01*
X129536343Y-88013904D01*
X129536344Y-88013905D01*
X129540666Y-88015063D01*
X129764592Y-88075063D01*
X129951823Y-88091444D01*
X129999999Y-88095659D01*
X130000000Y-88095659D01*
X130000001Y-88095659D01*
X130039234Y-88092226D01*
X130235408Y-88075063D01*
X130295307Y-88059013D01*
X130365155Y-88060676D01*
X130423018Y-88099838D01*
X130450522Y-88164066D01*
X130444442Y-88219738D01*
X130438212Y-88237541D01*
X130438212Y-88237542D01*
X130419909Y-88399996D01*
X130419909Y-88400003D01*
X130438212Y-88562455D01*
X130492210Y-88716774D01*
X130579192Y-88855204D01*
X130694796Y-88970808D01*
X130833225Y-89057789D01*
X130987539Y-89111786D01*
X130987542Y-89111786D01*
X130987544Y-89111787D01*
X131149996Y-89130091D01*
X131150000Y-89130091D01*
X131150004Y-89130091D01*
X131312455Y-89111787D01*
X131312456Y-89111786D01*
X131312461Y-89111786D01*
X131466775Y-89057789D01*
X131605204Y-88970808D01*
X131720808Y-88855204D01*
X131795006Y-88737119D01*
X131847341Y-88690828D01*
X131916395Y-88680180D01*
X131980243Y-88708555D01*
X132004994Y-88737119D01*
X132079192Y-88855204D01*
X132194796Y-88970808D01*
X132333225Y-89057789D01*
X132487539Y-89111786D01*
X132487542Y-89111786D01*
X132487544Y-89111787D01*
X132649996Y-89130091D01*
X132650000Y-89130091D01*
X132650004Y-89130091D01*
X132812455Y-89111787D01*
X132812456Y-89111786D01*
X132812461Y-89111786D01*
X132966775Y-89057789D01*
X133105204Y-88970808D01*
X133220808Y-88855204D01*
X133307789Y-88716775D01*
X133361786Y-88562461D01*
X133380091Y-88400000D01*
X133380091Y-88399996D01*
X133361787Y-88237542D01*
X133332392Y-88153536D01*
X133328830Y-88083757D01*
X133363558Y-88023130D01*
X133425552Y-87990902D01*
X133481526Y-87992806D01*
X133509315Y-88000251D01*
X133564592Y-88015063D01*
X133752918Y-88031539D01*
X133799999Y-88035659D01*
X133800000Y-88035659D01*
X133800001Y-88035659D01*
X133839234Y-88032226D01*
X134035408Y-88015063D01*
X134263663Y-87953903D01*
X134477830Y-87854035D01*
X134671401Y-87718495D01*
X134838495Y-87551401D01*
X134974035Y-87357830D01*
X135073903Y-87143663D01*
X135126185Y-86948543D01*
X137079499Y-86948543D01*
X137117947Y-87141829D01*
X137117950Y-87141839D01*
X137193364Y-87323907D01*
X137193371Y-87323920D01*
X137302860Y-87487781D01*
X137302863Y-87487785D01*
X137442214Y-87627136D01*
X137442218Y-87627139D01*
X137606079Y-87736628D01*
X137606092Y-87736635D01*
X137707160Y-87778498D01*
X137788165Y-87812051D01*
X137788169Y-87812051D01*
X137788170Y-87812052D01*
X137981456Y-87850500D01*
X137981459Y-87850500D01*
X138178543Y-87850500D01*
X138320969Y-87822169D01*
X138371835Y-87812051D01*
X138540445Y-87742211D01*
X138553907Y-87736635D01*
X138553907Y-87736634D01*
X138553914Y-87736632D01*
X138717782Y-87627139D01*
X138857139Y-87487782D01*
X138966632Y-87323914D01*
X139042051Y-87141835D01*
X139070563Y-86998498D01*
X139080500Y-86948543D01*
X139080500Y-86431333D01*
X139100185Y-86364294D01*
X139152989Y-86318539D01*
X139222147Y-86308595D01*
X139266501Y-86323947D01*
X139287859Y-86336278D01*
X139287860Y-86336278D01*
X139287865Y-86336281D01*
X139434234Y-86375500D01*
X139434236Y-86375500D01*
X139585764Y-86375500D01*
X139585766Y-86375500D01*
X139732135Y-86336281D01*
X139863365Y-86260515D01*
X139970515Y-86153365D01*
X140046281Y-86022135D01*
X140085500Y-85875766D01*
X140085500Y-85724234D01*
X140065608Y-85649996D01*
X141419909Y-85649996D01*
X141419909Y-85650003D01*
X141438212Y-85812455D01*
X141492210Y-85966774D01*
X141514452Y-86002171D01*
X141579192Y-86105204D01*
X141694796Y-86220808D01*
X141833225Y-86307789D01*
X141987539Y-86361786D01*
X141987542Y-86361786D01*
X141987544Y-86361787D01*
X142149996Y-86380091D01*
X142150000Y-86380091D01*
X142150004Y-86380091D01*
X142312455Y-86361787D01*
X142312456Y-86361786D01*
X142312461Y-86361786D01*
X142466775Y-86307789D01*
X142564135Y-86246613D01*
X142631369Y-86227613D01*
X142696078Y-86246613D01*
X142718202Y-86260515D01*
X142829303Y-86330325D01*
X142833225Y-86332789D01*
X142987539Y-86386786D01*
X142987542Y-86386786D01*
X142987544Y-86386787D01*
X143149996Y-86405091D01*
X143150000Y-86405091D01*
X143150004Y-86405091D01*
X143312455Y-86386787D01*
X143312456Y-86386786D01*
X143312461Y-86386786D01*
X143466775Y-86332789D01*
X143605204Y-86245808D01*
X143720808Y-86130204D01*
X143807789Y-85991775D01*
X143861786Y-85837461D01*
X143865038Y-85808599D01*
X143874544Y-85724234D01*
X144714500Y-85724234D01*
X144714500Y-85875765D01*
X144753719Y-86022136D01*
X144776979Y-86062422D01*
X144829485Y-86153365D01*
X144936635Y-86260515D01*
X145037135Y-86318539D01*
X145067861Y-86336279D01*
X145067865Y-86336281D01*
X145214234Y-86375500D01*
X145214236Y-86375500D01*
X145365764Y-86375500D01*
X145365766Y-86375500D01*
X145512135Y-86336281D01*
X145522451Y-86330325D01*
X145533499Y-86323947D01*
X145601398Y-86307473D01*
X145667426Y-86330325D01*
X145710617Y-86385245D01*
X145719500Y-86431333D01*
X145719500Y-86948541D01*
X145719500Y-86948543D01*
X145719499Y-86948543D01*
X145757947Y-87141829D01*
X145757950Y-87141839D01*
X145833364Y-87323907D01*
X145833371Y-87323920D01*
X145942860Y-87487781D01*
X145942863Y-87487785D01*
X146082214Y-87627136D01*
X146082218Y-87627139D01*
X146246079Y-87736628D01*
X146246092Y-87736635D01*
X146347160Y-87778498D01*
X146428165Y-87812051D01*
X146428169Y-87812051D01*
X146428170Y-87812052D01*
X146621456Y-87850500D01*
X146621459Y-87850500D01*
X146818543Y-87850500D01*
X146960969Y-87822169D01*
X147011835Y-87812051D01*
X147180445Y-87742211D01*
X147193907Y-87736635D01*
X147193907Y-87736634D01*
X147193914Y-87736632D01*
X147357782Y-87627139D01*
X147497139Y-87487782D01*
X147606632Y-87323914D01*
X147682051Y-87141835D01*
X147710563Y-86998498D01*
X147720500Y-86948543D01*
X147720500Y-85651456D01*
X147682052Y-85458170D01*
X147682051Y-85458169D01*
X147682051Y-85458165D01*
X147677759Y-85447804D01*
X147606635Y-85276092D01*
X147606628Y-85276079D01*
X147497139Y-85112218D01*
X147497136Y-85112214D01*
X147357785Y-84972863D01*
X147357781Y-84972860D01*
X147193920Y-84863371D01*
X147193907Y-84863364D01*
X147011839Y-84787950D01*
X147011829Y-84787947D01*
X146818543Y-84749500D01*
X146818541Y-84749500D01*
X146621459Y-84749500D01*
X146621457Y-84749500D01*
X146428170Y-84787947D01*
X146428160Y-84787950D01*
X146246092Y-84863364D01*
X146246079Y-84863371D01*
X146082218Y-84972860D01*
X146082214Y-84972863D01*
X145942863Y-85112214D01*
X145942860Y-85112218D01*
X145833371Y-85276079D01*
X145833363Y-85276094D01*
X145829456Y-85285528D01*
X145785615Y-85339931D01*
X145719320Y-85361995D01*
X145651621Y-85344715D01*
X145646968Y-85341566D01*
X145643366Y-85339486D01*
X145643365Y-85339485D01*
X145545922Y-85283226D01*
X145512136Y-85263719D01*
X145418008Y-85238498D01*
X145365766Y-85224500D01*
X145214234Y-85224500D01*
X145067863Y-85263719D01*
X144936635Y-85339485D01*
X144936632Y-85339487D01*
X144829487Y-85446632D01*
X144829485Y-85446635D01*
X144753719Y-85577863D01*
X144714500Y-85724234D01*
X143874544Y-85724234D01*
X143880091Y-85675003D01*
X143880091Y-85674996D01*
X143861787Y-85512544D01*
X143861786Y-85512542D01*
X143861786Y-85512539D01*
X143807789Y-85358225D01*
X143720808Y-85219796D01*
X143605204Y-85104192D01*
X143553008Y-85071395D01*
X143466774Y-85017210D01*
X143312455Y-84963212D01*
X143150004Y-84944909D01*
X143149996Y-84944909D01*
X142987544Y-84963212D01*
X142833225Y-85017210D01*
X142735865Y-85078386D01*
X142668628Y-85097386D01*
X142603921Y-85078386D01*
X142593942Y-85072116D01*
X142506561Y-85017210D01*
X142466774Y-84992210D01*
X142312455Y-84938212D01*
X142150004Y-84919909D01*
X142149996Y-84919909D01*
X141987544Y-84938212D01*
X141833225Y-84992210D01*
X141694795Y-85079192D01*
X141579192Y-85194795D01*
X141492210Y-85333225D01*
X141438212Y-85487544D01*
X141419909Y-85649996D01*
X140065608Y-85649996D01*
X140046281Y-85577865D01*
X140042649Y-85571575D01*
X140021569Y-85535063D01*
X139970515Y-85446635D01*
X139863365Y-85339485D01*
X139792838Y-85298766D01*
X139732136Y-85263719D01*
X139638008Y-85238498D01*
X139585766Y-85224500D01*
X139434234Y-85224500D01*
X139287863Y-85263719D01*
X139196428Y-85316510D01*
X139156635Y-85339485D01*
X139156633Y-85339486D01*
X139149597Y-85343549D01*
X139148254Y-85341224D01*
X139095391Y-85361647D01*
X139026949Y-85347592D01*
X138976971Y-85298766D01*
X138970540Y-85285522D01*
X138969587Y-85283222D01*
X138966632Y-85276086D01*
X138966630Y-85276083D01*
X138966628Y-85276079D01*
X138857139Y-85112218D01*
X138857136Y-85112214D01*
X138717785Y-84972863D01*
X138717781Y-84972860D01*
X138553920Y-84863371D01*
X138553907Y-84863364D01*
X138371839Y-84787950D01*
X138371829Y-84787947D01*
X138178543Y-84749500D01*
X138178541Y-84749500D01*
X137981459Y-84749500D01*
X137981457Y-84749500D01*
X137788170Y-84787947D01*
X137788160Y-84787950D01*
X137606092Y-84863364D01*
X137606079Y-84863371D01*
X137442218Y-84972860D01*
X137442214Y-84972863D01*
X137302863Y-85112214D01*
X137302860Y-85112218D01*
X137193371Y-85276079D01*
X137193364Y-85276092D01*
X137117950Y-85458160D01*
X137117947Y-85458170D01*
X137079500Y-85651456D01*
X137079500Y-85651459D01*
X137079500Y-86948541D01*
X137079500Y-86948543D01*
X137079499Y-86948543D01*
X135126185Y-86948543D01*
X135135063Y-86915408D01*
X135155659Y-86680000D01*
X135135063Y-86444592D01*
X135073903Y-86216337D01*
X134974035Y-86002171D01*
X134914241Y-85916775D01*
X134838494Y-85808597D01*
X134671402Y-85641506D01*
X134671396Y-85641501D01*
X134485842Y-85511575D01*
X134442217Y-85456998D01*
X134435023Y-85387500D01*
X134466546Y-85325145D01*
X134485842Y-85308425D01*
X134532037Y-85276079D01*
X134671401Y-85178495D01*
X134838495Y-85011401D01*
X134974035Y-84817830D01*
X135073903Y-84603663D01*
X135135063Y-84375408D01*
X135155659Y-84140000D01*
X135135063Y-83904592D01*
X135107037Y-83799996D01*
X151869909Y-83799996D01*
X151869909Y-83800003D01*
X151888212Y-83962455D01*
X151942211Y-84116777D01*
X151984468Y-84184029D01*
X152003468Y-84251265D01*
X151984468Y-84315971D01*
X151942211Y-84383222D01*
X151888212Y-84537544D01*
X151869909Y-84699996D01*
X151869909Y-84700003D01*
X151888212Y-84862455D01*
X151888213Y-84862460D01*
X151888214Y-84862461D01*
X151893534Y-84877664D01*
X151942211Y-85016777D01*
X151984468Y-85084029D01*
X152003468Y-85151265D01*
X151984468Y-85215971D01*
X151942211Y-85283222D01*
X151888212Y-85437544D01*
X151869909Y-85599996D01*
X151869909Y-85600003D01*
X151888212Y-85762455D01*
X151942210Y-85916774D01*
X152029192Y-86055204D01*
X152144796Y-86170808D01*
X152283225Y-86257789D01*
X152437539Y-86311786D01*
X152437542Y-86311786D01*
X152437544Y-86311787D01*
X152599996Y-86330091D01*
X152600000Y-86330091D01*
X152600004Y-86330091D01*
X152762455Y-86311787D01*
X152762456Y-86311786D01*
X152762461Y-86311786D01*
X152916775Y-86257789D01*
X152934027Y-86246948D01*
X153001263Y-86227948D01*
X153065972Y-86246948D01*
X153083225Y-86257789D01*
X153237539Y-86311786D01*
X153237542Y-86311786D01*
X153237544Y-86311787D01*
X153399996Y-86330091D01*
X153400000Y-86330091D01*
X153400004Y-86330091D01*
X153562455Y-86311787D01*
X153562456Y-86311786D01*
X153562461Y-86311786D01*
X153716775Y-86257789D01*
X153855204Y-86170808D01*
X153970808Y-86055204D01*
X154057789Y-85916775D01*
X154111786Y-85762461D01*
X154111787Y-85762455D01*
X154130091Y-85600003D01*
X154130091Y-85599996D01*
X154111787Y-85437542D01*
X154098029Y-85398225D01*
X154057789Y-85283225D01*
X154015529Y-85215969D01*
X153996529Y-85148737D01*
X154015528Y-85084030D01*
X154057789Y-85016775D01*
X154111786Y-84862461D01*
X154111786Y-84862459D01*
X154111787Y-84862457D01*
X154130091Y-84700003D01*
X154130091Y-84699996D01*
X154111787Y-84537542D01*
X154076050Y-84435413D01*
X154057789Y-84383225D01*
X154015529Y-84315969D01*
X153996529Y-84248737D01*
X154015528Y-84184030D01*
X154057789Y-84116775D01*
X154111786Y-83962461D01*
X154111786Y-83962459D01*
X154111787Y-83962457D01*
X154130091Y-83800003D01*
X154130091Y-83799996D01*
X154111787Y-83637544D01*
X154111786Y-83637542D01*
X154111786Y-83637539D01*
X154057789Y-83483225D01*
X153970808Y-83344796D01*
X153855204Y-83229192D01*
X153764265Y-83172051D01*
X153716774Y-83142210D01*
X153562455Y-83088212D01*
X153400004Y-83069909D01*
X153399996Y-83069909D01*
X153237544Y-83088212D01*
X153083223Y-83142211D01*
X153065968Y-83153053D01*
X152998731Y-83172051D01*
X152934032Y-83153053D01*
X152916776Y-83142211D01*
X152762455Y-83088212D01*
X152600004Y-83069909D01*
X152599996Y-83069909D01*
X152437544Y-83088212D01*
X152283225Y-83142210D01*
X152144795Y-83229192D01*
X152029192Y-83344795D01*
X151942210Y-83483225D01*
X151888212Y-83637544D01*
X151869909Y-83799996D01*
X135107037Y-83799996D01*
X135073903Y-83676337D01*
X134974035Y-83462171D01*
X134935148Y-83406635D01*
X134838496Y-83268600D01*
X134799088Y-83229192D01*
X134716567Y-83146671D01*
X134683084Y-83085351D01*
X134688068Y-83015659D01*
X134729939Y-82959725D01*
X134760915Y-82942810D01*
X134892331Y-82893796D01*
X135007546Y-82807546D01*
X135093796Y-82692331D01*
X135144091Y-82557483D01*
X135150500Y-82497873D01*
X135150499Y-80702128D01*
X135144091Y-80642517D01*
X135135230Y-80618760D01*
X135093797Y-80507671D01*
X135093793Y-80507664D01*
X135007547Y-80392455D01*
X135007544Y-80392452D01*
X134915792Y-80323766D01*
X134873921Y-80267832D01*
X134868937Y-80198141D01*
X134902423Y-80136818D01*
X134963746Y-80103334D01*
X134990103Y-80100500D01*
X135364898Y-80100500D01*
X135431937Y-80120185D01*
X135477692Y-80172989D01*
X135488118Y-80238383D01*
X135469909Y-80399996D01*
X135469909Y-80400003D01*
X135488212Y-80562455D01*
X135542211Y-80716776D01*
X135553053Y-80734032D01*
X135572051Y-80801269D01*
X135553053Y-80865968D01*
X135542211Y-80883223D01*
X135488212Y-81037544D01*
X135469909Y-81199996D01*
X135469909Y-81200003D01*
X135488212Y-81362455D01*
X135542211Y-81516776D01*
X135553053Y-81534032D01*
X135572051Y-81601269D01*
X135553053Y-81665968D01*
X135542211Y-81683223D01*
X135488212Y-81837544D01*
X135469909Y-81999996D01*
X135469909Y-82000003D01*
X135488212Y-82162455D01*
X135542211Y-82316776D01*
X135553053Y-82334032D01*
X135572051Y-82401269D01*
X135553053Y-82465968D01*
X135542211Y-82483223D01*
X135488212Y-82637544D01*
X135469909Y-82799996D01*
X135469909Y-82800003D01*
X135488212Y-82962455D01*
X135542210Y-83116774D01*
X135629192Y-83255204D01*
X135744796Y-83370808D01*
X135883225Y-83457789D01*
X136037539Y-83511786D01*
X136037542Y-83511786D01*
X136037544Y-83511787D01*
X136199996Y-83530091D01*
X136200000Y-83530091D01*
X136200004Y-83530091D01*
X136362455Y-83511787D01*
X136362456Y-83511786D01*
X136362461Y-83511786D01*
X136516775Y-83457789D01*
X136655204Y-83370808D01*
X136770808Y-83255204D01*
X136857789Y-83116775D01*
X136911786Y-82962461D01*
X136915393Y-82930447D01*
X136942458Y-82866035D01*
X137000052Y-82826479D01*
X137069889Y-82824340D01*
X137129796Y-82860297D01*
X137153174Y-82896878D01*
X137193366Y-82993910D01*
X137193371Y-82993920D01*
X137302860Y-83157781D01*
X137302863Y-83157785D01*
X137442214Y-83297136D01*
X137442218Y-83297139D01*
X137606079Y-83406628D01*
X137606092Y-83406635D01*
X137740165Y-83462169D01*
X137788165Y-83482051D01*
X137788169Y-83482051D01*
X137788170Y-83482052D01*
X137981456Y-83520500D01*
X137981459Y-83520500D01*
X138178543Y-83520500D01*
X138308582Y-83494632D01*
X138371835Y-83482051D01*
X138553914Y-83406632D01*
X138717782Y-83297139D01*
X138857139Y-83157782D01*
X138966632Y-82993914D01*
X139042051Y-82811835D01*
X139065823Y-82692328D01*
X139080500Y-82618543D01*
X145719499Y-82618543D01*
X145757947Y-82811829D01*
X145757950Y-82811839D01*
X145833364Y-82993907D01*
X145833371Y-82993920D01*
X145942860Y-83157781D01*
X145942863Y-83157785D01*
X146082214Y-83297136D01*
X146082218Y-83297139D01*
X146246079Y-83406628D01*
X146246092Y-83406635D01*
X146380165Y-83462169D01*
X146428165Y-83482051D01*
X146428169Y-83482051D01*
X146428170Y-83482052D01*
X146621456Y-83520500D01*
X146621459Y-83520500D01*
X146818543Y-83520500D01*
X146948582Y-83494632D01*
X147011835Y-83482051D01*
X147193914Y-83406632D01*
X147357782Y-83297139D01*
X147497139Y-83157782D01*
X147606632Y-82993914D01*
X147682051Y-82811835D01*
X147684406Y-82799996D01*
X164269909Y-82799996D01*
X164269909Y-82800003D01*
X164288212Y-82962455D01*
X164342210Y-83116774D01*
X164429192Y-83255204D01*
X164544796Y-83370808D01*
X164683225Y-83457789D01*
X164837539Y-83511786D01*
X164837542Y-83511786D01*
X164837544Y-83511787D01*
X164999996Y-83530091D01*
X165000000Y-83530091D01*
X165000004Y-83530091D01*
X165162455Y-83511787D01*
X165162456Y-83511786D01*
X165162461Y-83511786D01*
X165316775Y-83457789D01*
X165455204Y-83370808D01*
X165570808Y-83255204D01*
X165657789Y-83116775D01*
X165711786Y-82962461D01*
X165711787Y-82962455D01*
X165730091Y-82800003D01*
X165730091Y-82799996D01*
X165711787Y-82637544D01*
X165711786Y-82637542D01*
X165711786Y-82637539D01*
X165657789Y-82483225D01*
X165570808Y-82344796D01*
X165455204Y-82229192D01*
X165362287Y-82170808D01*
X165316774Y-82142210D01*
X165162455Y-82088212D01*
X165000004Y-82069909D01*
X164999996Y-82069909D01*
X164837544Y-82088212D01*
X164683225Y-82142210D01*
X164544795Y-82229192D01*
X164429192Y-82344795D01*
X164342210Y-82483225D01*
X164288212Y-82637544D01*
X164269909Y-82799996D01*
X147684406Y-82799996D01*
X147705823Y-82692328D01*
X147720500Y-82618543D01*
X147720500Y-81621456D01*
X147682052Y-81428170D01*
X147682051Y-81428169D01*
X147682051Y-81428165D01*
X147670968Y-81401407D01*
X147608252Y-81249996D01*
X151344909Y-81249996D01*
X151344909Y-81250003D01*
X151363212Y-81412455D01*
X151417210Y-81566774D01*
X151451569Y-81621456D01*
X151504192Y-81705204D01*
X151619796Y-81820808D01*
X151758225Y-81907789D01*
X151912539Y-81961786D01*
X151912542Y-81961786D01*
X151912544Y-81961787D01*
X152074996Y-81980091D01*
X152075000Y-81980091D01*
X152075004Y-81980091D01*
X152237455Y-81961787D01*
X152237456Y-81961786D01*
X152237461Y-81961786D01*
X152391775Y-81907789D01*
X152471527Y-81857676D01*
X152538764Y-81838676D01*
X152603472Y-81857676D01*
X152683225Y-81907789D01*
X152837539Y-81961786D01*
X152837542Y-81961786D01*
X152837544Y-81961787D01*
X152999996Y-81980091D01*
X153000000Y-81980091D01*
X153000004Y-81980091D01*
X153162457Y-81961787D01*
X153162459Y-81961786D01*
X153162461Y-81961786D01*
X153316775Y-81907789D01*
X153359030Y-81881237D01*
X153426263Y-81862238D01*
X153490969Y-81881237D01*
X153533225Y-81907789D01*
X153558906Y-81916775D01*
X153687542Y-81961787D01*
X153849996Y-81980091D01*
X153850000Y-81980091D01*
X153850004Y-81980091D01*
X154012455Y-81961787D01*
X154012456Y-81961786D01*
X154012461Y-81961786D01*
X154166775Y-81907789D01*
X154305204Y-81820808D01*
X154420808Y-81705204D01*
X154486915Y-81599996D01*
X157469909Y-81599996D01*
X157469909Y-81600003D01*
X157488212Y-81762455D01*
X157542210Y-81916774D01*
X157591151Y-81994663D01*
X157629192Y-82055204D01*
X157744796Y-82170808D01*
X157883225Y-82257789D01*
X158037539Y-82311786D01*
X158037542Y-82311786D01*
X158037544Y-82311787D01*
X158199996Y-82330091D01*
X158200000Y-82330091D01*
X158200004Y-82330091D01*
X158362455Y-82311787D01*
X158362456Y-82311786D01*
X158362461Y-82311786D01*
X158516775Y-82257789D01*
X158655204Y-82170808D01*
X158770808Y-82055204D01*
X158857789Y-81916775D01*
X158911786Y-81762461D01*
X158913368Y-81748422D01*
X158930091Y-81600003D01*
X158930091Y-81599996D01*
X158911787Y-81437544D01*
X158911786Y-81437542D01*
X158911786Y-81437539D01*
X158857789Y-81283225D01*
X158770808Y-81144796D01*
X158655204Y-81029192D01*
X158516774Y-80942210D01*
X158362455Y-80888212D01*
X158200004Y-80869909D01*
X158199996Y-80869909D01*
X158037544Y-80888212D01*
X157883225Y-80942210D01*
X157744795Y-81029192D01*
X157629192Y-81144795D01*
X157542210Y-81283225D01*
X157488212Y-81437544D01*
X157469909Y-81599996D01*
X154486915Y-81599996D01*
X154507789Y-81566775D01*
X154561786Y-81412461D01*
X154561787Y-81412455D01*
X154580091Y-81250003D01*
X154580091Y-81249996D01*
X154561787Y-81087544D01*
X154561786Y-81087542D01*
X154561786Y-81087539D01*
X154507789Y-80933225D01*
X154420808Y-80794796D01*
X154305204Y-80679192D01*
X154274999Y-80660213D01*
X154166774Y-80592210D01*
X154012455Y-80538212D01*
X153850004Y-80519909D01*
X153849996Y-80519909D01*
X153687544Y-80538212D01*
X153533225Y-80592210D01*
X153490972Y-80618760D01*
X153423735Y-80637760D01*
X153359028Y-80618760D01*
X153316774Y-80592210D01*
X153162455Y-80538212D01*
X153000004Y-80519909D01*
X152999996Y-80519909D01*
X152837544Y-80538212D01*
X152683225Y-80592210D01*
X152603472Y-80642323D01*
X152536235Y-80661323D01*
X152471528Y-80642323D01*
X152391774Y-80592210D01*
X152237455Y-80538212D01*
X152075004Y-80519909D01*
X152074996Y-80519909D01*
X151912544Y-80538212D01*
X151758225Y-80592210D01*
X151619795Y-80679192D01*
X151504192Y-80794795D01*
X151417210Y-80933225D01*
X151363212Y-81087544D01*
X151344909Y-81249996D01*
X147608252Y-81249996D01*
X147606635Y-81246092D01*
X147606628Y-81246079D01*
X147497139Y-81082218D01*
X147497136Y-81082214D01*
X147357785Y-80942863D01*
X147357781Y-80942860D01*
X147193920Y-80833371D01*
X147193907Y-80833364D01*
X147011839Y-80757950D01*
X147011829Y-80757947D01*
X146818543Y-80719500D01*
X146818541Y-80719500D01*
X146621459Y-80719500D01*
X146621457Y-80719500D01*
X146428170Y-80757947D01*
X146428160Y-80757950D01*
X146246092Y-80833364D01*
X146246079Y-80833371D01*
X146082218Y-80942860D01*
X146082214Y-80942863D01*
X145942863Y-81082214D01*
X145942860Y-81082218D01*
X145833371Y-81246079D01*
X145833364Y-81246092D01*
X145757950Y-81428160D01*
X145757947Y-81428170D01*
X145719500Y-81621456D01*
X145719500Y-81621459D01*
X145719500Y-82618541D01*
X145719500Y-82618543D01*
X145719499Y-82618543D01*
X139080500Y-82618543D01*
X139080500Y-81621456D01*
X139042052Y-81428170D01*
X139042051Y-81428169D01*
X139042051Y-81428165D01*
X139030968Y-81401407D01*
X138966635Y-81246092D01*
X138966628Y-81246079D01*
X138857139Y-81082218D01*
X138857136Y-81082214D01*
X138717785Y-80942863D01*
X138717781Y-80942860D01*
X138553920Y-80833371D01*
X138553907Y-80833364D01*
X138371839Y-80757950D01*
X138371829Y-80757947D01*
X138178543Y-80719500D01*
X138178541Y-80719500D01*
X137981459Y-80719500D01*
X137981457Y-80719500D01*
X137788170Y-80757947D01*
X137788160Y-80757950D01*
X137606092Y-80833364D01*
X137606079Y-80833371D01*
X137442218Y-80942860D01*
X137442214Y-80942863D01*
X137302863Y-81082214D01*
X137302860Y-81082218D01*
X137193371Y-81246079D01*
X137193366Y-81246088D01*
X137160706Y-81324939D01*
X137116865Y-81379342D01*
X137050571Y-81401407D01*
X136982872Y-81384128D01*
X136935261Y-81332991D01*
X136922855Y-81264231D01*
X136922925Y-81263602D01*
X136930091Y-81200002D01*
X136930091Y-81199996D01*
X136911787Y-81037544D01*
X136911786Y-81037542D01*
X136911786Y-81037539D01*
X136857789Y-80883225D01*
X136846948Y-80865972D01*
X136827948Y-80798737D01*
X136846949Y-80734026D01*
X136857789Y-80716775D01*
X136911786Y-80562461D01*
X136913984Y-80542952D01*
X136930091Y-80400003D01*
X136930091Y-80399996D01*
X136911882Y-80238383D01*
X136923937Y-80169561D01*
X136971286Y-80118182D01*
X137035102Y-80100500D01*
X164334108Y-80100500D01*
X164396249Y-80100500D01*
X164403736Y-80100726D01*
X164693796Y-80118271D01*
X164708657Y-80120075D01*
X164978689Y-80169561D01*
X164990798Y-80171780D01*
X165005335Y-80175363D01*
X165279172Y-80260695D01*
X165293163Y-80266000D01*
X165554743Y-80383727D01*
X165567989Y-80390680D01*
X165813465Y-80539075D01*
X165825776Y-80547573D01*
X166045225Y-80719500D01*
X166051573Y-80724473D01*
X166062781Y-80734403D01*
X166265596Y-80937218D01*
X166275526Y-80948426D01*
X166395481Y-81101538D01*
X166452422Y-81174217D01*
X166460926Y-81186537D01*
X166507894Y-81264231D01*
X166609316Y-81432004D01*
X166616275Y-81445263D01*
X166733997Y-81706831D01*
X166739306Y-81720832D01*
X166824635Y-81994663D01*
X166828219Y-82009201D01*
X166879923Y-82291340D01*
X166881728Y-82306205D01*
X166899274Y-82596263D01*
X166899500Y-82603750D01*
X166899500Y-126396249D01*
X166899274Y-126403736D01*
X166881728Y-126693794D01*
X166879923Y-126708659D01*
X166828219Y-126990798D01*
X166824635Y-127005336D01*
X166739306Y-127279167D01*
X166733997Y-127293168D01*
X166616275Y-127554736D01*
X166609316Y-127567995D01*
X166460928Y-127813459D01*
X166452422Y-127825782D01*
X166275526Y-128051573D01*
X166265596Y-128062781D01*
X166062781Y-128265596D01*
X166051573Y-128275526D01*
X165825782Y-128452422D01*
X165813459Y-128460928D01*
X165567995Y-128609316D01*
X165554736Y-128616275D01*
X165293168Y-128733997D01*
X165279167Y-128739306D01*
X165005336Y-128824635D01*
X164990798Y-128828219D01*
X164708659Y-128879923D01*
X164693794Y-128881728D01*
X164403736Y-128899274D01*
X164396249Y-128899500D01*
X146878012Y-128899500D01*
X146810973Y-128879815D01*
X146765218Y-128827011D01*
X146755274Y-128757853D01*
X146784299Y-128694297D01*
X146825607Y-128663118D01*
X147017578Y-128573600D01*
X147211082Y-128438105D01*
X147378105Y-128271082D01*
X147513600Y-128077578D01*
X147613429Y-127863492D01*
X147613432Y-127863486D01*
X147670636Y-127650000D01*
X146773012Y-127650000D01*
X146805925Y-127592993D01*
X146840000Y-127465826D01*
X146840000Y-127334174D01*
X146805925Y-127207007D01*
X146773012Y-127150000D01*
X147670636Y-127150000D01*
X147670635Y-127149999D01*
X147613432Y-126936513D01*
X147613429Y-126936507D01*
X147513600Y-126722422D01*
X147513599Y-126722420D01*
X147378113Y-126528926D01*
X147378108Y-126528920D01*
X147211082Y-126361894D01*
X147017578Y-126226399D01*
X146803492Y-126126570D01*
X146803486Y-126126567D01*
X146590000Y-126069364D01*
X146590000Y-126966988D01*
X146532993Y-126934075D01*
X146405826Y-126900000D01*
X146274174Y-126900000D01*
X146147007Y-126934075D01*
X146090000Y-126966988D01*
X146090000Y-126069364D01*
X146089999Y-126069364D01*
X145999225Y-126093687D01*
X145929375Y-126092024D01*
X145871512Y-126052862D01*
X145844008Y-125988633D01*
X145855414Y-125920105D01*
X145857267Y-125916257D01*
X145879743Y-125852023D01*
X145911265Y-125761940D01*
X145915022Y-125728597D01*
X145929570Y-125599482D01*
X145929570Y-125599475D01*
X145911266Y-125437023D01*
X145911265Y-125437021D01*
X145911265Y-125437018D01*
X145857268Y-125282704D01*
X145770287Y-125144275D01*
X145654683Y-125028671D01*
X145637664Y-125017977D01*
X145516253Y-124941689D01*
X145375900Y-124892578D01*
X145361940Y-124887693D01*
X145361939Y-124887692D01*
X145361934Y-124887691D01*
X145199483Y-124869388D01*
X145199475Y-124869388D01*
X145037023Y-124887691D01*
X144882704Y-124941689D01*
X144744274Y-125028671D01*
X144628671Y-125144274D01*
X144541689Y-125282704D01*
X144487691Y-125437023D01*
X144469388Y-125599475D01*
X144469388Y-125599482D01*
X144487691Y-125761934D01*
X144487692Y-125761939D01*
X144487693Y-125761940D01*
X144488274Y-125763599D01*
X144541689Y-125916253D01*
X144619668Y-126040355D01*
X144638668Y-126107591D01*
X144618300Y-126174427D01*
X144565033Y-126219641D01*
X144495776Y-126228879D01*
X144462270Y-126218709D01*
X144263663Y-126126097D01*
X144263659Y-126126096D01*
X144263655Y-126126094D01*
X144035413Y-126064938D01*
X144035403Y-126064936D01*
X143800001Y-126044341D01*
X143799999Y-126044341D01*
X143564596Y-126064936D01*
X143564586Y-126064938D01*
X143336344Y-126126094D01*
X143336335Y-126126098D01*
X143122171Y-126225964D01*
X143122169Y-126225965D01*
X142928597Y-126361505D01*
X142761505Y-126528597D01*
X142631575Y-126714158D01*
X142576998Y-126757783D01*
X142507500Y-126764977D01*
X142445145Y-126733454D01*
X142428425Y-126714158D01*
X142298494Y-126528597D01*
X142131402Y-126361506D01*
X142131395Y-126361501D01*
X141937834Y-126225967D01*
X141937830Y-126225965D01*
X141924268Y-126219641D01*
X141723663Y-126126097D01*
X141723659Y-126126096D01*
X141723655Y-126126094D01*
X141495413Y-126064938D01*
X141495403Y-126064936D01*
X141260001Y-126044341D01*
X141259999Y-126044341D01*
X141024596Y-126064936D01*
X141024586Y-126064938D01*
X140796344Y-126126094D01*
X140796335Y-126126098D01*
X140582171Y-126225964D01*
X140582169Y-126225965D01*
X140388600Y-126361503D01*
X140266673Y-126483430D01*
X140205350Y-126516914D01*
X140135658Y-126511930D01*
X140079725Y-126470058D01*
X140062810Y-126439081D01*
X140013797Y-126307671D01*
X140013793Y-126307664D01*
X139947898Y-126219641D01*
X139927546Y-126192454D01*
X139927544Y-126192452D01*
X139927542Y-126192450D01*
X139924024Y-126189817D01*
X139921389Y-126186297D01*
X139921272Y-126186180D01*
X139921288Y-126186163D01*
X139882154Y-126133883D01*
X139877170Y-126064191D01*
X139881289Y-126049615D01*
X139911786Y-125962461D01*
X139911787Y-125962455D01*
X139930091Y-125800003D01*
X139930091Y-125799996D01*
X139911787Y-125637544D01*
X139911786Y-125637542D01*
X139911786Y-125637539D01*
X139857789Y-125483225D01*
X139770808Y-125344796D01*
X139735577Y-125309565D01*
X139702092Y-125248242D01*
X139707076Y-125178550D01*
X139748948Y-125122617D01*
X139782300Y-125104843D01*
X139916775Y-125057789D01*
X140055204Y-124970808D01*
X140170808Y-124855204D01*
X140257789Y-124716775D01*
X140311786Y-124562461D01*
X140314821Y-124535527D01*
X140330091Y-124400003D01*
X140330091Y-124399996D01*
X140311787Y-124237544D01*
X140311786Y-124237542D01*
X140311786Y-124237539D01*
X140257789Y-124083225D01*
X140170808Y-123944796D01*
X140055204Y-123829192D01*
X139925952Y-123747977D01*
X139916774Y-123742210D01*
X139762455Y-123688212D01*
X139600004Y-123669909D01*
X139599996Y-123669909D01*
X139437544Y-123688212D01*
X139283225Y-123742210D01*
X139144795Y-123829192D01*
X139029192Y-123944795D01*
X138942210Y-124083225D01*
X138888212Y-124237544D01*
X138869909Y-124399996D01*
X138869909Y-124400004D01*
X138885178Y-124535527D01*
X138873123Y-124604349D01*
X138825774Y-124655728D01*
X138775842Y-124672630D01*
X138637544Y-124688212D01*
X138483225Y-124742210D01*
X138344795Y-124829192D01*
X138229192Y-124944795D01*
X138142208Y-125083229D01*
X138141858Y-125083956D01*
X138141507Y-125084343D01*
X138138506Y-125089121D01*
X138137668Y-125088594D01*
X138095030Y-125135811D01*
X138083956Y-125141858D01*
X138083229Y-125142208D01*
X137944795Y-125229192D01*
X137829192Y-125344795D01*
X137742210Y-125483225D01*
X137688212Y-125637544D01*
X137669909Y-125799996D01*
X137669909Y-125800003D01*
X137688213Y-125962459D01*
X137689763Y-125969250D01*
X137686747Y-125969938D01*
X137689432Y-126026227D01*
X137654500Y-126086737D01*
X137628364Y-126105824D01*
X137627676Y-126106199D01*
X137627669Y-126106203D01*
X137627669Y-126106204D01*
X137512454Y-126192454D01*
X137512453Y-126192455D01*
X137512452Y-126192456D01*
X137426206Y-126307664D01*
X137426202Y-126307671D01*
X137375908Y-126442517D01*
X137369501Y-126502116D01*
X137369500Y-126502135D01*
X137369500Y-128297870D01*
X137369501Y-128297876D01*
X137375908Y-128357483D01*
X137426202Y-128492328D01*
X137426206Y-128492335D01*
X137512452Y-128607544D01*
X137512455Y-128607547D01*
X137604208Y-128676234D01*
X137646079Y-128732168D01*
X137651063Y-128801859D01*
X137617577Y-128863182D01*
X137556254Y-128896666D01*
X137529897Y-128899500D01*
X120603751Y-128899500D01*
X120596264Y-128899274D01*
X120306205Y-128881728D01*
X120291340Y-128879923D01*
X120009201Y-128828219D01*
X119994663Y-128824635D01*
X119720832Y-128739306D01*
X119706831Y-128733997D01*
X119445263Y-128616275D01*
X119432004Y-128609316D01*
X119373637Y-128574032D01*
X119186537Y-128460926D01*
X119174217Y-128452422D01*
X119156444Y-128438498D01*
X119006827Y-128321280D01*
X118948426Y-128275526D01*
X118937218Y-128265596D01*
X118734403Y-128062781D01*
X118724473Y-128051573D01*
X118717143Y-128042217D01*
X118547573Y-127825776D01*
X118539075Y-127813465D01*
X118390680Y-127567989D01*
X118383727Y-127554743D01*
X118266000Y-127293163D01*
X118260693Y-127279167D01*
X118251472Y-127249577D01*
X118175363Y-127005335D01*
X118171780Y-126990798D01*
X118157301Y-126911787D01*
X118120075Y-126708657D01*
X118118271Y-126693794D01*
X118108298Y-126528926D01*
X118100726Y-126403736D01*
X118100500Y-126396249D01*
X118100500Y-119719997D01*
X119944723Y-119719997D01*
X119944723Y-119720002D01*
X119950317Y-119783946D01*
X119961467Y-119911395D01*
X119963793Y-119937975D01*
X119963793Y-119937979D01*
X120020422Y-120149322D01*
X120020424Y-120149326D01*
X120020425Y-120149330D01*
X120054440Y-120222276D01*
X120112897Y-120347638D01*
X120123206Y-120362361D01*
X120238402Y-120526877D01*
X120393123Y-120681598D01*
X120572360Y-120807101D01*
X120572361Y-120807102D01*
X120723583Y-120877618D01*
X120776022Y-120923790D01*
X120795174Y-120990984D01*
X120774958Y-121057865D01*
X120723583Y-121102382D01*
X120572361Y-121172898D01*
X120572357Y-121172900D01*
X120393121Y-121298402D01*
X120238402Y-121453121D01*
X120112900Y-121632357D01*
X120112898Y-121632361D01*
X120036183Y-121796877D01*
X120027540Y-121815413D01*
X120020426Y-121830668D01*
X120020422Y-121830677D01*
X119963793Y-122042020D01*
X119963793Y-122042023D01*
X119960724Y-122077101D01*
X119944723Y-122259997D01*
X119944723Y-122260002D01*
X119952634Y-122350425D01*
X119961467Y-122451395D01*
X119963793Y-122477975D01*
X119963793Y-122477979D01*
X120020422Y-122689322D01*
X120020424Y-122689326D01*
X120020425Y-122689330D01*
X120055778Y-122765145D01*
X120112897Y-122887638D01*
X120123206Y-122902361D01*
X120238402Y-123066877D01*
X120393123Y-123221598D01*
X120522265Y-123312024D01*
X120572361Y-123347102D01*
X120723583Y-123417618D01*
X120776022Y-123463790D01*
X120795174Y-123530984D01*
X120774958Y-123597865D01*
X120723583Y-123642382D01*
X120572361Y-123712898D01*
X120572357Y-123712900D01*
X120393121Y-123838402D01*
X120238402Y-123993121D01*
X120112900Y-124172357D01*
X120112898Y-124172361D01*
X120082505Y-124237539D01*
X120027540Y-124355413D01*
X120020426Y-124370668D01*
X120020422Y-124370677D01*
X119963793Y-124582020D01*
X119963793Y-124582023D01*
X119944723Y-124800000D01*
X119961467Y-124991395D01*
X119963793Y-125017975D01*
X119963793Y-125017979D01*
X120020422Y-125229322D01*
X120020424Y-125229326D01*
X120020425Y-125229330D01*
X120054867Y-125303191D01*
X120112897Y-125427638D01*
X120123206Y-125442361D01*
X120238402Y-125606877D01*
X120393123Y-125761598D01*
X120572361Y-125887102D01*
X120770670Y-125979575D01*
X120982023Y-126036207D01*
X121164926Y-126052208D01*
X121199998Y-126055277D01*
X121200000Y-126055277D01*
X121200002Y-126055277D01*
X121228254Y-126052805D01*
X121417977Y-126036207D01*
X121629330Y-125979575D01*
X121827639Y-125887102D01*
X122006877Y-125761598D01*
X122161598Y-125606877D01*
X122287102Y-125427639D01*
X122379575Y-125229330D01*
X122436207Y-125017977D01*
X122455277Y-124800000D01*
X122436207Y-124582023D01*
X122379575Y-124370670D01*
X122287102Y-124172362D01*
X122287100Y-124172359D01*
X122287099Y-124172357D01*
X122161599Y-123993124D01*
X122113270Y-123944795D01*
X122006877Y-123838402D01*
X121827639Y-123712898D01*
X121676414Y-123642381D01*
X121623977Y-123596210D01*
X121604825Y-123529016D01*
X121625041Y-123462135D01*
X121676414Y-123417618D01*
X121827639Y-123347102D01*
X122006877Y-123221598D01*
X122161598Y-123066877D01*
X122287102Y-122887639D01*
X122379575Y-122689330D01*
X122436207Y-122477977D01*
X122455277Y-122260000D01*
X122436207Y-122042023D01*
X122394543Y-121886531D01*
X122379577Y-121830677D01*
X122379576Y-121830676D01*
X122379575Y-121830670D01*
X122287102Y-121632362D01*
X122287100Y-121632359D01*
X122287099Y-121632357D01*
X122161599Y-121453124D01*
X122103270Y-121394795D01*
X122006877Y-121298402D01*
X121827639Y-121172898D01*
X121676414Y-121102381D01*
X121623977Y-121056210D01*
X121604825Y-120989016D01*
X121625041Y-120922135D01*
X121676414Y-120877618D01*
X121827639Y-120807102D01*
X122006877Y-120681598D01*
X122161598Y-120526877D01*
X122287102Y-120347639D01*
X122379575Y-120149330D01*
X122436207Y-119937977D01*
X122455277Y-119720000D01*
X122436207Y-119502023D01*
X122383534Y-119305444D01*
X122379577Y-119290677D01*
X122379576Y-119290676D01*
X122379575Y-119290670D01*
X122287102Y-119092362D01*
X122287100Y-119092359D01*
X122287099Y-119092357D01*
X122161599Y-118913124D01*
X122127797Y-118879322D01*
X122006877Y-118758402D01*
X121860733Y-118656071D01*
X121817112Y-118601497D01*
X121809919Y-118531998D01*
X121841441Y-118469644D01*
X121901671Y-118434230D01*
X121931859Y-118430499D01*
X121997872Y-118430499D01*
X122057483Y-118424091D01*
X122192331Y-118373796D01*
X122290340Y-118300426D01*
X122355802Y-118276009D01*
X122424075Y-118290860D01*
X122473481Y-118340265D01*
X122488334Y-118408537D01*
X122488178Y-118410499D01*
X122484723Y-118449996D01*
X122484723Y-118450002D01*
X122503793Y-118667975D01*
X122503793Y-118667979D01*
X122560422Y-118879322D01*
X122560424Y-118879326D01*
X122560425Y-118879330D01*
X122602497Y-118969553D01*
X122652897Y-119077638D01*
X122663206Y-119092361D01*
X122778402Y-119256877D01*
X122933123Y-119411598D01*
X123064607Y-119503664D01*
X123112361Y-119537102D01*
X123263583Y-119607618D01*
X123316022Y-119653790D01*
X123335174Y-119720984D01*
X123314958Y-119787865D01*
X123263583Y-119832382D01*
X123112361Y-119902898D01*
X123112357Y-119902900D01*
X122933121Y-120028402D01*
X122778402Y-120183121D01*
X122652900Y-120362357D01*
X122652898Y-120362361D01*
X122560426Y-120560668D01*
X122560422Y-120560677D01*
X122503793Y-120772020D01*
X122503793Y-120772024D01*
X122484723Y-120989997D01*
X122484723Y-120990002D01*
X122503793Y-121207975D01*
X122503793Y-121207979D01*
X122560422Y-121419322D01*
X122560424Y-121419326D01*
X122560425Y-121419330D01*
X122579630Y-121460515D01*
X122652897Y-121617638D01*
X122663206Y-121632361D01*
X122778402Y-121796877D01*
X122933123Y-121951598D01*
X123064607Y-122043664D01*
X123112361Y-122077102D01*
X123263583Y-122147618D01*
X123316022Y-122193790D01*
X123335174Y-122260984D01*
X123314958Y-122327865D01*
X123263583Y-122372382D01*
X123112361Y-122442898D01*
X123112357Y-122442900D01*
X122933121Y-122568402D01*
X122778402Y-122723121D01*
X122652900Y-122902357D01*
X122652898Y-122902361D01*
X122560426Y-123100668D01*
X122560422Y-123100677D01*
X122503793Y-123312020D01*
X122503793Y-123312024D01*
X122485439Y-123521819D01*
X122484723Y-123530000D01*
X122503288Y-123742210D01*
X122503793Y-123747975D01*
X122503793Y-123747979D01*
X122560422Y-123959322D01*
X122560424Y-123959326D01*
X122560425Y-123959330D01*
X122596897Y-124037544D01*
X122652897Y-124157638D01*
X122663206Y-124172361D01*
X122778402Y-124336877D01*
X122933123Y-124491598D01*
X123064607Y-124583664D01*
X123112361Y-124617102D01*
X123263583Y-124687618D01*
X123316022Y-124733790D01*
X123335174Y-124800984D01*
X123314958Y-124867865D01*
X123263583Y-124912382D01*
X123112361Y-124982898D01*
X123112357Y-124982900D01*
X122933121Y-125108402D01*
X122778402Y-125263121D01*
X122652900Y-125442357D01*
X122652898Y-125442361D01*
X122560426Y-125640668D01*
X122560422Y-125640677D01*
X122503793Y-125852020D01*
X122503793Y-125852024D01*
X122484779Y-126069364D01*
X122484723Y-126070000D01*
X122501945Y-126266859D01*
X122503793Y-126287975D01*
X122503793Y-126287979D01*
X122560422Y-126499322D01*
X122560424Y-126499326D01*
X122560425Y-126499330D01*
X122574223Y-126528920D01*
X122652897Y-126697638D01*
X122670250Y-126722420D01*
X122778402Y-126876877D01*
X122933123Y-127031598D01*
X123112361Y-127157102D01*
X123310670Y-127249575D01*
X123522023Y-127306207D01*
X123704926Y-127322208D01*
X123739998Y-127325277D01*
X123740000Y-127325277D01*
X123740002Y-127325277D01*
X123768254Y-127322805D01*
X123957977Y-127306207D01*
X124169330Y-127249575D01*
X124367639Y-127157102D01*
X124546877Y-127031598D01*
X124701598Y-126876877D01*
X124827102Y-126697639D01*
X124919575Y-126499330D01*
X124976207Y-126287977D01*
X124995277Y-126070000D01*
X124995221Y-126069364D01*
X124988882Y-125996905D01*
X124976207Y-125852023D01*
X124919575Y-125640670D01*
X124827102Y-125442362D01*
X124827100Y-125442359D01*
X124827099Y-125442357D01*
X124701599Y-125263124D01*
X124666900Y-125228425D01*
X124546877Y-125108402D01*
X124367639Y-124982898D01*
X124216414Y-124912381D01*
X124163977Y-124866210D01*
X124144825Y-124799016D01*
X124165041Y-124732135D01*
X124216414Y-124687618D01*
X124367639Y-124617102D01*
X124546877Y-124491598D01*
X124701598Y-124336877D01*
X124797443Y-124199996D01*
X136669909Y-124199996D01*
X136669909Y-124200003D01*
X136688212Y-124362455D01*
X136688213Y-124362460D01*
X136688214Y-124362461D01*
X136691089Y-124370677D01*
X136742210Y-124516774D01*
X136805250Y-124617101D01*
X136829192Y-124655204D01*
X136944796Y-124770808D01*
X137083225Y-124857789D01*
X137237539Y-124911786D01*
X137237542Y-124911786D01*
X137237544Y-124911787D01*
X137399996Y-124930091D01*
X137400000Y-124930091D01*
X137400004Y-124930091D01*
X137562455Y-124911787D01*
X137562456Y-124911786D01*
X137562461Y-124911786D01*
X137716775Y-124857789D01*
X137855204Y-124770808D01*
X137970808Y-124655204D01*
X138057789Y-124516775D01*
X138111786Y-124362461D01*
X138112581Y-124355408D01*
X138130091Y-124200003D01*
X138130091Y-124199996D01*
X138111787Y-124037544D01*
X138111786Y-124037542D01*
X138111786Y-124037539D01*
X138057789Y-123883225D01*
X137970808Y-123744796D01*
X137855204Y-123629192D01*
X137851949Y-123627147D01*
X137716774Y-123542210D01*
X137562455Y-123488212D01*
X137400004Y-123469909D01*
X137399996Y-123469909D01*
X137237544Y-123488212D01*
X137083225Y-123542210D01*
X136944795Y-123629192D01*
X136829192Y-123744795D01*
X136742210Y-123883225D01*
X136688212Y-124037544D01*
X136669909Y-124199996D01*
X124797443Y-124199996D01*
X124827102Y-124157639D01*
X124919575Y-123959330D01*
X124976207Y-123747977D01*
X124995277Y-123530000D01*
X124976207Y-123312023D01*
X124919575Y-123100670D01*
X124827102Y-122902362D01*
X124827100Y-122902359D01*
X124827099Y-122902357D01*
X124701599Y-122723124D01*
X124636264Y-122657789D01*
X124546877Y-122568402D01*
X124367639Y-122442898D01*
X124216414Y-122372381D01*
X124163977Y-122326210D01*
X124144825Y-122259016D01*
X124165041Y-122192135D01*
X124216414Y-122147618D01*
X124367639Y-122077102D01*
X124546877Y-121951598D01*
X124701598Y-121796877D01*
X124827102Y-121617639D01*
X124919575Y-121419330D01*
X124976207Y-121207977D01*
X124995277Y-120990000D01*
X124976207Y-120772023D01*
X124919575Y-120560670D01*
X124827102Y-120362362D01*
X124827100Y-120362359D01*
X124827099Y-120362357D01*
X124701599Y-120183124D01*
X124636084Y-120117609D01*
X124546877Y-120028402D01*
X124367639Y-119902898D01*
X124216414Y-119832381D01*
X124163977Y-119786210D01*
X124144825Y-119719016D01*
X124165041Y-119652135D01*
X124216414Y-119607618D01*
X124367639Y-119537102D01*
X124546877Y-119411598D01*
X124701598Y-119256877D01*
X124827102Y-119077639D01*
X124919575Y-118879330D01*
X124976207Y-118667977D01*
X124993989Y-118464723D01*
X124995277Y-118450002D01*
X124995277Y-118449997D01*
X124987593Y-118362169D01*
X124976207Y-118232023D01*
X124935702Y-118080855D01*
X124919577Y-118020677D01*
X124919576Y-118020676D01*
X124919575Y-118020670D01*
X124827102Y-117822362D01*
X124827100Y-117822359D01*
X124827099Y-117822357D01*
X124701599Y-117643124D01*
X124629282Y-117570807D01*
X124546877Y-117488402D01*
X124405178Y-117389183D01*
X124367638Y-117362897D01*
X124235657Y-117301354D01*
X124169330Y-117270425D01*
X124169326Y-117270424D01*
X124169322Y-117270422D01*
X123957977Y-117213793D01*
X123740002Y-117194723D01*
X123739998Y-117194723D01*
X123594682Y-117207436D01*
X123522023Y-117213793D01*
X123522020Y-117213793D01*
X123310677Y-117270422D01*
X123310668Y-117270426D01*
X123112361Y-117362898D01*
X123112357Y-117362900D01*
X122933121Y-117488402D01*
X122778405Y-117643118D01*
X122676074Y-117789262D01*
X122621497Y-117832887D01*
X122551998Y-117840079D01*
X122489644Y-117808557D01*
X122454230Y-117748327D01*
X122450499Y-117718144D01*
X122450499Y-116382128D01*
X122444091Y-116322517D01*
X122422486Y-116264592D01*
X122393797Y-116187671D01*
X122393793Y-116187664D01*
X122307547Y-116072455D01*
X122307544Y-116072452D01*
X122192335Y-115986206D01*
X122192328Y-115986202D01*
X122057482Y-115935908D01*
X122057483Y-115935908D01*
X121997883Y-115929501D01*
X121997881Y-115929500D01*
X121997873Y-115929500D01*
X121997864Y-115929500D01*
X120402129Y-115929500D01*
X120402123Y-115929501D01*
X120342516Y-115935908D01*
X120207671Y-115986202D01*
X120207664Y-115986206D01*
X120092455Y-116072452D01*
X120092452Y-116072455D01*
X120006206Y-116187664D01*
X120006202Y-116187671D01*
X119955908Y-116322517D01*
X119949501Y-116382116D01*
X119949501Y-116382123D01*
X119949500Y-116382135D01*
X119949500Y-117977870D01*
X119949501Y-117977876D01*
X119955908Y-118037483D01*
X120006202Y-118172328D01*
X120006206Y-118172335D01*
X120092452Y-118287544D01*
X120092455Y-118287547D01*
X120207664Y-118373793D01*
X120207671Y-118373797D01*
X120342517Y-118424091D01*
X120342516Y-118424091D01*
X120349444Y-118424835D01*
X120402127Y-118430500D01*
X120468139Y-118430499D01*
X120535176Y-118450183D01*
X120580932Y-118502986D01*
X120590876Y-118572144D01*
X120561852Y-118635700D01*
X120539262Y-118656074D01*
X120393118Y-118758405D01*
X120238402Y-118913121D01*
X120112900Y-119092357D01*
X120112898Y-119092361D01*
X120055523Y-119215403D01*
X120023561Y-119283946D01*
X120020426Y-119290668D01*
X120020422Y-119290677D01*
X119963793Y-119502020D01*
X119963793Y-119502023D01*
X119960724Y-119537101D01*
X119944723Y-119719997D01*
X118100500Y-119719997D01*
X118100500Y-114424996D01*
X136094909Y-114424996D01*
X136094909Y-114425003D01*
X136113212Y-114587455D01*
X136167210Y-114741774D01*
X136244666Y-114865044D01*
X136254192Y-114880204D01*
X136369796Y-114995808D01*
X136508225Y-115082789D01*
X136662539Y-115136786D01*
X136662542Y-115136786D01*
X136662544Y-115136787D01*
X136824996Y-115155091D01*
X136825000Y-115155091D01*
X136825004Y-115155091D01*
X136987457Y-115136787D01*
X136987459Y-115136786D01*
X136987461Y-115136786D01*
X137141775Y-115082789D01*
X137167641Y-115066535D01*
X137234876Y-115047534D01*
X137276067Y-115057155D01*
X137276651Y-115055489D01*
X137285085Y-115058440D01*
X137437539Y-115111786D01*
X137437542Y-115111786D01*
X137437544Y-115111787D01*
X137599996Y-115130091D01*
X137600500Y-115130091D01*
X137600813Y-115130183D01*
X137606919Y-115130871D01*
X137606798Y-115131940D01*
X137667539Y-115149776D01*
X137713294Y-115202580D01*
X137724500Y-115254091D01*
X137724500Y-115970152D01*
X137704815Y-116037191D01*
X137652011Y-116082946D01*
X137582853Y-116092890D01*
X137569285Y-116089575D01*
X137569243Y-116089762D01*
X137562457Y-116088212D01*
X137400004Y-116069909D01*
X137399996Y-116069909D01*
X137237544Y-116088212D01*
X137083225Y-116142210D01*
X136944795Y-116229192D01*
X136829192Y-116344795D01*
X136742210Y-116483225D01*
X136688212Y-116637544D01*
X136669909Y-116799996D01*
X136669909Y-116800003D01*
X136688212Y-116962455D01*
X136742210Y-117116774D01*
X136783964Y-117183224D01*
X136829192Y-117255204D01*
X136944796Y-117370808D01*
X137083225Y-117457789D01*
X137237539Y-117511786D01*
X137237542Y-117511786D01*
X137237544Y-117511787D01*
X137399996Y-117530091D01*
X137400000Y-117530091D01*
X137400004Y-117530091D01*
X137562457Y-117511787D01*
X137569243Y-117510238D01*
X137569711Y-117512288D01*
X137629314Y-117509241D01*
X137689944Y-117543965D01*
X137722177Y-117605955D01*
X137724500Y-117629847D01*
X137724500Y-120024234D01*
X137724500Y-120175766D01*
X137726472Y-120183124D01*
X137763719Y-120322136D01*
X137786944Y-120362362D01*
X137839485Y-120453365D01*
X138288291Y-120902171D01*
X138735144Y-121349023D01*
X138735154Y-121349034D01*
X138739484Y-121353364D01*
X138739485Y-121353365D01*
X138846635Y-121460515D01*
X138907974Y-121495929D01*
X138956189Y-121546497D01*
X138969411Y-121615104D01*
X138950969Y-121669285D01*
X138942210Y-121683224D01*
X138888212Y-121837544D01*
X138869909Y-121999996D01*
X138869909Y-122000003D01*
X138888212Y-122162455D01*
X138942210Y-122316774D01*
X139013483Y-122430204D01*
X139029192Y-122455204D01*
X139144796Y-122570808D01*
X139283225Y-122657789D01*
X139437539Y-122711786D01*
X139437542Y-122711786D01*
X139437544Y-122711787D01*
X139599996Y-122730091D01*
X139600000Y-122730091D01*
X139600004Y-122730091D01*
X139762455Y-122711787D01*
X139762456Y-122711786D01*
X139762461Y-122711786D01*
X139916775Y-122657789D01*
X140055204Y-122570808D01*
X140170808Y-122455204D01*
X140202860Y-122404192D01*
X140255195Y-122357902D01*
X140324248Y-122347254D01*
X140388097Y-122375629D01*
X140412847Y-122404192D01*
X140412848Y-122404193D01*
X140429192Y-122430204D01*
X140544796Y-122545808D01*
X140683225Y-122632789D01*
X140837539Y-122686786D01*
X140837542Y-122686786D01*
X140837544Y-122686787D01*
X140999996Y-122705091D01*
X141000000Y-122705091D01*
X141000004Y-122705091D01*
X141162455Y-122686787D01*
X141162456Y-122686786D01*
X141162461Y-122686786D01*
X141316775Y-122632789D01*
X141455204Y-122545808D01*
X141570808Y-122430204D01*
X141657789Y-122291775D01*
X141711786Y-122137461D01*
X141718238Y-122080204D01*
X141726078Y-122010617D01*
X141753144Y-121946203D01*
X141810739Y-121906648D01*
X141849298Y-121900500D01*
X143647743Y-121900500D01*
X143714782Y-121920185D01*
X143752736Y-121958527D01*
X143829190Y-122080202D01*
X143829192Y-122080204D01*
X143944796Y-122195808D01*
X144083225Y-122282789D01*
X144237539Y-122336786D01*
X144237542Y-122336786D01*
X144237544Y-122336787D01*
X144399996Y-122355091D01*
X144400000Y-122355091D01*
X144400004Y-122355091D01*
X144562455Y-122336787D01*
X144562456Y-122336786D01*
X144562461Y-122336786D01*
X144716775Y-122282789D01*
X144855204Y-122195808D01*
X144970808Y-122080204D01*
X145057789Y-121941775D01*
X145089904Y-121849996D01*
X145844909Y-121849996D01*
X145844909Y-121850003D01*
X145863212Y-122012455D01*
X145917210Y-122166774D01*
X145976407Y-122260984D01*
X146004192Y-122305204D01*
X146119796Y-122420808D01*
X146258225Y-122507789D01*
X146412539Y-122561786D01*
X146412542Y-122561786D01*
X146412544Y-122561787D01*
X146574996Y-122580091D01*
X146575000Y-122580091D01*
X146575004Y-122580091D01*
X146737455Y-122561787D01*
X146737456Y-122561786D01*
X146737461Y-122561786D01*
X146891775Y-122507789D01*
X147030204Y-122420808D01*
X147145808Y-122305204D01*
X147232789Y-122166775D01*
X147286786Y-122012461D01*
X147288190Y-122000000D01*
X147305091Y-121850003D01*
X147305091Y-121849996D01*
X147286787Y-121687544D01*
X147286786Y-121687542D01*
X147286786Y-121687539D01*
X147232789Y-121533225D01*
X147145808Y-121394796D01*
X147030204Y-121279192D01*
X146916870Y-121207979D01*
X146891774Y-121192210D01*
X146737455Y-121138212D01*
X146575004Y-121119909D01*
X146574996Y-121119909D01*
X146412544Y-121138212D01*
X146258225Y-121192210D01*
X146119795Y-121279192D01*
X146004192Y-121394795D01*
X145917210Y-121533225D01*
X145863212Y-121687544D01*
X145844909Y-121849996D01*
X145089904Y-121849996D01*
X145111786Y-121787461D01*
X145115398Y-121755403D01*
X145130091Y-121625003D01*
X145130091Y-121624996D01*
X145111787Y-121462544D01*
X145111786Y-121462542D01*
X145111786Y-121462539D01*
X145057789Y-121308225D01*
X144970808Y-121169796D01*
X144855204Y-121054192D01*
X144819477Y-121031743D01*
X144716774Y-120967210D01*
X144592685Y-120923790D01*
X144562461Y-120913214D01*
X144537540Y-120910405D01*
X144473128Y-120883337D01*
X144463747Y-120874867D01*
X144453367Y-120864487D01*
X144453365Y-120864485D01*
X144387750Y-120826602D01*
X144322136Y-120788719D01*
X144248950Y-120769109D01*
X144175766Y-120749500D01*
X144175765Y-120749500D01*
X143975583Y-120749500D01*
X143908544Y-120729815D01*
X143862789Y-120677011D01*
X143852845Y-120607853D01*
X143870590Y-120559527D01*
X143930002Y-120464973D01*
X143985822Y-120305449D01*
X143985824Y-120305441D01*
X144004746Y-120137503D01*
X144004746Y-120137496D01*
X143985824Y-119969558D01*
X143985823Y-119969553D01*
X143930267Y-119810785D01*
X143930267Y-119810784D01*
X143426777Y-120314277D01*
X143027873Y-120713181D01*
X142966550Y-120746666D01*
X142940192Y-120749500D01*
X142559808Y-120749500D01*
X142492769Y-120729815D01*
X142472127Y-120713181D01*
X142250000Y-120491054D01*
X142027873Y-120713181D01*
X141966550Y-120746666D01*
X141940192Y-120749500D01*
X141559808Y-120749500D01*
X141492769Y-120729815D01*
X141472127Y-120713181D01*
X140876555Y-120117609D01*
X141150000Y-120117609D01*
X141150000Y-120157391D01*
X141165224Y-120194145D01*
X141193355Y-120222276D01*
X141230109Y-120237500D01*
X141269891Y-120237500D01*
X141306645Y-120222276D01*
X141334776Y-120194145D01*
X141350000Y-120157391D01*
X141350000Y-120137500D01*
X141603554Y-120137500D01*
X141750000Y-120283946D01*
X141896446Y-120137500D01*
X141876555Y-120117609D01*
X142150000Y-120117609D01*
X142150000Y-120157391D01*
X142165224Y-120194145D01*
X142193355Y-120222276D01*
X142230109Y-120237500D01*
X142269891Y-120237500D01*
X142306645Y-120222276D01*
X142334776Y-120194145D01*
X142350000Y-120157391D01*
X142350000Y-120137500D01*
X142603554Y-120137500D01*
X142750000Y-120283946D01*
X142896446Y-120137500D01*
X142876555Y-120117609D01*
X143150000Y-120117609D01*
X143150000Y-120157391D01*
X143165224Y-120194145D01*
X143193355Y-120222276D01*
X143230109Y-120237500D01*
X143269891Y-120237500D01*
X143306645Y-120222276D01*
X143334776Y-120194145D01*
X143350000Y-120157391D01*
X143350000Y-120117609D01*
X143334776Y-120080855D01*
X143306645Y-120052724D01*
X143269891Y-120037500D01*
X143230109Y-120037500D01*
X143193355Y-120052724D01*
X143165224Y-120080855D01*
X143150000Y-120117609D01*
X142876555Y-120117609D01*
X142750000Y-119991054D01*
X142603554Y-120137500D01*
X142350000Y-120137500D01*
X142350000Y-120117609D01*
X142334776Y-120080855D01*
X142306645Y-120052724D01*
X142269891Y-120037500D01*
X142230109Y-120037500D01*
X142193355Y-120052724D01*
X142165224Y-120080855D01*
X142150000Y-120117609D01*
X141876555Y-120117609D01*
X141750000Y-119991054D01*
X141603554Y-120137500D01*
X141350000Y-120137500D01*
X141350000Y-120117609D01*
X141334776Y-120080855D01*
X141306645Y-120052724D01*
X141269891Y-120037500D01*
X141230109Y-120037500D01*
X141193355Y-120052724D01*
X141165224Y-120080855D01*
X141150000Y-120117609D01*
X140876555Y-120117609D01*
X140569731Y-119810785D01*
X140514176Y-119969555D01*
X140502867Y-120069920D01*
X140475800Y-120134334D01*
X140418205Y-120173889D01*
X140348368Y-120176026D01*
X140288462Y-120140067D01*
X140262604Y-120096986D01*
X140257789Y-120083225D01*
X140170807Y-119944795D01*
X140055204Y-119829192D01*
X139916774Y-119742210D01*
X139762455Y-119688212D01*
X139600004Y-119669909D01*
X139599996Y-119669909D01*
X139437544Y-119688212D01*
X139283225Y-119742210D01*
X139144795Y-119829192D01*
X139087181Y-119886807D01*
X139025858Y-119920292D01*
X138956166Y-119915308D01*
X138900233Y-119873436D01*
X138875816Y-119807972D01*
X138875500Y-119799126D01*
X138875500Y-119637500D01*
X141103554Y-119637500D01*
X141250000Y-119783946D01*
X141396446Y-119637500D01*
X142103554Y-119637500D01*
X142250000Y-119783946D01*
X142396446Y-119637500D01*
X143103554Y-119637500D01*
X143250000Y-119783946D01*
X143396446Y-119637500D01*
X143250000Y-119491054D01*
X143103554Y-119637500D01*
X142396446Y-119637500D01*
X142250000Y-119491054D01*
X142103554Y-119637500D01*
X141396446Y-119637500D01*
X141250000Y-119491054D01*
X141103554Y-119637500D01*
X138875500Y-119637500D01*
X138875500Y-119137496D01*
X140495254Y-119137496D01*
X140495254Y-119137503D01*
X140514176Y-119305444D01*
X140569731Y-119464213D01*
X140896446Y-119137500D01*
X140876555Y-119117609D01*
X141150000Y-119117609D01*
X141150000Y-119157391D01*
X141165224Y-119194145D01*
X141193355Y-119222276D01*
X141230109Y-119237500D01*
X141269891Y-119237500D01*
X141306645Y-119222276D01*
X141334776Y-119194145D01*
X141350000Y-119157391D01*
X141350000Y-119137500D01*
X141603554Y-119137500D01*
X141750000Y-119283946D01*
X141896446Y-119137500D01*
X141876555Y-119117609D01*
X142150000Y-119117609D01*
X142150000Y-119157391D01*
X142165224Y-119194145D01*
X142193355Y-119222276D01*
X142230109Y-119237500D01*
X142269891Y-119237500D01*
X142306645Y-119222276D01*
X142334776Y-119194145D01*
X142350000Y-119157391D01*
X142350000Y-119137500D01*
X142603554Y-119137500D01*
X142750000Y-119283946D01*
X142896446Y-119137500D01*
X142876555Y-119117609D01*
X143150000Y-119117609D01*
X143150000Y-119157391D01*
X143165224Y-119194145D01*
X143193355Y-119222276D01*
X143230109Y-119237500D01*
X143269891Y-119237500D01*
X143306645Y-119222276D01*
X143334776Y-119194145D01*
X143350000Y-119157391D01*
X143350000Y-119137499D01*
X143603554Y-119137499D01*
X143603554Y-119137501D01*
X143930267Y-119464214D01*
X143930267Y-119464213D01*
X143985823Y-119305443D01*
X143985824Y-119305438D01*
X144004746Y-119137503D01*
X144004746Y-119137496D01*
X143985824Y-118969558D01*
X143985823Y-118969553D01*
X143930267Y-118810785D01*
X143930267Y-118810784D01*
X143603554Y-119137499D01*
X143350000Y-119137499D01*
X143350000Y-119117609D01*
X143334776Y-119080855D01*
X143306645Y-119052724D01*
X143269891Y-119037500D01*
X143230109Y-119037500D01*
X143193355Y-119052724D01*
X143165224Y-119080855D01*
X143150000Y-119117609D01*
X142876555Y-119117609D01*
X142750000Y-118991054D01*
X142603554Y-119137500D01*
X142350000Y-119137500D01*
X142350000Y-119117609D01*
X142334776Y-119080855D01*
X142306645Y-119052724D01*
X142269891Y-119037500D01*
X142230109Y-119037500D01*
X142193355Y-119052724D01*
X142165224Y-119080855D01*
X142150000Y-119117609D01*
X141876555Y-119117609D01*
X141750000Y-118991054D01*
X141603554Y-119137500D01*
X141350000Y-119137500D01*
X141350000Y-119117609D01*
X141334776Y-119080855D01*
X141306645Y-119052724D01*
X141269891Y-119037500D01*
X141230109Y-119037500D01*
X141193355Y-119052724D01*
X141165224Y-119080855D01*
X141150000Y-119117609D01*
X140876555Y-119117609D01*
X140569731Y-118810785D01*
X140514176Y-118969555D01*
X140495254Y-119137496D01*
X138875500Y-119137496D01*
X138875500Y-118637500D01*
X141103554Y-118637500D01*
X141250000Y-118783946D01*
X141396446Y-118637500D01*
X142103554Y-118637500D01*
X142250000Y-118783946D01*
X142396446Y-118637500D01*
X143103554Y-118637500D01*
X143250000Y-118783946D01*
X143396446Y-118637500D01*
X143250000Y-118491054D01*
X143103554Y-118637500D01*
X142396446Y-118637500D01*
X142250000Y-118491054D01*
X142103554Y-118637500D01*
X141396446Y-118637500D01*
X141250000Y-118491054D01*
X141103554Y-118637500D01*
X138875500Y-118637500D01*
X138875500Y-117618664D01*
X138895185Y-117551625D01*
X138947989Y-117505870D01*
X138985617Y-117495444D01*
X139017060Y-117491901D01*
X139062454Y-117486787D01*
X139062454Y-117486786D01*
X139062461Y-117486786D01*
X139216775Y-117432789D01*
X139355204Y-117345808D01*
X139366172Y-117334839D01*
X139427492Y-117301354D01*
X139497184Y-117306336D01*
X139553119Y-117348205D01*
X139577538Y-117413669D01*
X139577074Y-117436402D01*
X139569909Y-117499995D01*
X139569909Y-117500003D01*
X139588212Y-117662455D01*
X139642210Y-117816774D01*
X139708632Y-117922483D01*
X139729192Y-117955204D01*
X139844796Y-118070808D01*
X139983225Y-118157789D01*
X140137539Y-118211786D01*
X140137542Y-118211786D01*
X140137544Y-118211787D01*
X140299996Y-118230091D01*
X140300000Y-118230091D01*
X140300004Y-118230091D01*
X140382420Y-118220805D01*
X140451241Y-118232859D01*
X140502621Y-118280209D01*
X140513345Y-118303071D01*
X140569731Y-118464213D01*
X140916336Y-118117609D01*
X141150000Y-118117609D01*
X141150000Y-118157391D01*
X141165224Y-118194145D01*
X141193355Y-118222276D01*
X141230109Y-118237500D01*
X141269891Y-118237500D01*
X141306645Y-118222276D01*
X141334776Y-118194145D01*
X141350000Y-118157391D01*
X141350000Y-118137500D01*
X141603554Y-118137500D01*
X141750000Y-118283946D01*
X141896446Y-118137500D01*
X141876555Y-118117609D01*
X142150000Y-118117609D01*
X142150000Y-118157391D01*
X142165224Y-118194145D01*
X142193355Y-118222276D01*
X142230109Y-118237500D01*
X142269891Y-118237500D01*
X142306645Y-118222276D01*
X142334776Y-118194145D01*
X142350000Y-118157391D01*
X142350000Y-118137500D01*
X142603554Y-118137500D01*
X142750000Y-118283946D01*
X142896446Y-118137500D01*
X142876555Y-118117609D01*
X143150000Y-118117609D01*
X143150000Y-118157391D01*
X143165224Y-118194145D01*
X143193355Y-118222276D01*
X143230109Y-118237500D01*
X143269891Y-118237500D01*
X143306645Y-118222276D01*
X143334776Y-118194145D01*
X143350000Y-118157391D01*
X143350000Y-118137499D01*
X143603554Y-118137499D01*
X143603554Y-118137501D01*
X143930267Y-118464214D01*
X143930267Y-118464213D01*
X143985823Y-118305443D01*
X143985824Y-118305438D01*
X144004746Y-118137503D01*
X144004746Y-118137496D01*
X143985824Y-117969558D01*
X143985823Y-117969553D01*
X143930267Y-117810785D01*
X143930267Y-117810784D01*
X143603554Y-118137499D01*
X143350000Y-118137499D01*
X143350000Y-118117609D01*
X143334776Y-118080855D01*
X143306645Y-118052724D01*
X143269891Y-118037500D01*
X143230109Y-118037500D01*
X143193355Y-118052724D01*
X143165224Y-118080855D01*
X143150000Y-118117609D01*
X142876555Y-118117609D01*
X142750000Y-117991054D01*
X142603554Y-118137500D01*
X142350000Y-118137500D01*
X142350000Y-118117609D01*
X142334776Y-118080855D01*
X142306645Y-118052724D01*
X142269891Y-118037500D01*
X142230109Y-118037500D01*
X142193355Y-118052724D01*
X142165224Y-118080855D01*
X142150000Y-118117609D01*
X141876555Y-118117609D01*
X141750000Y-117991054D01*
X141603554Y-118137500D01*
X141350000Y-118137500D01*
X141350000Y-118117609D01*
X141334776Y-118080855D01*
X141306645Y-118052724D01*
X141269891Y-118037500D01*
X141230109Y-118037500D01*
X141193355Y-118052724D01*
X141165224Y-118080855D01*
X141150000Y-118117609D01*
X140916336Y-118117609D01*
X141073223Y-117960723D01*
X141576714Y-117457231D01*
X141923285Y-117457231D01*
X142250000Y-117783946D01*
X142250001Y-117783946D01*
X142576714Y-117457231D01*
X142923285Y-117457231D01*
X143250000Y-117783946D01*
X143250001Y-117783946D01*
X143576714Y-117457231D01*
X143417944Y-117401676D01*
X143250004Y-117382754D01*
X143249996Y-117382754D01*
X143082055Y-117401676D01*
X142923285Y-117457231D01*
X142576714Y-117457231D01*
X142417944Y-117401676D01*
X142250004Y-117382754D01*
X142249996Y-117382754D01*
X142082055Y-117401676D01*
X141923285Y-117457231D01*
X141576714Y-117457231D01*
X141417944Y-117401676D01*
X141250004Y-117382754D01*
X141249996Y-117382754D01*
X141134307Y-117395788D01*
X141065485Y-117383733D01*
X141014106Y-117336384D01*
X141003382Y-117313522D01*
X140957789Y-117183224D01*
X140916698Y-117117830D01*
X140879199Y-117058150D01*
X140860199Y-116990916D01*
X140880566Y-116924081D01*
X140896504Y-116904507D01*
X140920808Y-116880204D01*
X141007789Y-116741775D01*
X141061786Y-116587461D01*
X141065065Y-116558361D01*
X141080091Y-116425003D01*
X141080091Y-116424996D01*
X141061787Y-116262544D01*
X141061786Y-116262542D01*
X141061786Y-116262539D01*
X141007789Y-116108225D01*
X140920808Y-115969796D01*
X140811818Y-115860806D01*
X140778334Y-115799483D01*
X140775500Y-115773125D01*
X140775500Y-115549755D01*
X140775500Y-115549754D01*
X140766663Y-115516775D01*
X140743747Y-115431249D01*
X140745410Y-115361401D01*
X140775841Y-115311476D01*
X140780577Y-115306740D01*
X140860515Y-115226803D01*
X140936281Y-115095573D01*
X140975500Y-114949204D01*
X140975500Y-114797671D01*
X140975500Y-114093552D01*
X140995185Y-114026513D01*
X141047989Y-113980758D01*
X141113384Y-113970332D01*
X141199997Y-113980091D01*
X141200000Y-113980091D01*
X141200004Y-113980091D01*
X141362457Y-113961787D01*
X141362459Y-113961786D01*
X141362461Y-113961786D01*
X141509047Y-113910492D01*
X141578823Y-113906930D01*
X141590939Y-113910488D01*
X141732432Y-113959999D01*
X141737542Y-113961787D01*
X141899996Y-113980091D01*
X141899998Y-113980090D01*
X141900000Y-113980091D01*
X141900157Y-113980073D01*
X141900259Y-113980091D01*
X141906964Y-113980091D01*
X141906964Y-113981264D01*
X141968979Y-113992122D01*
X142001731Y-114015611D01*
X142811920Y-114825800D01*
X142845405Y-114887123D01*
X142847459Y-114927364D01*
X142844909Y-114949996D01*
X142844909Y-114950003D01*
X142863212Y-115112455D01*
X142917210Y-115266774D01*
X142987541Y-115378704D01*
X143004192Y-115405204D01*
X143119796Y-115520808D01*
X143258225Y-115607789D01*
X143412539Y-115661786D01*
X143412542Y-115661786D01*
X143412544Y-115661787D01*
X143574996Y-115680091D01*
X143575000Y-115680091D01*
X143575004Y-115680091D01*
X143737455Y-115661787D01*
X143737456Y-115661786D01*
X143737461Y-115661786D01*
X143759546Y-115654057D01*
X143829322Y-115650495D01*
X143889950Y-115685223D01*
X143922178Y-115747216D01*
X143924500Y-115771099D01*
X143924500Y-116745580D01*
X143924500Y-116897112D01*
X143935634Y-116938664D01*
X143963719Y-117043482D01*
X143984337Y-117079192D01*
X144039485Y-117174711D01*
X144039487Y-117174713D01*
X152407257Y-125542483D01*
X152440742Y-125603806D01*
X152435758Y-125673498D01*
X152407258Y-125717844D01*
X152361506Y-125763596D01*
X152225965Y-125957169D01*
X152225961Y-125957177D01*
X152200229Y-126012358D01*
X152154056Y-126064797D01*
X152086862Y-126083948D01*
X152019981Y-126063731D01*
X152000167Y-126047633D01*
X149692021Y-123739487D01*
X149692019Y-123739485D01*
X149616252Y-123695740D01*
X149560788Y-123663718D01*
X149490557Y-123644899D01*
X149456680Y-123630119D01*
X149316774Y-123542210D01*
X149162455Y-123488212D01*
X149000004Y-123469909D01*
X148999996Y-123469909D01*
X148837544Y-123488212D01*
X148683225Y-123542210D01*
X148544795Y-123629192D01*
X148429192Y-123744795D01*
X148342210Y-123883225D01*
X148288212Y-124037544D01*
X148269909Y-124199996D01*
X148269909Y-124200003D01*
X148288212Y-124362455D01*
X148288213Y-124362460D01*
X148288214Y-124362461D01*
X148291089Y-124370677D01*
X148342210Y-124516774D01*
X148405250Y-124617101D01*
X148429192Y-124655204D01*
X148544796Y-124770808D01*
X148683225Y-124857789D01*
X148837539Y-124911786D01*
X148837542Y-124911786D01*
X148837544Y-124911787D01*
X148999996Y-124930091D01*
X149000000Y-124930091D01*
X149000004Y-124930091D01*
X149169382Y-124911007D01*
X149169736Y-124914149D01*
X149225491Y-124917459D01*
X149271250Y-124946476D01*
X149627965Y-125303191D01*
X149661450Y-125364514D01*
X149656466Y-125434206D01*
X149614594Y-125490139D01*
X149581239Y-125507913D01*
X149483227Y-125542209D01*
X149344795Y-125629192D01*
X149229192Y-125744795D01*
X149142210Y-125883225D01*
X149088212Y-126037544D01*
X149069909Y-126199996D01*
X149069909Y-126200003D01*
X149088212Y-126362455D01*
X149142210Y-126516774D01*
X149149842Y-126528920D01*
X149229192Y-126655204D01*
X149344796Y-126770808D01*
X149483225Y-126857789D01*
X149637539Y-126911786D01*
X149637542Y-126911786D01*
X149637544Y-126911787D01*
X149799996Y-126930091D01*
X149800000Y-126930091D01*
X149800004Y-126930091D01*
X149962455Y-126911787D01*
X149962456Y-126911786D01*
X149962461Y-126911786D01*
X150116775Y-126857789D01*
X150255204Y-126770808D01*
X150370808Y-126655204D01*
X150457789Y-126516775D01*
X150492086Y-126418759D01*
X150532806Y-126361985D01*
X150597759Y-126336237D01*
X150666321Y-126349693D01*
X150696808Y-126372034D01*
X152463139Y-128138365D01*
X152570289Y-128245515D01*
X152660981Y-128297876D01*
X152693357Y-128316569D01*
X152701519Y-128321281D01*
X152847888Y-128360500D01*
X152847890Y-128360500D01*
X163750764Y-128360500D01*
X163750766Y-128360500D01*
X163897135Y-128321281D01*
X164028365Y-128245515D01*
X164288587Y-127985291D01*
X164349906Y-127951809D01*
X164408354Y-127953199D01*
X164564592Y-127995063D01*
X164752918Y-128011539D01*
X164799999Y-128015659D01*
X164800000Y-128015659D01*
X164800001Y-128015659D01*
X164839234Y-128012226D01*
X165035408Y-127995063D01*
X165263663Y-127933903D01*
X165477830Y-127834035D01*
X165671401Y-127698495D01*
X165838495Y-127531401D01*
X165974035Y-127337830D01*
X166073903Y-127123663D01*
X166135063Y-126895408D01*
X166155659Y-126660000D01*
X166135063Y-126424592D01*
X166088626Y-126251285D01*
X166073905Y-126196344D01*
X166073904Y-126196343D01*
X166073903Y-126196337D01*
X165974035Y-125982171D01*
X165972218Y-125979575D01*
X165838494Y-125788597D01*
X165671402Y-125621506D01*
X165671396Y-125621501D01*
X165485842Y-125491575D01*
X165442217Y-125436998D01*
X165435023Y-125367500D01*
X165466546Y-125305145D01*
X165485842Y-125288425D01*
X165570238Y-125229330D01*
X165671401Y-125158495D01*
X165838495Y-124991401D01*
X165974035Y-124797830D01*
X166073903Y-124583663D01*
X166135063Y-124355408D01*
X166155659Y-124120000D01*
X166135063Y-123884592D01*
X166073903Y-123656337D01*
X165974035Y-123442171D01*
X165972218Y-123439575D01*
X165838494Y-123248597D01*
X165671402Y-123081506D01*
X165671396Y-123081501D01*
X165485842Y-122951575D01*
X165442217Y-122896998D01*
X165435023Y-122827500D01*
X165466546Y-122765145D01*
X165485842Y-122748425D01*
X165570238Y-122689330D01*
X165671401Y-122618495D01*
X165838495Y-122451401D01*
X165974035Y-122257830D01*
X166073903Y-122043663D01*
X166135063Y-121815408D01*
X166155659Y-121580000D01*
X166135063Y-121344592D01*
X166073903Y-121116337D01*
X165974035Y-120902171D01*
X165972218Y-120899575D01*
X165838494Y-120708597D01*
X165671402Y-120541506D01*
X165671396Y-120541501D01*
X165485842Y-120411575D01*
X165442217Y-120356998D01*
X165435023Y-120287500D01*
X165466546Y-120225145D01*
X165485842Y-120208425D01*
X165570238Y-120149330D01*
X165671401Y-120078495D01*
X165838495Y-119911401D01*
X165974035Y-119717830D01*
X166073903Y-119503663D01*
X166135063Y-119275408D01*
X166155659Y-119040000D01*
X166135063Y-118804592D01*
X166073903Y-118576337D01*
X165974035Y-118362171D01*
X165958697Y-118340265D01*
X165838494Y-118168597D01*
X165671402Y-118001506D01*
X165671396Y-118001501D01*
X165485842Y-117871575D01*
X165442217Y-117816998D01*
X165435023Y-117747500D01*
X165466546Y-117685145D01*
X165485842Y-117668425D01*
X165563519Y-117614035D01*
X165671401Y-117538495D01*
X165838495Y-117371401D01*
X165974035Y-117177830D01*
X166073903Y-116963663D01*
X166135063Y-116735408D01*
X166155659Y-116500000D01*
X166135063Y-116264592D01*
X166083580Y-116072452D01*
X166073905Y-116036344D01*
X166073904Y-116036343D01*
X166073903Y-116036337D01*
X165974035Y-115822171D01*
X165960015Y-115802147D01*
X165838494Y-115628597D01*
X165671402Y-115461506D01*
X165671396Y-115461501D01*
X165485842Y-115331575D01*
X165442217Y-115276998D01*
X165435023Y-115207500D01*
X165466546Y-115145145D01*
X165485842Y-115128425D01*
X165563519Y-115074035D01*
X165671401Y-114998495D01*
X165838495Y-114831401D01*
X165974035Y-114637830D01*
X166073903Y-114423663D01*
X166135063Y-114195408D01*
X166155659Y-113960000D01*
X166135063Y-113724592D01*
X166077124Y-113508357D01*
X166073905Y-113496344D01*
X166073904Y-113496343D01*
X166073903Y-113496337D01*
X165974035Y-113282171D01*
X165960232Y-113262457D01*
X165838494Y-113088597D01*
X165671402Y-112921506D01*
X165671396Y-112921501D01*
X165485842Y-112791575D01*
X165442217Y-112736998D01*
X165435023Y-112667500D01*
X165466546Y-112605145D01*
X165485842Y-112588425D01*
X165525530Y-112560635D01*
X165671401Y-112458495D01*
X165838495Y-112291401D01*
X165974035Y-112097830D01*
X166073903Y-111883663D01*
X166135063Y-111655408D01*
X166155659Y-111420000D01*
X166135063Y-111184592D01*
X166073903Y-110956337D01*
X165974035Y-110742171D01*
X165956529Y-110717169D01*
X165838494Y-110548597D01*
X165671402Y-110381506D01*
X165671396Y-110381501D01*
X165485842Y-110251575D01*
X165442217Y-110196998D01*
X165435023Y-110127500D01*
X165466546Y-110065145D01*
X165485842Y-110048425D01*
X165563519Y-109994035D01*
X165671401Y-109918495D01*
X165838495Y-109751401D01*
X165974035Y-109557830D01*
X166073903Y-109343663D01*
X166135063Y-109115408D01*
X166155659Y-108880000D01*
X166151944Y-108837544D01*
X166144944Y-108757529D01*
X166135063Y-108644592D01*
X166078201Y-108432378D01*
X166073905Y-108416344D01*
X166073904Y-108416343D01*
X166073903Y-108416337D01*
X165974035Y-108202171D01*
X165956529Y-108177169D01*
X165838494Y-108008597D01*
X165671402Y-107841506D01*
X165671396Y-107841501D01*
X165485842Y-107711575D01*
X165442217Y-107656998D01*
X165435023Y-107587500D01*
X165466546Y-107525145D01*
X165485842Y-107508425D01*
X165563519Y-107454035D01*
X165671401Y-107378495D01*
X165838495Y-107211401D01*
X165974035Y-107017830D01*
X166073903Y-106803663D01*
X166135063Y-106575408D01*
X166155659Y-106340000D01*
X166155177Y-106334496D01*
X166135063Y-106104596D01*
X166135063Y-106104592D01*
X166073903Y-105876337D01*
X165974035Y-105662171D01*
X165961360Y-105644068D01*
X165838494Y-105468597D01*
X165671402Y-105301506D01*
X165671396Y-105301501D01*
X165485842Y-105171575D01*
X165442217Y-105116998D01*
X165435023Y-105047500D01*
X165466546Y-104985145D01*
X165485842Y-104968425D01*
X165563519Y-104914035D01*
X165671401Y-104838495D01*
X165838495Y-104671401D01*
X165974035Y-104477830D01*
X166073903Y-104263663D01*
X166135063Y-104035408D01*
X166155659Y-103800000D01*
X166152542Y-103764379D01*
X166135063Y-103564596D01*
X166135063Y-103564592D01*
X166073903Y-103336337D01*
X165974035Y-103122171D01*
X165954867Y-103094795D01*
X165838494Y-102928597D01*
X165671402Y-102761506D01*
X165671396Y-102761501D01*
X165485842Y-102631575D01*
X165442217Y-102576998D01*
X165435023Y-102507500D01*
X165466546Y-102445145D01*
X165485842Y-102428425D01*
X165547652Y-102385145D01*
X165671401Y-102298495D01*
X165838495Y-102131401D01*
X165974035Y-101937830D01*
X166073903Y-101723663D01*
X166135063Y-101495408D01*
X166155659Y-101260000D01*
X166135063Y-101024592D01*
X166084943Y-100837539D01*
X166073905Y-100796344D01*
X166073904Y-100796343D01*
X166073903Y-100796337D01*
X165974035Y-100582171D01*
X165962043Y-100565045D01*
X165838496Y-100388600D01*
X165778495Y-100328599D01*
X165716567Y-100266671D01*
X165683084Y-100205351D01*
X165688068Y-100135659D01*
X165729939Y-100079725D01*
X165760915Y-100062810D01*
X165892331Y-100013796D01*
X166007546Y-99927546D01*
X166093796Y-99812331D01*
X166144091Y-99677483D01*
X166150500Y-99617873D01*
X166150499Y-97822128D01*
X166144091Y-97762517D01*
X166143946Y-97762129D01*
X166093797Y-97627671D01*
X166093793Y-97627664D01*
X166007547Y-97512455D01*
X166007544Y-97512452D01*
X165892335Y-97426206D01*
X165892328Y-97426202D01*
X165757483Y-97375908D01*
X165750166Y-97375122D01*
X165685615Y-97348382D01*
X165645768Y-97290989D01*
X165643277Y-97221164D01*
X165675740Y-97164155D01*
X165838495Y-97001401D01*
X165974035Y-96807830D01*
X166073903Y-96593663D01*
X166135063Y-96365408D01*
X166155659Y-96130000D01*
X166154420Y-96115844D01*
X166145146Y-96009835D01*
X166135063Y-95894592D01*
X166079563Y-95687461D01*
X166073905Y-95666344D01*
X166073904Y-95666343D01*
X166073903Y-95666337D01*
X165974035Y-95452171D01*
X165946122Y-95412306D01*
X165838494Y-95258597D01*
X165671402Y-95091506D01*
X165671396Y-95091501D01*
X165485842Y-94961575D01*
X165442217Y-94906998D01*
X165435023Y-94837500D01*
X165466546Y-94775145D01*
X165485842Y-94758425D01*
X165540848Y-94719909D01*
X165671401Y-94628495D01*
X165838495Y-94461401D01*
X165974035Y-94267830D01*
X166073903Y-94053663D01*
X166135063Y-93825408D01*
X166155659Y-93590000D01*
X166135063Y-93354592D01*
X166073903Y-93126337D01*
X165974035Y-92912171D01*
X165956261Y-92886786D01*
X165838494Y-92718597D01*
X165671402Y-92551506D01*
X165671396Y-92551501D01*
X165485842Y-92421575D01*
X165442217Y-92366998D01*
X165435023Y-92297500D01*
X165466546Y-92235145D01*
X165485842Y-92218425D01*
X165547865Y-92174996D01*
X165671401Y-92088495D01*
X165838495Y-91921401D01*
X165974035Y-91727830D01*
X166073903Y-91513663D01*
X166135063Y-91285408D01*
X166155659Y-91050000D01*
X166135063Y-90814592D01*
X166073903Y-90586337D01*
X165974035Y-90372171D01*
X165892135Y-90255204D01*
X165838494Y-90178597D01*
X165671402Y-90011506D01*
X165671396Y-90011501D01*
X165485842Y-89881575D01*
X165442217Y-89826998D01*
X165435023Y-89757500D01*
X165466546Y-89695145D01*
X165485842Y-89678425D01*
X165544233Y-89637539D01*
X165671401Y-89548495D01*
X165838495Y-89381401D01*
X165974035Y-89187830D01*
X166073903Y-88973663D01*
X166135063Y-88745408D01*
X166155659Y-88510000D01*
X166135063Y-88274592D01*
X166081600Y-88075062D01*
X166073905Y-88046344D01*
X166073904Y-88046343D01*
X166073903Y-88046337D01*
X165974035Y-87832171D01*
X165959945Y-87812049D01*
X165838496Y-87638600D01*
X165792588Y-87592692D01*
X165716567Y-87516671D01*
X165683084Y-87455351D01*
X165688068Y-87385659D01*
X165729939Y-87329725D01*
X165760915Y-87312810D01*
X165892331Y-87263796D01*
X166007546Y-87177546D01*
X166093796Y-87062331D01*
X166144091Y-86927483D01*
X166150500Y-86867873D01*
X166150499Y-85072128D01*
X166144596Y-85017211D01*
X166144091Y-85012516D01*
X166093797Y-84877671D01*
X166093793Y-84877664D01*
X166007547Y-84762455D01*
X166007544Y-84762452D01*
X165892335Y-84676206D01*
X165892328Y-84676202D01*
X165757482Y-84625908D01*
X165757483Y-84625908D01*
X165697883Y-84619501D01*
X165697881Y-84619500D01*
X165697873Y-84619500D01*
X165697864Y-84619500D01*
X163902129Y-84619500D01*
X163902123Y-84619501D01*
X163842516Y-84625908D01*
X163707671Y-84676202D01*
X163707664Y-84676206D01*
X163592455Y-84762452D01*
X163592452Y-84762455D01*
X163506206Y-84877664D01*
X163506202Y-84877671D01*
X163455908Y-85012517D01*
X163449579Y-85071395D01*
X163449501Y-85072123D01*
X163449500Y-85072135D01*
X163449500Y-86867870D01*
X163449501Y-86867876D01*
X163455908Y-86927483D01*
X163506202Y-87062328D01*
X163506206Y-87062335D01*
X163592452Y-87177544D01*
X163592455Y-87177547D01*
X163707664Y-87263793D01*
X163707671Y-87263797D01*
X163839081Y-87312810D01*
X163895015Y-87354681D01*
X163919432Y-87420145D01*
X163904580Y-87488418D01*
X163883430Y-87516673D01*
X163761503Y-87638600D01*
X163625965Y-87832169D01*
X163625964Y-87832171D01*
X163526098Y-88046335D01*
X163526094Y-88046344D01*
X163464938Y-88274586D01*
X163464936Y-88274596D01*
X163444341Y-88509999D01*
X163444341Y-88510000D01*
X163464936Y-88745403D01*
X163464938Y-88745413D01*
X163526094Y-88973655D01*
X163526096Y-88973659D01*
X163526097Y-88973663D01*
X163621302Y-89177830D01*
X163625965Y-89187830D01*
X163625967Y-89187834D01*
X163761501Y-89381395D01*
X163761506Y-89381402D01*
X163928597Y-89548493D01*
X163928603Y-89548498D01*
X164114158Y-89678425D01*
X164157783Y-89733002D01*
X164164977Y-89802500D01*
X164133454Y-89864855D01*
X164114158Y-89881575D01*
X163928597Y-90011505D01*
X163761505Y-90178597D01*
X163625965Y-90372169D01*
X163625964Y-90372171D01*
X163526098Y-90586335D01*
X163526094Y-90586344D01*
X163464938Y-90814586D01*
X163464936Y-90814596D01*
X163444341Y-91049999D01*
X163444341Y-91050000D01*
X163464936Y-91285403D01*
X163464938Y-91285413D01*
X163526094Y-91513655D01*
X163526096Y-91513659D01*
X163526097Y-91513663D01*
X163609495Y-91692510D01*
X163625965Y-91727830D01*
X163625967Y-91727834D01*
X163761501Y-91921395D01*
X163761506Y-91921402D01*
X163928597Y-92088493D01*
X163928603Y-92088498D01*
X164114158Y-92218425D01*
X164157783Y-92273002D01*
X164164977Y-92342500D01*
X164133454Y-92404855D01*
X164114158Y-92421575D01*
X163928597Y-92551505D01*
X163761505Y-92718597D01*
X163625965Y-92912169D01*
X163625964Y-92912171D01*
X163526098Y-93126335D01*
X163526094Y-93126344D01*
X163464938Y-93354586D01*
X163464936Y-93354596D01*
X163444341Y-93589999D01*
X163444341Y-93590000D01*
X163464936Y-93825403D01*
X163464938Y-93825413D01*
X163526094Y-94053655D01*
X163526096Y-94053659D01*
X163526097Y-94053663D01*
X163615466Y-94245315D01*
X163625965Y-94267830D01*
X163625967Y-94267834D01*
X163721947Y-94404907D01*
X163754499Y-94451396D01*
X163761501Y-94461395D01*
X163761506Y-94461402D01*
X163928597Y-94628493D01*
X163928603Y-94628498D01*
X164114158Y-94758425D01*
X164157783Y-94813002D01*
X164164977Y-94882500D01*
X164133454Y-94944855D01*
X164114158Y-94961575D01*
X163928597Y-95091505D01*
X163761505Y-95258597D01*
X163625965Y-95452169D01*
X163625964Y-95452171D01*
X163526098Y-95666335D01*
X163526094Y-95666344D01*
X163464938Y-95894586D01*
X163464936Y-95894596D01*
X163444341Y-96129999D01*
X163444341Y-96130000D01*
X163464936Y-96365403D01*
X163464938Y-96365413D01*
X163526094Y-96593655D01*
X163526096Y-96593659D01*
X163526097Y-96593663D01*
X163622312Y-96799996D01*
X163625965Y-96807830D01*
X163625967Y-96807834D01*
X163721949Y-96944909D01*
X163761501Y-97001396D01*
X163761506Y-97001402D01*
X163924255Y-97164151D01*
X163957740Y-97225474D01*
X163952756Y-97295166D01*
X163910884Y-97351099D01*
X163849836Y-97375121D01*
X163842518Y-97375908D01*
X163707671Y-97426202D01*
X163707664Y-97426206D01*
X163592455Y-97512452D01*
X163592452Y-97512455D01*
X163506206Y-97627664D01*
X163506202Y-97627671D01*
X163455908Y-97762517D01*
X163450137Y-97816200D01*
X163449501Y-97822123D01*
X163449500Y-97822135D01*
X163449500Y-99617870D01*
X163449501Y-99617876D01*
X163455908Y-99677483D01*
X163506202Y-99812328D01*
X163506206Y-99812335D01*
X163592452Y-99927544D01*
X163592455Y-99927547D01*
X163707664Y-100013793D01*
X163707671Y-100013797D01*
X163839081Y-100062810D01*
X163895015Y-100104681D01*
X163919432Y-100170145D01*
X163904580Y-100238418D01*
X163883430Y-100266673D01*
X163761503Y-100388600D01*
X163625965Y-100582169D01*
X163625964Y-100582171D01*
X163526098Y-100796335D01*
X163526094Y-100796344D01*
X163464938Y-101024586D01*
X163464936Y-101024596D01*
X163444341Y-101259999D01*
X163444341Y-101260000D01*
X163464936Y-101495403D01*
X163464938Y-101495413D01*
X163526094Y-101723655D01*
X163526096Y-101723659D01*
X163526097Y-101723663D01*
X163597988Y-101877834D01*
X163625965Y-101937830D01*
X163625967Y-101937834D01*
X163722015Y-102075003D01*
X163747770Y-102111786D01*
X163761501Y-102131395D01*
X163761506Y-102131402D01*
X163928597Y-102298493D01*
X163928603Y-102298498D01*
X164114158Y-102428425D01*
X164157783Y-102483002D01*
X164164977Y-102552500D01*
X164133454Y-102614855D01*
X164114158Y-102631575D01*
X163928597Y-102761505D01*
X163761505Y-102928597D01*
X163625965Y-103122169D01*
X163625964Y-103122171D01*
X163526098Y-103336335D01*
X163526094Y-103336344D01*
X163464938Y-103564586D01*
X163464936Y-103564596D01*
X163444341Y-103799999D01*
X163444341Y-103800000D01*
X163464936Y-104035403D01*
X163464938Y-104035413D01*
X163526094Y-104263655D01*
X163526096Y-104263659D01*
X163526097Y-104263663D01*
X163610561Y-104444796D01*
X163625965Y-104477830D01*
X163625967Y-104477834D01*
X163761501Y-104671395D01*
X163761506Y-104671402D01*
X163928597Y-104838493D01*
X163928603Y-104838498D01*
X164114158Y-104968425D01*
X164157783Y-105023002D01*
X164164977Y-105092500D01*
X164133454Y-105154855D01*
X164114158Y-105171575D01*
X163928597Y-105301505D01*
X163761505Y-105468597D01*
X163625965Y-105662169D01*
X163625964Y-105662171D01*
X163526098Y-105876335D01*
X163526094Y-105876344D01*
X163464938Y-106104586D01*
X163464936Y-106104596D01*
X163444341Y-106339999D01*
X163444341Y-106340000D01*
X163464936Y-106575403D01*
X163464938Y-106575413D01*
X163526094Y-106803655D01*
X163526096Y-106803659D01*
X163526097Y-106803663D01*
X163597988Y-106957834D01*
X163625965Y-107017830D01*
X163625967Y-107017834D01*
X163727914Y-107163428D01*
X163744000Y-107186402D01*
X163761501Y-107211395D01*
X163761506Y-107211402D01*
X163928597Y-107378493D01*
X163928603Y-107378498D01*
X164114158Y-107508425D01*
X164157783Y-107563002D01*
X164164977Y-107632500D01*
X164133454Y-107694855D01*
X164114158Y-107711575D01*
X163928597Y-107841505D01*
X163761505Y-108008597D01*
X163625965Y-108202169D01*
X163625964Y-108202171D01*
X163526098Y-108416335D01*
X163526094Y-108416344D01*
X163464938Y-108644586D01*
X163464936Y-108644596D01*
X163444341Y-108879999D01*
X163444341Y-108880000D01*
X163464936Y-109115403D01*
X163464938Y-109115413D01*
X163526094Y-109343655D01*
X163526096Y-109343659D01*
X163526097Y-109343663D01*
X163597988Y-109497834D01*
X163625965Y-109557830D01*
X163625967Y-109557834D01*
X163719493Y-109691402D01*
X163755069Y-109742210D01*
X163761501Y-109751395D01*
X163761506Y-109751402D01*
X163928597Y-109918493D01*
X163928603Y-109918498D01*
X164114158Y-110048425D01*
X164157783Y-110103002D01*
X164164977Y-110172500D01*
X164133454Y-110234855D01*
X164114158Y-110251575D01*
X163928597Y-110381505D01*
X163761505Y-110548597D01*
X163625965Y-110742169D01*
X163625964Y-110742171D01*
X163526098Y-110956335D01*
X163526094Y-110956344D01*
X163464938Y-111184586D01*
X163464936Y-111184596D01*
X163444341Y-111419999D01*
X163444341Y-111420000D01*
X163464936Y-111655403D01*
X163464938Y-111655413D01*
X163526094Y-111883655D01*
X163526096Y-111883659D01*
X163526097Y-111883663D01*
X163597988Y-112037834D01*
X163625965Y-112097830D01*
X163625967Y-112097834D01*
X163761501Y-112291395D01*
X163761506Y-112291402D01*
X163928597Y-112458493D01*
X163928603Y-112458498D01*
X164114158Y-112588425D01*
X164157783Y-112643002D01*
X164164977Y-112712500D01*
X164133454Y-112774855D01*
X164114158Y-112791575D01*
X163928597Y-112921505D01*
X163761505Y-113088597D01*
X163625965Y-113282169D01*
X163625964Y-113282171D01*
X163526098Y-113496335D01*
X163526094Y-113496344D01*
X163464938Y-113724586D01*
X163464936Y-113724596D01*
X163444341Y-113959999D01*
X163444341Y-113960000D01*
X163464936Y-114195403D01*
X163464938Y-114195413D01*
X163526094Y-114423655D01*
X163526096Y-114423659D01*
X163526097Y-114423663D01*
X163616350Y-114617211D01*
X163625965Y-114637830D01*
X163625967Y-114637834D01*
X163658810Y-114684738D01*
X163681137Y-114750944D01*
X163664127Y-114818711D01*
X163613179Y-114866524D01*
X163544469Y-114879202D01*
X163479812Y-114852720D01*
X163469554Y-114843542D01*
X163455204Y-114829192D01*
X163316774Y-114742210D01*
X163162455Y-114688212D01*
X163000004Y-114669909D01*
X162999996Y-114669909D01*
X162837544Y-114688212D01*
X162683225Y-114742210D01*
X162544795Y-114829192D01*
X162429192Y-114944795D01*
X162342210Y-115083225D01*
X162288212Y-115237544D01*
X162269909Y-115399996D01*
X162269909Y-115400003D01*
X162282402Y-115510887D01*
X162270347Y-115579709D01*
X162222998Y-115631088D01*
X162155388Y-115648712D01*
X162088982Y-115626985D01*
X162057607Y-115595894D01*
X162054722Y-115591774D01*
X162038495Y-115568599D01*
X162038493Y-115568597D01*
X162038491Y-115568594D01*
X161871402Y-115401506D01*
X161871396Y-115401501D01*
X161685842Y-115271575D01*
X161642217Y-115216998D01*
X161635023Y-115147500D01*
X161666546Y-115085145D01*
X161685842Y-115068425D01*
X161785715Y-114998493D01*
X161871401Y-114938495D01*
X162038495Y-114771401D01*
X162174035Y-114577830D01*
X162273903Y-114363663D01*
X162335063Y-114135408D01*
X162355659Y-113900000D01*
X162335063Y-113664592D01*
X162279658Y-113457816D01*
X162273905Y-113436344D01*
X162273904Y-113436343D01*
X162273903Y-113436337D01*
X162174035Y-113222171D01*
X162129430Y-113158467D01*
X162038494Y-113028597D01*
X161871402Y-112861506D01*
X161871396Y-112861501D01*
X161685842Y-112731575D01*
X161642217Y-112676998D01*
X161635023Y-112607500D01*
X161666546Y-112545145D01*
X161685842Y-112528425D01*
X161808968Y-112442211D01*
X161871401Y-112398495D01*
X162038495Y-112231401D01*
X162174035Y-112037830D01*
X162273903Y-111823663D01*
X162335063Y-111595408D01*
X162355659Y-111360000D01*
X162335063Y-111124592D01*
X162273903Y-110896337D01*
X162174035Y-110682171D01*
X162174034Y-110682169D01*
X162038494Y-110488597D01*
X161871402Y-110321506D01*
X161871396Y-110321501D01*
X161685842Y-110191575D01*
X161642217Y-110136998D01*
X161635023Y-110067500D01*
X161666546Y-110005145D01*
X161685842Y-109988425D01*
X161714403Y-109968426D01*
X161871401Y-109858495D01*
X162038495Y-109691401D01*
X162174035Y-109497830D01*
X162273903Y-109283663D01*
X162335063Y-109055408D01*
X162355659Y-108820000D01*
X162335063Y-108584592D01*
X162273903Y-108356337D01*
X162174035Y-108142171D01*
X162174034Y-108142169D01*
X162038494Y-107948597D01*
X161871402Y-107781506D01*
X161871396Y-107781501D01*
X161685842Y-107651575D01*
X161642217Y-107596998D01*
X161635023Y-107527500D01*
X161666546Y-107465145D01*
X161685842Y-107448425D01*
X161785715Y-107378493D01*
X161871401Y-107318495D01*
X162038495Y-107151401D01*
X162174035Y-106957830D01*
X162273903Y-106743663D01*
X162335063Y-106515408D01*
X162355659Y-106280000D01*
X162354944Y-106271833D01*
X162339455Y-106094795D01*
X162335063Y-106044592D01*
X162275566Y-105822543D01*
X162273905Y-105816344D01*
X162273904Y-105816343D01*
X162273903Y-105816337D01*
X162174035Y-105602171D01*
X162162016Y-105585005D01*
X162038494Y-105408597D01*
X161871402Y-105241506D01*
X161871396Y-105241501D01*
X161685842Y-105111575D01*
X161642217Y-105056998D01*
X161635023Y-104987500D01*
X161666546Y-104925145D01*
X161685842Y-104908425D01*
X161785715Y-104838493D01*
X161871401Y-104778495D01*
X162038495Y-104611401D01*
X162174035Y-104417830D01*
X162273903Y-104203663D01*
X162335063Y-103975408D01*
X162355659Y-103740000D01*
X162335063Y-103504592D01*
X162273903Y-103276337D01*
X162174035Y-103062171D01*
X162080508Y-102928599D01*
X162038494Y-102868597D01*
X161871402Y-102701506D01*
X161871396Y-102701501D01*
X161685842Y-102571575D01*
X161642217Y-102516998D01*
X161635023Y-102447500D01*
X161666546Y-102385145D01*
X161685842Y-102368425D01*
X161727407Y-102339321D01*
X161871401Y-102238495D01*
X162038495Y-102071401D01*
X162174035Y-101877830D01*
X162273903Y-101663663D01*
X162335063Y-101435408D01*
X162355659Y-101200000D01*
X162335063Y-100964592D01*
X162273903Y-100736337D01*
X162174035Y-100522171D01*
X162167130Y-100512310D01*
X162038496Y-100328600D01*
X161979805Y-100269909D01*
X161916567Y-100206671D01*
X161883084Y-100145351D01*
X161888068Y-100075659D01*
X161929939Y-100019725D01*
X161960915Y-100002810D01*
X162092331Y-99953796D01*
X162207546Y-99867546D01*
X162293796Y-99752331D01*
X162344091Y-99617483D01*
X162350500Y-99557873D01*
X162350499Y-97762128D01*
X162344091Y-97702517D01*
X162338756Y-97688214D01*
X162293797Y-97567671D01*
X162293795Y-97567668D01*
X162252529Y-97512544D01*
X162216421Y-97464309D01*
X162192004Y-97398848D01*
X162206855Y-97330575D01*
X162216416Y-97315696D01*
X162293796Y-97212331D01*
X162344091Y-97077483D01*
X162350500Y-97017873D01*
X162350499Y-95222128D01*
X162344091Y-95162517D01*
X162343818Y-95161786D01*
X162293797Y-95027671D01*
X162293793Y-95027664D01*
X162207547Y-94912455D01*
X162207544Y-94912452D01*
X162092335Y-94826206D01*
X162092328Y-94826202D01*
X161960917Y-94777189D01*
X161904983Y-94735318D01*
X161880566Y-94669853D01*
X161895418Y-94601580D01*
X161916563Y-94573332D01*
X162038495Y-94451401D01*
X162174035Y-94257830D01*
X162273903Y-94043663D01*
X162335063Y-93815408D01*
X162355659Y-93580000D01*
X162335063Y-93344592D01*
X162276584Y-93126344D01*
X162273905Y-93116344D01*
X162273904Y-93116343D01*
X162273903Y-93116337D01*
X162174035Y-92902171D01*
X162163263Y-92886786D01*
X162038494Y-92708597D01*
X161871402Y-92541506D01*
X161871396Y-92541501D01*
X161685842Y-92411575D01*
X161642217Y-92356998D01*
X161635023Y-92287500D01*
X161666546Y-92225145D01*
X161685842Y-92208425D01*
X161857115Y-92088498D01*
X161871401Y-92078495D01*
X162038495Y-91911401D01*
X162174035Y-91717830D01*
X162273903Y-91503663D01*
X162335063Y-91275408D01*
X162355659Y-91040000D01*
X162335063Y-90804592D01*
X162276584Y-90586344D01*
X162273905Y-90576344D01*
X162273904Y-90576343D01*
X162273903Y-90576337D01*
X162174035Y-90362171D01*
X162099137Y-90255204D01*
X162038494Y-90168597D01*
X161871402Y-90001506D01*
X161871396Y-90001501D01*
X161685842Y-89871575D01*
X161642217Y-89816998D01*
X161635023Y-89747500D01*
X161666546Y-89685145D01*
X161685842Y-89668425D01*
X161708026Y-89652891D01*
X161871401Y-89538495D01*
X162038495Y-89371401D01*
X162174035Y-89177830D01*
X162273903Y-88963663D01*
X162335063Y-88735408D01*
X162355659Y-88500000D01*
X162335063Y-88264592D01*
X162286466Y-88083225D01*
X162273905Y-88036344D01*
X162273904Y-88036343D01*
X162273903Y-88036337D01*
X162174035Y-87822171D01*
X162143452Y-87778493D01*
X162038494Y-87628597D01*
X161871402Y-87461506D01*
X161871396Y-87461501D01*
X161685842Y-87331575D01*
X161642217Y-87276998D01*
X161635023Y-87207500D01*
X161666546Y-87145145D01*
X161685842Y-87128425D01*
X161780238Y-87062328D01*
X161871401Y-86998495D01*
X162038495Y-86831401D01*
X162174035Y-86637830D01*
X162273903Y-86423663D01*
X162335063Y-86195408D01*
X162355659Y-85960000D01*
X162335063Y-85724592D01*
X162288626Y-85551285D01*
X162273905Y-85496344D01*
X162273904Y-85496343D01*
X162273903Y-85496337D01*
X162174035Y-85282171D01*
X162169779Y-85276092D01*
X162038494Y-85088597D01*
X161871402Y-84921506D01*
X161871395Y-84921501D01*
X161869121Y-84919909D01*
X161832521Y-84894281D01*
X161677834Y-84785967D01*
X161677830Y-84785965D01*
X161627413Y-84762455D01*
X161463663Y-84686097D01*
X161463659Y-84686096D01*
X161463655Y-84686094D01*
X161235413Y-84624938D01*
X161235403Y-84624936D01*
X161000001Y-84604341D01*
X160999999Y-84604341D01*
X160764596Y-84624936D01*
X160764586Y-84624938D01*
X160536344Y-84686094D01*
X160536335Y-84686098D01*
X160322171Y-84785964D01*
X160322169Y-84785965D01*
X160128597Y-84921505D01*
X159961505Y-85088597D01*
X159825965Y-85282169D01*
X159825964Y-85282171D01*
X159726098Y-85496335D01*
X159726094Y-85496344D01*
X159664938Y-85724586D01*
X159664936Y-85724596D01*
X159644341Y-85959999D01*
X159644341Y-85960000D01*
X159664936Y-86195403D01*
X159664938Y-86195413D01*
X159726094Y-86423655D01*
X159726096Y-86423659D01*
X159726097Y-86423663D01*
X159825965Y-86637830D01*
X159825967Y-86637834D01*
X159961501Y-86831395D01*
X159961506Y-86831402D01*
X160128597Y-86998493D01*
X160128603Y-86998498D01*
X160314158Y-87128425D01*
X160357783Y-87183002D01*
X160364977Y-87252500D01*
X160333454Y-87314855D01*
X160314158Y-87331575D01*
X160128597Y-87461505D01*
X159961505Y-87628597D01*
X159825965Y-87822169D01*
X159825964Y-87822171D01*
X159726098Y-88036335D01*
X159726094Y-88036344D01*
X159664938Y-88264586D01*
X159664936Y-88264596D01*
X159644341Y-88499999D01*
X159644341Y-88500000D01*
X159664936Y-88735403D01*
X159664938Y-88735413D01*
X159726094Y-88963655D01*
X159726096Y-88963659D01*
X159726097Y-88963663D01*
X159784176Y-89088214D01*
X159825965Y-89177830D01*
X159825967Y-89177834D01*
X159961501Y-89371395D01*
X159961506Y-89371402D01*
X160128597Y-89538493D01*
X160128603Y-89538498D01*
X160314158Y-89668425D01*
X160357783Y-89723002D01*
X160364977Y-89792500D01*
X160333454Y-89854855D01*
X160314158Y-89871575D01*
X160128597Y-90001505D01*
X159961505Y-90168597D01*
X159825965Y-90362169D01*
X159825964Y-90362171D01*
X159726098Y-90576335D01*
X159726094Y-90576344D01*
X159664938Y-90804586D01*
X159664936Y-90804596D01*
X159644341Y-91039999D01*
X159644341Y-91040000D01*
X159664936Y-91275403D01*
X159664938Y-91275413D01*
X159726094Y-91503655D01*
X159726096Y-91503659D01*
X159726097Y-91503663D01*
X159742200Y-91538196D01*
X159825965Y-91717830D01*
X159825967Y-91717834D01*
X159961501Y-91911395D01*
X159961506Y-91911402D01*
X160128597Y-92078493D01*
X160128603Y-92078498D01*
X160314158Y-92208425D01*
X160357783Y-92263002D01*
X160364977Y-92332500D01*
X160333454Y-92394855D01*
X160314158Y-92411575D01*
X160128597Y-92541505D01*
X159961505Y-92708597D01*
X159825965Y-92902169D01*
X159825964Y-92902171D01*
X159726098Y-93116335D01*
X159726094Y-93116344D01*
X159664938Y-93344586D01*
X159664936Y-93344596D01*
X159644341Y-93579999D01*
X159644341Y-93580000D01*
X159664936Y-93815403D01*
X159664938Y-93815413D01*
X159726094Y-94043655D01*
X159726096Y-94043659D01*
X159726097Y-94043663D01*
X159804848Y-94212544D01*
X159825965Y-94257830D01*
X159825967Y-94257834D01*
X159934281Y-94412521D01*
X159961501Y-94451396D01*
X159961506Y-94451402D01*
X160083430Y-94573326D01*
X160116915Y-94634649D01*
X160111931Y-94704341D01*
X160070059Y-94760274D01*
X160039083Y-94777189D01*
X159907669Y-94826203D01*
X159907664Y-94826206D01*
X159792455Y-94912452D01*
X159792452Y-94912455D01*
X159706206Y-95027664D01*
X159706202Y-95027671D01*
X159655908Y-95162517D01*
X159649501Y-95222116D01*
X159649501Y-95222123D01*
X159649500Y-95222135D01*
X159649500Y-97017870D01*
X159649501Y-97017876D01*
X159655908Y-97077483D01*
X159706202Y-97212328D01*
X159706203Y-97212330D01*
X159711792Y-97219796D01*
X159780699Y-97311844D01*
X159783578Y-97315689D01*
X159807995Y-97381153D01*
X159793144Y-97449426D01*
X159783578Y-97464311D01*
X159706203Y-97567669D01*
X159706202Y-97567671D01*
X159655908Y-97702517D01*
X159651934Y-97739485D01*
X159649501Y-97762123D01*
X159649500Y-97762135D01*
X159649500Y-99557870D01*
X159649501Y-99557876D01*
X159655908Y-99617483D01*
X159706202Y-99752328D01*
X159706206Y-99752335D01*
X159792452Y-99867544D01*
X159792455Y-99867547D01*
X159907664Y-99953793D01*
X159907671Y-99953797D01*
X160039081Y-100002810D01*
X160095015Y-100044681D01*
X160119432Y-100110145D01*
X160104580Y-100178418D01*
X160083430Y-100206673D01*
X159961503Y-100328600D01*
X159825965Y-100522169D01*
X159825964Y-100522171D01*
X159746239Y-100693143D01*
X159726354Y-100735787D01*
X159726098Y-100736335D01*
X159726094Y-100736344D01*
X159664938Y-100964586D01*
X159664936Y-100964596D01*
X159644341Y-101199999D01*
X159644341Y-101200000D01*
X159664936Y-101435403D01*
X159664938Y-101435413D01*
X159726094Y-101663655D01*
X159726096Y-101663659D01*
X159726097Y-101663663D01*
X159811887Y-101847639D01*
X159825965Y-101877830D01*
X159825967Y-101877834D01*
X159961501Y-102071395D01*
X159961506Y-102071402D01*
X160128597Y-102238493D01*
X160128603Y-102238498D01*
X160314158Y-102368425D01*
X160357783Y-102423002D01*
X160364977Y-102492500D01*
X160333454Y-102554855D01*
X160314158Y-102571575D01*
X160128597Y-102701505D01*
X159961505Y-102868597D01*
X159825965Y-103062169D01*
X159825964Y-103062171D01*
X159726098Y-103276335D01*
X159726094Y-103276344D01*
X159664938Y-103504586D01*
X159664936Y-103504596D01*
X159644341Y-103739999D01*
X159644341Y-103740000D01*
X159664936Y-103975403D01*
X159664938Y-103975413D01*
X159726094Y-104203655D01*
X159726096Y-104203659D01*
X159726097Y-104203663D01*
X159786513Y-104333225D01*
X159825965Y-104417830D01*
X159825967Y-104417834D01*
X159961501Y-104611395D01*
X159961506Y-104611402D01*
X160128597Y-104778493D01*
X160128603Y-104778498D01*
X160314158Y-104908425D01*
X160357783Y-104963002D01*
X160364977Y-105032500D01*
X160333454Y-105094855D01*
X160314158Y-105111575D01*
X160128597Y-105241505D01*
X159961505Y-105408597D01*
X159825965Y-105602169D01*
X159825961Y-105602177D01*
X159800229Y-105657358D01*
X159754056Y-105709797D01*
X159686862Y-105728948D01*
X159619981Y-105708731D01*
X159600167Y-105692633D01*
X158419952Y-104512418D01*
X158386467Y-104451095D01*
X158391451Y-104381403D01*
X158395251Y-104372332D01*
X158413487Y-104333225D01*
X158473903Y-104203663D01*
X158535063Y-103975408D01*
X158555659Y-103740000D01*
X158535063Y-103504592D01*
X158473903Y-103276337D01*
X158374035Y-103062171D01*
X158280508Y-102928599D01*
X158238494Y-102868597D01*
X158071402Y-102701506D01*
X158071396Y-102701501D01*
X157885842Y-102571575D01*
X157842217Y-102516998D01*
X157835023Y-102447500D01*
X157866546Y-102385145D01*
X157885842Y-102368425D01*
X157927407Y-102339321D01*
X158071401Y-102238495D01*
X158238495Y-102071401D01*
X158374035Y-101877830D01*
X158473903Y-101663663D01*
X158535063Y-101435408D01*
X158555659Y-101200000D01*
X158535063Y-100964592D01*
X158473903Y-100736337D01*
X158374035Y-100522171D01*
X158367130Y-100512310D01*
X158238496Y-100328600D01*
X158179805Y-100269909D01*
X158116567Y-100206671D01*
X158083084Y-100145351D01*
X158088068Y-100075659D01*
X158129939Y-100019725D01*
X158160915Y-100002810D01*
X158292331Y-99953796D01*
X158407546Y-99867546D01*
X158493796Y-99752331D01*
X158544091Y-99617483D01*
X158550500Y-99557873D01*
X158550499Y-97762128D01*
X158544091Y-97702517D01*
X158538756Y-97688214D01*
X158493797Y-97567671D01*
X158493793Y-97567664D01*
X158407547Y-97452455D01*
X158407544Y-97452452D01*
X158292335Y-97366206D01*
X158292328Y-97366202D01*
X158157482Y-97315908D01*
X158157483Y-97315908D01*
X158097883Y-97309501D01*
X158097881Y-97309500D01*
X158097873Y-97309500D01*
X158097865Y-97309500D01*
X157561053Y-97309500D01*
X157494014Y-97289815D01*
X157448259Y-97237011D01*
X157438315Y-97167853D01*
X157456062Y-97119524D01*
X157457789Y-97116775D01*
X157471538Y-97077482D01*
X157511786Y-96962461D01*
X157513764Y-96944909D01*
X157530091Y-96800003D01*
X157530091Y-96799996D01*
X157511787Y-96637544D01*
X157511786Y-96637542D01*
X157511786Y-96637539D01*
X157457789Y-96483225D01*
X157370808Y-96344796D01*
X157255204Y-96229192D01*
X157241909Y-96220838D01*
X157116774Y-96142210D01*
X156962455Y-96088212D01*
X156800004Y-96069909D01*
X156799996Y-96069909D01*
X156637544Y-96088212D01*
X156483225Y-96142210D01*
X156344795Y-96229192D01*
X156229192Y-96344795D01*
X156142210Y-96483225D01*
X156088212Y-96637544D01*
X156069909Y-96799996D01*
X156069909Y-96800003D01*
X156088212Y-96962455D01*
X156088213Y-96962460D01*
X156088214Y-96962461D01*
X156093098Y-96976420D01*
X156142210Y-97116775D01*
X156181605Y-97179471D01*
X156200605Y-97246708D01*
X156180237Y-97313543D01*
X156126969Y-97358757D01*
X156119946Y-97361624D01*
X156107673Y-97366201D01*
X156107664Y-97366206D01*
X155992455Y-97452452D01*
X155992452Y-97452455D01*
X155906206Y-97567664D01*
X155906202Y-97567671D01*
X155855908Y-97702517D01*
X155851934Y-97739485D01*
X155849501Y-97762123D01*
X155849500Y-97762135D01*
X155849500Y-99557870D01*
X155849501Y-99557876D01*
X155855908Y-99617483D01*
X155906202Y-99752328D01*
X155906206Y-99752335D01*
X155992452Y-99867544D01*
X155992455Y-99867547D01*
X156107664Y-99953793D01*
X156107671Y-99953797D01*
X156239081Y-100002810D01*
X156295015Y-100044681D01*
X156319432Y-100110145D01*
X156304580Y-100178418D01*
X156283430Y-100206673D01*
X156161503Y-100328600D01*
X156025965Y-100522169D01*
X156025964Y-100522171D01*
X155946239Y-100693143D01*
X155926354Y-100735787D01*
X155926098Y-100736335D01*
X155926094Y-100736344D01*
X155864938Y-100964586D01*
X155864936Y-100964596D01*
X155844341Y-101199999D01*
X155844341Y-101200000D01*
X155864936Y-101435403D01*
X155864938Y-101435413D01*
X155926094Y-101663655D01*
X155926096Y-101663659D01*
X155926097Y-101663663D01*
X156011887Y-101847639D01*
X156025965Y-101877830D01*
X156025967Y-101877834D01*
X156161501Y-102071395D01*
X156161506Y-102071402D01*
X156328597Y-102238493D01*
X156328603Y-102238498D01*
X156514158Y-102368425D01*
X156557783Y-102423002D01*
X156564977Y-102492500D01*
X156533454Y-102554855D01*
X156514158Y-102571575D01*
X156328597Y-102701505D01*
X156161505Y-102868597D01*
X156025965Y-103062169D01*
X156025964Y-103062171D01*
X155989528Y-103140309D01*
X155943355Y-103192748D01*
X155876162Y-103211900D01*
X155809281Y-103191684D01*
X155789465Y-103175585D01*
X151907627Y-99293747D01*
X151874142Y-99232424D01*
X151879126Y-99162732D01*
X151907627Y-99118385D01*
X151909602Y-99116410D01*
X151970925Y-99082925D01*
X151997283Y-99080091D01*
X152000003Y-99080091D01*
X152162455Y-99061787D01*
X152162456Y-99061786D01*
X152162461Y-99061786D01*
X152316775Y-99007789D01*
X152455204Y-98920808D01*
X152570808Y-98805204D01*
X152657789Y-98666775D01*
X152711786Y-98512461D01*
X152711787Y-98512455D01*
X152730091Y-98350003D01*
X152730091Y-98349996D01*
X152711787Y-98187544D01*
X152711786Y-98187542D01*
X152711786Y-98187539D01*
X152657789Y-98033225D01*
X152570808Y-97894796D01*
X152455204Y-97779192D01*
X152428666Y-97762517D01*
X152316774Y-97692210D01*
X152162455Y-97638212D01*
X152000004Y-97619909D01*
X151999996Y-97619909D01*
X151837544Y-97638212D01*
X151683225Y-97692210D01*
X151544795Y-97779192D01*
X151490396Y-97833591D01*
X151429072Y-97867075D01*
X151402715Y-97869909D01*
X151399996Y-97869909D01*
X151237544Y-97888212D01*
X151083225Y-97942210D01*
X150944795Y-98029192D01*
X150881615Y-98092373D01*
X150820292Y-98125858D01*
X150750600Y-98120874D01*
X150706253Y-98092373D01*
X150353367Y-97739487D01*
X150353365Y-97739485D01*
X150287750Y-97701602D01*
X150222136Y-97663719D01*
X150126940Y-97638212D01*
X150075766Y-97624500D01*
X150075765Y-97624500D01*
X146858461Y-97624500D01*
X146792489Y-97605494D01*
X146691774Y-97542210D01*
X146537455Y-97488212D01*
X146375004Y-97469909D01*
X146374996Y-97469909D01*
X146212544Y-97488212D01*
X146058225Y-97542210D01*
X145919795Y-97629192D01*
X145804192Y-97744795D01*
X145717210Y-97883225D01*
X145668812Y-98021541D01*
X145628090Y-98078318D01*
X145563137Y-98104065D01*
X145494576Y-98090609D01*
X145485798Y-98085581D01*
X145416774Y-98042210D01*
X145262455Y-97988212D01*
X145222454Y-97983705D01*
X145158040Y-97956637D01*
X145118486Y-97899042D01*
X145113118Y-97874365D01*
X145112616Y-97869909D01*
X145111786Y-97862539D01*
X145111784Y-97862535D01*
X145111784Y-97862531D01*
X145057790Y-97708227D01*
X145054202Y-97702516D01*
X144970808Y-97569796D01*
X144855204Y-97454192D01*
X144716775Y-97367211D01*
X144562461Y-97313214D01*
X144562459Y-97313213D01*
X144558545Y-97311844D01*
X144501769Y-97271122D01*
X144476022Y-97206169D01*
X144475500Y-97194802D01*
X144475500Y-96076874D01*
X144495185Y-96009835D01*
X144511819Y-95989193D01*
X144512319Y-95988693D01*
X144520808Y-95980204D01*
X144607789Y-95841775D01*
X144661786Y-95687461D01*
X144661787Y-95687455D01*
X144680091Y-95525003D01*
X144680091Y-95524996D01*
X145469909Y-95524996D01*
X145469909Y-95525003D01*
X145488212Y-95687455D01*
X145542210Y-95841774D01*
X145566749Y-95880827D01*
X145629192Y-95980204D01*
X145744796Y-96095808D01*
X145883225Y-96182789D01*
X146037539Y-96236786D01*
X146037542Y-96236786D01*
X146037544Y-96236787D01*
X146199996Y-96255091D01*
X146200000Y-96255091D01*
X146200004Y-96255091D01*
X146362455Y-96236787D01*
X146362456Y-96236786D01*
X146362461Y-96236786D01*
X146516775Y-96182789D01*
X146655204Y-96095808D01*
X146762319Y-95988693D01*
X146823642Y-95955208D01*
X146893334Y-95960192D01*
X146937681Y-95988693D01*
X146969796Y-96020808D01*
X147108225Y-96107789D01*
X147262539Y-96161786D01*
X147262542Y-96161786D01*
X147262544Y-96161787D01*
X147424996Y-96180091D01*
X147425000Y-96180091D01*
X147425004Y-96180091D01*
X147587455Y-96161787D01*
X147587456Y-96161786D01*
X147587461Y-96161786D01*
X147741775Y-96107789D01*
X147880204Y-96020808D01*
X147995808Y-95905204D01*
X148082789Y-95766775D01*
X148136786Y-95612461D01*
X148137521Y-95605940D01*
X148155091Y-95450003D01*
X148155091Y-95449996D01*
X148136787Y-95287544D01*
X148136786Y-95287542D01*
X148136786Y-95287539D01*
X148082789Y-95133225D01*
X147999075Y-94999995D01*
X156469909Y-94999995D01*
X156469909Y-95000003D01*
X156488212Y-95162455D01*
X156542210Y-95316774D01*
X156576162Y-95370808D01*
X156629192Y-95455204D01*
X156744796Y-95570808D01*
X156883225Y-95657789D01*
X157037539Y-95711786D01*
X157037542Y-95711786D01*
X157037544Y-95711787D01*
X157199996Y-95730091D01*
X157200000Y-95730091D01*
X157200004Y-95730091D01*
X157362455Y-95711787D01*
X157362456Y-95711786D01*
X157362461Y-95711786D01*
X157516775Y-95657789D01*
X157655204Y-95570808D01*
X157770808Y-95455204D01*
X157857789Y-95316775D01*
X157911786Y-95162461D01*
X157911862Y-95161786D01*
X157930091Y-95000003D01*
X157930091Y-94999995D01*
X157911787Y-94837544D01*
X157911786Y-94837542D01*
X157911786Y-94837539D01*
X157857789Y-94683225D01*
X157770808Y-94544796D01*
X157655204Y-94429192D01*
X157648537Y-94425003D01*
X157516774Y-94342210D01*
X157362455Y-94288212D01*
X157200004Y-94269909D01*
X157199996Y-94269909D01*
X157037544Y-94288212D01*
X156883225Y-94342210D01*
X156744795Y-94429192D01*
X156629192Y-94544795D01*
X156542210Y-94683225D01*
X156488212Y-94837544D01*
X156469909Y-94999995D01*
X147999075Y-94999995D01*
X147995808Y-94994796D01*
X147880204Y-94879192D01*
X147875453Y-94876207D01*
X147741774Y-94792210D01*
X147587455Y-94738212D01*
X147425004Y-94719909D01*
X147424996Y-94719909D01*
X147399326Y-94722801D01*
X147330505Y-94710746D01*
X147296836Y-94683615D01*
X147295734Y-94684718D01*
X147175206Y-94564190D01*
X147036776Y-94477208D01*
X146882457Y-94423210D01*
X146720006Y-94404907D01*
X146719998Y-94404907D01*
X146557546Y-94423210D01*
X146403227Y-94477208D01*
X146264797Y-94564190D01*
X146149192Y-94679795D01*
X146149191Y-94679797D01*
X146096284Y-94763997D01*
X146043949Y-94810288D01*
X146032246Y-94815065D01*
X145883227Y-94867209D01*
X145744795Y-94954192D01*
X145629192Y-95069795D01*
X145542210Y-95208225D01*
X145488212Y-95362544D01*
X145469909Y-95524996D01*
X144680091Y-95524996D01*
X144661787Y-95362544D01*
X144661786Y-95362542D01*
X144661786Y-95362539D01*
X144607789Y-95208225D01*
X144520808Y-95069796D01*
X144405204Y-94954192D01*
X144365417Y-94929192D01*
X144266774Y-94867210D01*
X144112455Y-94813212D01*
X143950004Y-94794909D01*
X143949996Y-94794909D01*
X143787544Y-94813212D01*
X143633220Y-94867212D01*
X143626953Y-94870231D01*
X143626040Y-94868335D01*
X143568587Y-94884550D01*
X143503922Y-94865552D01*
X143482599Y-94852154D01*
X143466775Y-94842211D01*
X143466773Y-94842210D01*
X143466771Y-94842209D01*
X143312455Y-94788212D01*
X143150004Y-94769909D01*
X143149996Y-94769909D01*
X142987544Y-94788212D01*
X142833225Y-94842210D01*
X142694795Y-94929192D01*
X142579192Y-95044795D01*
X142492210Y-95183225D01*
X142438212Y-95337544D01*
X142419909Y-95499996D01*
X142419909Y-95500003D01*
X142438212Y-95662455D01*
X142492210Y-95816774D01*
X142579192Y-95955204D01*
X142694798Y-96070810D01*
X142766471Y-96115844D01*
X142812763Y-96168178D01*
X142824500Y-96220838D01*
X142824500Y-97711206D01*
X142804815Y-97778245D01*
X142752011Y-97824000D01*
X142682853Y-97833944D01*
X142634528Y-97816200D01*
X142516774Y-97742210D01*
X142362455Y-97688212D01*
X142200004Y-97669909D01*
X142199996Y-97669909D01*
X142037544Y-97688212D01*
X141883225Y-97742210D01*
X141744795Y-97829192D01*
X141629192Y-97944795D01*
X141542210Y-98083225D01*
X141488212Y-98237544D01*
X141469909Y-98399996D01*
X141469909Y-98400003D01*
X141488212Y-98562457D01*
X141542210Y-98716774D01*
X141542213Y-98716779D01*
X141605493Y-98817487D01*
X141624500Y-98883460D01*
X141624500Y-101262298D01*
X141604815Y-101329337D01*
X141552011Y-101375092D01*
X141541454Y-101379340D01*
X141433225Y-101417210D01*
X141294795Y-101504192D01*
X141179192Y-101619795D01*
X141092210Y-101758225D01*
X141038212Y-101912544D01*
X141019909Y-102074996D01*
X141019909Y-102075003D01*
X141038212Y-102237455D01*
X141092210Y-102391774D01*
X141127225Y-102447500D01*
X141179192Y-102530204D01*
X141294796Y-102645808D01*
X141433225Y-102732789D01*
X141587539Y-102786786D01*
X141587542Y-102786786D01*
X141587544Y-102786787D01*
X141714383Y-102801078D01*
X141778797Y-102828144D01*
X141818352Y-102885739D01*
X141824500Y-102924298D01*
X141824500Y-107756335D01*
X141804815Y-107823374D01*
X141752011Y-107869129D01*
X141714384Y-107879555D01*
X141637544Y-107888212D01*
X141483225Y-107942210D01*
X141344795Y-108029192D01*
X141229192Y-108144795D01*
X141142210Y-108283225D01*
X141088212Y-108437544D01*
X141069909Y-108599996D01*
X141069909Y-108600003D01*
X141088212Y-108762455D01*
X141142210Y-108916774D01*
X141229192Y-109055204D01*
X141264422Y-109090434D01*
X141297907Y-109151757D01*
X141292923Y-109221449D01*
X141251051Y-109277382D01*
X141217696Y-109295156D01*
X141083227Y-109342209D01*
X140981835Y-109405918D01*
X140914598Y-109424918D01*
X140847763Y-109404550D01*
X140802549Y-109351282D01*
X140793788Y-109294464D01*
X140792591Y-109294464D01*
X140792591Y-109287496D01*
X140774287Y-109125044D01*
X140774286Y-109125042D01*
X140774286Y-109125039D01*
X140720289Y-108970725D01*
X140633308Y-108832296D01*
X140517704Y-108716692D01*
X140424655Y-108658225D01*
X140379274Y-108629710D01*
X140224955Y-108575712D01*
X140062504Y-108557409D01*
X140062501Y-108557409D01*
X140062500Y-108557409D01*
X140057876Y-108557929D01*
X140050765Y-108558731D01*
X139981943Y-108546674D01*
X139949204Y-108523192D01*
X139902714Y-108476702D01*
X139855204Y-108429192D01*
X139781343Y-108382782D01*
X139716774Y-108342210D01*
X139562455Y-108288212D01*
X139400004Y-108269909D01*
X139399996Y-108269909D01*
X139237544Y-108288212D01*
X139083225Y-108342210D01*
X138944797Y-108429191D01*
X138881556Y-108492432D01*
X138842170Y-108513936D01*
X138838701Y-108529889D01*
X138832768Y-108538819D01*
X138832897Y-108538900D01*
X138829192Y-108544795D01*
X138829192Y-108544796D01*
X138812776Y-108570920D01*
X138742210Y-108683225D01*
X138688212Y-108837544D01*
X138669909Y-108999996D01*
X138669909Y-109000003D01*
X138688212Y-109162455D01*
X138742210Y-109316774D01*
X138813483Y-109430203D01*
X138829192Y-109455204D01*
X138944796Y-109570808D01*
X139083225Y-109657789D01*
X139237539Y-109711786D01*
X139237542Y-109711786D01*
X139237544Y-109711787D01*
X139295923Y-109718365D01*
X139360337Y-109745431D01*
X139399893Y-109803026D01*
X139402030Y-109872863D01*
X139369722Y-109929265D01*
X139329192Y-109969795D01*
X139242210Y-110108225D01*
X139188212Y-110262544D01*
X139169129Y-110431919D01*
X139166364Y-110431607D01*
X139150224Y-110486574D01*
X139097420Y-110532329D01*
X139028262Y-110542273D01*
X138964706Y-110513248D01*
X138958228Y-110507216D01*
X138855204Y-110404192D01*
X138716774Y-110317210D01*
X138562455Y-110263212D01*
X138400004Y-110244909D01*
X138399996Y-110244909D01*
X138368825Y-110248421D01*
X138300003Y-110236366D01*
X138249948Y-110191173D01*
X138237900Y-110171998D01*
X138220808Y-110144796D01*
X138105204Y-110029192D01*
X138101077Y-110026599D01*
X137966774Y-109942210D01*
X137812455Y-109888212D01*
X137650004Y-109869909D01*
X137649996Y-109869909D01*
X137487544Y-109888212D01*
X137333225Y-109942210D01*
X137194795Y-110029192D01*
X137079192Y-110144795D01*
X136992210Y-110283225D01*
X136938212Y-110437544D01*
X136919909Y-110599996D01*
X136919909Y-110600003D01*
X136938212Y-110762455D01*
X136992210Y-110916774D01*
X137017074Y-110956344D01*
X137079192Y-111055204D01*
X137194796Y-111170808D01*
X137333225Y-111257789D01*
X137487539Y-111311786D01*
X137487542Y-111311786D01*
X137487544Y-111311787D01*
X137614383Y-111326078D01*
X137678797Y-111353144D01*
X137718352Y-111410739D01*
X137724500Y-111449298D01*
X137724500Y-112759581D01*
X137704815Y-112826620D01*
X137652011Y-112872375D01*
X137606851Y-112882199D01*
X137606919Y-112882801D01*
X137601041Y-112883463D01*
X137600500Y-112883581D01*
X137599996Y-112883581D01*
X137437544Y-112901884D01*
X137283225Y-112955882D01*
X137144795Y-113042864D01*
X137029192Y-113158467D01*
X136942210Y-113296897D01*
X136888212Y-113451216D01*
X136872286Y-113592563D01*
X136845219Y-113656977D01*
X136787624Y-113696532D01*
X136762950Y-113701899D01*
X136662544Y-113713212D01*
X136508225Y-113767210D01*
X136369795Y-113854192D01*
X136254192Y-113969795D01*
X136167210Y-114108225D01*
X136113212Y-114262544D01*
X136094909Y-114424996D01*
X118100500Y-114424996D01*
X118100500Y-108399996D01*
X126669909Y-108399996D01*
X126669909Y-108400003D01*
X126688212Y-108562455D01*
X126742210Y-108716774D01*
X126828882Y-108854711D01*
X126829192Y-108855204D01*
X126944796Y-108970808D01*
X127083225Y-109057789D01*
X127237539Y-109111786D01*
X127237542Y-109111786D01*
X127237544Y-109111787D01*
X127399996Y-109130091D01*
X127400000Y-109130091D01*
X127400004Y-109130091D01*
X127562455Y-109111787D01*
X127562456Y-109111786D01*
X127562461Y-109111786D01*
X127716775Y-109057789D01*
X127855204Y-108970808D01*
X127970808Y-108855204D01*
X128057789Y-108716775D01*
X128111786Y-108562461D01*
X128111787Y-108562455D01*
X128124458Y-108449996D01*
X131069909Y-108449996D01*
X131069909Y-108450003D01*
X131088212Y-108612455D01*
X131142210Y-108766774D01*
X131229192Y-108905204D01*
X131324545Y-109000557D01*
X131358030Y-109061880D01*
X131353046Y-109131572D01*
X131341858Y-109154209D01*
X131292211Y-109233222D01*
X131238212Y-109387544D01*
X131219909Y-109549996D01*
X131219909Y-109550003D01*
X131238212Y-109712455D01*
X131238213Y-109712460D01*
X131238214Y-109712461D01*
X131240280Y-109718365D01*
X131292210Y-109866774D01*
X131359208Y-109973400D01*
X131378208Y-110040636D01*
X131359209Y-110105341D01*
X131341690Y-110133222D01*
X131287691Y-110287544D01*
X131269388Y-110449996D01*
X131269388Y-110450003D01*
X131287691Y-110612455D01*
X131341690Y-110766776D01*
X131399916Y-110859441D01*
X131418917Y-110926678D01*
X131399917Y-110991386D01*
X131342210Y-111083225D01*
X131288212Y-111237544D01*
X131269909Y-111399996D01*
X131269909Y-111400003D01*
X131288212Y-111562455D01*
X131342210Y-111716774D01*
X131342211Y-111716775D01*
X131429192Y-111855204D01*
X131544796Y-111970808D01*
X131683225Y-112057789D01*
X131837539Y-112111786D01*
X131837542Y-112111786D01*
X131837544Y-112111787D01*
X131999996Y-112130091D01*
X132000000Y-112130091D01*
X132000004Y-112130091D01*
X132162455Y-112111787D01*
X132162456Y-112111786D01*
X132162461Y-112111786D01*
X132316775Y-112057789D01*
X132455204Y-111970808D01*
X132570808Y-111855204D01*
X132657789Y-111716775D01*
X132681156Y-111649996D01*
X133619909Y-111649996D01*
X133619909Y-111650003D01*
X133638212Y-111812455D01*
X133692210Y-111966774D01*
X133733731Y-112032853D01*
X133779192Y-112105204D01*
X133894796Y-112220808D01*
X134033225Y-112307789D01*
X134187539Y-112361786D01*
X134187542Y-112361786D01*
X134187544Y-112361787D01*
X134349996Y-112380091D01*
X134350000Y-112380091D01*
X134350004Y-112380091D01*
X134512455Y-112361787D01*
X134512456Y-112361786D01*
X134512461Y-112361786D01*
X134666775Y-112307789D01*
X134804800Y-112221062D01*
X134872037Y-112202062D01*
X134911725Y-112209013D01*
X135062539Y-112261786D01*
X135062542Y-112261786D01*
X135062544Y-112261787D01*
X135224996Y-112280091D01*
X135225000Y-112280091D01*
X135225004Y-112280091D01*
X135387455Y-112261787D01*
X135387456Y-112261786D01*
X135387461Y-112261786D01*
X135541775Y-112207789D01*
X135680204Y-112120808D01*
X135795808Y-112005204D01*
X135882789Y-111866775D01*
X135936786Y-111712461D01*
X135936787Y-111712455D01*
X135955091Y-111550003D01*
X135955091Y-111549996D01*
X135936787Y-111387544D01*
X135936786Y-111387542D01*
X135936786Y-111387539D01*
X135882789Y-111233225D01*
X135795808Y-111094796D01*
X135680204Y-110979192D01*
X135679800Y-110978938D01*
X135541774Y-110892210D01*
X135387455Y-110838212D01*
X135225004Y-110819909D01*
X135224996Y-110819909D01*
X135062544Y-110838212D01*
X134908225Y-110892210D01*
X134770200Y-110978938D01*
X134702963Y-110997938D01*
X134663274Y-110990986D01*
X134598704Y-110968392D01*
X134512461Y-110938214D01*
X134512460Y-110938213D01*
X134512455Y-110938212D01*
X134350004Y-110919909D01*
X134349996Y-110919909D01*
X134187544Y-110938212D01*
X134033225Y-110992210D01*
X133894795Y-111079192D01*
X133779192Y-111194795D01*
X133692210Y-111333225D01*
X133638212Y-111487544D01*
X133619909Y-111649996D01*
X132681156Y-111649996D01*
X132711786Y-111562461D01*
X132713190Y-111550000D01*
X132730091Y-111400003D01*
X132730091Y-111399996D01*
X132711787Y-111237544D01*
X132711786Y-111237542D01*
X132711786Y-111237539D01*
X132657789Y-111083225D01*
X132599561Y-110990557D01*
X132580561Y-110923321D01*
X132599561Y-110858614D01*
X132657268Y-110766775D01*
X132711265Y-110612461D01*
X132712669Y-110600000D01*
X132729570Y-110450003D01*
X132729570Y-110449996D01*
X132711266Y-110287544D01*
X132711265Y-110287542D01*
X132711265Y-110287539D01*
X132659014Y-110138214D01*
X132657267Y-110133221D01*
X132590271Y-110026599D01*
X132571270Y-109959363D01*
X132590271Y-109894653D01*
X132607789Y-109866775D01*
X132661786Y-109712461D01*
X132661786Y-109712459D01*
X132661787Y-109712457D01*
X132680091Y-109550003D01*
X132680091Y-109549996D01*
X132661787Y-109387542D01*
X132656886Y-109373535D01*
X132624254Y-109280281D01*
X132620692Y-109210506D01*
X132655421Y-109149878D01*
X132700342Y-109122287D01*
X132741775Y-109107789D01*
X132880204Y-109020808D01*
X132995808Y-108905204D01*
X133082789Y-108766775D01*
X133136786Y-108612461D01*
X133137422Y-108606818D01*
X133155091Y-108450003D01*
X133155091Y-108449996D01*
X133136787Y-108287544D01*
X133136786Y-108287542D01*
X133136786Y-108287539D01*
X133082789Y-108133225D01*
X132995808Y-107994796D01*
X132880204Y-107879192D01*
X132847270Y-107858498D01*
X132741774Y-107792210D01*
X132587455Y-107738212D01*
X132425004Y-107719909D01*
X132424996Y-107719909D01*
X132262544Y-107738212D01*
X132153454Y-107776384D01*
X132083675Y-107779945D01*
X132071546Y-107776384D01*
X131962455Y-107738212D01*
X131800004Y-107719909D01*
X131799996Y-107719909D01*
X131637544Y-107738212D01*
X131483225Y-107792210D01*
X131344795Y-107879192D01*
X131229192Y-107994795D01*
X131142210Y-108133225D01*
X131088212Y-108287544D01*
X131069909Y-108449996D01*
X128124458Y-108449996D01*
X128130091Y-108400003D01*
X128130091Y-108399996D01*
X128111787Y-108237544D01*
X128111786Y-108237542D01*
X128111786Y-108237539D01*
X128057789Y-108083225D01*
X127970808Y-107944796D01*
X127855204Y-107829192D01*
X127845945Y-107823374D01*
X127716774Y-107742210D01*
X127562455Y-107688212D01*
X127400004Y-107669909D01*
X127399996Y-107669909D01*
X127237544Y-107688212D01*
X127083225Y-107742210D01*
X126944795Y-107829192D01*
X126829192Y-107944795D01*
X126742210Y-108083225D01*
X126688212Y-108237544D01*
X126669909Y-108399996D01*
X118100500Y-108399996D01*
X118100500Y-105474996D01*
X132744909Y-105474996D01*
X132744909Y-105475003D01*
X132763212Y-105637455D01*
X132817210Y-105791774D01*
X132854632Y-105851330D01*
X132904192Y-105930204D01*
X133019796Y-106045808D01*
X133158225Y-106132789D01*
X133312539Y-106186786D01*
X133312542Y-106186786D01*
X133312544Y-106186787D01*
X133474996Y-106205091D01*
X133475000Y-106205091D01*
X133475004Y-106205091D01*
X133637455Y-106186787D01*
X133637456Y-106186786D01*
X133637461Y-106186786D01*
X133791775Y-106132789D01*
X133930204Y-106045808D01*
X134045808Y-105930204D01*
X134132789Y-105791775D01*
X134186786Y-105637461D01*
X134186819Y-105637171D01*
X134205091Y-105475003D01*
X134205091Y-105474996D01*
X134186787Y-105312544D01*
X134186786Y-105312542D01*
X134186786Y-105312539D01*
X134132789Y-105158225D01*
X134045808Y-105019796D01*
X133930204Y-104904192D01*
X133923537Y-104900003D01*
X133923526Y-104899996D01*
X135169909Y-104899996D01*
X135169909Y-104900003D01*
X135188212Y-105062455D01*
X135242210Y-105216774D01*
X135302041Y-105311993D01*
X135329192Y-105355204D01*
X135444796Y-105470808D01*
X135583225Y-105557789D01*
X135737539Y-105611786D01*
X135737542Y-105611786D01*
X135737544Y-105611787D01*
X135899996Y-105630091D01*
X135899998Y-105630091D01*
X135899998Y-105630090D01*
X135900000Y-105630091D01*
X135923381Y-105627456D01*
X135992200Y-105639509D01*
X136043581Y-105686856D01*
X136061207Y-105754466D01*
X136039483Y-105820873D01*
X135985305Y-105864992D01*
X135978221Y-105867717D01*
X135908226Y-105892209D01*
X135769795Y-105979192D01*
X135654192Y-106094795D01*
X135567210Y-106233225D01*
X135513212Y-106387544D01*
X135494909Y-106549996D01*
X135494909Y-106550003D01*
X135513212Y-106712455D01*
X135549129Y-106815100D01*
X135552690Y-106884879D01*
X135537081Y-106922026D01*
X135467210Y-107033224D01*
X135413212Y-107187544D01*
X135394909Y-107349996D01*
X135394909Y-107350003D01*
X135413212Y-107512455D01*
X135467210Y-107666774D01*
X135543888Y-107788806D01*
X135554192Y-107805204D01*
X135669796Y-107920808D01*
X135808225Y-108007789D01*
X135865878Y-108027962D01*
X135922653Y-108068683D01*
X135948401Y-108133636D01*
X135934945Y-108202198D01*
X135886558Y-108252601D01*
X135865878Y-108262046D01*
X135862540Y-108263213D01*
X135862539Y-108263214D01*
X135793008Y-108287544D01*
X135708224Y-108317211D01*
X135569795Y-108404192D01*
X135454192Y-108519795D01*
X135367210Y-108658225D01*
X135313212Y-108812544D01*
X135294909Y-108974996D01*
X135294909Y-108975003D01*
X135313212Y-109137455D01*
X135367210Y-109291774D01*
X135427387Y-109387544D01*
X135454192Y-109430204D01*
X135569796Y-109545808D01*
X135708225Y-109632789D01*
X135862539Y-109686786D01*
X135862542Y-109686786D01*
X135862544Y-109686787D01*
X136024996Y-109705091D01*
X136025000Y-109705091D01*
X136025004Y-109705091D01*
X136187455Y-109686787D01*
X136187456Y-109686786D01*
X136187461Y-109686786D01*
X136341775Y-109632789D01*
X136480204Y-109545808D01*
X136595808Y-109430204D01*
X136631416Y-109373533D01*
X136683748Y-109327243D01*
X136722523Y-109316285D01*
X136762461Y-109311786D01*
X136762465Y-109311784D01*
X136762468Y-109311784D01*
X136916772Y-109257790D01*
X136916771Y-109257790D01*
X136916775Y-109257789D01*
X137055204Y-109170808D01*
X137170808Y-109055204D01*
X137257789Y-108916775D01*
X137311786Y-108762461D01*
X137320714Y-108683225D01*
X137330091Y-108600003D01*
X137330091Y-108599996D01*
X137311787Y-108437542D01*
X137308865Y-108429191D01*
X137287609Y-108368448D01*
X137284048Y-108298670D01*
X137302927Y-108265711D01*
X137273397Y-108262993D01*
X137218329Y-108219989D01*
X137214099Y-108213692D01*
X137170809Y-108144797D01*
X137055204Y-108029192D01*
X136916774Y-107942210D01*
X136811830Y-107905489D01*
X136769613Y-107875210D01*
X137393653Y-107875210D01*
X137393653Y-107875217D01*
X137411956Y-108037669D01*
X137411957Y-108037674D01*
X137411958Y-108037675D01*
X137425323Y-108075871D01*
X137436134Y-108106765D01*
X137439695Y-108176544D01*
X137420815Y-108209501D01*
X137450345Y-108212220D01*
X137505413Y-108255223D01*
X137509644Y-108261521D01*
X137526417Y-108288214D01*
X137552936Y-108330418D01*
X137668540Y-108446022D01*
X137806969Y-108533003D01*
X137961283Y-108587000D01*
X137961286Y-108587000D01*
X137961288Y-108587001D01*
X138123740Y-108605305D01*
X138123744Y-108605305D01*
X138123748Y-108605305D01*
X138286199Y-108587001D01*
X138286200Y-108587000D01*
X138286205Y-108587000D01*
X138440519Y-108533003D01*
X138578948Y-108446022D01*
X138642190Y-108382779D01*
X138681572Y-108361275D01*
X138685043Y-108345322D01*
X138690976Y-108336395D01*
X138690847Y-108336314D01*
X138694554Y-108330415D01*
X138781533Y-108191989D01*
X138835530Y-108037675D01*
X138836486Y-108029192D01*
X138853835Y-107875217D01*
X138853835Y-107875210D01*
X138835531Y-107712758D01*
X138835530Y-107712756D01*
X138835530Y-107712753D01*
X138781533Y-107558439D01*
X138694552Y-107420010D01*
X138578948Y-107304406D01*
X138440518Y-107217424D01*
X138286199Y-107163426D01*
X138123748Y-107145123D01*
X138123740Y-107145123D01*
X137961288Y-107163426D01*
X137806969Y-107217424D01*
X137668539Y-107304406D01*
X137552936Y-107420009D01*
X137465954Y-107558439D01*
X137411956Y-107712758D01*
X137393653Y-107875210D01*
X136769613Y-107875210D01*
X136755053Y-107864767D01*
X136729306Y-107799814D01*
X136742762Y-107731253D01*
X136747791Y-107722474D01*
X136773873Y-107680965D01*
X136782789Y-107666775D01*
X136836786Y-107512461D01*
X136838174Y-107500145D01*
X136855091Y-107350003D01*
X136855091Y-107349996D01*
X136836787Y-107187544D01*
X136836786Y-107187542D01*
X136836786Y-107187539D01*
X136800869Y-107084897D01*
X136797309Y-107015119D01*
X136812917Y-106977974D01*
X136882789Y-106866775D01*
X136936786Y-106712461D01*
X136952228Y-106575413D01*
X136955091Y-106550003D01*
X136955091Y-106549996D01*
X136936787Y-106387544D01*
X136936786Y-106387542D01*
X136936786Y-106387539D01*
X136882789Y-106233225D01*
X136795808Y-106094796D01*
X136680204Y-105979192D01*
X136652503Y-105961786D01*
X136541774Y-105892210D01*
X136387455Y-105838212D01*
X136225004Y-105819909D01*
X136224996Y-105819909D01*
X136201617Y-105822543D01*
X136132795Y-105810488D01*
X136081416Y-105763139D01*
X136063792Y-105695528D01*
X136085519Y-105629123D01*
X136139698Y-105585005D01*
X136146768Y-105582285D01*
X136216775Y-105557789D01*
X136355204Y-105470808D01*
X136470808Y-105355204D01*
X136557789Y-105216775D01*
X136611786Y-105062461D01*
X136616232Y-105023002D01*
X136630091Y-104900003D01*
X136630091Y-104899996D01*
X136611787Y-104737544D01*
X136611786Y-104737542D01*
X136611786Y-104737539D01*
X136557789Y-104583225D01*
X136470808Y-104444796D01*
X136355204Y-104329192D01*
X136216774Y-104242210D01*
X136062455Y-104188212D01*
X135900004Y-104169909D01*
X135899996Y-104169909D01*
X135737544Y-104188212D01*
X135583225Y-104242210D01*
X135444795Y-104329192D01*
X135329192Y-104444795D01*
X135242210Y-104583225D01*
X135188212Y-104737544D01*
X135169909Y-104899996D01*
X133923526Y-104899996D01*
X133791774Y-104817210D01*
X133637455Y-104763212D01*
X133475004Y-104744909D01*
X133474996Y-104744909D01*
X133312544Y-104763212D01*
X133158225Y-104817210D01*
X133019795Y-104904192D01*
X132904192Y-105019795D01*
X132817210Y-105158225D01*
X132763212Y-105312544D01*
X132744909Y-105474996D01*
X118100500Y-105474996D01*
X118100500Y-103549996D01*
X132119909Y-103549996D01*
X132119909Y-103550003D01*
X132138212Y-103712455D01*
X132192210Y-103866774D01*
X132271027Y-103992210D01*
X132279192Y-104005204D01*
X132394796Y-104120808D01*
X132533225Y-104207789D01*
X132687539Y-104261786D01*
X132687542Y-104261786D01*
X132687544Y-104261787D01*
X132849996Y-104280091D01*
X132850000Y-104280091D01*
X132850004Y-104280091D01*
X133012455Y-104261787D01*
X133012456Y-104261786D01*
X133012461Y-104261786D01*
X133166775Y-104207789D01*
X133305204Y-104120808D01*
X133420808Y-104005204D01*
X133507789Y-103866775D01*
X133561786Y-103712461D01*
X133567810Y-103658996D01*
X133580091Y-103550003D01*
X133580091Y-103549996D01*
X133561787Y-103387544D01*
X133561786Y-103387542D01*
X133561786Y-103387539D01*
X133507789Y-103233225D01*
X133420808Y-103094796D01*
X133305204Y-102979192D01*
X133198993Y-102912455D01*
X133166774Y-102892210D01*
X133012455Y-102838212D01*
X132850004Y-102819909D01*
X132849996Y-102819909D01*
X132687544Y-102838212D01*
X132533225Y-102892210D01*
X132394795Y-102979192D01*
X132279192Y-103094795D01*
X132192210Y-103233225D01*
X132138212Y-103387544D01*
X132119909Y-103549996D01*
X118100500Y-103549996D01*
X118100500Y-100999996D01*
X119469909Y-100999996D01*
X119469909Y-101000003D01*
X119488212Y-101162455D01*
X119542210Y-101316774D01*
X119605319Y-101417210D01*
X119629192Y-101455204D01*
X119744796Y-101570808D01*
X119883225Y-101657789D01*
X119883232Y-101657791D01*
X119883936Y-101658131D01*
X119884316Y-101658474D01*
X119889122Y-101661494D01*
X119888593Y-101662335D01*
X119935799Y-101704949D01*
X119941864Y-101716055D01*
X119942210Y-101716774D01*
X119968256Y-101758225D01*
X120029192Y-101855204D01*
X120144796Y-101970808D01*
X120283225Y-102057789D01*
X120437539Y-102111786D01*
X120437542Y-102111786D01*
X120437544Y-102111787D01*
X120599996Y-102130091D01*
X120600000Y-102130091D01*
X120600004Y-102130091D01*
X120762455Y-102111787D01*
X120762456Y-102111786D01*
X120762461Y-102111786D01*
X120916775Y-102057789D01*
X121055204Y-101970808D01*
X121170808Y-101855204D01*
X121257789Y-101716775D01*
X121257793Y-101716762D01*
X121258125Y-101716074D01*
X121258467Y-101715694D01*
X121261494Y-101710878D01*
X121262336Y-101711407D01*
X121304938Y-101664206D01*
X121316074Y-101658125D01*
X121316762Y-101657793D01*
X121316775Y-101657789D01*
X121455204Y-101570808D01*
X121570808Y-101455204D01*
X121657789Y-101316775D01*
X121711786Y-101162461D01*
X121714784Y-101135853D01*
X121730091Y-101000003D01*
X121730091Y-100999996D01*
X121711787Y-100837544D01*
X121711786Y-100837542D01*
X121711786Y-100837539D01*
X121657789Y-100683225D01*
X121570808Y-100544796D01*
X121455204Y-100429192D01*
X121316775Y-100342211D01*
X121174894Y-100292564D01*
X121118119Y-100251843D01*
X121092372Y-100186890D01*
X121105828Y-100118328D01*
X121128167Y-100087844D01*
X121160808Y-100055204D01*
X121247789Y-99916775D01*
X121301786Y-99762461D01*
X121302927Y-99752335D01*
X121320091Y-99600003D01*
X121320091Y-99599996D01*
X121301787Y-99437544D01*
X121301786Y-99437542D01*
X121301786Y-99437539D01*
X121247789Y-99283225D01*
X121160808Y-99144796D01*
X121045204Y-99029192D01*
X120906774Y-98942210D01*
X120786132Y-98899996D01*
X132669909Y-98899996D01*
X132669909Y-98900003D01*
X132688212Y-99062455D01*
X132688213Y-99062460D01*
X132688214Y-99062461D01*
X132726126Y-99170808D01*
X132742211Y-99216775D01*
X132746255Y-99223212D01*
X132765251Y-99290450D01*
X132758300Y-99330132D01*
X132738213Y-99387539D01*
X132738213Y-99387540D01*
X132719909Y-99549996D01*
X132719909Y-99550003D01*
X132738212Y-99712455D01*
X132792210Y-99866775D01*
X132792803Y-99868005D01*
X132792946Y-99868879D01*
X132794511Y-99873349D01*
X132793728Y-99873622D01*
X132804158Y-99936946D01*
X132798128Y-99962759D01*
X132763214Y-100062539D01*
X132763212Y-100062546D01*
X132744909Y-100224996D01*
X132744909Y-100225003D01*
X132763212Y-100387455D01*
X132763213Y-100387460D01*
X132763214Y-100387461D01*
X132770379Y-100407939D01*
X132817210Y-100541774D01*
X132853794Y-100599996D01*
X132904192Y-100680204D01*
X133019796Y-100795808D01*
X133158225Y-100882789D01*
X133312539Y-100936786D01*
X133312542Y-100936786D01*
X133312544Y-100936787D01*
X133474996Y-100955091D01*
X133475000Y-100955091D01*
X133475004Y-100955091D01*
X133637455Y-100936787D01*
X133637456Y-100936786D01*
X133637461Y-100936786D01*
X133791775Y-100882789D01*
X133930204Y-100795808D01*
X134045808Y-100680204D01*
X134132789Y-100541775D01*
X134186786Y-100387461D01*
X134188316Y-100373881D01*
X134196641Y-100299996D01*
X135269909Y-100299996D01*
X135269909Y-100300003D01*
X135288212Y-100462455D01*
X135342210Y-100616774D01*
X135416991Y-100735787D01*
X135429192Y-100755204D01*
X135544796Y-100870808D01*
X135683225Y-100957789D01*
X135758424Y-100984102D01*
X135815200Y-101024823D01*
X135840948Y-101089776D01*
X135840690Y-101115027D01*
X135838344Y-101135849D01*
X135838344Y-101135856D01*
X135856647Y-101298308D01*
X135910645Y-101452627D01*
X135942415Y-101503188D01*
X135997627Y-101591057D01*
X136113231Y-101706661D01*
X136251660Y-101793642D01*
X136405974Y-101847639D01*
X136405977Y-101847639D01*
X136405979Y-101847640D01*
X136568431Y-101865944D01*
X136568435Y-101865944D01*
X136568439Y-101865944D01*
X136730890Y-101847640D01*
X136730891Y-101847639D01*
X136730896Y-101847639D01*
X136885210Y-101793642D01*
X137023639Y-101706661D01*
X137139243Y-101591057D01*
X137226224Y-101452628D01*
X137280221Y-101298314D01*
X137280222Y-101298308D01*
X137298526Y-101135856D01*
X137298526Y-101135849D01*
X137280222Y-100973397D01*
X137280221Y-100973395D01*
X137280221Y-100973392D01*
X137226224Y-100819078D01*
X137139243Y-100680649D01*
X137058590Y-100599996D01*
X137669909Y-100599996D01*
X137669909Y-100600003D01*
X137688212Y-100762455D01*
X137742210Y-100916774D01*
X137809953Y-101024586D01*
X137829192Y-101055204D01*
X137944796Y-101170808D01*
X138083225Y-101257789D01*
X138237539Y-101311786D01*
X138237542Y-101311786D01*
X138237544Y-101311787D01*
X138399996Y-101330091D01*
X138400000Y-101330091D01*
X138400004Y-101330091D01*
X138562455Y-101311787D01*
X138562456Y-101311786D01*
X138562461Y-101311786D01*
X138716775Y-101257789D01*
X138855204Y-101170808D01*
X138970808Y-101055204D01*
X139057789Y-100916775D01*
X139111786Y-100762461D01*
X139112957Y-100752070D01*
X139130091Y-100600003D01*
X139130091Y-100599996D01*
X139111787Y-100437544D01*
X139111786Y-100437542D01*
X139111786Y-100437539D01*
X139057789Y-100283225D01*
X138970808Y-100144796D01*
X138855204Y-100029192D01*
X138830703Y-100013797D01*
X138716774Y-99942210D01*
X138562455Y-99888212D01*
X138400004Y-99869909D01*
X138399996Y-99869909D01*
X138237544Y-99888212D01*
X138083225Y-99942210D01*
X137944795Y-100029192D01*
X137829192Y-100144795D01*
X137742210Y-100283225D01*
X137688212Y-100437544D01*
X137669909Y-100599996D01*
X137058590Y-100599996D01*
X137023639Y-100565045D01*
X136885210Y-100478064D01*
X136810008Y-100451749D01*
X136753233Y-100411028D01*
X136727486Y-100346075D01*
X136727743Y-100320830D01*
X136730091Y-100300000D01*
X136729837Y-100297750D01*
X136711787Y-100137544D01*
X136711786Y-100137542D01*
X136711786Y-100137539D01*
X136657789Y-99983225D01*
X136570808Y-99844796D01*
X136455204Y-99729192D01*
X136372910Y-99677483D01*
X136316774Y-99642210D01*
X136162455Y-99588212D01*
X136000004Y-99569909D01*
X135999996Y-99569909D01*
X135837544Y-99588212D01*
X135683225Y-99642210D01*
X135544795Y-99729192D01*
X135429192Y-99844795D01*
X135342210Y-99983225D01*
X135288212Y-100137544D01*
X135269909Y-100299996D01*
X134196641Y-100299996D01*
X134205091Y-100225003D01*
X134205091Y-100224996D01*
X134186787Y-100062542D01*
X134184885Y-100057106D01*
X134132789Y-99908225D01*
X134132785Y-99908218D01*
X134132196Y-99906995D01*
X134132051Y-99906117D01*
X134130489Y-99901652D01*
X134131270Y-99901378D01*
X134120841Y-99838054D01*
X134126870Y-99812242D01*
X134161786Y-99712461D01*
X134165727Y-99677483D01*
X134180091Y-99550003D01*
X134180091Y-99549996D01*
X134161787Y-99387544D01*
X134161786Y-99387540D01*
X134161786Y-99387539D01*
X134107789Y-99233225D01*
X134107788Y-99233222D01*
X134103746Y-99226789D01*
X134084746Y-99159553D01*
X134091697Y-99119869D01*
X134111786Y-99062461D01*
X134125335Y-98942210D01*
X134130091Y-98900003D01*
X134130091Y-98899998D01*
X134130091Y-98899996D01*
X136769909Y-98899996D01*
X136769909Y-98900003D01*
X136788212Y-99062455D01*
X136842210Y-99216774D01*
X136848503Y-99226789D01*
X136929192Y-99355204D01*
X137044796Y-99470808D01*
X137183225Y-99557789D01*
X137337539Y-99611786D01*
X137337542Y-99611786D01*
X137337544Y-99611787D01*
X137499996Y-99630091D01*
X137500000Y-99630091D01*
X137500004Y-99630091D01*
X137662455Y-99611787D01*
X137662456Y-99611786D01*
X137662461Y-99611786D01*
X137816775Y-99557789D01*
X137955204Y-99470808D01*
X138070808Y-99355204D01*
X138157789Y-99216775D01*
X138211786Y-99062461D01*
X138225335Y-98942210D01*
X138230091Y-98900003D01*
X138230091Y-98899996D01*
X138211787Y-98737544D01*
X138211786Y-98737542D01*
X138211786Y-98737539D01*
X138157789Y-98583225D01*
X138070808Y-98444796D01*
X137955204Y-98329192D01*
X137822500Y-98245808D01*
X137816774Y-98242210D01*
X137662455Y-98188212D01*
X137500004Y-98169909D01*
X137499996Y-98169909D01*
X137337544Y-98188212D01*
X137183225Y-98242210D01*
X137044795Y-98329192D01*
X136929192Y-98444795D01*
X136842210Y-98583225D01*
X136788212Y-98737544D01*
X136769909Y-98899996D01*
X134130091Y-98899996D01*
X134128534Y-98886181D01*
X134140588Y-98817359D01*
X134176635Y-98777505D01*
X134174758Y-98775151D01*
X134180198Y-98770811D01*
X134180204Y-98770808D01*
X134295808Y-98655204D01*
X134382789Y-98516775D01*
X134397032Y-98476069D01*
X134437752Y-98419293D01*
X134500192Y-98393802D01*
X134562455Y-98386787D01*
X134562457Y-98386786D01*
X134562461Y-98386786D01*
X134562464Y-98386784D01*
X134562468Y-98386784D01*
X134716772Y-98332790D01*
X134716771Y-98332790D01*
X134716775Y-98332789D01*
X134855204Y-98245808D01*
X134970808Y-98130204D01*
X135036915Y-98024996D01*
X138694909Y-98024996D01*
X138694909Y-98025003D01*
X138713212Y-98187455D01*
X138713213Y-98187460D01*
X138713214Y-98187461D01*
X138717600Y-98199996D01*
X138767210Y-98341774D01*
X138772379Y-98350000D01*
X138854192Y-98480204D01*
X138969796Y-98595808D01*
X139108225Y-98682789D01*
X139262539Y-98736786D01*
X139262542Y-98736786D01*
X139262544Y-98736787D01*
X139424996Y-98755091D01*
X139425000Y-98755091D01*
X139425004Y-98755091D01*
X139587455Y-98736787D01*
X139587456Y-98736786D01*
X139587461Y-98736786D01*
X139741775Y-98682789D01*
X139880204Y-98595808D01*
X139995808Y-98480204D01*
X140082789Y-98341775D01*
X140136786Y-98187461D01*
X140138764Y-98169909D01*
X140155091Y-98025003D01*
X140155091Y-98024996D01*
X140136787Y-97862544D01*
X140136786Y-97862542D01*
X140136786Y-97862539D01*
X140082789Y-97708225D01*
X139995808Y-97569796D01*
X139880204Y-97454192D01*
X139835662Y-97426204D01*
X139741774Y-97367210D01*
X139587455Y-97313212D01*
X139425004Y-97294909D01*
X139424996Y-97294909D01*
X139262544Y-97313212D01*
X139108225Y-97367210D01*
X138969795Y-97454192D01*
X138854192Y-97569795D01*
X138767210Y-97708225D01*
X138713212Y-97862544D01*
X138694909Y-98024996D01*
X135036915Y-98024996D01*
X135057789Y-97991775D01*
X135111786Y-97837461D01*
X135111787Y-97837455D01*
X135130091Y-97675003D01*
X135130091Y-97674996D01*
X135111787Y-97512544D01*
X135111786Y-97512542D01*
X135111786Y-97512539D01*
X135057789Y-97358225D01*
X134970808Y-97219796D01*
X134855204Y-97104192D01*
X134812697Y-97077483D01*
X134716774Y-97017210D01*
X134562455Y-96963212D01*
X134400004Y-96944909D01*
X134399996Y-96944909D01*
X134237544Y-96963212D01*
X134083225Y-97017210D01*
X133944795Y-97104192D01*
X133829192Y-97219795D01*
X133742212Y-97358222D01*
X133727966Y-97398934D01*
X133687243Y-97455709D01*
X133624809Y-97481197D01*
X133562544Y-97488212D01*
X133408225Y-97542210D01*
X133269795Y-97629192D01*
X133154192Y-97744795D01*
X133067210Y-97883225D01*
X133013212Y-98037544D01*
X132994909Y-98199996D01*
X132994909Y-98200000D01*
X132996466Y-98213824D01*
X132984408Y-98282646D01*
X132948413Y-98322561D01*
X132950239Y-98324851D01*
X132944797Y-98329190D01*
X132829191Y-98444797D01*
X132742210Y-98583225D01*
X132688212Y-98737544D01*
X132669909Y-98899996D01*
X120786132Y-98899996D01*
X120752455Y-98888212D01*
X120590004Y-98869909D01*
X120589996Y-98869909D01*
X120427544Y-98888212D01*
X120273225Y-98942210D01*
X120134795Y-99029192D01*
X120019192Y-99144795D01*
X119932210Y-99283225D01*
X119878212Y-99437544D01*
X119859909Y-99599996D01*
X119859909Y-99600003D01*
X119878212Y-99762455D01*
X119932210Y-99916774D01*
X120019192Y-100055204D01*
X120057015Y-100093027D01*
X120090500Y-100154350D01*
X120085516Y-100224042D01*
X120043644Y-100279975D01*
X120010290Y-100297748D01*
X119972200Y-100311077D01*
X119883225Y-100342210D01*
X119744795Y-100429192D01*
X119629192Y-100544795D01*
X119542210Y-100683225D01*
X119488212Y-100837544D01*
X119469909Y-100999996D01*
X118100500Y-100999996D01*
X118100500Y-95150732D01*
X123869173Y-95150732D01*
X123869173Y-95150739D01*
X123887476Y-95313191D01*
X123887477Y-95313196D01*
X123887478Y-95313197D01*
X123888728Y-95316768D01*
X123941474Y-95467510D01*
X123969768Y-95512539D01*
X124028456Y-95605940D01*
X124144060Y-95721544D01*
X124282489Y-95808525D01*
X124436803Y-95862522D01*
X124436806Y-95862522D01*
X124436808Y-95862523D01*
X124599260Y-95880827D01*
X124599264Y-95880827D01*
X124599268Y-95880827D01*
X124761719Y-95862523D01*
X124761720Y-95862522D01*
X124761725Y-95862522D01*
X124916039Y-95808525D01*
X125054468Y-95721544D01*
X125170072Y-95605940D01*
X125257053Y-95467511D01*
X125311050Y-95313197D01*
X125311051Y-95313191D01*
X125329355Y-95150739D01*
X125329355Y-95150732D01*
X125311051Y-94988280D01*
X125311050Y-94988278D01*
X125311050Y-94988275D01*
X125257053Y-94833961D01*
X125235711Y-94799996D01*
X130869909Y-94799996D01*
X130869909Y-94800003D01*
X130888212Y-94962455D01*
X130888213Y-94962460D01*
X130888214Y-94962461D01*
X130895379Y-94982939D01*
X130942210Y-95116774D01*
X131008413Y-95222135D01*
X131029192Y-95255204D01*
X131144796Y-95370808D01*
X131283225Y-95457789D01*
X131437539Y-95511786D01*
X131437542Y-95511786D01*
X131437544Y-95511787D01*
X131599996Y-95530091D01*
X131600000Y-95530091D01*
X131600004Y-95530091D01*
X131762455Y-95511787D01*
X131762456Y-95511786D01*
X131762461Y-95511786D01*
X131916775Y-95457789D01*
X132055204Y-95370808D01*
X132170808Y-95255204D01*
X132257789Y-95116775D01*
X132311786Y-94962461D01*
X132312718Y-94954192D01*
X132330091Y-94800003D01*
X132330091Y-94799996D01*
X132318882Y-94700516D01*
X132569389Y-94700516D01*
X132569389Y-94700523D01*
X132587692Y-94862975D01*
X132587693Y-94862980D01*
X132587694Y-94862981D01*
X132594524Y-94882500D01*
X132641690Y-95017294D01*
X132696292Y-95104192D01*
X132728672Y-95155724D01*
X132844276Y-95271328D01*
X132982705Y-95358309D01*
X133137019Y-95412306D01*
X133137022Y-95412306D01*
X133137024Y-95412307D01*
X133299476Y-95430611D01*
X133299480Y-95430611D01*
X133299484Y-95430611D01*
X133461935Y-95412307D01*
X133461936Y-95412306D01*
X133461941Y-95412306D01*
X133616255Y-95358309D01*
X133754684Y-95271328D01*
X133754684Y-95271327D01*
X133760580Y-95267623D01*
X133761598Y-95269244D01*
X133817460Y-95246428D01*
X133886158Y-95259172D01*
X133937059Y-95307034D01*
X133941825Y-95315976D01*
X133942206Y-95316768D01*
X133976162Y-95370808D01*
X134029192Y-95455204D01*
X134144796Y-95570808D01*
X134283225Y-95657789D01*
X134437539Y-95711786D01*
X134437542Y-95711786D01*
X134437544Y-95711787D01*
X134599996Y-95730091D01*
X134600000Y-95730091D01*
X134600004Y-95730091D01*
X134762457Y-95711787D01*
X134762459Y-95711786D01*
X134762461Y-95711786D01*
X134859045Y-95677988D01*
X134928823Y-95674426D01*
X134940953Y-95677988D01*
X134968024Y-95687461D01*
X135037542Y-95711787D01*
X135199996Y-95730091D01*
X135200000Y-95730091D01*
X135200004Y-95730091D01*
X135362455Y-95711787D01*
X135362456Y-95711786D01*
X135362461Y-95711786D01*
X135467600Y-95674996D01*
X137169909Y-95674996D01*
X137169909Y-95675003D01*
X137188212Y-95837455D01*
X137242210Y-95991774D01*
X137302808Y-96088214D01*
X137329192Y-96130204D01*
X137444796Y-96245808D01*
X137583225Y-96332789D01*
X137737539Y-96386786D01*
X137737542Y-96386786D01*
X137737544Y-96386787D01*
X137899996Y-96405091D01*
X137900000Y-96405091D01*
X137900004Y-96405091D01*
X138062455Y-96386787D01*
X138062456Y-96386786D01*
X138062461Y-96386786D01*
X138216775Y-96332789D01*
X138355204Y-96245808D01*
X138470808Y-96130204D01*
X138557789Y-95991775D01*
X138611786Y-95837461D01*
X138614117Y-95816774D01*
X138630091Y-95675003D01*
X138630091Y-95674996D01*
X138611787Y-95512544D01*
X138611786Y-95512542D01*
X138611786Y-95512539D01*
X138557789Y-95358225D01*
X138474505Y-95225680D01*
X138455505Y-95158445D01*
X138475872Y-95091610D01*
X138529140Y-95046395D01*
X138538546Y-95042667D01*
X138566773Y-95032790D01*
X138574931Y-95027664D01*
X138705204Y-94945808D01*
X138746304Y-94904707D01*
X138807625Y-94871223D01*
X138877316Y-94876207D01*
X138933250Y-94918077D01*
X138938978Y-94926417D01*
X138985215Y-95000003D01*
X139004192Y-95030204D01*
X139119796Y-95145808D01*
X139258225Y-95232789D01*
X139412539Y-95286786D01*
X139412542Y-95286786D01*
X139412544Y-95286787D01*
X139574996Y-95305091D01*
X139575000Y-95305091D01*
X139575004Y-95305091D01*
X139737455Y-95286787D01*
X139737456Y-95286786D01*
X139737461Y-95286786D01*
X139891775Y-95232789D01*
X140030204Y-95145808D01*
X140090911Y-95085101D01*
X140152234Y-95051616D01*
X140221926Y-95056600D01*
X140244563Y-95067787D01*
X140308225Y-95107789D01*
X140462539Y-95161786D01*
X140462542Y-95161786D01*
X140462544Y-95161787D01*
X140624996Y-95180091D01*
X140625000Y-95180091D01*
X140625004Y-95180091D01*
X140787455Y-95161787D01*
X140787456Y-95161786D01*
X140787461Y-95161786D01*
X140941775Y-95107789D01*
X141080204Y-95020808D01*
X141195808Y-94905204D01*
X141282789Y-94766775D01*
X141336786Y-94612461D01*
X141339603Y-94587461D01*
X141355091Y-94450003D01*
X141355091Y-94449996D01*
X141336787Y-94287544D01*
X141336786Y-94287542D01*
X141336786Y-94287539D01*
X141282789Y-94133225D01*
X141195808Y-93994796D01*
X141080204Y-93879192D01*
X141011893Y-93836269D01*
X140941774Y-93792210D01*
X140787455Y-93738212D01*
X140625004Y-93719909D01*
X140624996Y-93719909D01*
X140462544Y-93738212D01*
X140308225Y-93792210D01*
X140169797Y-93879191D01*
X140109089Y-93939899D01*
X140047765Y-93973383D01*
X139978074Y-93968398D01*
X139955437Y-93957211D01*
X139891777Y-93917211D01*
X139737455Y-93863212D01*
X139575004Y-93844909D01*
X139574996Y-93844909D01*
X139412544Y-93863212D01*
X139258224Y-93917210D01*
X139148225Y-93986328D01*
X139080988Y-94005328D01*
X139014153Y-93984960D01*
X138968939Y-93931692D01*
X138959702Y-93862436D01*
X138977260Y-93815361D01*
X139007789Y-93766775D01*
X139017783Y-93738214D01*
X139061786Y-93612461D01*
X139064317Y-93589999D01*
X139080091Y-93450003D01*
X139080091Y-93449996D01*
X139061787Y-93287544D01*
X139061786Y-93287542D01*
X139061786Y-93287539D01*
X139013657Y-93149996D01*
X141069909Y-93149996D01*
X141069909Y-93150003D01*
X141088212Y-93312455D01*
X141142210Y-93466774D01*
X141202331Y-93562455D01*
X141229192Y-93605204D01*
X141344796Y-93720808D01*
X141483225Y-93807789D01*
X141637539Y-93861786D01*
X141637542Y-93861786D01*
X141637544Y-93861787D01*
X141799996Y-93880091D01*
X141800000Y-93880091D01*
X141800004Y-93880091D01*
X141962455Y-93861787D01*
X141962456Y-93861786D01*
X141962461Y-93861786D01*
X142116775Y-93807789D01*
X142255204Y-93720808D01*
X142299819Y-93676193D01*
X142361142Y-93642708D01*
X142430834Y-93647692D01*
X142475181Y-93676193D01*
X142544796Y-93745808D01*
X142683225Y-93832789D01*
X142837539Y-93886786D01*
X142837542Y-93886786D01*
X142837544Y-93886787D01*
X142999996Y-93905091D01*
X143000000Y-93905091D01*
X143000004Y-93905091D01*
X143162455Y-93886787D01*
X143162456Y-93886786D01*
X143162461Y-93886786D01*
X143316775Y-93832789D01*
X143455204Y-93745808D01*
X143570808Y-93630204D01*
X143657789Y-93491775D01*
X143711786Y-93337461D01*
X143714604Y-93312455D01*
X143730091Y-93175003D01*
X143730091Y-93174996D01*
X143711787Y-93012544D01*
X143711786Y-93012542D01*
X143711786Y-93012539D01*
X143657789Y-92858225D01*
X143570808Y-92719796D01*
X143455204Y-92604192D01*
X143371355Y-92551506D01*
X143316774Y-92517210D01*
X143162455Y-92463212D01*
X143000004Y-92444909D01*
X142999996Y-92444909D01*
X142837544Y-92463212D01*
X142683225Y-92517210D01*
X142544795Y-92604192D01*
X142544794Y-92604193D01*
X142500178Y-92648808D01*
X142438855Y-92682292D01*
X142369163Y-92677306D01*
X142324818Y-92648806D01*
X142255204Y-92579192D01*
X142116774Y-92492210D01*
X141962455Y-92438212D01*
X141800004Y-92419909D01*
X141799996Y-92419909D01*
X141637544Y-92438212D01*
X141483225Y-92492210D01*
X141344795Y-92579192D01*
X141229192Y-92694795D01*
X141142210Y-92833225D01*
X141088212Y-92987544D01*
X141069909Y-93149996D01*
X139013657Y-93149996D01*
X139007789Y-93133225D01*
X138920808Y-92994796D01*
X138805204Y-92879192D01*
X138732048Y-92833225D01*
X138666774Y-92792210D01*
X138512455Y-92738212D01*
X138350004Y-92719909D01*
X138349996Y-92719909D01*
X138187544Y-92738212D01*
X138033225Y-92792210D01*
X137894795Y-92879192D01*
X137779192Y-92994795D01*
X137692210Y-93133225D01*
X137638212Y-93287544D01*
X137619909Y-93449996D01*
X137619909Y-93450003D01*
X137638212Y-93612455D01*
X137692211Y-93766776D01*
X137693628Y-93769031D01*
X137694097Y-93770693D01*
X137695231Y-93773047D01*
X137694818Y-93773245D01*
X137712622Y-93836269D01*
X137692250Y-93903103D01*
X137683268Y-93914134D01*
X137683536Y-93914348D01*
X137679194Y-93919792D01*
X137592210Y-94058225D01*
X137538212Y-94212544D01*
X137519909Y-94374996D01*
X137519909Y-94375003D01*
X137538212Y-94537455D01*
X137592211Y-94691776D01*
X137675493Y-94824317D01*
X137694494Y-94891554D01*
X137674127Y-94958389D01*
X137620859Y-95003604D01*
X137611457Y-95007331D01*
X137583225Y-95017210D01*
X137444795Y-95104192D01*
X137329192Y-95219795D01*
X137242210Y-95358225D01*
X137188212Y-95512544D01*
X137169909Y-95674996D01*
X135467600Y-95674996D01*
X135516775Y-95657789D01*
X135655204Y-95570808D01*
X135770808Y-95455204D01*
X135857789Y-95316775D01*
X135911786Y-95162461D01*
X135911862Y-95161786D01*
X135930091Y-95000003D01*
X135930091Y-94999995D01*
X135920860Y-94918077D01*
X135918290Y-94895270D01*
X135930344Y-94826450D01*
X135936511Y-94815424D01*
X135982789Y-94741775D01*
X136036786Y-94587461D01*
X136036786Y-94587459D01*
X136036787Y-94587457D01*
X136055091Y-94425003D01*
X136055091Y-94424996D01*
X136036787Y-94262544D01*
X136036786Y-94262542D01*
X136036786Y-94262539D01*
X135982789Y-94108225D01*
X135982789Y-94108224D01*
X135951451Y-94058350D01*
X135932451Y-93991113D01*
X135939403Y-93951426D01*
X135961786Y-93887461D01*
X135961862Y-93886786D01*
X135980091Y-93725003D01*
X135980091Y-93724996D01*
X135961787Y-93562544D01*
X135961786Y-93562542D01*
X135961786Y-93562539D01*
X135907789Y-93408225D01*
X135820808Y-93269796D01*
X135705204Y-93154192D01*
X135698537Y-93150003D01*
X135566777Y-93067212D01*
X135566776Y-93067211D01*
X135455127Y-93028143D01*
X135398352Y-92987421D01*
X135391089Y-92977073D01*
X135370810Y-92944798D01*
X135255204Y-92829192D01*
X135116774Y-92742210D01*
X134962455Y-92688212D01*
X134800004Y-92669909D01*
X134799996Y-92669909D01*
X134637544Y-92688212D01*
X134483225Y-92742210D01*
X134344795Y-92829192D01*
X134229192Y-92944795D01*
X134142210Y-93083225D01*
X134088212Y-93237544D01*
X134069909Y-93399996D01*
X134069909Y-93400003D01*
X134088212Y-93562455D01*
X134142211Y-93716776D01*
X134153053Y-93734032D01*
X134172051Y-93801269D01*
X134153053Y-93865968D01*
X134142211Y-93883223D01*
X134088212Y-94037544D01*
X134073934Y-94164264D01*
X134046867Y-94228678D01*
X133989272Y-94268233D01*
X133919435Y-94270370D01*
X133863033Y-94238061D01*
X133754684Y-94129712D01*
X133616254Y-94042730D01*
X133461935Y-93988732D01*
X133299484Y-93970429D01*
X133299476Y-93970429D01*
X133137024Y-93988732D01*
X132982705Y-94042730D01*
X132844275Y-94129712D01*
X132728672Y-94245315D01*
X132641690Y-94383745D01*
X132587692Y-94538064D01*
X132569389Y-94700516D01*
X132318882Y-94700516D01*
X132311787Y-94637544D01*
X132311786Y-94637542D01*
X132311786Y-94637539D01*
X132257789Y-94483225D01*
X132170808Y-94344796D01*
X132055204Y-94229192D01*
X132028701Y-94212539D01*
X131916774Y-94142210D01*
X131762455Y-94088212D01*
X131600004Y-94069909D01*
X131599996Y-94069909D01*
X131437544Y-94088212D01*
X131283225Y-94142210D01*
X131144795Y-94229192D01*
X131029192Y-94344795D01*
X130942210Y-94483225D01*
X130888212Y-94637544D01*
X130869909Y-94799996D01*
X125235711Y-94799996D01*
X125170072Y-94695532D01*
X125054468Y-94579928D01*
X124998556Y-94544796D01*
X124916038Y-94492946D01*
X124761719Y-94438948D01*
X124599268Y-94420645D01*
X124599260Y-94420645D01*
X124436808Y-94438948D01*
X124282489Y-94492946D01*
X124144059Y-94579928D01*
X124028456Y-94695531D01*
X123941474Y-94833961D01*
X123887476Y-94988280D01*
X123869173Y-95150732D01*
X118100500Y-95150732D01*
X118100500Y-92174996D01*
X158069909Y-92174996D01*
X158069909Y-92175003D01*
X158088212Y-92337455D01*
X158142210Y-92491774D01*
X158212848Y-92604193D01*
X158229192Y-92630204D01*
X158344796Y-92745808D01*
X158483225Y-92832789D01*
X158637539Y-92886786D01*
X158637542Y-92886786D01*
X158637544Y-92886787D01*
X158799996Y-92905091D01*
X158800000Y-92905091D01*
X158800004Y-92905091D01*
X158962455Y-92886787D01*
X158962456Y-92886786D01*
X158962461Y-92886786D01*
X159116775Y-92832789D01*
X159255204Y-92745808D01*
X159370808Y-92630204D01*
X159457789Y-92491775D01*
X159511786Y-92337461D01*
X159512345Y-92332500D01*
X159530091Y-92175003D01*
X159530091Y-92174996D01*
X159511787Y-92012544D01*
X159511786Y-92012542D01*
X159511786Y-92012539D01*
X159457789Y-91858225D01*
X159370808Y-91719796D01*
X159255204Y-91604192D01*
X159116774Y-91517210D01*
X158962455Y-91463212D01*
X158800004Y-91444909D01*
X158799996Y-91444909D01*
X158637544Y-91463212D01*
X158483225Y-91517210D01*
X158344795Y-91604192D01*
X158229192Y-91719795D01*
X158142210Y-91858225D01*
X158088212Y-92012544D01*
X158069909Y-92174996D01*
X118100500Y-92174996D01*
X118100500Y-91375731D01*
X120094174Y-91375731D01*
X120094174Y-91375738D01*
X120112477Y-91538190D01*
X120166475Y-91692509D01*
X120253457Y-91830939D01*
X120369061Y-91946543D01*
X120507490Y-92033524D01*
X120661804Y-92087521D01*
X120661807Y-92087521D01*
X120661809Y-92087522D01*
X120824261Y-92105826D01*
X120824265Y-92105826D01*
X120824269Y-92105826D01*
X120986720Y-92087522D01*
X120986721Y-92087521D01*
X120986726Y-92087521D01*
X121141040Y-92033524D01*
X121279469Y-91946543D01*
X121395073Y-91830939D01*
X121482054Y-91692510D01*
X121536051Y-91538196D01*
X121536052Y-91538190D01*
X121554356Y-91375738D01*
X121554356Y-91375731D01*
X121536052Y-91213279D01*
X121536051Y-91213277D01*
X121536051Y-91213274D01*
X121482054Y-91058960D01*
X121395073Y-90920531D01*
X121279469Y-90804927D01*
X121278926Y-90804586D01*
X121141039Y-90717945D01*
X120986720Y-90663947D01*
X120824269Y-90645644D01*
X120824261Y-90645644D01*
X120661809Y-90663947D01*
X120507490Y-90717945D01*
X120369060Y-90804927D01*
X120253457Y-90920530D01*
X120166475Y-91058960D01*
X120112477Y-91213279D01*
X120094174Y-91375731D01*
X118100500Y-91375731D01*
X118100500Y-89799996D01*
X134869909Y-89799996D01*
X134869909Y-89800003D01*
X134888212Y-89962455D01*
X134942210Y-90116774D01*
X134942211Y-90116775D01*
X135029192Y-90255204D01*
X135144796Y-90370808D01*
X135283225Y-90457789D01*
X135437539Y-90511786D01*
X135437542Y-90511786D01*
X135437544Y-90511787D01*
X135599996Y-90530091D01*
X135600000Y-90530091D01*
X135600004Y-90530091D01*
X135762455Y-90511787D01*
X135762456Y-90511786D01*
X135762461Y-90511786D01*
X135916775Y-90457789D01*
X136055204Y-90370808D01*
X136170808Y-90255204D01*
X136257789Y-90116775D01*
X136311786Y-89962461D01*
X136321532Y-89875965D01*
X136330091Y-89800003D01*
X136330091Y-89799996D01*
X136311787Y-89637544D01*
X136311786Y-89637542D01*
X136311786Y-89637539D01*
X136257789Y-89483225D01*
X136170808Y-89344796D01*
X136055204Y-89229192D01*
X135916774Y-89142210D01*
X135762455Y-89088212D01*
X135600004Y-89069909D01*
X135599996Y-89069909D01*
X135437544Y-89088212D01*
X135283225Y-89142210D01*
X135144795Y-89229192D01*
X135029192Y-89344795D01*
X134942210Y-89483225D01*
X134888212Y-89637544D01*
X134869909Y-89799996D01*
X118100500Y-89799996D01*
X118100500Y-85714996D01*
X120119909Y-85714996D01*
X120119909Y-85715003D01*
X120138212Y-85877455D01*
X120192210Y-86031774D01*
X120254058Y-86130204D01*
X120279192Y-86170204D01*
X120394796Y-86285808D01*
X120533225Y-86372789D01*
X120687539Y-86426786D01*
X120687542Y-86426786D01*
X120687544Y-86426787D01*
X120849996Y-86445091D01*
X120850000Y-86445091D01*
X120850004Y-86445091D01*
X121012455Y-86426787D01*
X121012456Y-86426786D01*
X121012461Y-86426786D01*
X121166775Y-86372789D01*
X121305204Y-86285808D01*
X121420808Y-86170204D01*
X121507789Y-86031775D01*
X121561786Y-85877461D01*
X121561977Y-85875765D01*
X121580091Y-85715003D01*
X121580091Y-85714996D01*
X121561787Y-85552544D01*
X121561786Y-85552542D01*
X121561786Y-85552539D01*
X121507789Y-85398225D01*
X121420808Y-85259796D01*
X121305204Y-85144192D01*
X121254318Y-85112218D01*
X121166774Y-85057210D01*
X121012455Y-85003212D01*
X120850004Y-84984909D01*
X120849996Y-84984909D01*
X120687544Y-85003212D01*
X120533225Y-85057210D01*
X120394795Y-85144192D01*
X120279192Y-85259795D01*
X120192210Y-85398225D01*
X120138212Y-85552544D01*
X120119909Y-85714996D01*
X118100500Y-85714996D01*
X118100500Y-82972194D01*
X118120185Y-82905155D01*
X118172989Y-82859400D01*
X118242147Y-82849456D01*
X118293391Y-82869092D01*
X118393189Y-82935775D01*
X118393191Y-82935776D01*
X118393195Y-82935778D01*
X118511259Y-82984681D01*
X118520672Y-82988580D01*
X118520676Y-82988580D01*
X118520677Y-82988581D01*
X118656004Y-83015500D01*
X118656007Y-83015500D01*
X118793995Y-83015500D01*
X118902532Y-82993910D01*
X118929328Y-82988580D01*
X119056811Y-82935775D01*
X119171542Y-82859114D01*
X119269114Y-82761542D01*
X119345775Y-82646811D01*
X119398580Y-82519328D01*
X119425500Y-82383995D01*
X122274499Y-82383995D01*
X122301418Y-82519322D01*
X122301421Y-82519332D01*
X122354221Y-82646804D01*
X122354228Y-82646817D01*
X122430885Y-82761541D01*
X122430888Y-82761545D01*
X122528454Y-82859111D01*
X122528458Y-82859114D01*
X122643182Y-82935771D01*
X122643195Y-82935778D01*
X122761259Y-82984681D01*
X122770672Y-82988580D01*
X122770676Y-82988580D01*
X122770677Y-82988581D01*
X122906004Y-83015500D01*
X122906007Y-83015500D01*
X123043995Y-83015500D01*
X123152532Y-82993910D01*
X123179328Y-82988580D01*
X123306811Y-82935775D01*
X123421542Y-82859114D01*
X123519114Y-82761542D01*
X123595775Y-82646811D01*
X123648580Y-82519328D01*
X123675500Y-82383993D01*
X123675500Y-82246007D01*
X123675500Y-82246004D01*
X123648581Y-82110677D01*
X123648580Y-82110676D01*
X123648580Y-82110672D01*
X123638257Y-82085750D01*
X123595778Y-81983195D01*
X123595771Y-81983182D01*
X123519114Y-81868458D01*
X123519111Y-81868454D01*
X123421545Y-81770888D01*
X123421541Y-81770885D01*
X123306817Y-81694228D01*
X123306804Y-81694221D01*
X123179332Y-81641421D01*
X123179322Y-81641418D01*
X123043995Y-81614500D01*
X123043993Y-81614500D01*
X122906007Y-81614500D01*
X122906005Y-81614500D01*
X122770677Y-81641418D01*
X122770667Y-81641421D01*
X122643195Y-81694221D01*
X122643182Y-81694228D01*
X122528458Y-81770885D01*
X122528454Y-81770888D01*
X122430888Y-81868454D01*
X122430885Y-81868458D01*
X122354228Y-81983182D01*
X122354221Y-81983195D01*
X122301421Y-82110667D01*
X122301418Y-82110677D01*
X122274500Y-82246004D01*
X122274500Y-82246007D01*
X122274500Y-82383993D01*
X122274500Y-82383995D01*
X122274499Y-82383995D01*
X119425500Y-82383995D01*
X119425500Y-82383993D01*
X119425500Y-82246007D01*
X119425500Y-82246004D01*
X119398581Y-82110677D01*
X119398580Y-82110676D01*
X119398580Y-82110672D01*
X119388257Y-82085750D01*
X119345778Y-81983195D01*
X119345771Y-81983182D01*
X119269114Y-81868458D01*
X119269111Y-81868454D01*
X119171545Y-81770888D01*
X119171541Y-81770885D01*
X119056817Y-81694228D01*
X119056804Y-81694221D01*
X118929332Y-81641421D01*
X118929322Y-81641418D01*
X118793995Y-81614500D01*
X118793993Y-81614500D01*
X118656007Y-81614500D01*
X118656005Y-81614500D01*
X118514698Y-81642608D01*
X118514463Y-81641427D01*
X118450964Y-81641986D01*
X118391856Y-81604731D01*
X118362272Y-81541433D01*
X118371606Y-81472190D01*
X118383731Y-81445249D01*
X118390676Y-81432016D01*
X118539080Y-81186526D01*
X118547567Y-81174230D01*
X118724480Y-80948417D01*
X118734395Y-80937226D01*
X118937226Y-80734395D01*
X118948417Y-80724480D01*
X119174230Y-80547567D01*
X119186526Y-80539080D01*
X119432016Y-80390676D01*
X119445249Y-80383731D01*
X119706841Y-80265998D01*
X119720822Y-80260696D01*
X119994668Y-80175362D01*
X120009197Y-80171780D01*
X120291344Y-80120075D01*
X120306201Y-80118271D01*
X120596264Y-80100726D01*
X120603751Y-80100500D01*
X120665892Y-80100500D01*
X125132763Y-80100500D01*
X125199802Y-80120185D01*
G37*
G04 #@! TD.AperFunction*
M02*
