G04 #@! TF.GenerationSoftware,KiCad,Pcbnew,8.0.7*
G04 #@! TF.CreationDate,2025-01-11T17:49:48-05:00*
G04 #@! TF.ProjectId,STM32H750VBT6_Minimalistic_Design,53544d33-3248-4373-9530-564254365f4d,rev?*
G04 #@! TF.SameCoordinates,Original*
G04 #@! TF.FileFunction,Copper,L5,Inr*
G04 #@! TF.FilePolarity,Positive*
%FSLAX46Y46*%
G04 Gerber Fmt 4.6, Leading zero omitted, Abs format (unit mm)*
G04 Created by KiCad (PCBNEW 8.0.7) date 2025-01-11 17:49:48*
%MOMM*%
%LPD*%
G01*
G04 APERTURE LIST*
G04 #@! TA.AperFunction,HeatsinkPad*
%ADD10C,0.500000*%
G04 #@! TD*
G04 #@! TA.AperFunction,ComponentPad*
%ADD11R,1.700000X1.700000*%
G04 #@! TD*
G04 #@! TA.AperFunction,ComponentPad*
%ADD12O,1.700000X1.700000*%
G04 #@! TD*
G04 #@! TA.AperFunction,ComponentPad*
%ADD13O,1.000000X2.100000*%
G04 #@! TD*
G04 #@! TA.AperFunction,ComponentPad*
%ADD14O,1.000000X1.800000*%
G04 #@! TD*
G04 #@! TA.AperFunction,ComponentPad*
%ADD15R,1.500000X1.500000*%
G04 #@! TD*
G04 #@! TA.AperFunction,ComponentPad*
%ADD16C,1.500000*%
G04 #@! TD*
G04 #@! TA.AperFunction,ViaPad*
%ADD17C,0.450000*%
G04 #@! TD*
G04 #@! TA.AperFunction,Conductor*
%ADD18C,0.150000*%
G04 #@! TD*
G04 APERTURE END LIST*
D10*
X143250000Y-120137500D03*
X143250000Y-119137500D03*
X143250000Y-118137500D03*
X142250000Y-120137500D03*
X142250000Y-119137500D03*
X142250000Y-118137500D03*
X141250000Y-120137500D03*
X141250000Y-119137500D03*
X141250000Y-118137500D03*
D11*
X164800000Y-85970000D03*
D12*
X164800000Y-88510000D03*
X164800000Y-91050000D03*
X164800000Y-93590000D03*
X164800000Y-96130000D03*
D13*
X146720000Y-86300000D03*
D14*
X146720000Y-82120000D03*
D13*
X138080000Y-86300000D03*
D14*
X138080000Y-82120000D03*
D11*
X153400000Y-103775000D03*
D12*
X153400000Y-106315000D03*
X153400000Y-108855000D03*
X153400000Y-111395000D03*
X153400000Y-113935000D03*
X153400000Y-116475000D03*
X153400000Y-119015000D03*
X153400000Y-121555000D03*
X153400000Y-124095000D03*
X153400000Y-126635000D03*
D11*
X157200000Y-98660000D03*
D12*
X157200000Y-101200000D03*
X157200000Y-103740000D03*
X157200000Y-106280000D03*
X157200000Y-108820000D03*
X157200000Y-111360000D03*
X157200000Y-113900000D03*
X157200000Y-116440000D03*
X157200000Y-118980000D03*
X157200000Y-121520000D03*
X157200000Y-124060000D03*
X157200000Y-126600000D03*
D11*
X164800000Y-98720000D03*
D12*
X164800000Y-101260000D03*
X164800000Y-103800000D03*
X164800000Y-106340000D03*
X164800000Y-108880000D03*
X164800000Y-111420000D03*
X164800000Y-113960000D03*
X164800000Y-116500000D03*
X164800000Y-119040000D03*
X164800000Y-121580000D03*
X164800000Y-124120000D03*
X164800000Y-126660000D03*
D11*
X126200000Y-81660000D03*
D12*
X126200000Y-84200000D03*
X126200000Y-86740000D03*
D15*
X121200000Y-117180000D03*
D16*
X123740000Y-118450000D03*
X121200000Y-119720000D03*
X123740000Y-120990000D03*
X121200000Y-122260000D03*
X123740000Y-123530000D03*
X121200000Y-124800000D03*
X123740000Y-126070000D03*
D11*
X138720000Y-127400000D03*
D12*
X141260000Y-127400000D03*
X143800000Y-127400000D03*
X146340000Y-127400000D03*
D11*
X133800000Y-81600000D03*
D12*
X133800000Y-84140000D03*
X133800000Y-86680000D03*
D11*
X161000000Y-98660000D03*
D12*
X161000000Y-101200000D03*
X161000000Y-103740000D03*
X161000000Y-106280000D03*
X161000000Y-108820000D03*
X161000000Y-111360000D03*
X161000000Y-113900000D03*
X161000000Y-116440000D03*
X161000000Y-118980000D03*
X161000000Y-121520000D03*
X161000000Y-124060000D03*
X161000000Y-126600000D03*
D11*
X130000000Y-81660000D03*
D12*
X130000000Y-84200000D03*
X130000000Y-86740000D03*
D11*
X161000000Y-96120000D03*
D12*
X161000000Y-93580000D03*
X161000000Y-91040000D03*
X161000000Y-88500000D03*
X161000000Y-85960000D03*
D17*
X158200000Y-81600000D03*
X152075000Y-81250000D03*
X153850000Y-81250000D03*
X148625000Y-86825000D03*
X142400000Y-88650003D03*
X138400000Y-87750000D03*
X149700000Y-114100000D03*
X145200000Y-122400000D03*
X151400000Y-96200000D03*
X125025000Y-86750000D03*
X148750000Y-89400000D03*
X145600000Y-88325003D03*
X148625000Y-88575000D03*
X136925000Y-94425000D03*
X119650000Y-84315000D03*
X144400000Y-123200000D03*
X145975000Y-125725000D03*
X156900000Y-89375000D03*
X124800000Y-105000000D03*
X119250000Y-84915000D03*
X148450000Y-98875000D03*
X146300000Y-87850000D03*
X124400000Y-105575000D03*
X149700000Y-114800000D03*
X150400000Y-114100000D03*
X153000000Y-95400000D03*
X124450000Y-86825000D03*
X137600000Y-94400000D03*
X151400000Y-95400000D03*
X137400000Y-93600000D03*
X132050000Y-97825000D03*
X133025000Y-107125000D03*
X153800000Y-95400000D03*
X123600000Y-87400000D03*
X152200000Y-96200000D03*
X149250000Y-90025000D03*
X145200000Y-123200000D03*
X160800000Y-81800000D03*
X146372394Y-125400000D03*
X153000000Y-96200000D03*
X161400000Y-82175000D03*
X124675000Y-86275000D03*
X150400000Y-115600000D03*
X149425000Y-88575000D03*
X139200000Y-87750000D03*
X162120000Y-82200000D03*
X124675000Y-87375000D03*
X122075000Y-84365000D03*
X153800000Y-96200000D03*
X136600000Y-93200000D03*
X160800000Y-82600000D03*
X124000000Y-105000000D03*
X150425000Y-114825000D03*
X136400000Y-102800000D03*
X122075000Y-83215000D03*
X152200000Y-95400000D03*
X122075000Y-85165000D03*
X123600000Y-86200000D03*
X149700000Y-115600000D03*
X145600000Y-87700000D03*
X139120000Y-88800000D03*
X136400000Y-110600000D03*
X119650000Y-85515000D03*
X138400000Y-89000000D03*
X148750000Y-90025000D03*
X149425000Y-87675000D03*
X148325000Y-110750000D03*
X132658946Y-97833946D03*
X149250000Y-89400000D03*
X146850000Y-125750000D03*
X146300000Y-88925000D03*
X155775000Y-89800000D03*
X149425000Y-86825000D03*
X148625000Y-87675000D03*
X156900000Y-90125000D03*
X124400000Y-106800000D03*
X131200000Y-102600000D03*
X121000000Y-101000000D03*
X135200000Y-95000000D03*
X131800000Y-108450000D03*
X136200000Y-80400000D03*
X136200000Y-81200000D03*
X138400000Y-125800000D03*
X152000000Y-98350000D03*
X135325000Y-94425000D03*
X132425000Y-108450000D03*
X120590000Y-99600000D03*
X134600000Y-95000000D03*
X138800000Y-125400000D03*
X152600000Y-84700000D03*
X148125000Y-113600000D03*
X136200000Y-82800000D03*
X153400000Y-85600000D03*
X136200000Y-82000000D03*
X134800000Y-94200000D03*
X152600000Y-85600000D03*
X136825000Y-114425000D03*
X132850000Y-103550000D03*
X120200000Y-101000000D03*
X153400000Y-83800000D03*
X137600000Y-113613672D03*
X139200000Y-125800000D03*
X120600000Y-101400000D03*
X137600000Y-114400000D03*
X152600000Y-83800000D03*
X134800000Y-93400000D03*
X151400000Y-98600000D03*
X135250000Y-93725000D03*
X153400000Y-84700000D03*
X133299480Y-94700520D03*
X132650000Y-88400000D03*
X139425000Y-98025000D03*
X151712500Y-109512500D03*
X133475000Y-105475000D03*
X151750000Y-110575000D03*
X145237500Y-113762500D03*
X148400000Y-108800000D03*
X148850000Y-105250000D03*
X145959901Y-98832949D03*
X145199479Y-125599479D03*
X148818001Y-100024001D03*
X141775000Y-110600000D03*
X136025000Y-108975000D03*
X137650000Y-110600000D03*
X135225000Y-111550000D03*
X144725000Y-110850000D03*
X147600000Y-110400000D03*
X144800000Y-104600000D03*
X149000000Y-99400000D03*
X144575000Y-101600000D03*
X146375000Y-98200000D03*
X145100000Y-98700000D03*
X146525000Y-115275000D03*
X141800000Y-108600000D03*
X152300000Y-115200000D03*
X141900000Y-113250000D03*
X163000000Y-115400000D03*
X148600000Y-117000000D03*
X146575001Y-117650000D03*
X163000000Y-118000000D03*
X151000000Y-122400000D03*
X143150000Y-95500000D03*
X143950000Y-95525000D03*
X133400000Y-98900000D03*
X147425000Y-95450000D03*
X144400000Y-121625000D03*
X138400000Y-110975000D03*
X149000000Y-124200000D03*
X151375000Y-107900000D03*
X133475000Y-100225000D03*
X138350000Y-93450000D03*
X157200000Y-95000000D03*
X165000000Y-82800000D03*
X141750000Y-102075000D03*
X158800000Y-92175000D03*
X149800000Y-126200000D03*
X140350000Y-116425000D03*
X140400000Y-113100000D03*
X146450000Y-102750000D03*
X144783969Y-113219325D03*
X144200000Y-110425000D03*
X151375000Y-107075000D03*
X145500000Y-114417894D03*
X136000000Y-100300000D03*
X137900000Y-95675000D03*
X142800000Y-98800000D03*
X138250000Y-94375000D03*
X136125000Y-107350000D03*
X139400000Y-109000000D03*
X139500000Y-114775000D03*
X146720002Y-95134998D03*
X143400000Y-113250000D03*
X139575000Y-94575000D03*
X146200000Y-95525000D03*
X156800000Y-96800000D03*
X144400000Y-98025000D03*
X148550000Y-104650000D03*
X133450000Y-99550000D03*
X142200000Y-98400000D03*
X136225000Y-106550000D03*
X135900000Y-104900000D03*
X120850000Y-85715000D03*
X120824265Y-91375735D03*
X124599264Y-95150736D03*
X134350000Y-111650000D03*
X133725000Y-98200000D03*
X131600000Y-94800000D03*
X131150000Y-88400000D03*
X136568435Y-101135853D03*
X135600000Y-89800000D03*
X140625000Y-94450000D03*
X136600000Y-108600000D03*
X142150000Y-85650000D03*
X143150000Y-85675000D03*
X145200000Y-116275000D03*
X138900000Y-116775000D03*
X141000000Y-121975000D03*
X139600000Y-122000000D03*
X139600000Y-124400000D03*
X137400000Y-124200000D03*
X147745298Y-100825001D03*
X141800000Y-93150000D03*
X143575000Y-114950000D03*
X139500000Y-116150000D03*
X143000000Y-93175000D03*
X147400000Y-100057106D03*
X139600000Y-120400000D03*
X146575000Y-121850000D03*
X138850000Y-115950000D03*
X139900000Y-110425000D03*
X137400000Y-116800000D03*
X140300000Y-117500000D03*
X138123744Y-107875214D03*
X127400000Y-108400000D03*
X141200000Y-113250000D03*
X132000000Y-111400000D03*
X141400000Y-110000000D03*
X137500000Y-98900000D03*
X131950000Y-109550000D03*
X131999479Y-110450000D03*
X140062500Y-109287500D03*
X145200000Y-108800000D03*
X134400000Y-97675000D03*
X144925000Y-107000000D03*
X138400000Y-100600000D03*
X153025000Y-84275000D03*
X153000000Y-81250000D03*
D18*
X146000000Y-114000000D02*
X146000000Y-106450000D01*
X152640000Y-99810000D02*
X163710000Y-99810000D01*
X163710000Y-99810000D02*
X164800000Y-98720000D01*
X145582106Y-114417894D02*
X146000000Y-114000000D01*
X146000000Y-106450000D02*
X152640000Y-99810000D01*
X145500000Y-114417894D02*
X145582106Y-114417894D01*
X162800000Y-103200000D02*
X162860000Y-103200000D01*
X162860000Y-103200000D02*
X164800000Y-101260000D01*
X161236346Y-105130000D02*
X162800000Y-103566346D01*
X160470000Y-105130000D02*
X161236346Y-105130000D01*
X157446346Y-110200000D02*
X158400000Y-109246346D01*
X155600000Y-111626346D02*
X155600000Y-110200000D01*
X156723654Y-112750000D02*
X155600000Y-111626346D01*
X157676346Y-112750000D02*
X156723654Y-112750000D01*
X158350000Y-113423654D02*
X157676346Y-112750000D01*
X162800000Y-103566346D02*
X162800000Y-103200000D01*
X158350000Y-121996346D02*
X158350000Y-113423654D01*
X155600000Y-110200000D02*
X157446346Y-110200000D01*
X157676346Y-122670000D02*
X158350000Y-121996346D01*
X156381346Y-122670000D02*
X157676346Y-122670000D01*
X153876346Y-120165000D02*
X156381346Y-122670000D01*
X145552081Y-115150000D02*
X150567081Y-120165000D01*
X145525000Y-115150000D02*
X145552081Y-115150000D01*
X158400000Y-109246346D02*
X158400000Y-107200000D01*
X144975000Y-114025000D02*
X144975000Y-114600000D01*
X158400000Y-107200000D02*
X160470000Y-105130000D01*
X145237500Y-113762500D02*
X144975000Y-114025000D01*
X144975000Y-114600000D02*
X145525000Y-115150000D01*
X150567081Y-120165000D02*
X153876346Y-120165000D01*
X162825686Y-108314314D02*
X164800000Y-106340000D01*
X162825686Y-111160660D02*
X162825686Y-108314314D01*
X161476346Y-112510000D02*
X162825686Y-111160660D01*
X160523654Y-112510000D02*
X161476346Y-112510000D01*
X159150000Y-113883654D02*
X160523654Y-112510000D01*
X159150000Y-126276346D02*
X159150000Y-113883654D01*
X157676346Y-127750000D02*
X159150000Y-126276346D01*
X152923654Y-125245000D02*
X153876346Y-125245000D01*
X144250000Y-116571346D02*
X152923654Y-125245000D01*
X153876346Y-125245000D02*
X156381346Y-127750000D01*
X144250000Y-113143733D02*
X144250000Y-116571346D01*
X156381346Y-127750000D02*
X157676346Y-127750000D01*
X144300000Y-113093733D02*
X144250000Y-113143733D01*
X144300000Y-111275000D02*
X144300000Y-113093733D01*
X144725000Y-110850000D02*
X144300000Y-111275000D01*
X162150000Y-106450000D02*
X164800000Y-103800000D01*
X162150000Y-109296346D02*
X162150000Y-106450000D01*
X161246346Y-110200000D02*
X162150000Y-109296346D01*
X159487968Y-110200000D02*
X161246346Y-110200000D01*
X158750000Y-124136346D02*
X158750000Y-110937968D01*
X157676346Y-125210000D02*
X158750000Y-124136346D01*
X156723654Y-125210000D02*
X157676346Y-125210000D01*
X154349339Y-122835685D02*
X156723654Y-125210000D01*
X152742792Y-122835685D02*
X154349339Y-122835685D01*
X145325000Y-115500000D02*
X145407107Y-115500000D01*
X144783969Y-113219325D02*
X144600000Y-113403294D01*
X158750000Y-110937968D02*
X159487968Y-110200000D01*
X144600000Y-113403294D02*
X144600000Y-114775000D01*
X144600000Y-114775000D02*
X145325000Y-115500000D01*
X145407107Y-115500000D02*
X152742792Y-122835685D01*
X163650000Y-110030000D02*
X164800000Y-108880000D01*
X163650000Y-112876346D02*
X163650000Y-110030000D01*
X161476346Y-115050000D02*
X163650000Y-112876346D01*
X160274314Y-115050000D02*
X161476346Y-115050000D01*
X159550000Y-115774314D02*
X160274314Y-115050000D01*
X159550000Y-126442032D02*
X159550000Y-115774314D01*
X153288654Y-128150000D02*
X157842032Y-128150000D01*
X152250000Y-127111346D02*
X153288654Y-128150000D01*
X157842032Y-128150000D02*
X159550000Y-126442032D01*
X142975000Y-115862032D02*
X152250000Y-125137032D01*
X142975000Y-114725000D02*
X142975000Y-115862032D01*
X143900000Y-113800000D02*
X142975000Y-114725000D01*
X143900000Y-112998758D02*
X143900000Y-113800000D01*
X152250000Y-125137032D02*
X152250000Y-127111346D01*
X143950000Y-112948758D02*
X143900000Y-112998758D01*
X143950000Y-110675000D02*
X143950000Y-112948758D01*
X144200000Y-110425000D02*
X143950000Y-110675000D01*
X140775000Y-109625000D02*
X141800000Y-108600000D01*
X140775000Y-110350000D02*
X140775000Y-109625000D01*
X141900000Y-111475000D02*
X140775000Y-110350000D01*
X141900000Y-113250000D02*
X141900000Y-111475000D01*
X146575001Y-117975001D02*
X151000000Y-122400000D01*
X146575001Y-117650000D02*
X146575001Y-117975001D01*
X164800000Y-112292032D02*
X164800000Y-111420000D01*
X162400000Y-114692032D02*
X164800000Y-112292032D01*
X160676346Y-128550000D02*
X162400000Y-126826346D01*
X151850000Y-127277032D02*
X153122968Y-128550000D01*
X151850000Y-125302718D02*
X151850000Y-127277032D01*
X142400000Y-115852718D02*
X151850000Y-125302718D01*
X162400000Y-126826346D02*
X162400000Y-114692032D01*
X142400000Y-114700000D02*
X142400000Y-115852718D01*
X143200000Y-113450000D02*
X143200000Y-113900000D01*
X143200000Y-113900000D02*
X142400000Y-114700000D01*
X153122968Y-128550000D02*
X160676346Y-128550000D01*
X143400000Y-113250000D02*
X143200000Y-113450000D01*
X163640000Y-84810000D02*
X164800000Y-85970000D01*
X159466346Y-82800000D02*
X161476346Y-84810000D01*
X161476346Y-84810000D02*
X163640000Y-84810000D01*
X147894594Y-82800000D02*
X159466346Y-82800000D01*
X145569594Y-85125000D02*
X147894594Y-82800000D01*
X145010406Y-85125000D02*
X145569594Y-85125000D01*
X138350000Y-93450000D02*
X144615000Y-87185000D01*
X144615000Y-85520406D02*
X145010406Y-85125000D01*
X144615000Y-87185000D02*
X144615000Y-85520406D01*
X160523654Y-87350000D02*
X163640000Y-87350000D01*
X159348654Y-86175000D02*
X160523654Y-87350000D01*
X147975000Y-86423959D02*
X148223959Y-86175000D01*
X147975000Y-89875000D02*
X147975000Y-86423959D01*
X148223959Y-86175000D02*
X159348654Y-86175000D01*
X138250000Y-94350000D02*
X142725000Y-89875000D01*
X163640000Y-87350000D02*
X164800000Y-88510000D01*
X142725000Y-89875000D02*
X147975000Y-89875000D01*
X138250000Y-94375000D02*
X138250000Y-94350000D01*
X163640000Y-89890000D02*
X164800000Y-91050000D01*
X157975000Y-90625000D02*
X158710000Y-89890000D01*
X142775000Y-90625000D02*
X157975000Y-90625000D01*
X137900000Y-95500000D02*
X142775000Y-90625000D01*
X137900000Y-95675000D02*
X137900000Y-95500000D01*
X158710000Y-89890000D02*
X163640000Y-89890000D01*
X142315318Y-116425000D02*
X149800000Y-123909682D01*
X140350000Y-116425000D02*
X142315318Y-116425000D01*
X149800000Y-123909682D02*
X149800000Y-126200000D01*
X154600000Y-107600000D02*
X154800000Y-107800000D01*
X153058654Y-107600000D02*
X154600000Y-107600000D01*
X154800000Y-114040000D02*
X157200000Y-116440000D01*
X152533654Y-107075000D02*
X153058654Y-107600000D01*
X151375000Y-107075000D02*
X152533654Y-107075000D01*
X154800000Y-107800000D02*
X154800000Y-114040000D01*
X136700000Y-111550000D02*
X135225000Y-111550000D01*
X137650000Y-110600000D02*
X136700000Y-111550000D01*
X155200000Y-113400000D02*
X155700000Y-113900000D01*
X151400000Y-105400000D02*
X151635000Y-105165000D01*
X154365000Y-105165000D02*
X155200000Y-106000000D01*
X155700000Y-113900000D02*
X157200000Y-113900000D01*
X149000000Y-105400000D02*
X151400000Y-105400000D01*
X148850000Y-105250000D02*
X149000000Y-105400000D01*
X151635000Y-105165000D02*
X154365000Y-105165000D01*
X155200000Y-106000000D02*
X155200000Y-113400000D01*
X145600000Y-106100000D02*
X145600000Y-107107107D01*
X142107107Y-110600000D02*
X141775000Y-110600000D01*
X154190000Y-97510000D02*
X145600000Y-106100000D01*
X165890000Y-97510000D02*
X154190000Y-97510000D01*
X164800000Y-113960000D02*
X165950000Y-112810000D01*
X165950000Y-112810000D02*
X165950000Y-97570000D01*
X165950000Y-97570000D02*
X165890000Y-97510000D01*
X145600000Y-107107107D02*
X142107107Y-110600000D01*
X156180000Y-118980000D02*
X157200000Y-118980000D01*
X155400000Y-118200000D02*
X156180000Y-118980000D01*
X155400000Y-116000000D02*
X155400000Y-118200000D01*
X154600000Y-115200000D02*
X155400000Y-116000000D01*
X153038654Y-115200000D02*
X154600000Y-115200000D01*
X152250000Y-108775000D02*
X152250000Y-114411346D01*
X152250000Y-114411346D02*
X153038654Y-115200000D01*
X151375000Y-107900000D02*
X152250000Y-108775000D01*
X153811346Y-117800000D02*
X157200000Y-121188654D01*
X151800000Y-112200000D02*
X151800000Y-116501346D01*
X148400000Y-108800000D02*
X151800000Y-112200000D01*
X151800000Y-116501346D02*
X153098654Y-117800000D01*
X157200000Y-121188654D02*
X157200000Y-121520000D01*
X153098654Y-117800000D02*
X153811346Y-117800000D01*
X165950000Y-116023654D02*
X165276346Y-115350000D01*
X163050000Y-115350000D02*
X163000000Y-115400000D01*
X164800000Y-119040000D02*
X164800000Y-118126346D01*
X164800000Y-118126346D02*
X165950000Y-116976346D01*
X165950000Y-116976346D02*
X165950000Y-116023654D01*
X165276346Y-115350000D02*
X163050000Y-115350000D01*
X163300000Y-118000000D02*
X163000000Y-118000000D01*
X164800000Y-116500000D02*
X163300000Y-118000000D01*
G04 #@! TA.AperFunction,Conductor*
G36*
X132815677Y-97419685D02*
G01*
X132836319Y-97436319D01*
X132963681Y-97563681D01*
X132997166Y-97625004D01*
X133000000Y-97651362D01*
X133000000Y-97948638D01*
X132980315Y-98015677D01*
X132963681Y-98036319D01*
X132836319Y-98163681D01*
X132774996Y-98197166D01*
X132748638Y-98200000D01*
X132600000Y-98200000D01*
X132600000Y-98476000D01*
X132580315Y-98543039D01*
X132527511Y-98588794D01*
X132476000Y-98600000D01*
X132324000Y-98600000D01*
X132256961Y-98580315D01*
X132211206Y-98527511D01*
X132200000Y-98476000D01*
X132200000Y-98200000D01*
X132051362Y-98200000D01*
X131984323Y-98180315D01*
X131963681Y-98163681D01*
X131836319Y-98036319D01*
X131802834Y-97974996D01*
X131800000Y-97948638D01*
X131800000Y-97651362D01*
X131819685Y-97584323D01*
X131836319Y-97563681D01*
X131963681Y-97436319D01*
X132025004Y-97402834D01*
X132051362Y-97400000D01*
X132748638Y-97400000D01*
X132815677Y-97419685D01*
G37*
G04 #@! TD.AperFunction*
M02*
